<svg width="77" height="77" viewBox="0 0 77 77" fill="none" xmlns="http://www.w3.org/2000/svg">
<path d="M76.707 -76.574C61.5673 -76.574 46.7675 -72.083 34.1793 -63.6689C21.591 -55.2549 11.7797 -43.2956 5.98598 -29.3036C0.192247 -15.3115 -1.32366 0.0849534 1.62996 14.9388C4.58358 29.7927 11.8741 43.4369 22.5795 54.146C33.2849 64.855 46.9244 72.148 61.7733 75.1026C76.6221 78.0572 92.0134 76.5408 106.001 70.7451C119.988 64.9494 131.943 55.1347 140.354 42.5422C148.766 29.9497 153.255 15.1449 153.255 9.35086e-07L76.707 4.28224e-06L76.707 -76.574Z" fill="url(#paint0_linear_1_413)" fill-opacity="0.5"/>
<defs>
<linearGradient id="paint0_linear_1_413" x1="0.159115" y1="7.62939e-06" x2="153.255" y2="9.39637e-07" gradientUnits="userSpaceOnUse">
<stop stop-color="#FE23C7"/>
<stop offset="1" stop-color="#FFB953"/>
</linearGradient>
</defs>
</svg>
