<svg width="29" height="28" viewBox="0 0 29 28" fill="none" xmlns="http://www.w3.org/2000/svg">
<path d="M12.578 19.1902L7.73244 14.3435L9.34723 12.7288L12.578 15.9583L19.0371 9.49803L20.6531 11.114L12.578 19.1879V19.1902Z" fill="black"/>
<path fill-rule="evenodd" clip-rule="evenodd" d="M2.02242 6.27054C2.02242 5.05903 2.50369 3.89714 3.36035 3.04047C4.21702 2.1838 5.37891 1.70253 6.59043 1.70253H22.5785C23.79 1.70253 24.9519 2.1838 25.8085 3.04047C26.6652 3.89714 27.1465 5.05903 27.1465 6.27054V22.2586C27.1465 23.4701 26.6652 24.632 25.8085 25.4887C24.9519 26.3453 23.79 26.8266 22.5785 26.8266H6.59043C5.37891 26.8266 4.21702 26.3453 3.36035 25.4887C2.50369 24.632 2.02242 23.4701 2.02242 22.2586V6.27054ZM6.59043 3.98654H22.5785C23.1842 3.98654 23.7652 4.22717 24.1935 4.65551C24.6218 5.08384 24.8625 5.66479 24.8625 6.27054V22.2586C24.8625 22.8643 24.6218 23.4453 24.1935 23.8736C23.7652 24.302 23.1842 24.5426 22.5785 24.5426H6.59043C5.98467 24.5426 5.40372 24.302 4.97539 23.8736C4.54706 23.4453 4.30642 22.8643 4.30642 22.2586V6.27054C4.30642 5.66479 4.54706 5.08384 4.97539 4.65551C5.40372 4.22717 5.98467 3.98654 6.59043 3.98654Z" fill="black"/>
</svg>
