<svg width="28" height="28" viewBox="0 0 28 28" fill="none" xmlns="http://www.w3.org/2000/svg">
<path fill-rule="evenodd" clip-rule="evenodd" d="M1.55905 6.27054C1.55905 5.05903 2.04032 3.89714 2.89699 3.04047C3.75366 2.1838 4.91555 1.70253 6.12706 1.70253H22.1151C23.3266 1.70253 24.4885 2.1838 25.3452 3.04047C26.2018 3.89714 26.6831 5.05903 26.6831 6.27054V22.2586C26.6831 23.4701 26.2018 24.632 25.3452 25.4887C24.4885 26.3453 23.3266 26.8266 22.1151 26.8266H6.12706C4.91555 26.8266 3.75366 26.3453 2.89699 25.4887C2.04032 24.632 1.55905 23.4701 1.55905 22.2586V6.27054ZM6.12706 3.98654H22.1151C22.7209 3.98654 23.3018 4.22717 23.7301 4.65551C24.1585 5.08384 24.3991 5.66479 24.3991 6.27054V22.2586C24.3991 22.8643 24.1585 23.4453 23.7301 23.8736C23.3018 24.302 22.7209 24.5426 22.1151 24.5426H6.12706C5.52131 24.5426 4.94036 24.302 4.51203 23.8736C4.08369 23.4453 3.84306 22.8643 3.84306 22.2586V6.27054C3.84306 5.66479 4.08369 5.08384 4.51203 4.65551C4.94036 4.22717 5.52131 3.98654 6.12706 3.98654Z" fill="black"/>
</svg>
