<svg width="29" height="28" viewBox="0 0 29 28" fill="none" xmlns="http://www.w3.org/2000/svg">
<path fill-rule="evenodd" clip-rule="evenodd" d="M1.81464 6.27054C1.81464 5.05903 2.29591 3.89714 3.15258 3.04047C4.00924 2.1838 5.17114 1.70253 6.38265 1.70253H22.3707C23.5822 1.70253 24.7441 2.1838 25.6008 3.04047C26.4574 3.89714 26.9387 5.05903 26.9387 6.27054V22.2586C26.9387 23.4701 26.4574 24.632 25.6008 25.4887C24.7441 26.3453 23.5822 26.8266 22.3707 26.8266H6.38265C5.17114 26.8266 4.00924 26.3453 3.15258 25.4887C2.29591 24.632 1.81464 23.4701 1.81464 22.2586V6.27054ZM6.38265 3.98654H22.3707C22.9764 3.98654 23.5574 4.22717 23.9857 4.65551C24.4141 5.08384 24.6547 5.66479 24.6547 6.27054V22.2586C24.6547 22.8643 24.4141 23.4453 23.9857 23.8736C23.5574 24.302 22.9764 24.5426 22.3707 24.5426H6.38265C5.77689 24.5426 5.19595 24.302 4.76761 23.8736C4.33928 23.4453 4.09864 22.8643 4.09864 22.2586V6.27054C4.09864 5.66479 4.33928 5.08384 4.76761 4.65551C5.19595 4.22717 5.77689 3.98654 6.38265 3.98654Z" fill="black"/>
</svg>
