<svg width="852" height="183" viewBox="0 0 852 183" fill="none" xmlns="http://www.w3.org/2000/svg">
<path d="M1585.28 -147.72C1551.27 -136.778 1516.42 -128.417 1481.03 -123.503C1445.69 -118.323 1409.87 -116.646 1374.18 -117.966C1369.71 -118.125 1365.27 -118.484 1360.8 -118.741C1356.35 -119.014 1351.89 -119.245 1347.44 -119.758L1334.12 -121.077C1329.69 -121.58 1325.26 -122.253 1320.84 -122.841L1314.21 -123.747C1311.99 -124.035 1309.81 -124.496 1307.6 -124.856L1294.41 -127.188C1290.02 -128.039 1285.68 -129.054 1281.32 -129.98C1276.95 -130.92 1272.58 -131.859 1268.25 -132.963C1233.55 -141.478 1199.44 -152.316 1164.65 -160.652C1147.25 -164.791 1129.72 -168.351 1112.05 -171.176C1094.41 -174.064 1076.67 -176.364 1058.92 -178.441C1041.17 -180.515 1023.4 -182.389 1005.67 -184.542C987.945 -186.722 970.312 -189.639 952.557 -191.811C934.818 -194.029 916.917 -195.394 899.012 -194.899C890.067 -194.598 881.123 -194.032 872.247 -192.743C863.365 -191.635 854.555 -189.735 845.998 -187.051C841.723 -185.668 837.526 -184.096 833.413 -182.268C829.339 -180.394 825.301 -178.39 821.487 -176.013C817.671 -173.649 813.942 -171.113 810.491 -168.218C808.71 -166.847 807.099 -165.256 805.419 -163.772C803.858 -162.152 802.187 -160.629 800.732 -158.925C797.753 -155.57 794.684 -152.289 791.97 -148.726C789.203 -145.204 786.546 -141.586 783.971 -137.921C778.82 -130.589 773.815 -123.185 768.757 -115.822C758.665 -101.061 748.516 -86.3543 737.423 -72.3589C731.891 -65.3582 726.114 -58.5433 720.051 -52.015C714.042 -45.445 707.457 -39.4057 700.461 -33.9127C686.456 -22.9232 670.743 -14.1444 654.147 -7.67167C645.854 -4.41576 637.332 -1.75506 628.694 0.41986C620.059 2.60781 611.298 4.32651 602.489 5.65323C584.85 8.33973 567.015 9.51401 549.175 9.93558C540.244 10.135 531.32 10.1511 522.401 10.0264C513.471 9.91819 504.55 9.68221 495.622 9.26628L468.86 8.15244C459.96 7.63134 451.061 6.80255 442.16 6.07198C424.384 4.60387 406.333 3.61487 388.597 6.50919C379.743 7.93159 371.066 10.3264 362.686 13.4659C354.297 16.622 346.214 20.5061 338.367 24.8021C322.661 33.3975 307.943 43.6001 293.045 53.4456C285.612 58.3992 278.047 63.1225 270.5 67.9111L247.84 82.2115C232.685 91.6652 217.384 100.892 201.703 109.425C186.052 118.02 169.86 125.585 153.573 132.897C137.258 140.161 120.726 146.924 103.968 153.105C70.4339 165.401 35.9823 175.261 0.899094 182.035C36.0007 175.382 70.4933 165.623 104.081 153.423C120.87 147.304 137.442 140.587 153.78 133.359C170.094 126.095 186.323 118.562 202.027 110.009C217.745 101.508 233.071 92.2742 248.243 82.8301L270.923 68.5522C278.474 63.7767 286.051 59.0498 293.501 54.1058C308.415 44.2698 323.127 34.0968 338.788 25.5414C346.613 21.2655 354.676 17.4144 363.017 14.2853C371.358 11.1563 379.977 8.80493 388.766 7.4C406.388 4.55009 424.358 5.54697 442.111 7.0351C451.015 7.7787 459.914 8.60749 468.835 9.15116L495.62 10.3006C504.548 10.7165 513.477 10.9786 522.419 11.0833C531.351 11.2046 540.295 11.2111 549.229 11.0246C567.103 10.6222 584.984 9.46348 602.681 6.78909C611.534 5.46494 620.324 3.7523 629.001 1.56693C637.682 -0.605433 646.26 -3.26704 654.591 -6.53341C671.282 -13.0175 687.113 -21.8277 701.237 -32.8912C708.295 -38.4146 714.937 -44.4975 720.992 -51.1075C727.09 -57.6593 732.886 -64.5072 738.444 -71.5149C749.569 -85.5468 759.77 -100.267 769.866 -115.015C774.921 -122.391 779.922 -129.809 785.037 -137.117C787.603 -140.766 790.238 -144.364 792.982 -147.866C795.687 -151.412 798.72 -154.67 801.677 -158.005C803.118 -159.704 804.753 -161.204 806.292 -162.804C807.95 -164.268 809.538 -165.839 811.293 -167.204C814.682 -170.068 818.363 -172.577 822.131 -174.914C825.895 -177.264 829.885 -179.241 833.92 -181.104C837.985 -182.906 842.142 -184.467 846.375 -185.853C854.854 -188.516 863.579 -190.42 872.418 -191.532C881.239 -192.819 890.149 -193.405 899.052 -193.708C916.881 -194.225 934.723 -192.872 952.426 -190.686C970.148 -188.533 987.791 -185.632 1005.54 -183.473C1023.29 -181.34 1041.06 -179.496 1058.8 -177.431C1094.29 -173.375 1129.69 -168.148 1164.42 -159.768C1199.18 -151.477 1233.29 -140.668 1268.04 -132.194C1272.38 -131.093 1276.75 -130.167 1281.13 -129.231C1285.5 -128.308 1289.86 -127.296 1294.25 -126.446L1307.46 -124.133C1309.67 -123.774 1311.85 -123.312 1314.08 -123.028L1320.72 -122.126C1325.16 -121.554 1329.57 -120.864 1334.01 -120.378L1347.36 -119.079C1351.81 -118.579 1356.27 -118.335 1360.73 -118.078C1365.19 -117.834 1369.65 -117.479 1374.11 -117.333C1409.84 -116.122 1445.69 -117.917 1481.03 -123.209C1516.46 -128.205 1551.3 -136.673 1585.28 -147.72Z" fill="#65BFFF"/>
</svg>
