<svg width="628" height="472" viewBox="0 0 628 472" fill="none" xmlns="http://www.w3.org/2000/svg">
<path d="M1814.45 118.359L1799.57 123.78C1797.08 124.654 1794.62 125.647 1792.11 126.432L1784.57 128.834L1777.04 131.236C1774.53 132.036 1772.01 132.869 1769.45 133.524L1754.17 137.697C1752.9 138.039 1751.63 138.411 1750.36 138.72L1746.5 139.609L1738.78 141.39C1733.64 142.562 1728.52 143.838 1723.32 144.737L1707.76 147.679C1702.55 148.549 1697.33 149.263 1692.12 150.069L1684.28 151.244L1676.41 152.124L1660.67 153.84L1644.88 154.978C1642.25 155.141 1639.62 155.416 1636.98 155.5L1629.07 155.773C1607.97 156.77 1586.85 156.181 1565.79 155.034L1550 153.845L1546.05 153.547L1542.11 153.119L1534.25 152.229L1526.39 151.339L1522.46 150.892L1518.55 150.314L1502.9 147.973C1500.29 147.62 1497.69 147.136 1495.09 146.637L1487.31 145.182C1482.14 144.176 1476.92 143.344 1471.78 142.106L1456.33 138.626C1453.75 138.075 1451.2 137.403 1448.64 136.766C1446.08 136.128 1443.52 135.476 1440.97 134.805C1400.09 124.173 1359.99 110.735 1319.64 98.1934C1279.32 85.532 1238.69 73.8765 1198.42 61.106C1178.3 54.6851 1158.26 47.9863 1138.54 40.4532C1118.84 32.8676 1099.39 24.5607 1079.46 17.4681C1069.49 13.905 1059.37 10.7664 1049.15 8.07032C1038.92 5.34445 1028.48 3.4211 1017.99 2.02544C1007.48 0.614905 996.863 0.304357 986.28 0.430152C980.971 0.57736 975.69 1.06771 970.436 1.77423C965.198 2.60373 959.975 3.6048 954.868 5.10068C944.677 8.05469 934.835 12.4931 926.203 18.7753C917.465 24.8948 910.321 33.1057 904.434 41.9047C898.528 50.7563 893.851 60.3308 889.59 70.0329C885.363 79.742 881.365 89.5332 877.401 99.3312C869.49 118.938 861.779 138.635 852.798 157.749C848.307 167.305 843.504 176.706 838.248 185.846C835.66 190.445 832.816 194.858 829.843 199.209C826.768 203.476 823.637 207.711 820.199 211.693C813.411 219.745 805.892 227.147 797.771 233.851C789.673 240.58 781.05 246.653 771.973 251.986C753.851 262.708 734.124 270.592 713.86 276.293C693.566 281.938 672.691 285.475 651.689 287.293C630.676 289.129 609.542 289.324 588.476 288.289C577.941 287.764 567.431 286.914 556.947 285.69C546.472 284.496 536.092 282.59 525.705 280.655C515.321 278.734 504.935 276.687 494.432 275.389C483.935 274.056 473.32 273.41 462.739 274.077C452.156 274.681 441.679 276.866 431.605 280.14C421.534 283.428 411.86 287.837 402.562 292.879C383.936 302.971 366.78 315.396 349.28 327.194C340.557 333.134 331.611 338.72 322.628 344.283C313.66 349.842 304.731 355.487 295.709 360.965C277.665 371.921 259.376 382.497 240.558 392.051C221.78 401.689 202.277 409.816 182.684 417.665C163.065 425.472 143.218 432.671 123.172 439.302C83.0632 452.504 42.1633 463.288 0.798037 471.741C42.1952 463.407 83.127 452.742 123.297 439.651C143.379 433.091 163.252 425.932 182.902 418.18C202.526 410.387 222.074 402.312 240.909 392.706C259.764 383.174 278.083 372.591 296.15 361.66C305.186 356.178 314.105 350.552 323.088 344.989C332.075 339.44 341.05 333.847 349.788 327.903C367.307 316.115 384.475 303.736 403.035 293.693C412.292 288.678 421.93 284.31 431.93 281.057C441.934 277.818 452.311 275.675 462.815 275.077C473.323 274.429 483.875 275.077 494.323 276.406C504.781 277.717 515.137 279.772 525.525 281.707C535.902 283.661 546.315 285.574 556.828 286.79C567.33 288.025 577.875 288.882 588.428 289.418C609.547 290.47 630.733 290.293 651.799 288.475C672.868 286.671 693.81 283.148 714.213 277.49C734.57 271.78 754.404 263.883 772.671 253.106C781.822 247.753 790.512 241.63 798.665 234.87C806.837 228.122 814.438 220.665 821.277 212.567C824.756 208.559 827.928 204.297 831.024 199.993C834.022 195.618 836.915 191.145 839.517 186.542C844.813 177.376 849.653 167.933 854.155 158.357C863.169 139.188 870.928 119.494 878.843 99.9013C882.792 90.1072 886.791 80.316 890.992 70.6298C895.216 60.9694 899.85 51.4702 905.671 42.7209C911.496 33.9864 918.453 25.9691 927.059 19.9488C935.524 13.759 945.207 9.37927 955.265 6.46105C960.297 4.98508 965.457 3.98507 970.646 3.15264C975.852 2.44317 981.088 1.96475 986.344 1.79974C996.86 1.66011 1007.4 1.96083 1017.85 3.35355C1028.28 4.73538 1038.66 6.64093 1048.85 9.34499C1059.04 12.0193 1069.12 15.1361 1079.07 18.6734C1098.95 25.7145 1118.4 34.0065 1138.15 41.5802C1157.91 49.1014 1177.98 55.807 1198.11 62.1943C1238.4 74.9419 1279.05 86.5448 1319.37 99.1576C1359.73 111.65 1399.83 125.055 1440.77 135.656C1443.32 136.327 1445.88 136.979 1448.45 137.613C1451.01 138.251 1453.57 138.903 1456.16 139.469L1471.63 142.945C1476.77 144.198 1481.99 145.016 1487.17 146.017L1494.96 147.468C1497.56 147.967 1500.16 148.436 1502.79 148.8L1518.46 151.119L1522.38 151.697L1526.32 152.14L1534.19 153.011L1542.06 153.882L1546 154.31L1549.95 154.607L1565.75 155.778C1586.84 156.868 1608 157.401 1629.11 156.336L1637.02 156.034C1639.65 155.949 1642.28 155.674 1644.92 155.493L1660.73 154.302L1676.48 152.538L1684.35 151.639L1692.19 150.449C1697.39 149.628 1702.63 148.91 1707.83 148.01L1723.39 145.02C1728.59 144.105 1733.72 142.811 1738.86 141.624L1746.58 139.828L1750.43 138.924C1751.71 138.597 1752.98 138.225 1754.26 137.882L1769.52 133.665C1772.08 133.01 1774.58 132.166 1777.1 131.362L1784.64 128.945L1792.17 126.528C1794.7 125.739 1797.13 124.736 1799.62 123.862L1814.45 118.359Z" fill="#65BFFF"/>
</svg>
