<svg width="821" height="293" viewBox="0 0 821 293" fill="none" xmlns="http://www.w3.org/2000/svg">
<path d="M1570.91 -85.2548L1558.11 -82.7201L1551.71 -81.4527L1545.27 -80.4531L1532.37 -78.4502L1519.42 -76.9079L1512.95 -76.1368L1506.45 -75.5421L1493.46 -74.3658L1480.45 -73.4641C1476.11 -73.1537 1471.76 -72.8563 1467.42 -72.6571C1432.69 -70.684 1397.89 -69.9798 1363.16 -67.6598C1345.78 -66.5946 1328.47 -64.8332 1311.21 -62.5685C1302.61 -61.2159 1293.98 -60.0753 1285.46 -58.2265L1279.06 -56.9591L1275.86 -56.3237C1274.78 -56.1064 1273.75 -55.8143 1272.69 -55.5579L1260.02 -52.387C1226.43 -43.2483 1193.39 -32.2431 1159.71 -23.5546C1142.89 -19.173 1125.9 -15.4301 1108.74 -12.6501C1091.59 -9.8571 1074.29 -8.00094 1056.94 -6.91312C1048.26 -6.37746 1039.58 -6.0478 1030.88 -5.91109C1026.53 -5.83621 1022.2 -5.83349 1017.84 -5.85335C1013.49 -5.94536 1009.15 -5.98523 1004.8 -6.18849C987.435 -6.81558 970.096 -8.37269 952.791 -10.0646C935.482 -11.7695 918.171 -13.6413 900.833 -15.1428C892.16 -15.9066 883.477 -16.5556 874.786 -17.0769C870.437 -17.3228 866.098 -17.5852 861.729 -17.6997C857.363 -17.8013 853.012 -17.7951 848.654 -17.6611C831.213 -17.1512 813.891 -14.8987 796.719 -12.0857C788.109 -10.7426 779.568 -8.98502 771.076 -7.0449L745.642 -1.22195C728.688 2.66433 711.741 6.57667 694.721 10.1171C686.21 11.8808 677.688 13.6054 669.13 15.0883C660.564 16.5452 651.969 17.8422 643.342 18.9107C626.107 21.1257 608.782 22.6942 591.446 24.1123C574.105 25.5174 556.761 26.6999 539.401 27.8729C504.696 30.2285 469.94 32.4442 435.363 36.5258C426.718 37.5291 418.094 38.6662 409.472 39.8589C400.853 41.0647 392.242 42.3521 383.693 44.028C366.645 47.4085 349.642 52.4674 334.646 61.529C327.092 65.9281 320.191 71.4097 313.974 77.5183C307.704 83.5853 301.733 89.9353 295.977 96.4651C284.436 109.519 273.592 123.14 262.32 136.415C239.622 162.755 216.165 188.655 189.405 210.928C182.718 216.478 175.847 221.812 168.688 226.748C161.595 231.777 154.279 236.49 146.878 241.044C132.039 250.119 116.595 258.183 100.698 265.237C84.7984 272.277 68.4226 278.272 51.6709 282.914C34.919 287.557 17.7685 290.867 0.422172 292.301C17.7659 290.909 34.9339 287.664 51.7128 283.071C68.4916 278.477 84.8943 272.531 100.834 265.536C116.758 258.531 132.255 250.508 147.13 241.465C154.548 236.921 161.897 232.227 169.009 227.22C176.202 222.303 183.102 216.975 189.819 211.431C216.664 189.164 240.16 163.253 262.901 136.916C274.189 123.651 285.05 110.039 296.588 97.0279C302.347 90.5111 308.309 84.1776 314.563 78.1567C320.761 72.0812 327.599 66.6726 335.095 62.317C349.991 53.352 366.88 48.3375 383.867 44.9875C392.393 43.3315 400.991 42.0476 409.6 40.8584C418.21 39.6692 426.837 38.5451 435.469 37.5453C470.017 33.5132 504.754 31.3306 539.469 29.0141C556.834 27.8541 574.181 26.6846 591.541 25.3021C608.885 23.9101 626.226 22.3512 643.494 20.1552C652.138 19.0963 660.749 17.8089 669.328 16.3485C677.916 14.8716 686.438 13.147 694.966 11.3929C712.018 7.87155 728.969 3.97224 745.927 0.0989907C762.919 -3.64392 779.752 -8.1403 796.907 -10.809C814.047 -13.6411 831.31 -15.9058 848.666 -16.4208C852.998 -16.5478 857.345 -16.567 861.681 -16.4715C866.021 -16.363 870.357 -16.1137 874.692 -15.8643C883.367 -15.3526 892.047 -14.7166 900.703 -13.9624C918.034 -12.4869 935.329 -10.6247 952.66 -8.93975C969.984 -7.2809 987.332 -5.74031 1004.74 -5.12368C1009.09 -4.92042 1013.45 -4.88751 1017.8 -4.80854C1022.16 -4.78868 1026.5 -4.80793 1030.86 -4.88629C1039.57 -5.03952 1048.27 -5.37269 1056.96 -5.92834C1074.34 -7.02315 1091.67 -8.91234 1108.85 -11.7288C1126.04 -14.5323 1143.06 -18.2952 1159.9 -22.7099C1193.6 -31.448 1226.63 -42.4923 1260.17 -51.6596L1272.81 -54.8366C1273.87 -55.093 1274.91 -55.3851 1275.98 -55.6154L1279.17 -56.2473L1285.57 -57.5147C1294.07 -59.3731 1302.69 -60.5102 1311.27 -61.8724C1328.5 -64.1561 1345.81 -65.9305 1363.16 -67.0314C1397.86 -69.4687 1432.67 -70.2876 1467.41 -72.359C1471.76 -72.5747 1476.09 -72.8981 1480.43 -73.2085L1493.44 -74.1528L1506.44 -75.3718L1512.93 -75.9925L1519.4 -76.7897L1532.35 -78.3745L1545.24 -80.4165L1551.68 -81.4292L1558.07 -82.7096L1570.91 -85.2548Z" fill="#65BFFF"/>
</svg>
