<svg width="844" height="210" viewBox="0 0 844 210" fill="none" xmlns="http://www.w3.org/2000/svg">
<path d="M1592.08 -93.0086L1578.93 -87.9772C1576.74 -87.1653 1574.57 -86.2361 1572.34 -85.525L1565.66 -83.3039L1558.99 -81.0828L1555.65 -79.977C1554.53 -79.6215 1553.39 -79.3311 1552.27 -79.0016L1538.73 -75.1651C1536.49 -74.48 1534.19 -73.9775 1531.91 -73.4228L1525.07 -71.7978L1518.22 -70.1728C1515.94 -69.6181 1513.63 -69.2494 1511.33 -68.786L1497.51 -66.1035L1483.59 -63.9955C1481.27 -63.6659 1478.96 -63.258 1476.62 -62.9806L1469.63 -62.2108C1464.96 -61.728 1460.32 -61.0983 1455.64 -60.7398C1446.29 -60.0915 1436.94 -59.2763 1427.55 -59.1216L1420.52 -58.9011L1417.01 -58.7973L1413.48 -58.8179L1399.41 -58.9036C1397.06 -58.8747 1394.73 -59.0031 1392.38 -59.1151L1385.35 -59.4248C1380.66 -59.6356 1375.97 -59.7612 1371.3 -60.2145L1357.28 -61.332C1352.61 -61.7723 1347.95 -62.3829 1343.29 -62.9084L1336.31 -63.7196C1333.99 -64.0054 1331.67 -64.419 1329.35 -64.7474L1315.44 -66.888L1301.62 -69.498L1294.71 -70.8178L1287.84 -72.374L1274.13 -75.5031C1269.58 -76.6458 1265.03 -77.8015 1260.49 -79.0163C1224.21 -88.6995 1188.65 -100.882 1153.07 -112.921C1117.54 -125.068 1081.93 -137.112 1046.94 -150.718C1029.46 -157.546 1012.11 -164.772 995.143 -172.8C978.177 -180.827 961.455 -189.451 944.147 -196.829C935.525 -200.582 926.697 -203.902 917.74 -206.769C908.792 -209.709 899.608 -211.914 890.345 -213.526C881.078 -215.262 871.637 -215.82 862.23 -215.995C852.801 -216.04 843.347 -214.931 834.221 -212.444C829.677 -211.129 825.233 -209.491 820.953 -207.45C816.727 -205.312 812.627 -202.914 808.888 -199.998C801.367 -194.225 795.213 -186.736 790.476 -178.593C785.657 -170.442 782.032 -161.689 778.79 -152.857C775.582 -144.006 772.57 -135.096 769.622 -126.161C763.75 -108.297 758.122 -90.3595 751.345 -72.8544C747.972 -64.0989 744.302 -55.4596 740.2 -47.0259C736.141 -38.5897 731.427 -30.4666 725.851 -22.9513C720.293 -15.4265 714.092 -8.37223 707.288 -1.95285C700.481 4.45353 693.132 10.2927 685.386 15.5395C669.832 25.9523 652.713 33.9621 634.942 39.7996C617.159 45.6961 598.702 49.4402 580.096 51.5895C561.471 53.7162 542.676 54.1699 523.959 53.2475C514.598 52.7798 505.255 51.9583 495.96 50.7466C486.669 49.5478 477.462 47.7258 468.31 45.6934C459.149 43.6775 449.989 41.5634 440.714 39.9553C431.451 38.3436 422.04 37.3727 412.609 37.5804C407.893 37.6287 403.198 38.1184 398.532 38.8237C396.198 39.1699 393.909 39.7411 391.603 40.1915C389.29 40.6715 387.06 41.4087 384.779 42.0059C375.751 44.7044 367.092 48.5195 358.786 52.9245C342.155 61.7675 326.93 72.8884 311.423 83.428C303.696 88.74 295.763 93.7574 287.757 98.655C279.77 103.575 271.818 108.57 263.788 113.432C247.721 123.13 231.409 132.432 214.626 140.813C197.874 149.256 180.448 156.272 162.934 163.019C145.414 169.739 127.695 175.926 109.8 181.615C74.0249 192.989 37.616 202.312 0.874479 209.977C37.6474 202.429 74.0809 193.197 109.901 181.937C127.806 176.287 145.552 170.149 163.103 163.49C180.63 156.796 198.097 149.825 214.911 141.407C231.743 133.055 248.065 123.736 264.148 114.048C272.178 109.186 280.134 104.204 288.134 99.2805C296.14 94.3829 304.102 89.3715 311.843 84.0561C327.375 73.5095 342.582 62.4217 359.148 53.6517C367.418 49.2703 376.032 45.4952 384.999 42.8271C387.254 42.2368 389.484 41.4997 391.774 41.0397C394.068 40.5928 396.343 40.025 398.651 39.6859C403.265 38.9945 407.922 38.5152 412.595 38.4644C421.948 38.2776 431.3 39.2364 440.523 40.8585C449.756 42.4641 458.906 44.5947 468.068 46.6106C477.223 48.656 486.463 50.4972 495.8 51.7115C505.125 52.9293 514.488 53.7734 523.878 54.2471C542.645 55.1981 561.512 54.7531 580.196 52.6385C598.874 50.4979 617.403 46.7624 635.268 40.858C653.133 35.0092 670.36 26.9844 686.024 16.5142C693.835 11.25 701.229 5.37079 708.107 -1.08257C714.973 -7.53243 721.228 -14.6432 726.841 -22.2246C732.475 -29.7834 737.25 -37.9926 741.338 -46.4784C745.458 -54.9451 749.147 -63.6175 752.543 -72.393C759.348 -89.9476 764.999 -107.905 770.89 -125.746C773.826 -134.678 776.811 -143.581 780.014 -152.402C783.236 -161.201 786.824 -169.888 791.572 -177.936C796.268 -186.026 802.252 -193.316 809.644 -198.999C813.311 -201.868 817.337 -204.232 821.492 -206.323C825.697 -208.33 830.063 -209.947 834.542 -211.245C843.535 -213.71 852.878 -214.817 862.221 -214.777C871.56 -214.597 880.938 -214.065 890.143 -212.354C899.36 -210.758 908.494 -208.581 917.397 -205.658C926.321 -202.81 935.102 -199.504 943.704 -195.774C960.976 -188.429 977.69 -179.831 994.682 -171.81C1011.69 -163.78 1029.05 -156.57 1046.56 -149.749C1081.6 -136.157 1117.21 -124.156 1152.77 -112.042C1188.35 -100.033 1223.94 -87.8866 1260.26 -78.2269C1264.8 -77.0121 1269.35 -75.8563 1273.9 -74.7302L1287.65 -71.6081L1294.52 -70.0553L1301.44 -68.739L1315.3 -66.136L1329.23 -64.0154C1331.55 -63.674 1333.86 -63.2735 1336.2 -62.9912L1343.19 -62.1834C1347.87 -61.6745 1352.52 -61.0508 1357.2 -60.627L1371.25 -59.5295C1375.93 -59.0927 1380.62 -58.9671 1385.32 -58.7728L1392.35 -58.4927C1394.7 -58.3938 1397.04 -58.2819 1399.39 -58.3108L1413.48 -58.2712L1417 -58.2636L1420.52 -58.3839L1427.55 -58.634C1436.95 -58.8052 1446.31 -59.663 1455.67 -60.3279C1460.35 -60.7029 1465.01 -61.349 1469.67 -61.8449L1476.67 -62.6442C1479 -62.9182 1481.31 -63.3426 1483.63 -63.6852L1497.55 -65.8358L1511.37 -68.5609C1513.67 -69.0374 1515.99 -69.4061 1518.26 -69.9738L1525.1 -71.6249L1531.94 -73.2759C1534.22 -73.8306 1536.51 -74.3462 1538.75 -75.0312L1552.29 -78.9103C1553.42 -79.2398 1554.55 -79.5302 1555.67 -79.8988L1559.01 -81.0176L1565.68 -83.2518L1572.35 -85.4859C1574.58 -86.197 1576.74 -87.1392 1578.94 -87.9511L1592.08 -93.0086Z" fill="#65BFFF"/>
</svg>
