<svg width="619" height="532" viewBox="0 0 619 532" fill="none" xmlns="http://www.w3.org/2000/svg">
<path d="M1822.33 208.772C1801.9 218.136 1780.83 226.061 1759.28 232.41C1753.87 233.907 1748.41 235.241 1742.97 236.667C1740.24 237.336 1737.56 238.15 1734.79 238.699L1726.54 240.4L1718.29 242.101L1714.17 242.949C1712.79 243.207 1711.39 243.391 1710.02 243.615L1693.37 246.242C1648.86 252.272 1603.64 252.766 1558.95 248.308L1550.55 247.527C1547.77 247.237 1544.98 246.82 1542.2 246.481L1525.5 244.31L1508.87 241.558C1506.11 241.089 1503.32 240.686 1500.57 240.149L1492.31 238.489C1486.81 237.347 1481.28 236.358 1475.8 235.101L1459.41 231.236C1448.47 228.668 1437.64 225.672 1426.84 222.57C1383.69 209.997 1341.52 194.165 1300.43 175.955C1259.34 157.746 1219.32 137.016 1181.14 113.275C1162.02 101.438 1143.53 88.648 1125.47 75.2353C1116.42 68.5572 1107.4 61.8414 1098.27 55.2467C1089.12 48.6937 1079.87 42.2766 1070.34 36.2525C1051.29 24.3015 1031.12 13.717 1009.43 7.34797L1005.39 6.11854C1004.04 5.71501 1002.65 5.45034 1001.29 5.11428L993.04 3.19607L984.681 1.88096C983.29 1.6798 981.897 1.41515 980.5 1.2477L976.281 0.831678C970.661 0.408871 964.988 0.207284 959.344 0.651302C956.523 0.753815 953.718 1.21829 950.908 1.54095C948.123 2.07983 945.322 2.49571 942.609 3.30229C939.848 3.9304 937.192 4.94521 934.503 5.84102C931.911 6.98174 929.236 7.98565 926.783 9.40791C924.22 10.6527 921.906 12.2931 919.515 13.8263C917.3 15.5995 914.948 17.218 912.961 19.2489C911.957 20.2514 910.842 21.14 909.928 22.2456L907.107 25.4404C906.148 26.4945 905.408 27.713 904.532 28.8404C903.694 29.9896 902.818 31.117 902.131 32.3533C899.069 37.1431 896.553 42.2489 894.461 47.512C890.263 58.0422 887.708 69.1205 885.627 80.1836C883.583 91.2684 881.804 102.394 880.19 113.539C876.929 135.822 874.161 158.164 870.105 180.277C868.068 191.328 865.713 202.321 862.826 213.169C859.939 224.018 856.606 234.747 851.902 244.934C842.648 265.348 829.442 283.903 813.403 299.55C797.437 315.29 778.77 328.135 758.814 338.313C738.793 348.364 717.455 355.819 695.524 360.468C673.614 365.191 651.113 367.235 628.697 366.626C617.49 366.329 606.291 365.344 595.204 363.708C584.095 362.109 573.132 359.691 562.376 356.499C551.613 353.341 540.979 349.655 530.203 346.389C519.442 343.119 508.515 340.18 497.313 338.766C486.131 337.315 474.711 337.346 463.606 339.445C452.495 341.465 441.773 345.231 431.587 350.049C411.179 359.726 393.004 373.22 374.654 386.123C356.462 399.319 336.895 410.412 317.777 422.23C298.474 433.715 278.838 444.668 258.567 454.324C248.43 459.144 238.146 463.654 227.67 467.688C222.439 469.727 217.145 471.592 211.878 473.561L195.995 479.156C174.74 486.446 153.284 493.103 131.678 499.259C88.4738 511.601 44.7007 521.879 0.819433 531.517C44.7366 522.013 88.5227 511.843 131.778 499.631C153.396 493.52 174.887 486.932 196.172 479.699L212.082 474.144C217.352 472.19 222.651 470.34 227.901 468.312C238.399 464.303 248.721 459.816 258.896 455.017C279.223 445.394 298.885 434.418 318.211 422.959C337.318 411.16 356.934 400.069 375.174 386.877C393.543 373.984 411.701 360.542 432.002 350.942C442.117 346.159 452.773 342.443 463.78 340.45C474.781 338.379 486.089 338.346 497.177 339.807C508.283 341.215 519.162 344.15 529.893 347.428C540.639 350.702 551.258 354.393 562.059 357.572C572.852 360.786 583.887 363.233 595.029 364.839C606.169 366.493 617.402 367.484 628.661 367.799C651.163 368.433 673.75 366.414 695.769 361.678C717.797 357.035 739.242 349.567 759.382 339.484C779.461 329.289 798.254 316.379 814.338 300.543C830.498 284.815 843.825 266.116 853.181 245.548C857.913 235.289 861.312 224.447 864.206 213.565C867.111 202.664 869.491 191.648 871.535 180.563C875.623 158.394 878.421 136.044 881.686 113.775C883.304 102.645 885.053 91.528 887.09 80.4769C889.165 69.4476 891.684 58.4745 895.821 48.0722C897.884 42.8806 900.357 37.8502 903.349 33.1586C904.022 31.9262 904.895 30.8475 905.703 29.7062C906.554 28.6017 907.287 27.4169 908.22 26.3857L910.979 23.2553C911.866 22.1726 912.956 21.3068 913.935 20.3271C915.881 18.3231 918.177 16.7354 920.341 15.0079C922.676 13.5054 924.95 11.8918 927.458 10.6778C929.87 9.28236 932.471 8.29837 935.022 7.18447C937.666 6.30058 940.264 5.30168 942.98 4.68551C945.652 3.90575 948.42 3.48295 951.141 2.94513C953.903 2.61954 956.659 2.15212 959.451 2.05756C965.016 1.61856 970.621 1.80631 976.175 2.21529L980.34 2.61351C981.734 2.76608 983.111 3.03471 984.484 3.22498L992.775 4.52626L1000.95 6.41578C1002.32 6.75185 1003.69 7.0056 1005.04 7.40912L1009.06 8.62767C1030.6 14.9245 1050.67 25.4396 1069.67 37.3242C1079.16 43.3265 1088.41 49.7287 1097.56 56.252C1106.67 62.8318 1115.71 69.5287 1124.76 76.2068C1142.84 89.6156 1161.39 102.419 1180.54 114.249C1218.8 137.984 1258.87 158.698 1300.03 176.892C1341.17 195.071 1383.39 210.89 1426.61 223.429C1437.42 226.527 1448.27 229.519 1459.22 232.083L1475.65 235.94C1481.12 237.183 1486.66 238.186 1492.17 239.324L1500.44 240.98C1503.2 241.517 1505.99 241.916 1508.76 242.386L1525.41 245.114L1542.14 247.262C1544.92 247.601 1547.72 248.014 1550.51 248.305L1558.91 249.066C1603.67 253.412 1648.92 252.797 1693.46 246.633L1710.11 243.957C1711.5 243.729 1712.89 243.531 1714.27 243.273L1718.38 242.428L1726.62 240.698L1734.86 238.967C1737.61 238.406 1740.3 237.589 1743.03 236.905C1748.46 235.468 1753.92 234.101 1759.32 232.589C1780.88 226.191 1801.93 218.191 1822.33 208.772Z" fill="#65BFFF"/>
</svg>
