<svg width="637" height="419" viewBox="0 0 637 419" fill="none" xmlns="http://www.w3.org/2000/svg">
<path d="M1806.55 34.9341C1767.87 46.6036 1728.4 55.7617 1688.38 61.2725L1680.88 62.326L1677.13 62.8508L1673.38 63.2674L1658.31 64.9124L1654.55 65.3142L1650.78 65.6079L1643.23 66.1953C1638.2 66.5397 1633.18 67.0893 1628.12 67.2324L1612.99 67.9223C1610.47 68.0722 1607.94 68.0951 1605.42 68.118L1597.85 68.2016C1587.75 68.4688 1577.65 68.0973 1567.57 67.8825C1547.4 67.0047 1527.22 65.6527 1507.24 62.7664C1497.2 61.6133 1487.28 59.6816 1477.33 58.0117C1474.84 57.627 1472.37 57.0439 1469.91 56.5243L1462.51 54.9356C1457.58 53.8666 1452.63 52.865 1447.73 51.6274C1408.45 42.1458 1369.82 30.0206 1330.27 21.4397C1310.5 17.1567 1290.54 13.8181 1270.45 11.4376C1250.37 9.05312 1230.19 7.51076 1210.01 6.44644C1189.82 5.36725 1169.63 4.73635 1149.44 3.94476C1129.25 3.16805 1109.11 1.64749 1088.91 0.811286C1078.81 0.376329 1068.69 0.154615 1058.57 0.235399C1048.45 0.301309 1038.34 0.699465 1028.26 1.58255C1023.21 1.93088 1018.18 2.5926 1013.16 3.15711C1008.15 3.87831 1003.13 4.52119 998.152 5.47345C988.174 7.14295 978.27 9.50959 968.654 12.7081C949.446 19.0823 931.174 29.1273 916.66 43.4576C913.15 47.1083 909.473 50.6123 906.133 54.4245C902.751 58.2 899.494 62.0856 896.294 66.0038L877.309 89.6625C864.659 105.422 851.869 121.076 838.09 135.832C831.201 143.209 824.095 150.374 816.678 157.207C809.303 164.077 801.467 170.417 793.135 176.093C784.844 181.806 776.114 186.887 767.086 191.331C758.065 195.804 748.732 199.644 739.174 202.827C720.075 209.251 700.163 213.057 680.132 215.347C660.078 217.612 639.885 218.352 619.708 218.434C599.522 218.487 579.323 217.953 559.123 217.356L528.828 216.451C518.736 216.094 508.654 215.479 498.564 215.011C478.406 214.036 457.992 213.83 438.029 217.506C428.065 219.347 418.285 222.174 408.828 225.792C399.372 229.41 390.219 233.807 381.343 238.641C363.561 248.315 346.811 259.706 329.938 270.811C321.514 276.384 312.975 281.764 304.453 287.204L278.869 303.465C261.78 314.245 244.55 324.792 226.924 334.632C209.328 344.528 191.155 353.398 172.861 361.935C154.536 370.416 135.933 378.334 117.075 385.539C79.3322 399.908 40.4242 411.354 0.713693 418.854C40.4413 411.477 79.3961 400.146 117.2 385.888C136.104 378.734 154.723 370.876 173.089 362.432C191.433 353.961 209.633 345.131 227.289 335.283C244.968 325.461 262.213 314.91 279.309 304.16L304.902 287.929C313.428 282.504 321.986 277.134 330.424 271.557C347.321 260.478 364.044 249.11 381.794 239.492C390.66 234.678 399.775 230.322 409.173 226.72C418.585 223.114 428.298 220.336 438.203 218.511C458.051 214.883 478.376 215.112 498.505 216.095C508.599 216.578 518.68 217.193 528.776 217.564L559.079 218.499C579.272 219.13 599.476 219.679 619.699 219.648C639.918 219.603 660.159 218.866 680.266 216.619C700.364 214.342 720.359 210.547 739.595 204.101C749.212 200.902 758.609 197.061 767.689 192.572C776.791 188.108 785.581 183.011 793.927 177.268C802.319 171.576 810.236 165.182 817.652 158.285C825.109 151.425 832.26 144.249 839.16 136.852C852.99 122.051 865.828 106.4 878.493 90.6364L897.445 66.9708C900.63 63.0566 903.876 59.1899 907.232 55.4372C910.546 51.6478 914.197 48.1667 917.697 44.5348C932.02 30.3832 950.058 20.4167 969.113 14.0675C978.652 10.874 988.462 8.51631 998.407 6.8399C1003.36 5.89558 1008.36 5.24184 1013.35 4.50974C1018.36 3.94921 1023.35 3.28057 1028.38 2.93623C1038.43 2.04622 1048.51 1.64117 1058.6 1.56835C1068.68 1.46578 1078.78 1.67658 1088.86 2.11552C1109.04 2.92596 1129.19 4.42767 1149.4 5.18155C1169.6 5.95428 1189.79 6.55543 1209.96 7.62373C1230.13 8.67318 1250.28 10.1789 1270.33 12.5525C1290.38 14.8963 1310.32 18.224 1330.07 22.4664C1369.57 30.9808 1408.21 43.0723 1447.54 52.5231C1452.44 53.7608 1457.4 54.7435 1462.35 55.8085L1469.76 57.3932C1472.24 57.9088 1474.7 58.4919 1477.19 58.8767C1487.16 60.5425 1497.1 62.4703 1507.15 63.6193C1527.17 66.4789 1547.37 67.8269 1567.57 68.6631C1577.68 68.8402 1587.78 69.1928 1597.89 68.8918L1605.47 68.7745C1607.99 68.7516 1610.53 68.7098 1613.05 68.56L1628.2 67.8323C1633.25 67.6744 1638.27 67.1099 1643.32 66.7467L1650.88 66.1404L1654.65 65.8318L1658.42 65.4112L1673.48 63.7176L1677.25 63.2821L1681 62.7384L1688.5 61.6552C1728.46 55.9997 1767.9 46.7226 1806.55 34.9341Z" fill="#65BFFF"/>
</svg>
