<svg width="854" height="176" viewBox="0 0 854 176" fill="none" xmlns="http://www.w3.org/2000/svg">
<path d="M1583.57 -161.397C1549.68 -151.17 1515.09 -143.144 1480.01 -138.314L1473.44 -137.391L1470.16 -136.931L1466.87 -136.566L1453.66 -135.124L1450.37 -134.772L1447.06 -134.515L1440.45 -134C1436.04 -133.698 1431.63 -133.216 1427.2 -133.091L1413.94 -132.486C1411.73 -132.355 1409.52 -132.335 1407.31 -132.315L1400.67 -132.242C1391.82 -132.007 1382.97 -132.333 1374.13 -132.521C1356.46 -133.291 1338.78 -134.475 1321.26 -137.005C1312.47 -138.016 1303.77 -139.709 1295.05 -141.172C1292.87 -141.509 1290.71 -142.02 1288.55 -142.476L1282.06 -143.868C1277.74 -144.805 1273.4 -145.683 1269.11 -146.767C1234.68 -155.077 1200.83 -165.703 1166.17 -173.224C1148.84 -176.977 1131.34 -179.903 1113.74 -181.989C1096.14 -184.079 1078.46 -185.431 1060.77 -186.364C1043.08 -187.309 1025.38 -187.862 1007.69 -188.556C989.997 -189.237 972.342 -190.569 954.638 -191.302C945.789 -191.683 936.92 -191.878 928.053 -191.807C919.182 -191.749 910.32 -191.4 901.487 -190.626C897.063 -190.321 892.657 -189.741 888.256 -189.246C883.863 -188.614 879.466 -188.051 875.1 -187.216C866.355 -185.753 857.676 -183.679 849.248 -180.876C832.414 -175.29 816.401 -166.486 803.681 -153.927C800.605 -150.728 797.382 -147.657 794.455 -144.316C791.491 -141.007 788.637 -137.602 785.832 -134.168L769.193 -113.433C758.107 -99.6215 746.898 -85.9024 734.823 -72.971C728.785 -66.5053 722.558 -60.2263 716.057 -54.2374C709.593 -48.2164 702.726 -42.6601 695.424 -37.6857C688.158 -32.6793 680.507 -28.2261 672.594 -24.3317C664.689 -20.4112 656.509 -17.0458 648.133 -14.2566C631.395 -8.62604 613.944 -5.29127 596.388 -3.28367C578.813 -1.29867 561.117 -0.650372 543.433 -0.57838C525.743 -0.532423 508.04 -1.00017 490.337 -1.52353L463.786 -2.31682C454.942 -2.62937 446.106 -3.16789 437.263 -3.57866C419.597 -4.4332 401.706 -4.6131 384.211 -1.39215C375.478 0.221328 366.907 2.69956 358.619 5.87028C350.331 9.04101 342.31 12.8947 334.531 17.1306C318.947 25.6094 304.268 35.5921 289.48 45.3245C282.097 50.2085 274.614 54.924 267.145 59.6916L244.723 73.9423C229.747 83.3898 214.646 92.6331 199.199 101.257C183.778 109.93 167.851 117.704 151.818 125.185C135.758 132.618 119.454 139.557 102.928 145.871C69.8501 158.465 35.7512 168.496 0.949023 175.069C35.7661 168.603 69.906 158.673 103.037 146.177C119.604 139.908 135.922 133.021 152.018 125.62C168.095 118.197 184.045 110.459 199.519 101.828C215.013 93.2195 230.126 83.9727 245.109 74.5513L267.538 60.3267C275.011 55.5721 282.511 50.8661 289.906 45.9786C304.714 36.2688 319.371 26.3062 334.926 17.8769C342.696 13.6575 350.685 9.84037 358.921 6.6836C367.169 3.52334 375.682 1.08862 384.363 -0.510925C401.758 -3.69091 419.57 -3.49013 437.211 -2.62858C446.057 -2.2048 454.893 -1.66628 463.741 -1.34071L490.298 -0.521307C507.996 0.0316265 525.702 0.512379 543.425 0.485544C561.145 0.445649 578.884 -0.200064 596.506 -2.16947C614.12 -4.16495 631.643 -7.49109 648.502 -13.14C656.93 -15.9432 665.165 -19.3094 673.123 -23.2439C681.101 -27.1558 688.804 -31.6229 696.118 -36.6563C703.473 -41.6446 710.411 -47.2479 716.91 -53.2925C723.446 -59.3049 729.713 -65.5943 735.76 -72.0765C747.881 -85.0479 759.132 -98.7644 770.231 -112.58L786.841 -133.32C789.632 -136.751 792.477 -140.139 795.418 -143.428C798.323 -146.749 801.523 -149.8 804.59 -152.983C817.142 -165.386 832.951 -174.12 849.651 -179.685C858.01 -182.483 866.608 -184.55 875.324 -186.019C879.664 -186.846 884.044 -187.419 888.42 -188.061C892.808 -188.552 897.185 -189.138 901.596 -189.44C910.399 -190.22 919.232 -190.575 928.073 -190.639C936.907 -190.729 945.759 -190.544 954.595 -190.159C972.279 -189.449 989.944 -188.133 1007.66 -187.472C1025.36 -186.795 1043.05 -186.268 1060.72 -185.332C1078.41 -184.412 1096.06 -183.093 1113.64 -181.012C1131.21 -178.958 1148.69 -176.042 1165.99 -172.324C1200.61 -164.862 1234.47 -154.265 1268.94 -145.982C1273.24 -144.898 1277.58 -144.036 1281.92 -143.103L1288.42 -141.714C1290.59 -141.262 1292.75 -140.751 1294.93 -140.414C1303.66 -138.954 1312.38 -137.265 1321.18 -136.257C1338.73 -133.751 1356.43 -132.57 1374.14 -131.837C1382.99 -131.682 1391.85 -131.373 1400.71 -131.637L1407.35 -131.74C1409.56 -131.76 1411.78 -131.796 1414 -131.928L1427.27 -132.565C1431.7 -132.704 1436.1 -133.198 1440.52 -133.517L1447.14 -134.048L1450.45 -134.318L1453.75 -134.687L1466.96 -136.171L1470.26 -136.553L1473.55 -137.03L1480.12 -137.979C1515.14 -142.935 1549.71 -151.066 1583.57 -161.397Z" fill="#65BFFF"/>
</svg>
