<svg width="859" height="431" viewBox="0 0 859 431" fill="none" xmlns="http://www.w3.org/2000/svg">
<path d="M1808.14 54.5399C1769.33 67.0258 1729.56 76.5659 1689.19 82.1722C1648.86 88.0838 1607.99 89.9971 1567.26 88.4906C1562.17 88.3093 1557.09 87.9 1552 87.6067C1546.92 87.2945 1541.83 87.0309 1536.76 86.446L1521.55 84.9412C1516.5 84.3672 1511.45 83.5987 1506.4 82.9275L1498.83 81.8944C1496.31 81.5662 1493.81 81.0397 1491.3 80.6292L1476.24 77.9678C1471.24 76.9971 1466.28 75.8388 1461.3 74.7817C1456.32 73.7098 1451.34 72.6378 1446.4 71.3784C1406.8 61.663 1367.88 49.296 1328.18 39.784C1308.33 35.0617 1288.33 30.9991 1268.17 27.7756C1248.04 24.4808 1227.79 21.8564 1207.55 19.486C1187.29 17.1195 1167.01 14.9812 1146.79 12.5244C1126.56 10.0379 1106.44 6.70933 1086.18 4.23079C1065.94 1.69968 1045.51 0.142634 1025.08 0.707019C1014.87 1.05069 1004.67 1.69688 994.542 3.16714C984.407 4.43212 974.355 6.59952 964.59 9.66229C959.713 11.2403 954.924 13.0334 950.231 15.12C945.583 17.2582 940.974 19.5451 936.623 22.2572C932.268 24.9545 928.014 27.8481 924.076 31.151C922.044 32.7157 920.206 34.5312 918.288 36.2248C916.507 38.0729 914.601 39.8111 912.941 41.7544C909.542 45.5825 906.04 49.3264 902.943 53.3923C899.786 57.4106 896.753 61.5389 893.815 65.7217C887.939 74.0873 882.228 82.536 876.456 90.9372C864.94 107.78 853.36 124.561 840.702 140.53C834.391 148.518 827.799 156.294 820.881 163.743C814.024 171.24 806.511 178.131 798.528 184.399C782.548 196.938 764.619 206.955 745.682 214.34C736.219 218.056 726.495 221.092 716.639 223.573C706.786 226.07 696.79 228.031 686.738 229.545C666.611 232.61 646.261 233.95 625.904 234.431C615.714 234.659 605.532 234.677 595.354 234.535C585.166 234.411 574.986 234.142 564.799 233.667L534.262 232.396C524.107 231.802 513.953 230.856 503.797 230.022C483.514 228.347 462.917 227.219 442.679 230.521C432.577 232.144 422.676 234.877 413.114 238.459C403.541 242.06 394.319 246.492 385.365 251.394C367.444 261.202 350.65 272.843 333.652 284.077C325.17 289.73 316.538 295.119 307.926 300.583L282.071 316.9C264.778 327.687 247.319 338.216 229.426 347.952C211.568 357.759 193.093 366.392 174.508 374.735C155.893 383.023 137.029 390.74 117.907 397.792C79.6437 411.823 40.3332 423.073 0.302081 430.803C40.3542 423.211 79.7116 412.076 118.036 398.156C137.193 391.174 156.102 383.509 174.745 375.261C193.36 366.973 211.877 358.377 229.796 348.618C247.731 338.919 265.219 328.382 282.531 317.606L308.409 301.315C317.025 295.866 325.671 290.472 334.172 284.831C351.189 273.608 367.976 262 385.846 252.238C394.774 247.359 403.975 242.965 413.492 239.394C423.009 235.824 432.843 233.141 442.872 231.538C462.98 228.286 483.484 229.423 503.741 231.121C513.901 231.97 524.055 232.916 534.234 233.536L564.797 234.848C574.984 235.322 585.172 235.621 595.375 235.741C605.568 235.879 615.773 235.886 625.967 235.674C646.362 235.214 666.764 233.892 686.958 230.841C697.058 229.33 707.088 227.376 716.989 224.882C726.894 222.403 736.682 219.366 746.189 215.639C765.234 208.241 783.297 198.188 799.413 185.564C807.466 179.262 815.046 172.321 821.954 164.779C828.913 157.303 835.526 149.489 841.868 141.493C854.562 125.482 866.202 108.686 877.722 91.8575C883.489 83.4415 889.196 74.9778 895.032 66.6391C897.959 62.4752 900.966 58.3697 904.098 54.3742C907.184 50.3271 910.645 46.6101 914.018 42.8048C915.664 40.8655 917.529 39.1541 919.284 37.3288C921.176 35.6581 922.988 33.8654 924.991 32.3086C928.858 29.0405 933.058 26.1777 937.357 23.5112C941.653 20.8299 946.206 18.5738 950.809 16.4476C955.447 14.3917 960.191 12.6105 965.02 11.0296C974.696 7.99071 984.651 5.81742 994.737 4.54951C1004.8 3.08028 1014.97 2.41234 1025.13 2.06573C1045.47 1.47661 1065.83 3.01981 1086.03 5.51427C1106.25 7.97103 1126.38 11.2808 1146.64 13.7444C1166.88 16.1784 1187.17 18.283 1207.41 20.6385C1247.9 25.2674 1288.29 31.2312 1327.93 40.7928C1367.58 50.2533 1406.51 62.5866 1446.16 72.2563C1451.11 73.5118 1456.09 74.5688 1461.09 75.6368C1466.08 76.6899 1471.05 77.8442 1476.06 78.815L1491.14 81.4535C1493.65 81.864 1496.15 82.3905 1498.69 82.7147L1506.27 83.7439C1511.33 84.3962 1516.36 85.1835 1521.43 85.7387L1536.66 87.2207C1541.74 87.7907 1546.82 88.0692 1551.92 88.3625C1557.01 88.6409 1562.1 89.0463 1567.19 89.2127C1607.96 90.5952 1648.86 88.547 1689.18 82.5084C1729.61 76.8079 1769.37 67.1448 1808.14 54.5399Z" fill="#65BFFF"/>
</svg>
