<svg width="834" height="460" viewBox="0 0 834 460" fill="none" xmlns="http://www.w3.org/2000/svg">
<path d="M1810.19 92.0369L1795.45 97.0081C1792.99 97.8253 1790.55 98.6872 1788.07 99.4639L1780.58 101.567C1775.58 102.952 1770.61 104.398 1765.6 105.724L1750.44 109.197C1747.91 109.746 1745.4 110.404 1742.85 110.879L1735.2 112.29C1730.1 113.21 1725.02 114.205 1719.9 115.052L1704.51 117.262C1701.95 117.614 1699.39 118.045 1696.8 118.323L1689.07 119.152C1683.91 119.689 1678.76 120.304 1673.6 120.793L1658.1 121.982C1655.51 122.166 1652.93 122.396 1650.35 122.561L1642.58 122.936L1627.04 123.689C1606.31 124.269 1585.57 124.614 1564.83 124.209C1523.36 123.716 1481.93 121.508 1440.48 119.558C1399.05 117.633 1357.63 114.592 1316.63 108.283C1275.62 102.053 1235.22 92.0599 1195.98 78.6151C1176.37 71.8645 1156.99 64.4343 1138.09 55.9167C1119.14 47.4745 1100.48 38.3517 1081.4 30.106C1071.89 25.9265 1062.22 22.0934 1052.49 18.4517L1045.13 15.8802L1041.44 14.6038L1037.73 13.4475L1030.28 11.1389L1022.76 9.08914C1021.51 8.75497 1020.25 8.39103 1018.99 8.09056L1015.19 7.21203L1007.58 5.48867L999.897 4.0877C998.61 3.85867 997.349 3.60681 996.055 3.41151L992.193 2.89996C981.923 1.28394 971.461 0.675745 961.047 1.07512C950.642 1.63121 940.23 3.22568 930.345 6.67137L928.49 7.29575L926.664 8.02422C925.46 8.52211 924.23 8.97935 923.038 9.52184C920.686 10.6624 918.302 11.7473 916.054 13.099C913.74 14.3248 911.607 15.8688 909.408 17.2869C907.344 18.9081 905.198 20.4075 903.298 22.224C895.544 29.2274 888.568 36.9949 882.307 45.3519C879.194 49.5338 876.307 53.9099 873.627 58.3424C870.894 62.7571 868.282 67.2669 865.685 71.7727C855.425 89.8574 846.129 108.449 835.2 126.059C829.741 134.855 823.933 143.473 817.337 151.41C810.611 159.222 803.35 166.635 795.235 173.066C779.285 186.251 761.156 196.592 742.309 205.086C723.429 213.572 703.729 220.19 683.635 225.159C643.425 235.073 601.859 239.388 560.44 238.673C550.09 238.481 539.725 238.055 529.41 237.104C519.096 236.154 508.818 234.747 498.521 233.505C488.223 232.263 477.852 231.279 467.445 231.23C462.237 231.159 457.039 231.484 451.851 231.965C449.273 232.322 446.678 232.618 444.116 233.097L440.28 233.87L438.362 234.257L436.476 234.762C426.347 237.237 416.692 241.482 407.754 246.794C398.792 252.081 390.329 258.159 382.212 264.638C365.986 277.626 351.023 292.06 335.279 305.541C327.405 312.274 319.261 318.712 311.159 325.187C303.034 331.636 294.856 338.005 286.555 344.214C269.95 356.618 252.864 368.417 234.988 378.93C226.048 384.179 216.946 389.121 207.594 393.603C198.307 398.212 188.881 402.539 179.405 406.736C160.425 415.09 141.095 422.613 121.472 429.337C82.2399 442.782 41.9404 453.134 0.984385 459.788C41.9535 453.242 82.3036 443.021 121.597 429.686C141.236 423.021 160.612 415.55 179.637 407.248C189.137 403.076 198.585 398.775 207.895 394.192C217.27 389.735 226.42 384.797 235.383 379.574C253.316 369.094 270.427 357.271 287.066 344.874C295.386 338.676 303.579 332.303 311.723 325.865C319.825 319.39 327.973 312.966 335.876 306.226C351.665 292.733 366.635 278.328 382.829 265.397C390.92 258.941 399.362 252.901 408.272 247.66C417.159 242.393 426.718 238.206 436.747 235.773L438.619 235.272L440.522 234.89L444.313 234.129C446.849 233.672 449.414 233.384 451.974 233.017C457.117 232.547 462.281 232.216 467.445 232.299C477.793 232.363 488.104 233.363 498.401 234.605C508.699 235.847 518.98 237.268 529.314 238.23C539.662 239.187 550.047 239.625 560.416 239.828C601.939 240.578 643.592 236.287 683.951 226.398C704.127 221.438 723.901 214.8 742.875 206.305C761.811 197.788 780.059 187.415 796.131 174.149C804.3 167.688 811.643 160.221 818.441 152.325C825.126 144.301 830.96 135.66 836.441 126.827C847.431 109.152 856.757 90.5525 867 72.5204C869.582 68.0186 872.168 63.5316 874.89 59.1358C877.566 54.6884 880.395 50.3917 883.486 46.2474C889.659 37.9778 896.609 30.2332 904.245 23.3251C906.11 21.5503 908.214 20.0777 910.223 18.4872C912.377 17.0811 914.455 15.5679 916.728 14.3689C918.932 13.0292 921.275 11.971 923.587 10.8573C924.753 10.3377 925.969 9.88438 927.154 9.37561L928.935 8.65906L930.76 8.04265C940.481 4.64073 950.763 3.03348 961.06 2.49038C971.377 2.08513 981.723 2.67657 991.941 4.27479L995.788 4.7903C997.067 4.98958 998.328 5.24145 999.615 5.47048L1007.24 6.85363L1014.82 8.5552L1018.6 9.42285C1019.86 9.72331 1021.1 10.0912 1022.35 10.4254L1029.85 12.4494L1037.28 14.7471L1040.99 15.9034L1044.66 17.1689L1052 19.7146C1061.7 23.3306 1071.34 27.1568 1080.84 31.3065C1099.88 39.5155 1118.56 48.6194 1137.53 57.0537C1156.48 65.5742 1175.9 73.0114 1195.55 79.7352C1234.85 93.1641 1275.36 103.13 1316.41 109.329C1357.48 115.607 1398.93 118.606 1440.38 120.493C1481.82 122.38 1523.27 124.569 1564.77 124.991C1585.52 125.329 1606.27 124.935 1627.01 124.287L1642.55 123.485L1650.32 123.077C1652.91 122.911 1655.5 122.678 1658.08 122.483L1673.58 121.245C1678.75 120.738 1683.9 120.123 1689.05 119.571L1696.78 118.712C1699.36 118.419 1701.92 117.988 1704.48 117.621L1719.87 115.362C1724.99 114.501 1730.07 113.491 1735.18 112.552L1742.82 111.126C1745.36 110.636 1747.88 109.978 1750.4 109.414L1765.55 105.896C1770.56 104.57 1775.53 103.095 1780.53 101.691L1788.02 99.573C1790.48 98.7855 1792.94 97.9196 1795.39 97.0874L1810.19 92.0369Z" fill="#65BFFF"/>
</svg>
