<svg width="607" height="442" viewBox="0 0 607 442" fill="none" xmlns="http://www.w3.org/2000/svg">
<path d="M1806.48 63.1701L1791.85 67.7583L1784.54 70.0375L1777.11 71.9637L1762.27 75.7973L1747.26 78.9577L1739.75 80.523L1732.2 81.7977L1717.07 84.3363L1701.87 86.3384L1694.27 87.3375L1686.64 88.0906L1671.38 89.5969L1656.09 90.6965L1648.44 91.2483C1645.89 91.4062 1643.34 91.5005 1640.79 91.6395L1625.48 92.3623C1605.06 93.0536 1584.62 93.4613 1564.16 93.3949C1523.27 93.4635 1482.37 92.4342 1441.47 92.4096C1400.59 92.4593 1359.66 92.1739 1318.92 88.662C1298.56 86.9433 1278.27 84.3309 1258.14 80.7484C1238.02 77.1659 1218.07 72.643 1198.35 67.2799C1188.49 64.5964 1178.68 61.7106 1168.94 58.5955C1164.07 57.0474 1159.23 55.4279 1154.38 53.7935C1149.57 52.0688 1144.73 50.4007 1139.96 48.5857C1120.81 41.428 1101.93 33.5263 1082.77 26.3051C1063.61 19.084 1044.18 12.4463 1024.23 7.733C1019.27 6.44781 1014.22 5.53757 1009.21 4.48845C1006.7 3.98075 1004.16 3.62681 1001.64 3.20143C999.116 2.8098 996.598 2.32094 994.046 2.0642C988.962 1.44955 983.882 0.786284 978.744 0.441434C973.625 0.17095 968.489 -0.0469464 963.353 0.149726C960.775 0.154833 958.217 0.409852 955.657 0.537926C953.107 0.822697 950.54 0.984518 947.996 1.41111C942.905 2.07387 937.855 3.18783 932.898 4.53182C927.931 5.89467 923.106 7.7295 918.402 9.83497C913.732 12.0108 909.26 14.6279 905.036 17.577C900.859 20.6411 896.969 23.9469 893.1 27.3271C889.249 30.7182 885.494 34.2273 881.913 37.9127C878.328 41.5833 874.911 45.464 871.739 49.4863C868.506 53.461 865.417 57.5566 862.328 61.6523C850.081 78.0853 838.771 95.1602 825.993 111.098C822.771 115.054 819.531 118.999 816.119 122.782C815.259 123.73 814.437 124.7 813.553 125.622L810.877 128.347C809.066 130.14 807.379 132.043 805.476 133.732L799.766 138.801L798.337 140.061L796.835 141.228L793.821 143.582C789.882 146.822 785.595 149.596 781.423 152.5C764.364 163.686 745.786 172.41 726.719 179.608C707.61 186.768 687.848 192.143 667.884 196.409C627.902 204.795 586.989 208.52 546.142 208.513C535.922 208.509 525.71 208.297 515.516 207.68C505.323 207.064 495.135 206.111 484.915 205.454C474.699 204.812 464.432 204.455 454.201 205.124C443.978 205.823 433.774 207.6 424.027 210.85C414.242 214.014 405.045 218.837 396.549 224.557C387.981 230.184 379.937 236.58 372.156 243.24C356.596 256.576 342.172 271.121 326.941 284.735C296.111 311.536 264.575 337.84 229.809 359.398L223.264 363.368L216.639 367.216C212.202 369.727 207.659 372.077 203.142 374.467C194.081 379.206 184.896 383.66 175.635 388.006C157.088 396.611 138.142 404.318 118.898 411.211C80.3988 424.955 40.675 435.375 0.231084 441.446C40.692 435.498 80.4773 425.189 119.023 411.56C138.298 404.722 157.29 397.067 175.867 388.518C185.141 384.216 194.359 379.769 203.443 375.056C207.978 372.677 212.526 370.342 216.981 367.841L223.626 364.004L230.204 360.042C247.636 349.297 264.252 337.289 280.358 324.684C296.452 312.034 312.123 298.876 327.535 285.405C342.81 271.779 357.253 257.245 372.78 243.966C380.536 237.328 388.558 230.97 397.089 225.385C405.548 219.707 414.649 214.94 424.339 211.834C434 208.624 444.105 206.889 454.264 206.191C464.436 205.538 474.658 205.907 484.845 206.557C495.035 207.222 505.227 208.19 515.439 208.817C525.655 209.459 535.901 209.679 546.125 209.697C587.047 209.748 628.032 206.051 668.134 197.697C688.15 193.449 707.976 188.073 727.163 180.908C746.323 173.701 765.009 164.964 782.179 153.716C786.396 150.801 790.708 148.003 794.691 144.752L797.736 142.39L799.248 141.204L800.688 139.925L806.453 134.825C808.371 133.132 810.098 131.202 811.921 129.391L814.623 126.642C815.502 125.705 816.339 124.732 817.2 123.784C820.637 119.978 823.903 116.01 827.14 112.05C839.984 96.0627 851.339 78.9758 863.553 62.5994C866.612 58.5117 869.705 54.431 872.912 50.4791C876.073 46.4756 879.424 42.6446 882.983 38.9968C886.524 35.3382 890.253 31.852 894.078 28.4837C897.907 25.1303 901.823 21.8016 905.893 18.814C910.05 15.9145 914.422 13.3402 919.022 11.1992C923.641 9.13243 928.388 7.30264 933.296 5.9557C938.193 4.62763 943.16 3.50378 948.207 2.85296C950.721 2.43433 953.255 2.2656 955.786 1.96994C958.332 1.84584 960.856 1.58392 963.399 1.57189C968.483 1.35743 973.575 1.58726 978.66 1.85082C983.749 2.19274 988.807 2.83023 993.861 3.45284C996.398 3.71356 998.912 4.18754 1001.42 4.58317C1003.94 5.00854 1006.47 5.35159 1008.96 5.86326C1013.95 6.90148 1018.99 7.81571 1023.93 9.09001C1043.81 13.7746 1063.2 20.3757 1082.33 27.5562C1101.47 34.7664 1120.36 42.6493 1139.55 49.7801C1144.34 51.606 1149.18 53.2741 1154 54.9949C1158.85 56.6441 1163.71 58.2448 1168.59 59.7889C1178.35 62.8811 1188.17 65.7819 1198.05 68.4426C1217.82 73.7937 1237.8 78.3086 1257.97 81.8643C1278.13 85.4199 1298.46 88.0244 1318.84 89.7203C1359.63 93.2014 1400.6 93.4302 1441.48 93.3468C1482.37 93.3119 1523.28 94.3224 1564.18 94.1864C1584.64 94.1893 1605.09 93.7141 1625.52 92.9593L1640.84 92.1839C1643.4 92.041 1645.95 91.9466 1648.5 91.7739L1656.15 91.2072L1671.44 90.059L1686.7 88.5041L1694.33 87.7213L1701.93 86.7033L1717.13 84.6566L1732.24 82.0734L1739.81 80.7798L1747.31 79.1997L1762.3 75.9947L1777.13 72.1164L1784.56 70.1753L1791.87 67.8664L1806.48 63.1701Z" fill="#65BFFF"/>
</svg>
