<svg width="840" height="530" viewBox="0 0 840 530" fill="none" xmlns="http://www.w3.org/2000/svg">
<path d="M1821.57 203.511L1806.16 210.144L1802.31 211.798C1801.02 212.365 1799.74 212.916 1798.41 213.368L1790.53 216.227L1782.66 219.087L1778.71 220.527C1777.4 221.023 1776.04 221.355 1774.72 221.773L1758.67 226.616C1756 227.489 1753.29 228.12 1750.57 228.785L1742.43 230.775L1734.29 232.765C1731.58 233.475 1728.81 233.868 1726.08 234.439L1709.6 237.594L1693.01 239.985C1690.24 240.359 1687.48 240.812 1684.7 241.126L1676.35 241.929C1670.79 242.431 1665.23 243.09 1659.65 243.455C1648.48 244.009 1637.33 244.861 1626.15 244.795L1617.76 244.907L1613.57 244.961C1612.17 244.969 1610.77 244.899 1609.38 244.873L1592.62 244.455L1588.43 244.348L1584.24 244.1L1575.88 243.584C1570.3 243.198 1564.71 243.021 1559.15 242.407L1542.46 240.822C1539.68 240.595 1536.9 240.222 1534.13 239.865L1525.81 238.81C1514.7 237.548 1503.67 235.623 1492.63 233.912C1470.61 230.039 1448.68 225.572 1426.97 220.196C1383.55 209.45 1340.96 195.339 1299.73 178.013C1279.1 169.352 1258.84 159.845 1238.99 149.509C1219.14 139.188 1199.69 128.077 1180.78 116.134C1171.31 110.158 1161.99 103.985 1152.8 97.6004C1143.61 91.2309 1134.61 84.5706 1125.64 77.8726C1107.72 64.4538 1089.85 50.8921 1071.03 38.687C1068.69 37.1458 1066.27 35.7216 1063.9 34.222C1061.51 32.7413 1059.14 31.2566 1056.69 29.8889L1049.38 25.7107L1041.91 21.8301L1038.16 19.9012L1034.33 18.1529C1031.78 17.0035 1029.24 15.7868 1026.67 14.69C1021.43 12.6662 1016.28 10.428 1010.88 8.82877L1006.89 7.52392C1005.56 7.06781 1004.22 6.64543 1002.84 6.32822L994.677 4.24431C993.995 4.07627 993.324 3.88938 992.632 3.7402L990.559 3.37099L986.41 2.61771C983.641 2.1479 980.897 1.52833 978.102 1.25692C966.955 -0.187795 955.576 -0.119867 944.478 1.94528C938.954 3.07452 933.541 4.7323 928.338 6.93935C923.19 9.29116 918.324 12.2209 913.879 15.7077C909.555 19.3531 905.566 23.4188 902.243 28.0075C901.341 29.0942 900.676 30.3564 899.876 31.5273C899.132 32.731 898.308 33.8762 897.644 35.1382C896.231 37.5891 894.999 40.1192 893.805 42.671C889.106 52.9368 886.112 63.8618 883.749 74.8249C881.457 85.8167 879.547 96.8657 877.786 107.938C874.295 130.076 871.416 152.304 867.165 174.278C865.044 185.256 862.572 196.169 859.535 206.93C856.568 217.72 852.795 228.232 847.872 238.255C845.478 243.28 842.704 248.137 839.847 252.919C836.858 257.626 833.775 262.278 830.374 266.696C823.63 275.565 816.134 283.886 807.939 291.439C799.747 299.006 790.951 305.922 781.718 312.158C772.463 318.368 762.741 323.906 752.721 328.807C732.684 338.623 711.344 345.712 689.526 350.363C667.688 355.003 645.318 357.059 623 356.52C611.846 356.24 600.703 355.288 589.647 353.708C584.121 352.925 578.617 351.929 573.166 350.775C570.444 350.181 567.728 349.49 565.02 348.829C562.322 348.085 559.621 347.39 556.944 346.609C546.201 343.525 535.577 339.996 524.816 336.901C514.065 333.788 503.081 331.231 491.909 330.112C480.752 328.989 469.361 329.426 458.402 332.012C447.43 334.49 436.937 338.752 427.038 343.987C407.135 354.421 389.494 368.426 371.527 381.689C362.556 388.365 353.416 394.768 343.963 400.776C334.578 406.861 325.167 412.906 315.667 418.799C296.668 430.585 277.29 441.787 257.232 451.642C247.204 456.576 236.995 461.129 226.611 465.266C221.409 467.298 216.173 469.259 210.94 471.235C205.683 473.122 200.447 475.083 195.159 476.914C174.063 484.32 152.739 491.054 131.261 497.272C88.296 509.677 44.7159 519.903 0.95093 529.143C44.7329 520.026 88.345 509.919 131.356 497.628C152.869 491.481 174.22 484.788 195.347 477.437C200.639 475.621 205.879 473.675 211.155 471.799C216.392 469.838 221.632 467.892 226.853 465.871C237.26 461.759 247.502 457.213 257.552 452.305C277.667 442.483 297.071 431.258 316.093 419.498C325.612 413.616 335.027 407.586 344.426 401.496C353.869 395.507 363.068 389.089 372.055 382.409C390.04 369.156 407.678 355.2 427.489 344.839C437.351 339.646 447.76 335.422 458.632 332.987C469.476 330.448 480.74 330.012 491.819 331.141C502.912 332.265 513.814 334.812 524.55 337.929C535.282 341.031 545.906 344.561 556.671 347.67C559.352 348.467 562.068 349.158 564.766 349.901C567.493 350.573 570.205 351.249 572.95 351.869C578.438 353.045 583.957 354.037 589.502 354.831C600.596 356.433 611.773 357.392 622.979 357.689C645.383 358.253 667.854 356.218 689.785 351.569C711.701 346.924 733.134 339.826 753.289 329.978C763.369 325.061 773.135 319.511 782.461 313.266C791.764 306.995 800.615 300.048 808.862 292.45C817.143 284.859 824.69 276.492 831.497 267.559C834.923 263.118 838.043 258.424 841.054 253.68C843.947 248.855 846.747 243.977 849.162 238.914C854.133 228.83 857.963 218.175 860.941 207.366C864 196.567 866.494 185.617 868.636 174.601C872.92 152.57 875.828 130.334 879.328 108.227C881.063 97.1768 882.973 86.1278 885.247 75.1886C887.577 64.2821 890.551 53.4583 895.173 43.3244C896.346 40.8103 897.568 38.2991 898.948 35.9048C899.586 34.6655 900.399 33.5392 901.136 32.3693C901.911 31.2211 902.55 29.9819 903.441 28.914C906.676 24.4126 910.581 20.4492 914.798 16.8803C919.151 13.4659 923.906 10.5977 928.939 8.29264C934.042 6.12833 939.348 4.48352 944.782 3.37814C955.694 1.331 966.927 1.25428 977.97 2.66337C980.745 2.92389 983.471 3.53257 986.206 3.99545L990.322 4.74183L992.379 5.115C993.057 5.26817 993.728 5.45507 994.41 5.6231L1002.51 7.67831C1003.86 7.98463 1005.2 8.40701 1006.51 8.85223L1010.49 10.1462C1015.85 11.7236 1020.96 13.9549 1026.16 15.9569C1028.73 17.0388 1031.25 18.2596 1033.79 19.398L1037.6 21.1355L1041.33 23.0534L1048.76 26.9122L1056.03 31.0687C1058.48 32.4215 1060.85 33.9062 1063.22 35.376C1065.59 36.8607 1067.99 38.274 1070.33 39.8153C1089.12 51.95 1106.96 65.4859 1124.91 78.8967C1133.89 85.5759 1142.91 92.247 1152.13 98.6235C1161.34 105.004 1170.7 111.184 1180.18 117.156C1199.14 129.102 1218.6 140.209 1238.5 150.533C1258.38 160.861 1278.68 170.356 1299.34 179.009C1340.65 196.315 1383.3 210.41 1426.78 221.126C1448.5 226.478 1470.47 230.923 1492.52 234.788C1503.57 236.495 1514.61 238.416 1525.74 239.659L1534.07 240.71C1536.86 241.063 1539.62 241.44 1542.41 241.663L1559.13 243.21C1564.68 243.809 1570.29 243.982 1575.88 244.35L1584.25 244.832L1588.44 245.08L1592.64 245.183L1609.42 245.549C1610.81 245.574 1612.21 245.63 1613.61 245.622L1617.81 245.549L1626.19 245.407C1637.38 245.42 1648.55 244.549 1659.72 243.962C1665.3 243.567 1670.85 242.908 1676.43 242.387L1684.77 241.555C1687.54 241.225 1690.3 240.773 1693.08 240.38L1709.68 237.94L1726.16 234.737C1728.9 234.161 1731.67 233.753 1734.38 233.044L1742.53 231.02L1750.66 229C1753.38 228.335 1756.1 227.685 1758.75 226.816L1774.81 221.924C1776.14 221.503 1777.5 221.155 1778.8 220.663L1782.74 219.224L1790.61 216.334L1798.48 213.445C1799.81 212.993 1801.09 212.427 1802.37 211.861L1806.22 210.191L1821.57 203.511Z" fill="#65BFFF"/>
</svg>
