<svg width="601" height="422" viewBox="0 0 601 422" fill="none" xmlns="http://www.w3.org/2000/svg">
<path d="M1795.08 0.685328L1780.55 3.90876L1773.28 5.52242L1765.96 6.81585L1751.31 9.40266L1736.56 11.4569L1729.19 12.4895L1721.8 13.3059L1707 14.913L1692.17 16.1769C1687.22 16.5946 1682.29 17.0231 1677.33 17.299C1637.73 20.0205 1598.04 21.0104 1558.39 23.1052C1538.56 24.0668 1518.76 25.6105 1499 27.4934L1484.21 29.2085C1481.75 29.5032 1479.28 29.7492 1476.82 30.0884L1469.46 31.1845C1464.55 31.9413 1459.63 32.59 1454.74 33.4401L1440.11 36.2282C1401.19 44.1223 1362.79 54.3307 1323.81 61.7627C1304.33 65.5009 1284.71 68.4945 1264.95 70.3437C1245.2 72.1929 1225.38 73.0573 1205.54 72.9993C1185.72 72.9076 1165.87 72.088 1146.15 70.0563C1126.42 68.0732 1106.79 65.0913 1087.16 62.1094C1067.53 59.1127 1047.9 56.0673 1028.17 53.748C1018.32 52.5472 1008.42 51.5974 998.511 50.8082C993.552 50.479 988.607 50.0825 983.631 49.8694C978.659 49.6712 973.689 49.5364 968.711 49.611C948.833 49.804 928.841 52.0045 909.716 57.7349C904.933 59.1919 900.277 60.8857 895.566 62.3713L881.36 66.7995C876.615 68.2782 871.877 69.7866 867.188 71.4735L853.211 76.6374C834.629 83.625 816.184 90.9427 797.491 97.5773C788.149 100.91 778.744 104.067 769.259 106.864C759.746 109.62 750.107 111.964 740.427 114.095C701.644 122.383 662.157 127.033 622.678 130.884C602.932 132.812 583.142 134.4 563.365 136.097L504.042 141.391C494.15 142.256 484.262 143.136 474.395 144.154C464.516 145.127 454.639 146.164 444.802 147.652C434.985 149.151 425.182 151.06 415.649 153.917C406.12 156.789 396.829 160.554 388.137 165.418C379.398 170.23 371.428 176.367 364.151 183.131C356.773 189.811 349.83 196.932 343.055 204.199C329.508 218.749 316.808 234.028 303.503 248.768C276.683 278.001 249.042 306.721 217.716 331.135C213.807 334.191 209.826 337.155 205.814 340.063C201.798 342.957 197.637 345.666 193.526 348.441C189.437 351.242 185.165 353.774 180.982 356.457C176.763 359.07 172.456 361.531 168.203 364.074C151.003 373.959 133.206 382.809 114.935 390.542C78.4118 405.956 39.8609 417.13 0.312093 421.016C39.8779 417.253 78.4756 406.194 115.076 390.887C133.373 383.194 151.234 374.407 168.476 364.559C172.748 362.027 177.055 359.566 181.293 356.964C185.48 354.295 189.771 351.775 193.878 348.984C198.008 346.22 202.173 343.526 206.219 340.624C210.245 337.712 214.246 334.759 218.158 331.718C249.582 307.309 277.283 278.573 304.155 249.358C317.494 234.625 330.212 219.357 343.737 204.845C350.502 197.597 357.448 190.491 364.805 183.849C372.075 177.118 379.972 171.065 388.629 166.306C397.271 161.488 406.476 157.762 415.949 154.921C425.423 152.079 435.171 150.201 444.959 148.71C454.75 147.234 464.617 146.216 474.5 145.258C484.371 144.255 494.263 143.39 504.14 142.529L563.449 137.302C583.23 135.62 603.013 134.065 622.778 132.149C662.28 128.323 701.813 123.725 740.697 115.458C750.406 113.318 760.064 110.985 769.625 108.232C779.174 105.435 788.594 102.273 797.955 98.9516C816.681 92.3239 835.15 85.0319 853.721 78.0632L867.664 72.8924C872.309 71.2174 877.027 69.698 881.757 68.2233L895.974 63.7763C900.715 62.2827 905.401 60.5809 910.105 59.129C929.049 53.4314 948.91 51.2182 968.686 51.0044C973.635 50.9378 978.586 51.0617 983.539 51.249C988.481 51.4552 993.426 51.8518 998.381 52.166C1008.27 52.9443 1018.15 53.8684 1027.98 55.0583C1047.68 57.3519 1067.31 60.3675 1086.94 63.3494C1106.56 66.3164 1126.22 69.2754 1146 71.2426C1165.79 73.2584 1185.66 74.0551 1205.52 74.1389C1225.39 74.17 1245.26 73.2937 1265.03 71.4068C1284.81 69.5348 1304.47 66.5144 1323.97 62.7573C1362.98 55.2688 1401.38 45.0117 1440.25 37.0999L1454.86 34.3009C1459.74 33.4548 1464.66 32.7912 1469.56 32.0344L1476.92 30.9234C1479.37 30.5693 1481.84 30.3382 1484.31 30.0287L1499.08 28.3026C1518.83 26.39 1538.61 24.8502 1558.43 23.844C1598.06 21.6263 1637.76 20.5054 1677.37 17.6718C1682.32 17.3811 1687.26 16.9337 1692.21 16.5011L1707.04 15.1886L1721.82 13.5558L1729.22 12.7206L1736.6 11.6691L1751.33 9.57021L1765.99 6.93481L1773.31 5.61171L1780.57 3.98312L1795.08 0.685328Z" fill="#65BFFF"/>
</svg>
