<svg width="832" height="253" viewBox="0 0 832 253" fill="none" xmlns="http://www.w3.org/2000/svg">
<path d="M1591.35 -51.1117L1578.17 -46.0568C1575.96 -45.2284 1573.79 -44.3253 1571.56 -43.5751L1564.85 -41.4121L1558.13 -39.2493L1554.78 -38.1696L1553.09 -37.6345L1551.39 -37.1776L1537.75 -33.5653C1533.23 -32.2569 1528.59 -31.4177 1524.01 -30.3996L1517.11 -28.9275L1513.66 -28.1867C1512.51 -27.9615 1511.34 -27.7884 1510.18 -27.5893L1496.27 -25.2588L1492.78 -24.6875L1489.29 -24.2535L1482.28 -23.3819C1444.93 -18.6 1407.18 -18.1646 1369.61 -19.778C1350.82 -20.7385 1332.04 -22.0328 1313.34 -24.0355C1303.96 -24.9187 1294.63 -26.107 1285.29 -27.1936C1280.62 -27.7451 1275.96 -28.4244 1271.29 -29.0316C1266.63 -29.6684 1261.96 -30.2625 1257.31 -30.9583C1220.09 -36.3938 1183.1 -43.8495 1146.94 -54.2907C1110.76 -64.7024 1075.51 -78.2386 1041.64 -94.6452C1024.7 -102.847 1008.14 -111.807 991.971 -121.475C975.788 -131.11 959.811 -141.121 943.208 -150.084C926.666 -159.133 909.399 -166.983 891.36 -172.558C886.792 -173.778 882.302 -175.23 877.655 -176.122C875.348 -176.608 873.047 -177.179 870.732 -177.592L863.741 -178.695C854.406 -180.161 844.875 -180.485 835.45 -179.58C826.053 -178.571 816.692 -176.175 808.273 -171.726C799.832 -167.354 792.487 -160.874 786.965 -153.163C781.356 -145.513 776.838 -137.121 773.177 -128.4C769.551 -119.647 766.593 -110.696 763.668 -101.725C757.906 -83.7653 752.857 -65.5915 746.437 -47.9025C743.208 -39.074 739.69 -30.3358 735.51 -21.9368C733.279 -17.8185 731.263 -13.576 728.587 -9.71545C727.297 -7.76304 726.112 -5.72729 724.736 -3.83566L720.488 1.75938C719.771 2.67782 719.095 3.64147 718.332 4.54431L715.998 7.18163L711.338 12.4397L706.323 17.3601C704.655 18.9946 702.997 20.6683 701.175 22.1483L695.831 26.7238L694.49 27.8653L693.087 28.926L690.276 31.0344C688.387 32.4206 686.553 33.9041 684.617 35.219L678.751 39.0962L675.813 41.0429L672.774 42.8212L666.692 46.3647C664.686 47.5728 662.536 48.5542 660.473 49.652C658.386 50.7141 656.313 51.8284 654.199 52.8419L647.776 55.7364C645.635 56.7012 643.518 57.7017 641.309 58.5171C636.935 60.206 632.622 62.074 628.136 63.4997C592.654 75.8151 554.821 81.2303 517.276 79.9602C507.885 79.6403 498.511 78.911 489.184 77.7357C479.87 76.557 470.665 74.6367 461.465 72.6313C452.268 70.6389 443.072 68.5483 433.732 67.1671C424.409 65.7954 414.932 65.0514 405.489 65.8354C400.78 66.273 396.101 66.9818 391.501 68.0887C386.908 69.2215 382.416 70.7324 378.057 72.5292C369.343 76.1913 361.141 80.9318 353.294 86.1638C337.63 96.6897 323.459 109.191 308.733 120.876C301.398 126.768 293.754 132.239 286.118 137.736C278.478 143.22 270.781 148.649 263.004 153.932C247.452 164.512 231.502 174.542 214.924 183.426C198.401 192.408 180.98 199.605 163.513 206.576C146.009 213.46 128.259 219.739 110.318 225.412C74.4271 236.72 37.8302 245.757 0.837493 252.694C37.8485 245.878 74.4734 236.945 110.419 225.735C128.386 220.11 146.153 213.896 163.694 207.045C181.192 200.135 198.649 192.97 215.239 184.026C231.866 175.17 247.825 165.124 263.406 154.551C271.197 149.264 278.897 143.848 286.55 138.36C294.19 132.876 301.873 127.395 309.221 121.5C323.986 109.804 338.142 97.3489 353.764 86.8762C361.579 81.6806 369.749 76.9768 378.388 73.3485C382.721 71.5588 387.181 70.0844 391.722 68.9655C396.273 67.8856 400.909 67.1743 405.567 66.7506C414.916 65.978 424.323 66.7264 433.591 68.099C442.876 69.4811 452.055 71.5622 461.255 73.5676C470.455 75.573 479.694 77.5124 489.054 78.7067C498.41 79.888 507.814 80.6234 517.238 80.9624C554.908 82.2828 592.856 76.8789 628.504 64.5607C633.003 63.1315 637.329 61.2601 641.732 59.5771C643.941 58.7617 646.085 57.7543 648.226 56.7895L654.674 53.888C656.801 52.871 658.874 51.7567 660.987 50.6876C663.064 49.5864 665.227 48.6015 667.246 47.3899L673.363 43.8229L676.411 42.0281L679.362 40.0778L685.265 36.1772C687.213 34.8588 689.061 33.3718 690.962 31.9821L693.796 29.8538L695.212 28.7895L696.566 27.6446L701.959 23.0421C703.793 21.5586 705.464 19.8814 707.155 18.2268L712.215 13.2665L716.92 7.96836L719.277 5.31103C720.039 4.40817 720.729 3.44106 721.455 2.50608L725.745 -3.14201C727.131 -5.05017 728.338 -7.10592 729.638 -9.07485C732.346 -12.9719 734.394 -17.2509 736.64 -21.4154C740.862 -29.8674 744.412 -38.6422 747.646 -47.5002C754.108 -65.2422 759.183 -83.423 764.939 -101.353C767.842 -110.304 770.797 -119.268 774.378 -127.926C778.002 -136.581 782.458 -144.886 787.993 -152.447C793.437 -160.038 800.588 -166.355 808.85 -170.665C817.094 -175.039 826.295 -177.407 835.568 -178.411C844.869 -179.31 854.298 -179.001 863.558 -177.556L870.503 -176.469C872.814 -176.069 875.09 -175.491 877.393 -175.018C882.01 -174.132 886.484 -172.69 891.019 -171.488C908.975 -165.961 926.173 -158.163 942.679 -149.146C959.245 -140.215 975.228 -130.233 991.424 -120.602C1007.61 -110.941 1024.22 -101.965 1041.19 -93.7835C1075.13 -77.3813 1110.46 -63.8529 1146.68 -53.4682C1182.91 -43.0575 1219.93 -35.6384 1257.19 -30.2264C1261.84 -29.5305 1266.52 -28.9399 1271.18 -28.3031C1275.85 -27.696 1280.51 -27.0167 1285.18 -26.4816C1294.53 -25.3951 1303.87 -24.2103 1313.26 -23.3436C1331.98 -21.3609 1350.77 -20.0666 1369.58 -19.1556C1407.18 -17.6639 1444.97 -18.1915 1482.33 -23.1012L1489.33 -23.9988L1492.83 -24.4494L1496.32 -25.0337L1510.23 -27.4069C1511.39 -27.606 1512.56 -27.7921 1513.71 -28.0173L1517.17 -28.7616L1524.06 -30.2597C1528.65 -31.2943 1533.28 -32.143 1537.81 -33.4679L1551.45 -37.1229L1553.15 -37.5797L1554.83 -38.1279L1558.19 -39.2241L1564.91 -41.4L1571.62 -43.5759C1573.85 -44.3262 1576.01 -45.2424 1578.22 -46.0708L1591.35 -51.1117Z" fill="#65BFFF"/>
</svg>
