<svg width="861" height="419" viewBox="0 0 861 419" fill="none" xmlns="http://www.w3.org/2000/svg">
<path d="M1805.91 34.9341C1767.24 46.6036 1727.76 55.7617 1687.74 61.2725L1680.24 62.326L1676.5 62.8508L1672.74 63.2674L1657.68 64.9124L1653.92 65.3142L1650.15 65.6079L1642.6 66.1953C1637.57 66.5397 1632.54 67.0893 1627.48 67.2324L1612.36 67.9223C1609.83 68.0722 1607.31 68.0951 1604.78 68.118L1597.21 68.2016C1587.11 68.4688 1577.02 68.0973 1566.93 67.8825C1546.77 67.0047 1526.59 65.6527 1506.6 62.7664C1496.57 61.6133 1486.64 59.6816 1476.69 58.0117C1474.2 57.627 1471.74 57.0439 1469.28 56.5243L1461.88 54.9356C1456.94 53.8666 1452 52.865 1447.1 51.6274C1407.82 42.1458 1369.18 30.0206 1329.64 21.4397C1309.86 17.1567 1289.9 13.8181 1269.81 11.4376C1249.74 9.05312 1229.55 7.51076 1209.37 6.44644C1189.19 5.36725 1168.99 4.73635 1148.8 3.94476C1128.62 3.16805 1108.47 1.64749 1088.27 0.811286C1078.18 0.376329 1068.06 0.154615 1057.94 0.235399C1047.82 0.301309 1037.7 0.699465 1027.63 1.58255C1022.58 1.93088 1017.55 2.5926 1012.53 3.15711C1007.52 3.87831 1002.5 4.52119 997.518 5.47345C987.539 7.14295 977.636 9.50959 968.019 12.7081C948.811 19.0823 930.539 29.1273 916.026 43.4576C912.515 47.1083 908.838 50.6123 905.498 54.4245C902.116 58.2 898.86 62.0856 895.659 66.0038L876.674 89.6625C864.024 105.422 851.234 121.076 837.456 135.832C830.566 143.209 823.461 150.374 816.044 157.207C808.668 164.077 800.832 170.417 792.5 176.093C784.21 181.806 775.479 186.887 766.451 191.331C757.43 195.804 748.097 199.644 738.539 202.827C719.441 209.251 699.528 213.057 679.497 215.347C659.443 217.612 639.251 218.352 619.073 218.434C598.888 218.487 578.688 217.953 558.488 217.356L528.193 216.451C518.101 216.094 508.02 215.479 497.93 215.011C477.771 214.036 457.358 213.83 437.395 217.506C427.43 219.347 417.65 222.174 408.194 225.792C398.737 229.41 389.585 233.807 380.708 238.641C362.926 248.315 346.177 259.706 329.303 270.811C320.879 276.384 312.341 281.764 303.818 287.204L278.234 303.465C261.146 314.245 243.915 324.792 226.289 334.632C208.693 344.528 190.52 353.398 172.226 361.935C153.901 370.416 135.298 378.334 116.44 385.539C78.6974 399.908 39.7895 411.354 0.0789278 418.854C39.8065 411.477 78.7613 400.146 116.565 385.888C135.469 378.734 154.088 370.876 172.455 362.432C190.799 353.961 208.998 345.131 226.655 335.283C244.334 325.461 261.579 314.91 278.675 304.16L304.267 287.929C312.793 282.504 321.351 277.134 329.789 271.557C346.686 260.478 363.41 249.11 381.159 239.492C390.025 234.678 399.14 230.322 408.538 226.72C417.95 223.114 427.663 220.336 437.569 218.511C457.417 214.883 477.741 215.112 497.87 216.095C507.964 216.578 518.045 217.193 528.141 217.564L558.444 218.499C578.638 219.13 598.841 219.679 619.064 219.648C639.283 219.603 659.524 218.866 679.631 216.619C699.73 214.342 719.724 210.547 738.96 204.101C748.577 200.902 757.974 197.061 767.054 192.572C776.157 188.108 784.946 183.011 793.292 177.268C801.684 171.576 809.601 165.182 817.017 158.285C824.475 151.425 831.625 144.249 838.525 136.852C852.355 122.051 865.193 106.4 877.858 90.6364L896.81 66.9708C899.995 63.0566 903.241 59.1899 906.597 55.4372C909.911 51.6478 913.563 48.1667 917.062 44.5348C931.385 30.3832 949.423 20.4167 968.479 14.0675C978.017 10.874 987.827 8.51631 997.772 6.8399C1002.72 5.89558 1007.72 5.24184 1012.72 4.50974C1017.72 3.94921 1022.72 3.28057 1027.75 2.93623C1037.79 2.04622 1047.87 1.64117 1057.96 1.56835C1068.04 1.46578 1078.14 1.67658 1088.22 2.11552C1108.4 2.92596 1128.56 4.42767 1148.77 5.18155C1168.97 5.95428 1189.15 6.55543 1209.32 7.62373C1229.5 8.67318 1249.64 10.1789 1269.7 12.5525C1289.74 14.8963 1309.69 18.224 1329.43 22.4664C1368.93 30.9808 1407.57 43.0723 1446.91 52.5231C1451.81 53.7608 1456.76 54.7435 1461.71 55.8085L1469.13 57.3932C1471.6 57.9088 1474.07 58.4919 1476.56 58.8767C1486.52 60.5425 1496.46 62.4703 1506.51 63.6193C1526.54 66.4789 1546.73 67.8269 1566.94 68.6631C1577.04 68.8402 1587.15 69.1928 1597.26 68.8918L1604.83 68.7745C1607.36 68.7516 1609.89 68.7098 1612.42 68.56L1627.57 67.8323C1632.62 67.6744 1637.64 67.1099 1642.68 66.7467L1650.24 66.1404L1654.01 65.8318L1657.78 65.4112L1672.85 63.7176L1676.61 63.2821L1680.37 62.7384L1687.86 61.6552C1727.83 55.9997 1767.27 46.7226 1805.91 34.9341Z" fill="#65BFFF"/>
</svg>
