<svg width="838" height="231" viewBox="0 0 838 231" fill="none" xmlns="http://www.w3.org/2000/svg">
<path d="M1597.18 -51.9896C1579.28 -43.7835 1560.81 -36.8381 1541.92 -31.2736C1537.18 -29.9615 1532.4 -28.7929 1527.63 -27.5425C1525.24 -26.9564 1522.89 -26.2435 1520.47 -25.7617L1513.23 -24.2711L1506 -22.7805L1502.39 -22.037C1501.19 -21.8109 1499.96 -21.6499 1498.76 -21.4534L1484.17 -19.1509C1445.16 -13.867 1405.53 -13.4335 1366.35 -17.3411L1359 -18.0251C1356.56 -18.2795 1354.12 -18.6451 1351.68 -18.9421L1337.04 -20.8448L1322.47 -23.2561C1320.05 -23.6678 1317.61 -24.0204 1315.19 -24.4912L1307.96 -25.9464C1303.14 -26.9471 1298.29 -27.8132 1293.49 -28.9157L1279.12 -32.3023C1269.53 -34.5534 1260.04 -37.1792 1250.58 -39.8971C1212.76 -50.9167 1175.8 -64.7914 1139.79 -80.7504C1103.78 -96.7093 1068.71 -114.877 1035.25 -135.683C1018.49 -146.057 1002.29 -157.266 986.458 -169.021C978.528 -174.874 970.618 -180.759 962.624 -186.539C954.599 -192.282 946.493 -197.906 938.145 -203.185C921.445 -213.659 903.767 -222.935 884.764 -228.517L881.225 -229.595C880.042 -229.948 878.822 -230.18 877.627 -230.475L870.397 -232.156L863.071 -233.308C861.852 -233.485 860.632 -233.717 859.407 -233.863L855.71 -234.228C850.784 -234.599 845.812 -234.775 840.867 -234.386C838.394 -234.296 835.936 -233.889 833.473 -233.606C831.033 -233.134 828.577 -232.77 826.2 -232.063C823.781 -231.512 821.452 -230.623 819.096 -229.838C816.825 -228.838 814.479 -227.958 812.33 -226.712C810.084 -225.621 808.056 -224.183 805.96 -222.84C804.019 -221.286 801.958 -219.867 800.217 -218.087C799.336 -217.209 798.359 -216.43 797.558 -215.461L795.086 -212.661C794.246 -211.737 793.597 -210.669 792.83 -209.681C792.095 -208.674 791.328 -207.686 790.725 -206.603C788.041 -202.405 785.837 -197.93 784.003 -193.318C780.324 -184.089 778.085 -174.38 776.261 -164.684C774.47 -154.97 772.911 -145.219 771.496 -135.452C768.638 -115.923 766.212 -96.3428 762.658 -76.963C760.873 -67.2778 758.809 -57.6437 756.279 -48.1362C753.748 -38.6286 750.827 -29.2259 746.705 -20.2976C738.595 -2.40729 727.021 13.8544 712.965 27.568C698.972 41.3624 682.612 52.6197 665.123 61.5391C647.576 70.3481 628.876 76.8817 609.656 80.9558C590.454 85.0952 570.734 86.8864 551.088 86.3525C541.267 86.092 531.452 85.2292 521.735 83.7953C512 82.3944 502.392 80.2746 492.965 77.4775C483.533 74.71 474.213 71.4791 464.769 68.6169C455.338 65.7511 445.762 63.1758 435.944 61.9367C426.145 60.6645 416.136 60.6919 406.403 62.5313C396.666 64.3021 387.269 67.6024 378.343 71.8245C360.457 80.3052 344.528 92.1316 328.446 103.44C312.503 115.005 295.355 124.727 278.6 135.084C261.683 145.15 244.473 154.748 226.708 163.211C217.824 167.435 208.811 171.387 199.63 174.923C195.046 176.71 190.406 178.345 185.79 180.07L171.87 184.974C153.243 191.362 134.439 197.197 115.503 202.592C77.6391 213.408 39.2766 222.416 0.819185 230.863C39.308 222.534 77.682 213.62 115.591 202.918C134.537 197.562 153.371 191.789 172.026 185.449L185.969 180.581C190.588 178.869 195.231 177.247 199.833 175.47C209.033 171.956 218.079 168.024 226.997 163.818C244.811 155.384 262.043 145.766 278.98 135.723C295.726 125.382 312.917 115.662 328.902 104.1C345 92.8013 360.914 81.0211 378.706 72.6073C387.571 68.4157 396.91 65.1589 406.556 63.4126C416.197 61.5975 426.108 61.5685 435.825 62.8486C445.559 64.0826 455.092 66.6553 464.497 69.528C473.915 72.3972 483.222 75.6316 492.687 78.4182C502.147 81.2344 511.817 83.3794 521.582 84.7863C531.345 86.2359 541.19 87.1047 551.057 87.3808C570.778 87.9363 590.573 86.1668 609.87 82.0161C629.175 77.947 647.97 71.4021 665.621 62.5652C683.217 53.631 699.688 42.3161 713.784 28.4382C727.947 14.6542 739.626 -1.73365 747.825 -19.7596C751.973 -28.7505 754.951 -38.2524 757.487 -47.7895C760.033 -57.3431 762.12 -66.9972 763.911 -76.7119C767.494 -96.1413 769.946 -115.729 772.808 -135.245C774.226 -144.999 775.758 -154.742 777.543 -164.427C779.362 -174.093 781.57 -183.71 785.195 -192.827C787.003 -197.377 789.17 -201.785 791.793 -205.897C792.382 -206.977 793.147 -207.922 793.856 -208.922C794.601 -209.89 795.244 -210.929 796.062 -211.833L798.479 -214.576C799.257 -215.525 800.212 -216.284 801.07 -217.142C802.776 -218.899 804.788 -220.29 806.684 -221.804C808.731 -223.121 810.724 -224.535 812.922 -225.599C815.035 -226.822 817.315 -227.684 819.551 -228.66C821.868 -229.435 824.144 -230.31 826.525 -230.85C828.867 -231.534 831.292 -231.904 833.677 -232.376C836.098 -232.661 838.513 -233.071 840.96 -233.154C845.837 -233.538 850.75 -233.374 855.617 -233.015L859.267 -232.666C860.489 -232.533 861.696 -232.297 862.899 -232.131L870.165 -230.99L877.333 -229.334C878.528 -229.04 879.731 -228.817 880.914 -228.464L884.437 -227.396C903.311 -221.877 920.903 -212.662 937.56 -202.246C945.875 -196.986 953.977 -191.375 961.996 -185.658C969.986 -179.891 977.906 -174.022 985.835 -168.169C1001.68 -156.418 1017.94 -145.197 1034.72 -134.83C1068.25 -114.028 1103.37 -95.8745 1139.44 -79.9295C1175.5 -63.9976 1212.5 -50.1334 1250.38 -39.1442C1259.85 -36.4298 1269.36 -33.8075 1278.96 -31.5599L1293.35 -28.1802C1298.15 -27.0908 1303 -26.2117 1307.83 -25.2144L1315.08 -23.7628C1317.5 -23.2919 1319.95 -22.9428 1322.37 -22.5311L1336.97 -20.1399L1351.63 -18.2571C1354.07 -17.9602 1356.52 -17.598 1358.96 -17.3436L1366.32 -16.6761C1405.55 -12.8677 1445.21 -13.4063 1484.25 -18.8085L1498.84 -21.1535C1500.05 -21.3536 1501.28 -21.5276 1502.48 -21.7537L1506.08 -22.4937L1513.3 -24.0104L1520.53 -25.527C1522.94 -26.0184 1525.3 -26.7348 1527.69 -27.3339C1532.44 -28.5938 1537.23 -29.7921 1541.97 -31.1172C1560.86 -36.7243 1579.3 -43.7349 1597.18 -51.9896Z" fill="#65BFFF"/>
</svg>
