<svg width="594" height="474" viewBox="0 0 594 474" fill="none" xmlns="http://www.w3.org/2000/svg">
<path d="M1781.35 0.345088C1700.29 10.5244 1618.15 3.2989 1537.12 14.6802C1527.03 16.1723 1516.95 17.8359 1506.98 20.0618L1503.23 20.8593L1499.51 21.7609L1492.07 23.5791C1487.15 24.9449 1482.21 26.2214 1477.35 27.8103C1457.79 33.7196 1439 42.0552 1421.16 51.9362C1385.25 71.3771 1351.05 93.7254 1315.37 113.458C1279.79 133.352 1242.07 149.342 1203.12 161.371C1164.2 173.459 1124.01 181.277 1083.46 185.4C1063.19 187.452 1042.84 188.728 1022.46 189.183C1002.08 189.702 981.692 189.411 961.316 188.813C940.944 188.166 920.553 187.157 900.27 185.419C879.984 183.553 859.85 180.292 839.802 176.578C799.704 169.149 760.108 159.194 720.258 150.312C680.455 141.369 640.336 133.325 599.689 129.072C579.377 126.99 558.966 125.844 538.531 125.915L534.697 125.922L530.875 126.037L523.226 126.302C518.119 126.49 513.018 126.582 507.923 126.991C497.738 127.711 487.578 128.824 477.481 130.349C457.283 133.386 437.319 138.066 417.965 144.607C398.629 151.159 379.89 159.815 363.025 171.427C354.62 177.25 346.718 183.815 339.517 191.101C335.947 194.767 332.552 198.61 329.398 202.644C326.264 206.688 323.246 210.812 320.244 214.932C308.249 231.473 296.974 248.507 285.674 265.499C263.06 299.44 240.031 333.316 212.629 363.582C185.529 394.086 152.823 419.412 117.072 438.955L113.732 440.807L110.326 442.532L103.496 445.972C98.9242 448.217 94.2402 450.222 89.6109 452.371C84.8803 454.26 80.1775 456.254 75.4 458.028L68.1852 460.567L64.5779 461.836L60.9266 462.942C41.4587 468.94 21.2524 472.776 0.836969 473.336C21.2387 472.843 41.4757 469.063 60.9744 463.121L64.6446 462.026L68.2559 460.771L75.4787 458.262C80.2601 456.502 84.9668 454.524 89.7164 452.645C94.3536 450.526 99.0525 448.518 103.628 446.288L110.477 442.858L113.901 441.144L117.26 439.303C153.114 419.844 185.947 394.579 213.197 364.099C240.693 333.824 263.762 299.921 286.413 266.002C297.733 249.021 309.03 232.013 321.018 215.506C324.025 211.401 327.057 207.272 330.17 203.266C333.316 199.266 336.686 195.446 340.234 191.817C347.383 184.577 355.254 178.069 363.606 172.292C380.383 160.766 399.046 152.179 418.311 145.662C437.614 139.166 457.512 134.536 477.65 131.515C487.717 129.998 497.851 128.908 508.007 128.196C513.077 127.81 518.178 127.718 523.27 127.533L530.904 127.273L534.725 127.158L538.549 127.17C558.924 127.114 579.291 128.272 599.562 130.381C640.124 134.673 680.169 142.737 719.95 151.718C759.749 160.645 799.357 170.644 839.511 178.106C859.589 181.813 879.764 185.047 900.128 186.907C920.485 188.626 940.868 189.605 961.266 190.229C981.667 190.804 1002.08 191.073 1022.49 190.531C1042.89 190.053 1063.28 188.75 1083.6 186.671C1124.2 182.503 1164.48 174.628 1203.47 162.475C1242.46 150.385 1280.24 134.331 1315.86 114.361C1351.56 94.561 1385.74 72.1869 1421.58 52.7323C1439.4 42.8404 1458.09 34.5327 1477.59 28.6055C1482.44 27.0206 1487.36 25.748 1492.26 24.3714L1499.68 22.5423L1503.39 21.6446L1507.13 20.8511C1517.07 18.6183 1527.13 16.9736 1537.21 15.4369C1618.09 3.80775 1700.32 10.7703 1781.35 0.345088Z" fill="#65BFFF"/>
</svg>
