<svg width="612" height="495" viewBox="0 0 612 495" fill="none" xmlns="http://www.w3.org/2000/svg">
<path d="M1815.52 147.774L1800.48 153.542C1797.96 154.487 1795.48 155.518 1792.94 156.374L1785.28 158.842L1777.61 161.309L1773.79 162.541L1771.87 163.152L1769.92 163.673L1754.36 167.795C1749.21 169.288 1743.91 170.246 1738.68 171.407L1730.81 173.087L1726.88 173.932C1725.56 174.189 1724.23 174.387 1722.91 174.614L1707.03 177.273L1703.05 177.925L1699.06 178.42L1691.07 179.415C1648.45 184.871 1605.37 185.368 1562.5 183.527C1541.07 182.431 1519.63 180.954 1498.3 178.669C1487.6 177.661 1476.95 176.305 1466.29 175.065C1460.96 174.436 1455.65 173.661 1450.32 172.968C1445 172.242 1439.68 171.564 1434.37 170.77C1391.9 164.568 1349.69 156.06 1308.43 144.147C1267.15 132.267 1226.93 116.821 1188.28 98.1006C1168.95 88.7424 1150.05 78.5179 1131.61 67.4868C1113.14 56.4933 1094.91 45.0702 1075.97 34.8428C1057.09 24.5172 1037.39 15.5609 1016.81 9.19981C1011.59 7.80671 1006.47 6.15073 1001.17 5.1326C998.536 4.57838 995.91 3.92698 993.268 3.4551L985.291 2.19719C974.639 0.523945 963.764 0.154089 953.01 1.1865C942.287 2.33792 931.607 5.07216 922 10.1491C912.369 15.1368 903.988 22.5315 897.686 31.3298C891.286 40.0588 886.132 49.6337 881.954 59.5847C877.817 69.5724 874.442 79.7866 871.104 90.0225C864.529 110.515 858.768 131.252 851.442 151.436C847.759 161.509 843.745 171.48 838.975 181.064C836.429 185.763 834.129 190.604 831.075 195.009C829.603 197.236 828.252 199.559 826.681 201.718L821.834 208.102C821.016 209.15 820.244 210.249 819.374 211.28L816.711 214.289L811.394 220.289L805.672 225.903C803.768 227.768 801.876 229.678 799.798 231.366L793.699 236.587L792.17 237.89L790.568 239.1L787.361 241.506C785.206 243.087 783.113 244.78 780.904 246.281L774.21 250.704L770.858 252.926L767.39 254.955L760.451 258.998C758.162 260.377 755.709 261.496 753.354 262.749C750.973 263.961 748.608 265.232 746.196 266.389L738.867 269.692C736.424 270.792 734.008 271.934 731.488 272.864C726.497 274.792 721.576 276.923 716.457 278.55C675.971 292.602 632.802 298.781 589.962 297.332C579.247 296.967 568.55 296.135 557.908 294.794C547.281 293.449 536.777 291.258 526.279 288.969C515.785 286.696 505.293 284.31 494.635 282.734C483.997 281.169 473.184 280.32 462.409 281.215C457.035 281.714 451.697 282.523 446.448 283.786C441.207 285.079 436.082 286.803 431.108 288.853C421.165 293.031 411.806 298.44 402.852 304.41C384.98 316.421 368.809 330.685 352.007 344.019C343.637 350.741 334.915 356.983 326.202 363.256C317.484 369.513 308.702 375.708 299.828 381.736C282.083 393.808 263.883 405.253 244.967 415.39C226.113 425.639 206.236 433.851 186.306 441.805C166.332 449.66 146.079 456.824 125.608 463.298C84.6551 476.2 42.8966 486.512 0.686602 494.427C42.9176 486.65 84.708 476.457 125.723 463.666C146.224 457.248 166.497 450.158 186.512 442.34C206.477 434.455 226.397 426.281 245.326 416.075C264.299 405.97 282.509 394.507 300.287 382.442C309.177 376.41 317.963 370.23 326.695 363.968C335.413 357.711 344.179 351.456 352.564 344.73C369.41 331.385 385.563 317.173 403.388 305.223C412.306 299.295 421.628 293.928 431.486 289.788C436.43 287.745 441.519 286.063 446.7 284.786C451.893 283.554 457.183 282.743 462.498 282.259C473.165 281.378 483.899 282.232 494.475 283.798C505.069 285.375 515.542 287.749 526.04 290.038C536.538 292.326 547.079 294.539 557.759 295.902C568.435 297.249 579.165 298.089 589.918 298.475C632.901 299.982 676.201 293.816 716.877 279.76C722.011 278.13 726.946 275.994 731.971 274.074C734.491 273.144 736.937 271.994 739.38 270.893L746.738 267.582C749.165 266.422 751.531 265.151 753.942 263.931C756.311 262.674 758.779 261.55 761.083 260.168L768.063 256.098L771.541 254.05L774.908 251.825L781.643 247.374C783.866 245.869 785.974 244.173 788.144 242.587L791.377 240.159L792.994 238.944L794.538 237.638L800.692 232.386C802.785 230.693 804.692 228.78 806.621 226.892L812.395 221.232L817.763 215.186L820.452 212.154C821.322 211.124 822.109 210.021 822.937 208.954L827.832 202.509C829.414 200.332 830.791 197.986 832.274 195.74C835.364 191.293 837.701 186.41 840.264 181.659C845.082 172.015 849.132 162.002 852.823 151.895C860.196 131.651 865.987 110.906 872.555 90.4468C875.867 80.2337 879.238 70.0047 883.324 60.1261C887.459 50.2505 892.545 40.7738 898.86 32.1471C905.071 23.4847 913.232 16.2766 922.658 11.3595C932.065 6.36803 942.564 3.66668 953.144 2.52135C963.757 1.49498 974.516 1.84807 985.082 3.49659L993.007 4.73668C995.644 5.1937 998.24 5.85307 1000.87 6.3924C1006.14 7.40362 1011.24 9.04872 1016.42 10.42C1036.9 16.7266 1056.53 25.6245 1075.36 35.9135C1094.26 46.1042 1112.5 57.4936 1130.98 68.483C1149.46 79.5062 1168.4 89.7485 1187.76 99.0839C1226.49 117.799 1266.81 133.236 1308.14 145.085C1349.48 156.964 1391.71 165.43 1434.23 171.605C1439.53 172.399 1444.87 173.073 1450.19 173.799C1455.52 174.492 1460.84 175.267 1466.17 175.878C1476.84 177.118 1487.5 178.47 1498.2 179.458C1519.57 181.721 1541.01 183.198 1562.47 184.237C1605.38 185.939 1648.5 185.337 1691.12 179.735L1699.11 178.711L1703.11 178.197L1707.08 177.53L1722.96 174.822C1724.28 174.595 1725.61 174.383 1726.93 174.126L1730.87 173.276L1738.74 171.567C1743.98 170.386 1749.26 169.418 1754.42 167.906L1769.99 163.736L1771.93 163.214L1773.85 162.589L1777.69 161.338L1785.35 158.855L1793.01 156.373C1795.55 155.517 1798.02 154.471 1800.54 153.526L1815.52 147.774Z" fill="#65BFFF"/>
</svg>
