<svg width="644" height="422" viewBox="0 0 644 422" fill="none" xmlns="http://www.w3.org/2000/svg">
<path d="M1800.87 15.1153C1762.29 24.4978 1723.31 32.501 1683.93 37.7285C1664.27 40.5099 1644.48 42.3373 1624.68 43.7055C1614.76 44.2274 1604.86 44.8724 1594.94 44.9649L1587.5 45.1396L1583.78 45.227L1580.06 45.1875L1565.18 45.048C1545.34 44.5121 1525.48 43.4574 1505.79 40.906C1495.91 39.9035 1486.14 38.1374 1476.33 36.5884C1473.87 36.2443 1471.46 35.679 1469.02 35.2L1461.73 33.6956C1456.87 32.685 1452 31.7419 1447.18 30.5478C1427.84 26.0036 1408.64 20.8821 1389.32 16.1773C1370.01 11.4684 1350.57 7.14251 1330.87 4.35606C1311.17 1.55077 1291.25 0.336463 1271.37 0.723868C1261.43 0.883837 1251.49 1.47325 1241.58 2.26398C1231.68 3.1628 1221.79 4.20344 1211.95 5.61297C1192.25 8.32395 1172.71 11.9661 1153.23 15.8948C1133.77 19.8493 1114.28 23.6699 1094.84 27.8108C1075.41 31.9328 1056.04 36.4684 1036.87 41.7179C1027.3 44.3778 1017.75 47.1905 1008.28 50.2074C998.83 53.265 989.381 56.4346 980.161 60.1643C961.687 67.5535 943.813 76.6471 927.555 88.2088C923.494 91.1141 919.567 94.1591 915.594 97.1527L903.952 106.457C896.192 112.665 888.463 118.929 880.668 125.066C865.083 137.357 849.148 149.23 832.565 160.114C824.266 165.558 815.821 170.754 807.195 175.632C798.57 180.509 789.775 185.114 780.724 189.117C771.655 193.109 762.394 196.627 752.941 199.606C743.481 202.556 733.869 205.003 724.163 206.919C704.714 210.727 684.861 212.141 665.031 212.21C625.332 212.39 585.751 207.836 545.982 207.157C526.099 206.794 506.224 207.353 486.372 208.352C466.532 209.396 446.657 211.501 427.289 216.149C407.909 220.752 389.318 228.3 371.7 237.516C354.04 246.696 337.236 257.352 320.539 268.107L270.51 300.482C253.871 311.333 237.178 322.103 220.197 332.391C203.242 342.721 185.889 352.392 168.281 361.59C150.669 370.772 132.78 379.392 114.514 387.203C78.0353 402.844 39.9644 415.038 0.829375 421.953C39.9854 415.176 78.1179 403.093 114.673 387.559C132.965 379.788 150.901 371.22 168.544 362.093C186.186 352.966 203.581 343.332 220.581 333.054C237.6 322.787 254.293 312.017 270.955 301.192L321.03 268.868C337.731 258.128 354.527 247.506 372.151 238.368C389.733 229.193 408.232 221.718 427.527 217.154C446.81 212.545 466.624 210.455 486.424 209.438C506.25 208.462 526.114 207.922 545.957 208.312C585.644 209.044 625.219 213.632 665.027 213.502C684.906 213.436 704.86 212.043 724.406 208.24C734.176 206.324 743.835 203.879 753.34 200.918C762.838 197.927 772.162 194.408 781.276 190.404C790.386 186.385 799.225 181.768 807.881 176.883C816.551 171.993 825.026 166.789 833.354 161.337C849.996 150.438 865.981 138.567 881.595 126.269C889.397 120.097 897.111 113.838 904.856 107.634L916.479 98.3182C920.437 95.3287 924.365 92.2837 928.385 89.4052C944.517 77.909 962.287 68.8433 980.672 61.478C989.862 57.7562 999.267 54.5985 1008.7 51.5301C1018.14 48.5063 1027.66 45.6827 1037.22 43.0267C1056.36 37.7555 1075.68 33.2318 1095.1 29.08C1114.52 24.9282 1134.01 21.0927 1153.46 17.1085C1172.92 13.1689 1192.45 9.5159 1212.1 6.78313C1221.93 5.36269 1231.79 4.31516 1241.67 3.40545C1251.56 2.60383 1261.46 2.00751 1271.38 1.83664C1291.21 1.43143 1311.07 2.63189 1330.72 5.40053C1350.37 8.16917 1369.79 12.4505 1389.08 17.1484C1408.39 21.8275 1427.6 26.9301 1446.96 31.4515C1451.78 32.6307 1456.67 33.5847 1461.53 34.5764L1468.84 36.0769C1471.28 36.5707 1473.7 37.1172 1476.17 37.4613C1485.99 39.0063 1495.77 40.7685 1505.68 41.7481C1525.41 44.2727 1545.29 45.3234 1565.16 45.8028L1580.06 45.8896L1583.79 45.9103L1587.52 45.8041L1594.97 45.6105C1604.91 45.4803 1614.82 44.8016 1624.73 44.2499C1644.55 42.8143 1664.33 40.9086 1684 38.0786C1723.36 32.7429 1762.32 24.6168 1800.87 15.1153Z" fill="#65BFFF"/>
</svg>
