<svg width="860" height="155" viewBox="0 0 860 155" fill="none" xmlns="http://www.w3.org/2000/svg">
<path d="M1578.47 -202.429C1544.65 -194.207 1510.5 -187.193 1475.98 -182.611C1458.75 -180.174 1441.41 -178.572 1424.06 -177.373C1415.36 -176.916 1406.68 -176.35 1397.99 -176.269L1391.47 -176.116L1388.21 -176.04L1384.95 -176.074L1371.9 -176.196C1354.52 -176.666 1337.12 -177.59 1319.86 -179.826C1311.2 -180.705 1302.64 -182.253 1294.04 -183.61C1291.88 -183.912 1289.77 -184.407 1287.63 -184.827L1281.24 -186.146C1276.99 -187.031 1272.72 -187.858 1268.49 -188.904C1251.55 -192.887 1234.72 -197.375 1217.78 -201.499C1200.86 -205.625 1183.83 -209.417 1166.56 -211.859C1149.3 -214.317 1131.84 -215.381 1114.41 -215.042C1105.7 -214.902 1096.99 -214.385 1088.31 -213.692C1079.63 -212.904 1070.96 -211.992 1062.34 -210.757C1045.08 -208.381 1027.95 -205.189 1010.88 -201.746C993.824 -198.281 976.739 -194.932 959.702 -191.303C942.674 -187.691 925.702 -183.716 908.897 -179.115C900.51 -176.784 892.144 -174.319 883.841 -171.675C875.561 -168.995 867.28 -166.217 859.2 -162.949C843.009 -156.473 827.344 -148.503 813.095 -138.37C809.537 -135.824 806.095 -133.156 802.613 -130.532L792.41 -122.378C785.609 -116.937 778.835 -111.448 772.004 -106.069C758.346 -95.2975 744.38 -84.8913 729.847 -75.353C722.573 -70.582 715.172 -66.0283 707.613 -61.7534C700.053 -57.4786 692.346 -53.4435 684.414 -49.9349C676.465 -46.436 668.349 -43.3532 660.065 -40.7422C651.774 -38.1573 643.35 -36.0121 634.844 -34.3336C617.799 -30.9957 600.4 -29.7566 583.02 -29.6962C548.229 -29.5387 513.539 -33.53 478.686 -34.1243C461.261 -34.4428 443.843 -33.9529 426.444 -33.0771C409.056 -32.1622 391.639 -30.3173 374.665 -26.2441C357.68 -22.21 341.387 -15.595 325.946 -7.51789C310.469 0.5271 295.743 9.86574 281.109 19.2912L237.264 47.6649C222.681 57.1746 208.051 66.6131 193.169 75.6303C178.311 84.683 163.102 93.159 147.671 101.22C132.236 109.267 116.557 116.821 100.55 123.667C68.5799 137.375 35.2146 148.061 0.916881 154.122C35.2331 148.182 68.6522 137.593 100.689 123.979C116.72 117.169 132.439 109.66 147.901 101.661C163.363 93.662 178.608 85.2182 193.506 76.2106C208.421 67.2125 223.051 57.774 237.654 48.2869L281.539 19.9584C296.176 10.5459 310.896 1.23689 326.342 -6.7716C341.75 -14.8122 357.963 -21.3637 374.873 -25.3638C391.772 -29.403 409.138 -31.234 426.49 -32.1254C443.866 -32.9812 461.274 -33.4545 478.664 -33.1126C513.447 -32.4712 548.13 -28.4504 583.017 -28.5636C600.439 -28.6215 617.926 -29.8424 635.057 -33.1752C643.619 -34.8546 652.084 -36.9972 660.415 -39.5925C668.738 -42.214 676.91 -45.2977 684.897 -48.8071C692.882 -52.3296 700.628 -56.3752 708.214 -60.657C715.812 -64.9423 723.239 -69.503 730.538 -74.2809C745.124 -83.8332 759.132 -94.2369 772.817 -105.015C779.654 -110.423 786.415 -115.909 793.202 -121.347L803.389 -129.511C806.858 -132.131 810.3 -134.799 813.823 -137.322C827.961 -147.397 843.535 -155.342 859.648 -161.797C867.702 -165.059 875.944 -167.826 884.207 -170.516C892.481 -173.166 900.83 -175.64 909.204 -177.968C925.976 -182.588 942.909 -186.552 959.93 -190.191C976.951 -193.829 994.032 -197.191 1011.08 -200.682C1028.13 -204.135 1045.24 -207.337 1062.47 -209.732C1071.08 -210.976 1079.72 -211.895 1088.38 -212.692C1097.05 -213.394 1105.73 -213.917 1114.42 -214.067C1131.8 -214.422 1149.2 -213.37 1166.43 -210.943C1183.65 -208.517 1200.67 -204.765 1217.58 -200.648C1234.5 -196.547 1251.33 -192.075 1268.3 -188.112C1272.52 -187.079 1276.81 -186.243 1281.07 -185.374L1287.48 -184.059C1289.62 -183.626 1291.74 -183.147 1293.9 -182.845C1302.51 -181.491 1311.08 -179.947 1319.76 -179.088C1337.06 -176.876 1354.48 -175.955 1371.89 -175.535L1384.95 -175.459L1388.22 -175.441L1391.49 -175.534L1398.01 -175.703C1406.73 -175.818 1415.41 -176.412 1424.1 -176.896C1441.47 -178.154 1458.8 -179.824 1476.04 -182.304C1510.54 -186.981 1544.68 -194.102 1578.47 -202.429Z" fill="#65BFFF"/>
</svg>
