<svg width="826" height="422" viewBox="0 0 826 422" fill="none" xmlns="http://www.w3.org/2000/svg">
<path d="M1795.45 0.685328L1780.92 3.90876L1773.65 5.52242L1766.32 6.81585L1751.67 9.40266L1736.92 11.4569L1729.56 12.4895L1722.17 13.3059L1707.37 14.913L1692.54 16.1769C1687.59 16.5946 1682.66 17.0231 1677.7 17.299C1638.09 20.0205 1598.41 21.0104 1558.76 23.1052C1538.93 24.0668 1519.13 25.6105 1499.37 27.4934L1484.58 29.2085C1482.11 29.5032 1479.65 29.7492 1477.19 30.0884L1469.83 31.1845C1464.92 31.9413 1460 32.59 1455.1 33.4401L1440.47 36.2282C1401.55 44.1223 1363.16 54.3307 1324.18 61.7627C1304.69 65.5009 1285.07 68.4945 1265.32 70.3437C1245.57 72.1929 1225.74 73.0573 1205.91 72.9993C1186.08 72.9076 1166.24 72.088 1146.51 70.0563C1126.78 68.0732 1107.15 65.0913 1087.53 62.1094C1067.89 59.1127 1048.26 56.0673 1028.54 53.748C1018.68 52.5472 1008.78 51.5974 998.876 50.8082C993.917 50.479 988.972 50.0825 983.996 49.8694C979.025 49.6712 974.054 49.5364 969.076 49.611C949.199 49.804 929.207 52.0045 910.081 57.7349C905.298 59.1919 900.642 60.8857 895.931 62.3713L881.725 66.7995C876.98 68.2782 872.243 69.7866 867.553 71.4735L853.576 76.6374C834.995 83.625 816.549 90.9427 797.857 97.5773C788.514 100.91 779.109 104.067 769.624 106.864C760.111 109.62 750.472 111.964 740.793 114.095C702.009 122.383 662.522 127.033 623.044 130.884C603.297 132.812 583.507 134.4 563.73 136.097L504.407 141.391C494.515 142.256 484.627 143.136 474.76 144.154C464.882 145.127 455.004 146.164 445.168 147.652C435.35 149.151 425.547 151.06 416.014 153.917C406.485 156.789 397.195 160.554 388.502 165.418C379.763 170.23 371.793 176.367 364.517 183.131C357.138 189.811 350.196 196.932 343.42 204.199C329.873 218.749 317.174 234.028 303.869 248.768C277.049 278.001 249.407 306.721 218.081 331.135C214.172 334.191 210.191 337.155 206.179 340.063C202.163 342.957 198.002 345.666 193.891 348.441C189.803 351.242 185.531 353.774 181.347 356.457C177.129 359.07 172.822 361.531 168.568 364.074C151.368 373.959 133.571 382.809 115.301 390.542C78.777 405.956 40.2261 417.13 0.677328 421.016C40.2431 417.253 78.8408 406.194 115.441 390.887C133.738 383.194 151.599 374.407 168.842 364.559C173.114 362.027 177.42 359.566 181.658 356.964C185.845 354.295 190.136 351.775 194.244 348.984C198.374 346.22 202.538 343.526 206.584 340.624C210.611 337.712 214.611 334.759 218.523 331.718C249.947 307.309 277.648 278.573 304.52 249.358C317.859 234.625 330.577 219.357 344.103 204.845C350.867 197.597 357.813 190.491 365.17 183.849C372.44 177.118 380.337 171.065 388.994 166.306C397.636 161.488 406.841 157.762 416.315 154.921C425.788 152.079 435.536 150.201 445.324 148.71C455.116 147.234 464.982 146.216 474.865 145.258C484.736 144.255 494.628 143.39 504.505 142.529L563.814 137.302C583.595 135.62 603.378 134.065 623.143 132.149C662.645 128.323 702.178 123.725 741.062 115.458C750.772 113.318 760.429 110.985 769.99 108.232C779.539 105.435 788.959 102.273 798.32 98.9516C817.046 92.3239 835.515 85.0319 854.086 78.0632L868.029 72.8924C872.674 71.2174 877.392 69.698 882.123 68.2233L896.339 63.7763C901.081 62.2827 905.766 60.5809 910.471 59.129C929.414 53.4314 949.275 51.2182 969.051 51.0044C974 50.9378 978.952 51.0617 983.904 51.249C988.846 51.4552 993.791 51.8518 998.746 52.166C1008.63 52.9443 1018.51 53.8684 1028.35 55.0583C1048.05 57.3519 1067.67 60.3675 1087.3 63.3494C1106.93 66.3164 1126.58 69.2754 1146.37 71.2426C1166.15 73.2584 1186.03 74.0551 1205.88 74.1389C1225.75 74.17 1245.62 73.2937 1265.4 71.4068C1285.17 69.5348 1304.84 66.5144 1324.33 62.7573C1363.34 55.2688 1401.74 45.0117 1440.61 37.0999L1455.22 34.3009C1460.1 33.4548 1465.02 32.7912 1469.93 32.0344L1477.29 30.9234C1479.74 30.5693 1482.21 30.3382 1484.67 30.0287L1499.44 28.3026C1519.19 26.39 1538.98 24.8502 1558.8 23.844C1598.43 21.6263 1638.13 20.5054 1677.74 17.6718C1682.69 17.3811 1687.63 16.9337 1692.58 16.5011L1707.41 15.1886L1722.19 13.5558L1729.59 12.7206L1736.96 11.6691L1751.7 9.57021L1766.35 6.93481L1773.67 5.61171L1780.94 3.98312L1795.45 0.685328Z" fill="#65BFFF"/>
</svg>
