<svg width="630" height="458" viewBox="0 0 630 458" fill="none" xmlns="http://www.w3.org/2000/svg">
<path d="M1812.22 96.7537C1733.88 125.442 1649.67 136.977 1566.49 132.562C1524.91 130.106 1483.5 123.92 1443.15 113.451C1402.74 103.141 1363.09 90.1396 1322.98 78.6811C1282.9 67.1025 1242.3 57.4336 1201.84 47.3926C1181.62 42.3364 1161.4 37.2019 1141.42 31.3163C1121.44 25.4159 1101.69 18.6565 1081.59 13.0269C1071.53 10.2384 1061.39 7.72772 1051.14 5.67429C1040.88 3.68831 1030.52 2.24197 1020.11 1.36394C1009.69 0.601961 999.211 0.539226 988.773 1.08839C978.337 1.7645 967.92 3.34412 957.871 6.35554C955.331 7.03603 952.893 7.9763 950.398 8.82038C947.971 9.80523 945.506 10.7048 943.143 11.8642C938.357 14.0233 933.788 16.6345 929.437 19.5856C925.037 22.4704 921.042 25.9162 917.24 29.5492L914.48 32.3771C913.548 33.2962 912.75 34.3551 911.883 35.3367C910.115 37.293 908.622 39.4464 907.051 41.5413C905.517 43.6581 903.87 45.7094 902.434 47.8955C900.983 50.0856 899.585 52.2934 898.248 54.5488C895.554 59.0488 893.059 63.6388 890.658 68.2833C885.872 77.5684 881.284 86.9435 876.716 96.3295C867.594 115.098 858.562 133.905 848.337 152.06C838.02 170.112 827.011 188.015 812.349 202.8C797.861 217.697 780.802 230.015 762.342 239.537C743.898 249.118 724.059 255.868 703.827 260.62C683.577 265.361 662.867 268.088 642.099 269.413C621.316 270.741 600.465 270.685 579.662 269.739C569.266 269.257 558.865 268.521 548.512 267.485C538.158 266.449 527.863 264.856 517.556 263.282C497.013 260.098 476.092 257.111 455.2 259.218C444.789 260.286 434.539 262.666 424.665 266.093C414.791 269.52 405.29 273.979 396.14 278.981C377.797 288.997 360.796 301.172 343.49 312.744C334.866 318.578 326.009 324.076 317.174 329.599C308.335 335.108 299.536 340.702 290.643 346.129C272.882 357.01 254.883 367.54 236.394 377.133C217.944 386.811 198.799 395.081 179.567 403.088C160.304 411.039 140.808 418.415 121.095 425.164C81.6584 438.616 41.339 449.547 0.4765 457.738C41.3709 449.666 81.7221 438.854 121.221 425.513C140.964 418.82 160.495 411.514 179.785 403.603C199.047 395.652 218.235 387.418 236.745 377.788C255.271 368.217 273.285 357.683 291.084 346.824C299.991 341.393 308.78 335.818 317.634 330.305C326.472 324.796 335.344 319.294 343.987 313.471C361.327 301.907 378.321 289.765 396.598 279.799C405.726 274.834 415.172 270.406 424.991 267.01C434.809 263.614 444.97 261.258 455.307 260.21C476.036 258.147 496.855 261.113 517.391 264.33C527.687 265.923 538.002 267.527 548.403 268.566C558.791 269.609 569.195 270.36 579.61 270.853C600.455 271.835 621.34 271.898 642.175 270.588C662.995 269.281 683.773 266.567 704.121 261.833C724.43 257.076 744.378 250.313 762.955 240.696C781.534 231.142 798.733 218.755 813.354 203.758C820.655 196.254 827.345 188.133 833.149 179.436C839.028 170.783 844.47 161.864 849.606 152.756C859.883 134.556 868.94 115.725 878.081 96.968C882.649 87.582 887.207 78.2149 891.982 68.9487C894.372 64.3231 896.856 59.7519 899.514 55.2936C900.84 53.0571 902.228 50.868 903.653 48.7008C905.078 46.5336 906.699 44.505 908.222 42.4072C909.783 40.3311 911.245 38.1857 912.991 36.2671C913.848 35.3044 914.636 34.2643 915.552 33.3491L918.261 30.5669C922 26.9984 925.915 23.6062 930.245 20.7563C934.514 17.8587 939.024 15.2635 943.739 13.1391C946.058 11.9917 948.493 11.1001 950.89 10.1232C953.341 9.291 955.764 8.35475 958.259 7.68621C978.179 1.7111 999.322 1.37024 1020 2.68408C1030.36 3.5443 1040.67 4.97285 1050.89 6.93703C1061.1 8.98354 1071.2 11.4576 1081.24 14.2352C1101.31 19.8429 1121.05 26.5727 1141.07 32.4611C1161.1 38.3347 1181.33 43.4504 1201.56 48.4878C1242.04 58.491 1282.63 68.1154 1322.7 79.6493C1362.8 91.0632 1402.47 104.027 1442.93 114.307C1483.36 124.74 1524.81 130.915 1566.45 133.291C1649.72 137.488 1733.96 125.661 1812.22 96.7537Z" fill="#65BFFF"/>
</svg>
