<svg width="824" height="283" viewBox="0 0 824 283" fill="none" xmlns="http://www.w3.org/2000/svg">
<path d="M1576.26 -76.7219L1563.55 -73.6093L1557.2 -72.0612L1550.79 -70.7903L1537.95 -68.2581L1525.02 -66.2188L1518.55 -65.199L1512.06 -64.3818L1499.09 -62.777C1494.75 -62.3127 1490.41 -61.9337 1486.06 -61.5085C1481.73 -61.0869 1477.38 -60.6486 1473.03 -60.3773C1438.24 -57.6766 1403.35 -56.7385 1368.49 -55.3755C1351.05 -54.7413 1333.62 -53.7864 1316.21 -52.629L1303.17 -51.5499L1296.64 -51.0039L1290.14 -50.2945L1277.13 -48.8756L1264.16 -47.0648C1229.64 -41.9366 1195.38 -35.2415 1160.75 -31.0477C1143.43 -28.9655 1126.06 -27.4944 1108.62 -27.0567C1091.2 -26.5928 1073.75 -27.0025 1056.36 -28.1824C1038.97 -29.4049 1021.6 -31.2758 1004.41 -34.1446C987.212 -37.01 970.157 -40.683 953.062 -44.2473C935.97 -47.7986 918.844 -51.2707 901.569 -53.837C892.936 -55.1841 884.256 -56.1834 875.565 -57.068C866.867 -57.8248 858.13 -58.5155 849.382 -58.3649C845.002 -58.3647 840.632 -58.116 836.264 -57.8116C831.903 -57.4256 827.547 -56.9708 823.231 -56.2615C814.592 -54.8688 806.028 -52.7835 797.827 -49.6502C793.709 -48.0997 789.76 -46.2311 785.772 -44.5059L773.76 -39.3034C769.769 -37.5357 765.793 -35.7158 761.902 -33.6812C758.037 -31.6537 754.179 -29.6001 750.365 -27.4883C735.057 -19.0697 720.065 -10.1489 704.628 -2.05872C700.76 -0.0442075 696.884 1.94424 692.971 3.84492C691.03 4.82611 689.024 5.67088 687.053 6.59038C685.081 7.50987 683.102 8.40332 681.07 9.19944C673.07 12.6142 664.802 15.3885 656.515 18.0421C623.191 28.2566 588.646 34.0201 554.08 38.3504C536.772 40.5012 519.407 42.1783 502.031 43.6069L449.852 47.5432L436.807 48.524C432.451 48.8249 428.111 49.0797 423.758 49.338C415.049 49.8415 406.335 50.332 397.639 51.1954C380.293 52.8395 362.818 56.5019 347.198 64.5853C339.402 68.6022 332.253 73.7867 325.654 79.5089C319.017 85.1989 312.705 91.2633 306.594 97.5108C294.371 109.993 282.907 123.179 270.839 135.774C246.519 160.746 221.482 185.281 193.315 205.891C189.81 208.479 186.237 210.973 182.624 213.422C179.028 215.88 175.291 218.125 171.612 220.48C167.925 222.809 164.138 224.97 160.401 227.214C156.617 229.388 152.802 231.5 149.008 233.634C133.672 241.948 117.887 249.419 101.731 255.97C69.4196 269.028 35.5282 278.584 0.823413 282.449C35.5432 278.692 69.4754 269.237 101.854 256.272C118.05 249.767 133.875 242.341 149.251 234.072C153.062 231.947 156.893 229.845 160.68 227.684C164.417 225.44 168.225 223.302 171.924 220.969C175.607 218.627 179.361 216.392 182.973 213.943C186.586 211.494 190.175 209.01 193.71 206.428C221.959 185.81 247.038 161.277 271.404 136.321C283.499 123.72 294.982 110.556 307.2 98.1031C313.304 91.8851 319.594 85.8408 326.224 80.1803C332.818 74.4877 339.882 69.3537 347.623 65.3933C363.115 57.4004 380.446 53.7763 397.74 52.1462C406.411 51.2898 415.111 50.8028 423.824 50.3123C428.18 50.067 432.533 49.8088 436.889 49.5079L449.938 48.5401L502.144 44.6525C519.536 43.2334 536.921 41.5789 554.233 39.4411C588.848 35.1395 623.446 29.4176 656.894 19.1978C665.22 16.5338 673.518 13.7655 681.57 10.3368C683.602 9.54068 685.607 8.64026 687.592 7.71728C689.576 6.79429 691.595 5.94602 693.549 4.96136C697.475 3.05718 701.367 1.07828 705.249 -0.939704C720.742 -9.03081 735.75 -17.942 751.038 -26.3276C754.853 -28.4394 758.698 -30.4895 762.55 -32.5136C766.392 -34.5211 770.355 -36.3375 774.333 -38.1018L786.329 -43.3139C790.342 -45.046 794.292 -46.9146 798.332 -48.4442C806.428 -51.5496 814.911 -53.627 823.478 -55.0283C827.768 -55.7307 832.094 -56.1915 836.412 -56.5801C840.755 -56.8775 845.095 -57.1323 849.446 -57.1385C858.148 -57.3047 866.829 -56.6131 875.511 -55.8658C884.181 -55.0038 892.845 -54.0141 901.462 -52.6766C918.716 -50.1328 935.81 -46.6798 952.907 -43.1581C969.996 -39.6198 987.077 -35.9538 1004.31 -33.112C1021.55 -30.257 1038.93 -28.3896 1056.36 -27.1907C1073.79 -26.0213 1091.26 -25.6316 1108.72 -26.1189C1126.18 -26.5766 1143.6 -28.0748 1160.92 -30.1734C1195.59 -34.4038 1229.86 -41.1285 1264.35 -46.3052L1277.3 -48.1256L1290.29 -49.554L1296.8 -50.2635L1303.32 -50.8095L1316.35 -51.8981C1333.75 -53.0816 1351.17 -54.033 1368.61 -54.7228C1403.46 -56.1971 1438.37 -57.2369 1473.16 -60.0489C1477.51 -60.3498 1481.85 -60.7845 1486.2 -61.2227C1490.54 -61.6609 1494.89 -62.0565 1499.22 -62.5338L1512.2 -64.1812L1518.69 -65.0115L1525.15 -66.0442L1538.07 -68.1227L1550.9 -70.6939L1557.32 -71.9813L1563.66 -73.5555L1576.26 -76.7219Z" fill="#65BFFF"/>
</svg>
