<svg width="606" height="425" viewBox="0 0 606 425" fill="none" xmlns="http://www.w3.org/2000/svg">
<path d="M1804.13 35.3044L1789.58 39.5364L1782.3 41.647L1774.92 43.4007L1760.18 46.9188L1745.31 49.7894L1737.86 51.2267L1730.37 52.3735L1715.38 54.667L1700.33 56.4835L1692.81 57.3843C1690.3 57.6571 1687.78 57.8556 1685.26 58.0838C1645.03 61.9285 1604.59 63.0728 1564.18 63.5853C1523.78 64.1762 1483.33 64.2226 1442.95 66.1166C1402.59 68.0999 1362.21 70.4868 1321.81 69.7854C1301.61 69.4272 1281.44 68.2806 1261.36 66.0716C1241.29 63.8627 1221.33 60.7145 1201.53 56.6933C1181.74 52.6385 1162.08 47.8793 1142.77 41.9903C1123.44 36.1389 1104.34 29.4771 1085.08 23.2697C1065.81 17.1148 1046.39 11.3211 1026.56 7.18093C1016.67 5.01714 1006.66 3.42666 996.623 2.09807C991.582 1.58355 986.565 0.919237 981.502 0.617957C976.446 0.282966 971.375 0.127495 966.292 0.229896C956.142 0.367243 946.001 1.4904 936.099 3.74497C926.214 6.05904 916.55 9.55712 907.72 14.681C903.299 17.2524 899.168 20.1925 895.025 23.0879C890.887 25.9983 886.787 28.9939 882.801 32.1183C874.739 38.3275 867.571 45.5566 860.447 52.7102C846.249 67.1474 832.888 82.3327 818.286 96.2723C814.634 99.7535 810.933 103.168 807.126 106.484C805.256 108.181 803.238 109.678 801.296 111.282L798.364 113.646C797.382 114.435 796.323 115.117 795.314 115.866L789.145 120.229L782.757 124.252C780.663 125.642 778.442 126.859 776.255 128.083C774.049 129.296 771.882 130.594 769.641 131.736C751.747 140.994 732.869 148.364 713.579 154.25C694.265 160.111 674.567 164.655 654.703 168.225C614.94 175.292 574.561 178.635 534.2 179.487C524.099 179.691 514 179.782 503.913 179.504C493.815 179.245 483.718 178.81 473.605 178.73C463.492 178.65 453.333 178.933 443.289 180.301C433.242 181.654 423.313 184.044 413.885 187.829C404.457 191.615 395.682 196.883 387.538 202.907C379.372 208.905 371.644 215.471 364.175 222.287C349.225 235.937 335.299 250.62 320.549 264.424C290.787 291.704 260.288 318.495 226.449 340.602C222.226 343.376 217.942 346.038 213.626 348.645C209.311 351.252 204.857 353.641 200.461 356.126C196.065 358.611 191.55 360.889 187.111 363.274C182.623 365.593 178.096 367.826 173.581 370.104C155.419 378.956 136.827 386.918 117.896 393.968C80.0442 408.047 40.7811 418.584 0.726653 424.088C40.7981 418.707 80.1079 408.285 118.021 394.317C136.984 387.323 155.602 379.401 173.809 370.601C178.329 368.338 182.878 366.13 187.367 363.811C191.824 361.437 196.339 359.16 200.754 356.685C205.169 354.211 209.622 351.822 213.957 349.226C218.287 346.615 222.591 343.964 226.833 341.201C260.787 319.111 291.316 292.311 321.131 265.049C335.91 251.238 349.854 236.566 364.787 222.968C372.246 216.171 379.951 209.643 388.096 203.682C396.203 197.7 404.901 192.5 414.244 188.753C423.59 185.021 433.445 182.652 443.419 181.318C453.403 179.966 463.498 179.684 473.586 179.787C483.67 179.875 493.774 180.339 503.887 180.595C513.993 180.884 524.125 180.799 534.23 180.61C574.652 179.806 615.088 176.496 654.937 169.453C674.853 165.902 694.604 161.375 713.981 155.513C733.335 149.626 752.295 142.266 770.303 132.961C772.555 131.8 774.741 130.513 776.962 129.296C779.179 128.064 781.399 126.848 783.524 125.449L789.967 121.396L796.176 117.006C797.2 116.253 798.274 115.567 799.256 114.778L802.229 112.387C804.186 110.779 806.23 109.259 808.114 107.558C811.936 104.239 815.667 100.816 819.344 97.3119C834.012 83.3226 847.422 68.1402 861.569 53.7487C868.689 46.5802 875.795 39.4156 883.761 33.264C887.717 30.1475 891.791 27.1748 895.915 24.2684C900.039 21.3621 904.173 18.4368 908.483 15.927C917.158 10.8767 926.688 7.41442 936.451 5.11729C946.245 2.8757 956.293 1.76156 966.346 1.61835C971.376 1.49814 976.418 1.66158 981.44 1.98966C986.469 2.28402 991.471 2.95229 996.493 3.45592C1006.49 4.76273 1016.46 6.3314 1026.32 8.4883C1046.09 12.5957 1065.48 18.3528 1084.72 24.4819C1103.97 30.6597 1123.07 37.3066 1142.44 43.146C1161.81 49.0191 1181.5 53.7703 1201.34 57.8132C1221.18 61.8076 1241.18 64.9438 1261.29 67.1448C1281.39 69.3458 1301.62 70.4616 1321.83 70.8009C1362.28 71.4716 1402.68 69.0321 1443.03 67.0042C1483.38 65.0546 1523.82 64.9785 1564.24 64.3202C1604.64 63.6807 1645.1 62.4204 1685.33 58.4487C1687.84 58.2057 1690.36 57.9923 1692.87 57.7195L1700.39 56.8038L1715.43 54.9427L1730.4 52.6045L1737.88 51.428L1745.32 49.961L1760.2 47.0418L1774.93 43.479L1782.3 41.6956L1789.57 39.5553L1804.13 35.3044Z" fill="#65BFFF"/>
</svg>
