<svg width="817" height="308" viewBox="0 0 817 308" fill="none" xmlns="http://www.w3.org/2000/svg">
<path d="M1563.36 -98.0533C1493.22 -87.6118 1421.97 -92.7323 1351.58 -84.3784C1334 -82.3213 1316.52 -79.2316 1299.36 -74.8705C1290.8 -72.6183 1282.3 -70.0628 1273.96 -67.0876C1265.66 -64.0377 1257.44 -60.6749 1249.45 -56.8578C1217.32 -41.9498 1186.55 -24.3571 1154.65 -9.07634C1091.03 21.9013 1020.92 38.8 950.313 42.1136C932.665 43.0982 914.97 43.4388 897.285 43.4552C888.44 43.4504 879.599 43.3603 870.754 43.2016L844.209 42.9515L791.137 42.461C782.302 42.3414 773.491 41.8385 764.676 41.1687C755.858 40.4858 747.045 39.7178 738.252 38.8185C703.07 35.2249 668.078 29.7919 633.009 25.0082C615.478 22.5803 597.92 20.2576 580.327 18.3217C562.727 16.4154 545.078 14.8993 527.388 14.0092C509.711 13.1155 491.979 12.8512 474.283 13.4995C465.437 13.9136 456.58 14.1773 447.769 15.0295C438.949 15.7999 430.155 16.8711 421.388 18.2004C403.886 20.8781 386.538 24.7021 369.597 29.94C352.702 35.1935 336.201 42.2276 321.422 52.0973C319.603 53.3809 317.731 54.5672 315.993 55.9411L313.333 57.939C312.456 58.6211 311.615 59.3354 310.745 60.0436C307.275 62.8175 304.032 65.8658 300.919 69.0331C297.819 72.1969 294.902 75.5771 292.147 79.0396C289.343 82.4735 286.624 85.9681 283.925 89.4854C273.161 103.56 263.058 118.129 252.856 132.584C232.378 161.43 211.324 190.054 186.622 215.421C180.448 221.742 174.058 227.883 167.394 233.678C160.67 239.406 153.813 245.001 146.652 250.189C132.393 260.646 117.34 270.016 101.632 278.137C85.9309 286.284 69.5062 293.032 52.5692 298.129C35.6385 303.196 18.1285 306.519 0.43993 307.249C18.1294 306.575 35.6498 303.291 52.6111 298.285C69.5751 293.237 86.0397 286.534 101.768 278.436C117.516 270.36 132.618 261.019 146.943 250.6C154.138 245.431 161.015 239.858 167.781 234.133C174.487 228.341 180.894 222.209 187.098 215.895C199.498 203.239 210.965 189.703 221.905 175.762C232.816 161.816 243.283 147.513 253.511 133.051C263.743 118.602 273.852 104.06 284.611 90.0142C287.313 86.5099 290.035 83.0283 292.827 79.5979C295.582 76.1354 298.47 72.8049 301.561 69.6576C304.651 66.5103 307.875 63.495 311.326 60.7542C312.187 60.0625 313.027 59.3482 313.892 58.6695L316.542 56.6881C318.283 55.3273 320.143 54.1445 321.952 52.8775C336.654 43.0843 353.058 36.1041 369.908 30.8907C386.787 25.6833 404.099 21.8827 421.552 19.232C430.294 17.9097 439.066 16.8585 447.872 16.0916C456.67 15.2429 465.502 14.9861 474.337 14.5885C491.998 13.9637 509.691 14.2385 527.359 15.1487C545.013 16.0624 562.636 17.5854 580.226 19.5082C597.81 21.4607 615.346 23.8034 632.866 26.2478C667.929 31.061 702.906 36.5401 738.142 40.1754C746.947 41.0712 755.773 41.8358 764.601 42.5021C773.428 43.1684 782.279 43.6608 791.153 43.77L844.204 44.1824L870.742 44.4063C879.596 44.5485 888.437 44.6385 897.292 44.6269C914.99 44.607 932.707 44.2464 950.375 43.2287C1021.1 39.8411 1091.35 22.8354 1155.04 -8.27089C1186.96 -23.6012 1217.7 -41.213 1249.76 -56.1462C1257.74 -59.9599 1265.91 -63.3217 1274.2 -66.3681C1282.51 -69.3494 1290.98 -71.8979 1299.52 -74.1597C1316.64 -78.5363 1334.09 -81.619 1351.65 -83.7248C1421.92 -92.2863 1493.25 -87.3962 1563.36 -98.0533Z" fill="#65BFFF"/>
</svg>
