<svg width="877" height="446" viewBox="0 0 877 446" fill="none" xmlns="http://www.w3.org/2000/svg">
<path d="M1792.34 7.69069C1753.13 14.1777 1713.95 20.7876 1674.52 25.6611C1635.11 30.6725 1595.42 33.7353 1555.7 33.5867C1545.78 33.2795 1535.85 33.3274 1525.93 32.5571L1518.5 32.108C1516.03 31.9583 1513.55 31.8423 1511.08 31.5617L1496.26 30.0804L1492.57 29.7006L1488.89 29.1711L1481.52 28.1011C1476.61 27.3603 1471.68 26.7842 1466.82 25.7439L1452.2 22.9185C1447.34 21.908 1442.5 20.7814 1437.65 19.6736C1418.3 15.2157 1399 10.3908 1379.44 6.70572C1359.91 3.02752 1340.08 0.370107 1320.15 0.433227C1310.21 0.56345 1300.23 1.05273 1290.38 2.43252C1285.43 2.96227 1280.53 3.89066 1275.63 4.71095C1273.17 5.09879 1270.76 5.71371 1268.32 6.19079C1265.89 6.73134 1263.44 7.1638 1261.04 7.82334C1241.69 12.4968 1222.8 18.9292 1204.45 26.589C1186.06 34.1636 1168.17 42.91 1150.54 52.0817C1132.92 61.2981 1115.54 70.9139 1098.26 80.7557C1063.72 100.406 1029.64 120.869 994.99 140.293C960.348 159.699 925.096 178.135 888.501 193.52C851.97 208.968 814.014 221.354 775.005 228.618C736.052 235.915 695.936 237.864 656.601 232.447C617.257 227.239 578.672 216.663 538.939 213.265C499.222 209.991 458.983 215.576 421.341 228.42C402.47 234.688 384.064 242.33 366.179 251.028C348.329 259.796 330.942 269.46 313.892 279.672C279.783 300.114 247.29 323.088 214.352 345.288C197.878 356.398 181.292 367.33 164.403 377.785C147.488 388.2 130.227 398.038 112.492 406.999L105.82 410.317C103.601 411.421 101.386 412.541 99.1055 413.535L85.5371 419.689L71.7432 425.298C69.4587 426.277 67.1156 427.096 64.7723 427.915L57.7504 430.402C38.9805 436.866 19.6973 441.89 0.0802645 445.074C19.7133 441.949 39.0164 437 57.8131 430.577L64.8389 428.104C67.1822 427.285 69.5294 426.481 71.8139 425.502L85.6346 419.934L99.2297 413.82C101.51 412.826 103.729 411.722 105.963 410.613L112.639 407.31C130.405 398.405 147.707 388.604 164.668 378.24C181.599 367.822 198.23 356.941 214.736 345.887C247.719 323.738 280.205 300.798 314.312 280.404C331.35 270.212 348.73 260.581 366.559 251.851C384.418 243.176 402.788 235.575 421.622 229.349C459.175 216.592 499.26 211.081 538.805 214.369C578.397 217.773 616.945 228.391 656.401 233.664C695.88 239.139 736.149 237.228 775.237 229.959C814.377 222.707 852.449 210.338 889.072 194.881C925.726 179.417 961.006 160.909 995.651 141.455C1030.31 121.983 1064.35 101.478 1098.86 81.8065C1116.12 71.9686 1133.48 62.3271 1151.07 53.1038C1168.66 43.9103 1186.5 35.1758 1204.85 27.5983C1223.15 19.9356 1241.98 13.5041 1261.25 8.83576C1263.64 8.19507 1266.08 7.74775 1268.5 7.21118C1270.93 6.71922 1273.33 6.12315 1275.79 5.72044C1280.68 4.90412 1285.55 3.96484 1290.47 3.42819C1300.29 2.05635 1310.21 1.54927 1320.11 1.41611C1339.95 1.32826 1359.71 3.95698 1379.21 7.59454C1398.74 11.2579 1418.03 16.053 1437.39 20.492C1442.24 21.5998 1447.08 22.7264 1451.95 23.733L1466.6 26.5504C1471.47 27.5907 1476.41 28.1628 1481.34 28.8996L1488.72 29.9656L1492.41 30.4912L1496.12 30.8521L1510.97 32.3255C1513.44 32.621 1515.93 32.7181 1518.41 32.8678L1525.84 33.298C1530.81 33.5934 1535.77 33.9225 1540.74 33.9601L1555.65 34.2859C1595.42 34.3105 1635.12 31.1168 1674.51 25.9825C1714 21.0444 1753.17 14.3115 1792.34 7.69069Z" fill="#65BFFF"/>
</svg>
