<svg width="613" height="512" viewBox="0 0 613 512" fill="none" xmlns="http://www.w3.org/2000/svg">
<path d="M1817.87 175.641L1802.66 181.837C1800.11 182.839 1797.61 183.971 1795.03 184.868L1787.26 187.525L1779.49 190.181C1776.89 191.053 1774.33 192.025 1771.68 192.704L1755.88 197.192C1734.69 202.631 1713.21 207.127 1691.46 209.719L1683.32 210.816C1680.6 211.179 1677.88 211.351 1675.15 211.62L1658.79 213.133L1642.39 214.019L1634.2 214.445L1625.99 214.588L1609.57 214.859L1593.15 214.573L1584.94 214.413L1576.75 214.01L1560.36 213.19C1516.66 210.216 1473.19 204.232 1430.21 195.789C1387.22 187.415 1344.82 175.979 1303.53 161.347C1282.87 154.098 1262.55 145.832 1242.59 136.835C1222.61 127.823 1203.03 117.957 1183.89 107.323C1174.31 101.998 1164.85 96.4654 1155.53 90.7218C1146.19 84.9971 1137.06 78.9479 1127.95 72.8609C1109.76 60.6305 1091.72 48.1362 1072.83 36.9219C1070.48 35.4778 1068.1 34.1389 1065.7 32.7891C1063.31 31.4542 1060.94 30.0478 1058.51 28.7694C1053.63 26.2355 1048.82 23.6033 1043.82 21.3403C1038.9 18.8966 1033.81 16.833 1028.75 14.6979C1026.23 13.619 1023.6 12.7772 1021.03 11.8073C1018.44 10.8752 1015.89 9.88655 1013.24 9.1459L1005.34 6.76623C1002.7 6.04046 999.996 5.47242 997.337 4.8141L993.326 3.86433C991.989 3.5689 990.621 3.39349 989.267 3.15062L981.13 1.77583C975.68 1.09998 970.191 0.514417 964.671 0.526919L962.608 0.489947L960.539 0.550173C959.167 0.598914 957.787 0.617911 956.409 0.700379C953.66 0.958537 950.914 1.10462 948.192 1.57897C945.449 1.91546 942.762 2.52366 940.053 3.1061C938.705 3.41962 937.384 3.83726 936.066 4.20631L934.069 4.7733L932.127 5.48501C926.887 7.2557 921.91 9.76902 917.269 12.7661C912.563 15.7007 908.409 19.4441 904.633 23.4689L901.904 26.5913C901.05 27.681 900.256 28.8182 899.44 29.9297C897.735 32.1239 896.351 34.5033 894.915 36.865C889.316 46.3837 885.26 56.7323 882.042 67.2389C878.881 77.7782 876.263 88.443 873.761 99.1245C868.795 120.509 864.55 142.036 858.818 163.179C855.953 173.751 852.723 184.213 848.893 194.453C847.023 199.593 844.83 204.596 842.486 209.513C840.019 214.382 837.457 219.198 834.518 223.795C831.678 228.462 828.468 232.877 825.201 237.259C821.813 241.546 818.361 245.771 814.617 249.739C807.194 257.738 799.096 265.121 790.437 271.777C773.17 285.155 753.903 295.882 733.725 304.221C713.549 312.625 692.363 318.508 670.847 322.329C649.316 326.09 627.388 327.661 605.548 326.945C594.625 326.572 583.714 325.654 572.89 324.17C562.056 322.705 551.377 320.338 540.774 317.6C530.176 314.876 519.621 311.902 508.894 309.531C503.54 308.32 498.13 307.378 492.693 306.571C489.958 306.284 487.228 305.899 484.491 305.724C481.751 305.597 479.001 305.314 476.25 305.382C465.264 305.313 454.216 306.854 443.753 310.279C438.519 311.953 433.407 314.024 428.461 316.417C425.94 317.523 423.554 318.896 421.113 320.124C418.719 321.466 416.321 322.794 413.962 324.208C395.131 335.55 378.238 349.673 360.887 362.979C356.543 366.311 352.172 369.602 347.702 372.761C343.255 375.945 338.708 378.996 334.192 382.103C325.148 388.273 316.059 394.391 306.882 400.357C288.522 412.274 269.754 423.616 250.273 433.603C240.53 438.588 230.621 443.252 220.518 447.426C210.391 451.574 200.222 455.622 189.952 459.41C169.426 467.046 148.654 473.999 127.704 480.346C85.777 492.999 43.1489 503.273 0.189159 511.835C43.1659 503.396 85.8299 493.255 127.8 480.702C148.781 474.411 169.588 467.529 190.14 459.934C200.433 456.171 210.625 452.149 220.774 448.027C230.916 443.875 240.862 439.233 250.627 434.273C270.161 424.304 288.948 412.973 307.341 401.063C316.538 395.107 325.631 389.004 334.69 382.831C339.209 379.739 343.756 376.687 348.218 373.499C352.699 370.322 357.074 367.045 361.433 363.709C378.813 350.396 395.699 336.307 414.458 325.047C416.802 323.638 419.185 322.314 421.568 320.99C424.013 319.777 426.384 318.408 428.875 317.31C433.796 314.94 438.848 312.885 444.056 311.234C454.438 307.862 465.349 306.342 476.241 306.42C478.974 306.342 481.694 306.633 484.405 306.767C487.127 306.947 489.826 307.339 492.543 307.616C497.946 308.415 503.326 309.365 508.666 310.581C519.345 312.948 529.884 315.927 540.502 318.661C551.108 321.414 561.858 323.811 572.73 325.297C583.592 326.803 594.555 327.739 605.513 328.118C627.439 328.859 649.452 327.312 671.062 323.546C692.66 319.736 713.939 313.843 734.223 305.427C754.505 297.059 773.876 286.305 791.269 272.861C799.983 266.174 808.151 258.757 815.637 250.694C819.421 246.699 822.914 242.447 826.323 238.122C829.616 233.717 832.863 229.26 835.725 224.556C838.7 219.916 841.28 215.049 843.784 210.137C846.145 205.169 848.375 200.124 850.252 194.95C854.115 184.653 857.381 174.149 860.253 163.544C866.018 142.344 870.302 120.791 875.262 99.4397C877.749 88.7621 880.357 78.1162 883.485 67.6335C886.67 57.1834 890.68 46.9588 896.199 37.5572C897.614 35.2332 898.987 32.8727 900.639 30.7241C901.445 29.6315 902.213 28.5171 903.056 27.4462L905.723 24.3884C909.407 20.4361 913.473 16.7799 918.068 13.9069C922.617 10.9824 927.475 8.5009 932.63 6.76894L934.543 6.06518L936.495 5.51015C937.802 5.15996 939.089 4.73539 940.423 4.42584C943.072 3.85932 945.725 3.24422 948.424 2.91965C951.101 2.45727 953.818 2.31914 956.532 2.05407L960.614 1.90092L962.65 1.83378L964.698 1.87474C970.14 1.86726 975.577 2.435 980.989 3.08906L989.058 4.45003C990.397 4.69688 991.75 4.87625 993.083 5.15681L997.06 6.09968C999.716 6.74313 1002.39 7.31912 1005.01 8.034L1012.86 10.3959C1015.49 11.1256 1018.04 12.0994 1020.61 13.0355C1023.16 13.9944 1025.77 14.8254 1028.29 15.9043C1033.33 18.0285 1038.4 20.0664 1043.3 22.4991C1048.28 24.7513 1053.09 27.3686 1057.95 29.8916C1060.37 31.1739 1062.73 32.5654 1065.12 33.8855C1067.5 35.2244 1069.9 36.5594 1072.22 37.9925C1091.07 49.1553 1109.1 61.6347 1127.32 73.8423C1136.45 79.9253 1145.6 85.9854 1154.96 91.7022C1164.32 97.4378 1173.79 102.966 1183.38 108.302C1202.57 118.944 1222.19 128.798 1242.19 137.801C1262.19 146.805 1282.53 155.049 1303.24 162.3C1344.59 176.902 1387.06 188.317 1430.09 196.65C1473.11 205.051 1516.62 211.008 1560.36 213.921L1576.77 214.704L1584.98 215.088L1593.2 215.229L1609.63 215.466L1626.05 215.162L1634.27 215.001L1642.47 214.541L1658.87 213.606L1675.23 212.059C1677.96 211.775 1680.7 211.599 1683.4 211.226L1691.54 210.113C1713.28 207.458 1734.76 202.899 1755.95 197.396L1771.74 192.863C1774.39 192.17 1776.96 191.194 1779.54 190.311L1787.3 187.625L1795.07 184.939C1797.66 184.037 1800.14 182.894 1802.69 181.893L1817.87 175.641Z" fill="#65BFFF"/>
</svg>
