<svg width="858" height="162" viewBox="0 0 858 162" fill="none" xmlns="http://www.w3.org/2000/svg">
<path d="M1580.18 -188.753C1546.38 -179.88 1512.15 -172.537 1477.5 -167.878C1460.2 -165.394 1442.8 -163.791 1425.37 -162.627C1416.64 -162.188 1407.93 -161.655 1399.18 -161.603L1392.63 -161.482L1389.35 -161.415L1386.08 -161.459L1372.97 -161.636L1369.69 -161.68L1366.43 -161.839L1359.89 -162.154L1353.34 -162.468L1350.08 -162.627L1346.81 -162.897L1333.75 -163.995L1330.5 -164.281L1327.25 -164.683L1320.74 -165.482C1312.06 -166.409 1303.45 -167.96 1294.84 -169.37C1292.68 -169.684 1290.55 -170.147 1288.4 -170.592L1281.99 -171.933C1277.72 -172.842 1273.42 -173.661 1269.19 -174.721C1235.18 -182.736 1201.65 -192.988 1167.1 -198.848C1149.85 -201.784 1132.38 -203.46 1114.89 -203.984C1097.39 -204.478 1079.89 -203.924 1062.44 -202.616C1044.99 -201.337 1027.61 -199.361 1010.27 -197.243C992.93 -195.098 975.555 -193.25 958.199 -191.073C940.862 -188.872 923.549 -186.273 906.409 -182.714C897.839 -180.963 889.339 -178.895 880.872 -176.654C872.421 -174.403 864.018 -171.872 855.813 -168.808C839.417 -162.682 823.648 -154.531 809.84 -143.636C808.108 -142.292 806.436 -140.88 804.75 -139.464C803.078 -138.052 801.369 -136.672 799.737 -135.215L790.06 -126.349L780.382 -117.483L770.755 -108.588C757.875 -96.7828 744.739 -85.2577 730.935 -74.5596C724.038 -69.2188 716.977 -64.0716 709.729 -59.2095C702.5 -54.3247 695.05 -49.7996 687.302 -45.8097C671.827 -37.8073 655.348 -31.7293 638.393 -27.6891C621.436 -23.6064 604.009 -21.745 586.581 -21.0291C569.141 -20.3097 551.658 -20.7385 534.201 -21.3838L507.998 -22.3399L494.898 -22.8115L488.346 -23.0537C486.164 -23.1258 483.981 -23.0997 481.784 -23.1257L455.551 -23.3056C446.817 -23.3123 438.08 -23.2207 429.323 -23.0535C411.851 -22.6609 394.287 -21.5173 377.168 -17.6709C360.015 -13.9548 343.672 -7.21459 328.24 0.999854C312.762 9.19872 298.078 18.7494 283.431 28.2766L239.36 56.6965C224.672 66.1785 209.907 75.5276 194.859 84.3936C179.822 93.2988 164.406 101.523 148.791 109.367C133.169 117.185 117.294 124.527 101.149 131.172C68.8452 144.466 35.3024 154.907 0.893031 161.123C35.3174 155.015 68.9174 144.684 101.285 131.471C117.467 124.858 133.372 117.578 149.031 109.792C164.672 101.996 180.141 93.8139 195.215 84.9409C210.296 76.0939 225.074 66.7414 239.769 57.2855L283.867 28.9142C298.534 19.4096 313.199 9.89201 328.645 1.72967C344.048 -6.43524 360.316 -13.1415 377.386 -16.8071C394.417 -20.6161 411.928 -21.7458 429.365 -22.1148C438.097 -22.2751 446.833 -22.3666 455.571 -22.3469L481.768 -22.1435C483.952 -22.114 486.135 -22.1402 488.317 -22.0681L494.869 -21.8258L507.972 -21.3412L534.17 -20.3555C551.634 -19.6842 569.133 -19.2458 586.636 -19.94C604.113 -20.6273 621.612 -22.4801 638.668 -26.5612C655.721 -30.5997 672.294 -36.689 687.857 -44.7289C695.656 -48.7328 703.168 -53.2883 710.423 -58.1801C717.698 -63.0492 724.788 -68.1903 731.708 -73.5511C745.564 -84.2632 758.755 -95.7891 771.644 -107.611L781.265 -116.532L790.916 -125.391L800.568 -134.25C802.187 -135.704 803.899 -137.071 805.558 -138.479C807.231 -139.891 808.89 -141.3 810.613 -142.628C824.274 -153.441 839.914 -161.558 856.219 -167.659C864.384 -170.713 872.732 -173.243 881.166 -175.503C889.595 -177.734 898.078 -179.811 906.632 -181.572C923.725 -185.147 940.992 -187.761 958.325 -189.975C975.649 -192.172 993.033 -194.036 1010.38 -196.21C1027.72 -198.342 1045.08 -200.34 1062.49 -201.625C1079.91 -202.953 1097.38 -203.525 1114.83 -203.047C1132.28 -202.539 1149.7 -200.878 1166.91 -197.974C1201.39 -192.166 1234.93 -181.956 1268.98 -173.964C1273.22 -172.908 1277.52 -172.105 1281.8 -171.184L1288.23 -169.846C1290.37 -169.388 1292.5 -168.938 1294.67 -168.624C1303.3 -167.221 1311.92 -165.674 1320.62 -164.75C1337.97 -162.47 1355.46 -161.455 1372.93 -160.954L1386.04 -160.807L1389.31 -160.776L1392.59 -160.843L1399.15 -160.994C1407.89 -161.072 1416.62 -161.638 1425.35 -162.106C1442.8 -163.33 1460.21 -164.991 1477.5 -167.528C1512.18 -172.321 1546.39 -179.772 1580.18 -188.753Z" fill="#65BFFF"/>
</svg>
