<svg width="621" height="517" viewBox="0 0 621 517" fill="none" xmlns="http://www.w3.org/2000/svg">
<path d="M1820.12 186.179C1799.87 195.031 1779.1 202.637 1757.84 208.702C1752.52 210.205 1747.14 211.44 1741.8 212.824C1739.11 213.496 1736.45 214.193 1733.75 214.82L1725.63 216.47L1717.51 218.121C1714.8 218.639 1712.11 219.296 1709.37 219.663L1693.01 222.214L1688.91 222.849L1684.8 223.313L1676.57 224.229C1671.07 224.824 1665.6 225.526 1660.08 225.808L1643.56 226.935C1638.05 227.153 1632.52 227.248 1627.01 227.417C1624.26 227.485 1621.48 227.59 1618.72 227.613L1610.43 227.507C1604.91 227.408 1599.39 227.454 1593.87 227.227C1582.83 226.628 1571.8 226.269 1560.81 225.101C1516.77 221.439 1473.26 212.725 1430.7 200.885C1388.16 188.899 1346.54 173.779 1305.56 157.229C1264.62 140.589 1224.26 122.341 1185.38 101.275C1175.69 95.9824 1166.05 90.5614 1156.55 84.9142C1147.06 79.2481 1137.7 73.3855 1128.44 67.3383C1109.91 55.2778 1091.57 42.8481 1072.27 31.9506C1062.61 26.5375 1052.8 21.3547 1042.59 17.0449L1038.78 15.371L1034.91 13.8736C1032.31 12.8969 1029.75 11.8448 1027.13 10.9355C1021.85 9.25981 1016.61 7.41149 1011.2 6.16733C1005.87 4.63052 1000.36 3.76133 994.938 2.69667C992.196 2.26752 989.435 2.00301 986.684 1.65619L982.554 1.15281L978.405 0.877562C977.023 0.769608 975.638 0.710254 974.24 0.718355C972.852 0.707603 971.467 0.648265 970.073 0.67124C967.299 0.776667 964.517 0.788889 961.747 1.08476C958.975 1.25367 956.215 1.70624 953.473 2.1062C952.101 2.33049 950.737 2.64799 949.377 2.9169L947.325 3.33912L945.309 3.8952C934.552 6.69793 924.293 11.8379 915.893 19.2217L912.797 22.0439L909.945 25.1198C909.48 25.6428 908.992 26.1401 908.546 26.6741L907.269 28.3235C906.423 29.4429 905.531 30.5108 904.738 31.648C903.253 34.0067 901.621 36.2931 900.305 38.7499C898.952 41.1848 897.693 43.6742 896.525 46.2032C891.887 56.341 888.811 67.0806 886.202 77.8386C883.631 88.6184 881.329 99.4535 879.143 110.305C874.786 132.005 870.853 153.799 865.608 175.274C862.991 186.002 860.037 196.661 856.558 207.142C853.135 217.656 848.999 227.883 843.75 237.579C833.398 257.043 819.068 274.257 802.453 288.705C785.759 303.093 766.787 314.744 746.616 323.641C706.228 341.445 661.591 348.798 617.557 347.111C606.538 346.684 595.54 345.677 584.621 344.076C581.888 343.676 579.161 343.243 576.457 342.772C573.755 342.253 571.042 341.752 568.343 341.184C562.963 339.995 557.61 338.672 552.281 337.199C541.634 334.296 531.059 331.009 520.362 328.216C509.654 325.442 498.761 323.164 487.691 322.304C486.312 322.147 484.931 322.103 483.535 322.062L479.378 321.933C476.6 321.96 473.822 322.051 471.057 322.186L466.92 322.609C465.543 322.755 464.153 322.856 462.797 323.14L458.691 323.857C457.327 324.111 455.942 324.291 454.614 324.679C443.78 327.136 433.368 331.169 423.463 336.086C403.592 345.986 385.73 359.221 367.621 371.837C358.577 378.182 349.386 384.279 339.89 389.948L311.624 407.246C292.657 418.561 273.388 429.399 253.482 438.989C233.646 448.72 212.94 456.516 192.15 463.936C171.341 471.345 150.302 478.13 129.127 484.41C86.7575 496.958 43.7807 507.358 0.580512 516.685C43.7978 507.481 86.8104 497.215 129.226 484.781C150.436 478.572 171.488 471.831 192.331 464.493C213.148 457.114 233.903 449.384 253.796 439.686C273.744 430.133 293.039 419.272 312.028 407.982L340.332 390.706C349.817 385.056 359.067 378.943 368.126 372.594C386.254 359.989 404.099 346.807 423.878 336.98C433.741 332.089 444.083 328.09 454.817 325.676C456.146 325.289 457.501 325.117 458.865 324.863L462.926 324.157C464.268 323.877 465.643 323.78 467.02 323.634L471.127 323.219C473.878 323.088 476.621 322.99 479.37 322.971L483.497 323.109C484.874 323.138 486.24 323.187 487.619 323.343C498.596 324.212 509.437 326.472 520.1 329.258C530.782 332.055 541.327 335.351 552.012 338.275C557.345 339.763 562.713 341.083 568.131 342.293C570.845 342.857 573.561 343.373 576.282 343.903C579.006 344.385 581.747 344.814 584.481 345.213C595.433 346.822 606.469 347.85 617.536 348.28C661.728 350.021 706.548 342.698 747.158 324.834C767.438 315.925 786.539 304.223 803.355 289.754C820.092 275.227 834.55 257.898 845.004 238.279C845.647 237.055 846.323 235.837 846.962 234.598L848.774 230.845C850.037 228.37 851.048 225.788 852.179 223.237C853.277 220.679 854.198 218.057 855.209 215.475L857.942 207.616C861.443 197.098 864.419 186.401 867.061 175.65C872.339 154.118 876.302 132.316 880.678 110.627C882.849 99.7795 885.14 88.9633 887.701 78.2023C890.303 67.4781 893.339 56.8288 897.9 46.8229C899.043 44.3168 900.281 41.8651 901.612 39.4678C902.906 37.0488 904.505 34.8189 905.95 32.487C906.732 31.3687 907.609 30.3047 908.434 29.223L909.685 27.5965C910.116 27.0665 910.608 26.5841 911.061 26.0799L913.852 23.0685L916.881 20.296C925.101 13.072 935.13 8.02544 945.706 5.25557L947.692 4.70747L949.699 4.29719C951.044 4.03226 952.374 3.70785 953.732 3.48754C956.444 3.09552 959.159 2.6549 961.898 2.47908C964.634 2.1763 967.368 2.16113 970.126 2.05967C971.491 2.04465 972.872 2.08913 974.245 2.10387C975.614 2.10373 976.995 2.14821 978.362 2.26014L982.477 2.52848L986.573 3.02495C989.31 3.37575 992.052 3.62935 994.759 4.05159C1000.17 5.10534 1005.6 5.96071 1010.91 7.48662C1016.29 8.72388 1021.49 10.5355 1026.74 12.2043C1029.34 13.1027 1031.9 14.1548 1034.48 15.1207L1038.33 16.6071L1042.12 18.2702C1052.29 22.5432 1062.06 27.7043 1071.7 33.0916C1090.94 43.9416 1109.27 56.3415 1127.83 68.3941C1137.11 74.4372 1146.5 80.3068 1156 85.9689C1165.52 91.6122 1175.18 97.0441 1184.89 102.333C1223.84 123.379 1264.24 141.6 1305.22 158.213C1346.24 174.736 1387.91 189.81 1430.51 201.781C1473.12 213.59 1516.7 222.303 1560.8 225.886C1571.8 227.019 1582.85 227.356 1593.89 227.921C1599.41 228.133 1604.95 228.068 1610.48 228.164L1618.76 228.24C1621.53 228.217 1624.29 228.082 1627.04 228.014C1632.57 227.841 1638.09 227.716 1643.61 227.48L1660.15 226.3C1665.68 225.999 1671.15 225.297 1676.65 224.668L1684.89 223.737L1689.01 223.27L1693.05 222.553L1709.42 219.953C1712.16 219.587 1714.84 218.915 1717.57 218.392L1725.68 216.727L1733.8 215.062C1736.49 214.42 1739.15 213.708 1741.84 213.036C1747.18 211.637 1752.57 210.383 1757.88 208.865C1779.13 202.756 1799.88 195.076 1820.12 186.179Z" fill="#65BFFF"/>
</svg>
