<svg width="864" height="414" viewBox="0 0 864 414" fill="none" xmlns="http://www.w3.org/2000/svg">
<path d="M1804.68 22.3295C1766.08 33.2135 1726.86 41.9865 1687.11 47.3919C1667.27 50.2845 1647.29 52.1001 1627.27 53.3822L1612.25 54.1078L1608.49 54.2854L1604.74 54.351L1597.23 54.4673L1589.71 54.5836L1585.95 54.6344L1582.2 54.573L1567.16 54.2979C1547.13 53.5597 1527.1 52.3098 1507.24 49.5671C1497.26 48.4616 1487.41 46.6221 1477.53 44.9809C1475.06 44.6071 1472.61 44.0686 1470.16 43.545L1462.8 41.993C1457.9 40.9309 1452.98 39.9849 1448.12 38.769C1409.11 29.4697 1370.7 17.5724 1331.24 9.92371C1311.53 6.08797 1291.58 3.46241 1271.57 1.95463C1251.55 0.480569 1231.46 0.0122247 1211.38 0.242078C1191.32 0.438219 1171.26 1.26909 1151.24 2.10687C1131.21 2.97836 1111.15 3.28259 1091.1 4.11345C1071.05 4.95919 1051 6.3613 1031.11 9.25097C1021.17 10.6398 1011.28 12.4758 1001.47 14.6281C991.651 16.7319 981.904 19.3275 972.424 22.6806C953.467 29.3383 935.307 38.9071 920.162 52.3067C904.936 65.5209 891.88 80.8953 878.086 95.4155C864.373 110.058 850.42 124.461 835.624 137.974C828.236 144.736 820.619 151.241 812.748 157.447C804.895 163.664 796.732 169.438 788.136 174.547C770.972 184.805 752.424 192.692 733.19 198.197C723.573 200.917 713.781 203.047 703.906 204.688C694.034 206.281 684.069 207.405 674.09 208.182C664.11 208.959 654.091 209.348 644.083 209.543C634.068 209.708 624.05 209.746 614.018 209.437L553.865 208.067L493.693 206.99C473.644 206.719 453.435 207.335 433.69 211.351C423.825 213.324 414.166 216.247 404.792 219.875C395.417 223.503 386.331 227.85 377.498 232.608C359.807 242.147 343.072 253.295 326.304 264.26C309.517 275.214 292.559 285.943 275.677 296.779C258.764 307.56 241.74 318.163 224.358 328.145C206.988 338.172 189.118 347.28 171.066 356.007C153.006 364.704 134.667 372.838 116.018 380.226C78.7442 394.98 40.1792 406.636 0.729831 413.923C40.2111 406.755 78.8228 395.214 116.158 380.571C134.823 373.242 153.207 365.16 171.313 356.514C189.396 347.843 207.308 338.771 224.724 328.797C242.147 318.851 259.186 308.244 276.122 297.489C293.008 286.668 309.974 275.968 326.795 265.021C343.581 254.067 360.31 242.953 377.949 233.46C395.556 223.96 414.248 216.257 433.898 212.363C453.524 208.38 473.663 207.798 493.682 208.077L553.84 209.222L613.994 210.655C624.015 210.983 634.066 210.952 644.101 210.797C654.143 210.61 664.166 210.235 674.194 209.461C684.206 208.691 694.191 207.578 704.126 205.984C714.035 204.35 723.879 202.238 733.556 199.501C752.902 193.999 771.564 186.065 788.847 175.775C797.498 170.635 805.75 164.837 813.629 158.598C821.534 152.398 829.173 145.856 836.606 139.082C851.461 125.553 865.469 111.119 879.197 96.4728C893.009 81.9001 906.028 66.5673 921.128 53.4187C936.089 40.1641 954.072 30.643 972.88 24.0251C982.297 20.673 991.965 18.0825 1001.75 15.9866C1011.52 13.8314 1021.37 11.9884 1031.28 10.6076C1051.1 7.68923 1071.11 6.28018 1091.13 5.41266C1111.15 4.56001 1131.21 4.23692 1151.27 3.34259C1171.3 2.48596 1191.33 1.62934 1211.38 1.42231C1231.42 1.18553 1251.48 1.61323 1271.47 3.0655C1291.46 4.54752 1311.35 7.15529 1331.03 10.9544C1370.42 18.5406 1408.84 30.4042 1447.9 39.6578C1452.76 40.8737 1457.69 41.8157 1462.61 42.8739L1469.98 44.4219C1472.43 44.9455 1474.89 45.48 1477.37 45.8538C1487.27 47.487 1497.14 49.3226 1507.13 50.4092C1527.02 53.1291 1547.08 54.3859 1567.13 55.0715L1582.18 55.294L1585.94 55.3554L1589.69 55.2898L1597.22 55.1546L1604.74 55.0195L1608.51 54.9499L1612.27 54.7574L1627.29 53.9832C1647.31 52.6377 1667.29 50.7586 1687.14 47.7985C1726.91 42.2285 1766.13 33.3434 1804.68 22.3295Z" fill="#65BFFF"/>
</svg>
