<svg width="848" height="196" viewBox="0 0 848 196" fill="none" xmlns="http://www.w3.org/2000/svg">
<path d="M1588.68 -120.365C1520.03 -95.2223 1446.22 -85.1133 1373.33 -88.9826C1336.88 -91.1349 1300.6 -96.5564 1265.23 -105.731C1229.82 -114.767 1195.07 -126.161 1159.92 -136.204C1124.79 -146.351 1089.21 -154.825 1053.75 -163.625C1036.03 -168.056 1018.31 -172.556 1000.8 -177.714C983.285 -182.885 965.975 -188.809 948.36 -193.743C939.544 -196.186 930.654 -198.387 921.676 -200.187C912.686 -201.927 903.6 -203.195 894.479 -203.964C885.344 -204.632 876.164 -204.687 867.017 -204.206C857.871 -203.613 848.741 -202.229 839.935 -199.589C837.709 -198.993 835.572 -198.169 833.385 -197.429C831.258 -196.566 829.098 -195.778 827.027 -194.762C822.833 -192.869 818.828 -190.581 815.015 -187.995C811.159 -185.466 807.658 -182.447 804.326 -179.263L801.907 -176.784C801.09 -175.979 800.39 -175.051 799.63 -174.19C798.081 -172.476 796.773 -170.589 795.396 -168.753C794.051 -166.898 792.608 -165.1 791.35 -163.184C790.078 -161.265 788.853 -159.33 787.681 -157.353C785.32 -153.409 783.133 -149.387 781.029 -145.316C776.834 -137.179 772.814 -128.962 768.811 -120.737C760.816 -104.288 752.901 -87.8054 743.939 -71.8944C734.898 -56.0737 725.249 -40.3838 712.4 -27.4266C699.702 -14.3704 684.752 -3.57478 668.574 4.76982C652.41 13.1666 635.023 19.0828 617.292 23.247C599.544 27.4016 581.394 29.7922 563.193 30.9528C544.979 32.117 526.705 32.0678 508.473 31.2389C499.362 30.8162 490.247 30.171 481.174 29.2633C472.1 28.3555 463.077 26.9592 454.044 25.5795C436.04 22.7895 417.706 20.1719 399.395 22.0185C390.272 22.9544 381.289 25.04 372.635 28.0433C363.982 31.0466 355.654 34.9544 347.636 39.3383C331.56 48.1165 316.66 58.7869 301.493 68.9281C293.935 74.0409 286.173 78.8592 278.43 83.7C270.684 88.5278 262.972 93.4304 255.179 98.187C239.613 107.723 223.838 116.951 207.635 125.358C191.466 133.84 174.687 141.088 157.832 148.105C140.95 155.074 123.863 161.538 106.587 167.452C72.025 179.242 36.6894 188.822 0.87764 196.001C36.7173 188.926 72.0809 179.451 106.697 167.758C124 161.893 141.117 155.49 158.023 148.557C174.904 141.589 191.72 134.373 207.942 125.932C224.179 117.544 239.966 108.313 255.565 98.7959C263.371 94.0359 271.074 89.1498 278.833 84.3185C286.579 79.4907 294.355 74.669 301.929 69.5658C317.126 59.4306 332.019 48.7898 348.037 40.055C356.036 35.7042 364.315 31.8234 372.92 28.847C381.525 25.8708 390.43 23.806 399.489 22.8876C417.656 21.0794 435.902 23.6788 453.899 26.4984C462.923 27.8946 471.962 29.3004 481.079 30.2107C490.182 31.1245 499.3 31.7828 508.428 32.215C526.696 33.0761 545 33.1313 563.26 31.9828C581.507 30.8377 599.716 28.4593 617.549 24.3098C635.348 20.1412 652.83 14.2136 669.111 5.78545C685.394 -2.58704 700.466 -13.4436 713.28 -26.5868C719.679 -33.1632 725.542 -40.2806 730.628 -47.9024C735.781 -55.486 740.55 -63.3023 745.051 -71.2843C754.058 -87.2353 761.996 -103.738 770.007 -120.177C774.01 -128.403 778.005 -136.612 782.19 -144.733C784.284 -148.787 786.461 -152.793 788.79 -156.7C789.953 -158.66 791.169 -160.579 792.418 -162.478C793.666 -164.378 795.087 -166.155 796.422 -167.994C797.79 -169.813 799.072 -171.694 800.602 -173.375C801.353 -174.219 802.043 -175.13 802.846 -175.932L805.22 -178.371C808.498 -181.498 811.928 -184.471 815.723 -186.969C819.465 -189.508 823.417 -191.783 827.549 -193.644C829.582 -194.65 831.716 -195.431 833.816 -196.288C835.965 -197.017 838.088 -197.837 840.275 -198.423C857.732 -203.66 876.262 -203.959 894.385 -202.807C903.459 -202.053 912.5 -200.801 921.456 -199.08C930.405 -197.286 939.258 -195.118 948.057 -192.684C965.64 -187.769 982.942 -181.871 1000.49 -176.711C1018.04 -171.563 1035.77 -167.08 1053.5 -162.665C1088.98 -153.898 1124.55 -145.463 1159.67 -135.355C1194.81 -125.352 1229.58 -113.991 1265.04 -104.982C1300.47 -95.8375 1336.79 -90.4264 1373.29 -88.3437C1446.27 -84.6657 1520.09 -95.0303 1588.68 -120.365Z" fill="#65BFFF"/>
</svg>
