<svg width="828" height="268" viewBox="0 0 828 268" fill="none" xmlns="http://www.w3.org/2000/svg">
<path d="M1583.81 -63.9105L1570.99 -59.8895L1564.58 -57.892L1558.07 -56.2038L1545.06 -52.8441L1531.91 -50.0743L1525.33 -48.7025L1518.71 -47.5854L1505.45 -45.3606L1492.13 -43.6059L1485.47 -42.7303L1478.78 -42.0703L1465.41 -40.7502L1452.01 -39.7865L1445.3 -39.3029C1443.07 -39.1645 1440.83 -39.0819 1438.6 -38.9601L1425.19 -38.3266C1407.28 -37.7207 1389.37 -37.3634 1371.44 -37.4216C1335.6 -37.3615 1299.76 -38.2636 1263.92 -38.2852C1228.09 -38.2416 1192.21 -38.4917 1156.51 -41.5695C1138.67 -43.0758 1120.89 -45.3653 1103.25 -48.505C1085.61 -51.6447 1068.13 -55.6085 1050.84 -60.3087C1042.21 -62.6605 1033.6 -65.1897 1025.07 -67.9197C1020.8 -69.2764 1016.56 -70.6958 1012.31 -72.1282C1008.1 -73.6397 1003.86 -75.1016 999.678 -76.6923C982.889 -82.9652 966.344 -89.8903 949.554 -96.2189C932.764 -102.547 915.735 -108.365 898.251 -112.495C893.903 -113.622 889.477 -114.419 885.087 -115.339C882.889 -115.784 880.658 -116.094 878.451 -116.467C876.239 -116.81 874.032 -117.239 871.795 -117.464C867.34 -118.002 862.888 -118.583 858.385 -118.886C853.899 -119.123 849.398 -119.314 844.896 -119.141C842.637 -119.137 840.395 -118.913 838.152 -118.801C835.917 -118.552 833.667 -118.41 831.437 -118.036C826.975 -117.455 822.55 -116.479 818.206 -115.301C813.853 -114.107 809.624 -112.498 805.501 -110.653C801.409 -108.746 797.489 -106.453 793.788 -103.868C790.127 -101.183 786.718 -98.2856 783.327 -95.3232C779.952 -92.3513 776.661 -89.2759 773.522 -86.046C770.381 -82.8292 767.386 -79.4281 764.606 -75.903C761.773 -72.4196 759.066 -68.8302 756.358 -65.2408C745.625 -50.8389 735.713 -35.8746 724.515 -21.9069C721.691 -18.44 718.851 -14.9826 715.861 -11.6668C715.107 -10.8361 714.387 -9.9863 713.613 -9.17818L711.267 -6.78944C709.68 -5.21838 708.201 -3.55088 706.533 -2.07014L701.53 2.3721L700.277 3.47611L698.961 4.49939L696.319 6.56244C692.867 9.40146 689.11 11.8331 685.454 14.3776C670.503 24.1814 654.221 31.8273 637.511 38.1349C620.765 44.4105 603.445 49.1211 585.949 52.8592C550.908 60.2085 515.052 63.4733 479.254 63.4673C470.298 63.4643 461.347 63.2779 452.414 62.7378C443.481 62.1976 434.552 61.3627 425.595 60.7869C416.642 60.2241 407.644 59.9108 398.677 60.4971C389.718 61.1095 380.775 62.6676 372.233 65.5152C363.658 68.288 355.597 72.5155 348.152 77.5282C340.643 82.4601 333.593 88.0653 326.773 93.9024C313.137 105.59 300.496 118.337 287.148 130.268C260.128 153.756 232.49 176.809 202.021 195.703L196.285 199.182L190.479 202.554C186.591 204.755 182.609 206.814 178.65 208.909C170.709 213.062 162.66 216.965 154.543 220.775C138.289 228.315 121.684 235.07 104.819 241.112C71.0787 253.156 36.2649 262.289 0.820047 267.609C36.2798 262.397 71.1475 253.361 104.929 241.417C121.821 235.424 138.466 228.715 154.747 221.223C162.874 217.453 170.953 213.556 178.914 209.425C182.889 207.34 186.875 205.294 190.779 203.102L196.602 199.739L202.368 196.267C217.645 186.85 232.207 176.326 246.322 165.279C260.427 154.193 274.161 142.661 287.668 130.855C301.055 118.914 313.712 106.176 327.32 94.5381C334.118 88.7211 341.148 83.149 348.625 78.2536C356.038 73.2774 364.015 69.1004 372.506 66.378C380.973 63.5644 389.829 62.0438 398.733 61.4324C407.647 60.86 416.606 61.1838 425.533 61.7535C434.464 62.3363 443.396 63.1841 452.346 63.7339C461.3 64.2967 470.279 64.4891 479.239 64.5052C515.103 64.5494 551.022 61.3097 586.168 53.9881C603.71 50.2656 621.085 45.554 637.9 39.2741C654.692 32.9586 671.068 25.3014 686.116 15.4436C689.811 12.8886 693.591 10.4369 697.082 7.58743L699.75 5.5174L701.076 4.47764L702.338 3.35708L707.39 -1.11216C709.071 -2.59639 710.585 -4.28734 712.182 -5.87494L714.55 -8.28368C715.32 -9.10483 716.054 -9.95814 716.808 -10.7888C719.82 -14.1247 722.683 -17.6021 725.52 -21.0725C736.776 -35.0836 746.727 -50.0585 757.432 -64.4107C760.113 -67.9931 762.823 -71.5695 765.634 -75.0329C768.405 -78.5415 771.341 -81.899 774.461 -85.0959C777.563 -88.3023 780.832 -91.3576 784.184 -94.3096C787.54 -97.2485 790.971 -100.166 794.538 -102.784C798.182 -105.325 802.014 -107.581 806.045 -109.458C810.093 -111.269 814.253 -112.873 818.554 -114.053C822.846 -115.217 827.2 -116.202 831.622 -116.772C833.826 -117.139 836.046 -117.287 838.265 -117.546C840.495 -117.655 842.708 -117.884 844.937 -117.895C849.393 -118.083 853.855 -117.882 858.311 -117.651C862.772 -117.351 867.204 -116.792 871.633 -116.247C873.856 -116.018 876.06 -115.603 878.26 -115.256C880.466 -114.883 882.681 -114.582 884.866 -114.134C889.239 -113.224 893.653 -112.423 897.983 -111.306C915.405 -107.201 932.398 -101.415 949.165 -95.1225C965.938 -88.8034 982.492 -81.8949 999.317 -75.6455C1003.51 -74.0453 1007.75 -72.5833 1011.98 -71.0753C1016.23 -69.6299 1020.49 -68.2271 1024.77 -66.8738C1033.32 -64.1638 1041.93 -61.6216 1050.59 -59.2898C1067.91 -54.6001 1085.42 -50.6432 1103.09 -47.5271C1120.77 -44.4109 1138.58 -42.1283 1156.44 -40.6421C1192.19 -37.5912 1228.1 -37.3907 1263.93 -37.4638C1299.76 -37.4944 1335.61 -36.6088 1371.46 -36.728C1389.39 -36.7255 1407.31 -37.1419 1425.21 -37.8034L1438.65 -38.4829C1440.89 -38.6082 1443.13 -38.6909 1445.36 -38.8422L1452.06 -39.3389L1465.46 -40.3452L1478.84 -41.7079L1485.52 -42.394L1492.18 -43.2861L1505.5 -45.0799L1518.75 -47.3437L1525.38 -48.4775L1531.95 -49.8623L1545.09 -52.6711L1558.09 -56.07L1564.6 -57.7712L1571 -59.7948L1583.81 -63.9105Z" fill="#65BFFF"/>
</svg>
