<svg width="868" height="422" viewBox="0 0 868 422" fill="none" xmlns="http://www.w3.org/2000/svg">
<path d="M1800.24 15.1153C1761.65 24.4978 1722.68 32.501 1683.3 37.7285C1663.64 40.5099 1643.85 42.3373 1624.05 43.7055C1614.13 44.2274 1604.22 44.8724 1594.3 44.9649L1586.87 45.1396L1583.15 45.227L1579.43 45.1875L1564.54 45.048C1544.71 44.5121 1524.85 43.4574 1505.16 40.906C1495.27 39.9035 1485.5 38.1374 1475.7 36.5884C1473.23 36.2443 1470.82 35.679 1468.39 35.2L1461.09 33.6956C1456.24 32.685 1451.37 31.7419 1446.54 30.5478C1427.21 26.0036 1408.01 20.8821 1388.68 16.1773C1369.37 11.4684 1349.94 7.14251 1330.23 4.35606C1310.54 1.55077 1290.62 0.336463 1270.73 0.723868C1260.79 0.883837 1250.86 1.47325 1240.95 2.26398C1231.05 3.1628 1221.16 4.20344 1211.31 5.61297C1191.62 8.32395 1172.08 11.9661 1152.6 15.8948C1133.14 19.8493 1113.64 23.6699 1094.2 27.8108C1074.77 31.9328 1055.41 36.4684 1036.23 41.7179C1026.66 44.3778 1017.12 47.1905 1007.64 50.2074C998.196 53.265 988.746 56.4346 979.527 60.1643C961.052 67.5535 943.178 76.6471 926.92 88.2088C922.86 91.1141 918.932 94.1591 914.959 97.1527L903.317 106.457C895.557 112.665 887.828 118.929 880.034 125.066C864.448 137.357 848.513 149.23 831.93 160.114C823.631 165.558 815.186 170.754 806.561 175.632C797.935 180.509 789.141 185.114 780.09 189.117C771.02 193.109 761.759 196.627 752.307 199.606C742.846 202.556 733.235 205.003 723.529 206.919C704.079 210.727 684.227 212.141 664.396 212.21C624.698 212.39 585.116 207.836 545.347 207.157C525.464 206.794 505.589 207.353 485.737 208.352C465.897 209.396 446.022 211.501 426.655 216.149C407.275 220.752 388.684 228.3 371.065 237.516C353.405 246.696 336.602 257.352 319.905 268.107L269.875 300.482C253.236 311.333 236.543 322.103 219.562 332.391C202.608 342.721 185.254 352.392 167.646 361.59C150.035 370.772 132.145 379.392 113.879 387.203C77.4005 402.844 39.3296 415.038 0.194609 421.953C39.3506 415.176 77.4831 403.093 114.038 387.559C132.331 379.788 150.266 371.22 167.909 362.093C185.551 352.966 202.946 343.332 219.946 333.054C236.965 322.787 253.658 312.017 270.32 301.192L320.395 268.868C337.096 258.128 353.892 247.506 371.516 238.368C389.098 229.193 407.597 221.718 426.892 217.154C446.175 212.545 465.99 210.455 485.789 209.438C505.616 208.462 525.479 207.922 545.322 208.312C585.01 209.044 624.585 213.632 664.392 213.502C684.271 213.436 704.225 212.043 723.772 208.24C733.541 206.324 743.2 203.879 752.706 200.918C762.203 197.927 771.527 194.408 780.641 190.404C789.752 186.385 798.591 181.768 807.246 176.883C815.916 171.993 824.391 166.789 832.719 161.337C849.362 150.438 865.346 138.567 880.961 126.269C888.762 120.097 896.476 113.838 904.221 107.634L915.844 98.3182C919.802 95.3287 923.73 92.2837 927.75 89.4052C943.882 77.909 961.653 68.8433 980.038 61.478C989.228 57.7562 998.633 54.5985 1008.06 51.5301C1017.5 48.5063 1027.03 45.6827 1036.58 43.0267C1055.72 37.7555 1075.04 33.2318 1094.46 29.08C1113.89 24.9282 1133.38 21.0927 1152.83 17.1085C1172.29 13.1689 1191.81 9.5159 1211.47 6.78313C1221.29 5.36269 1231.15 4.31516 1241.03 3.40545C1250.92 2.60383 1260.82 2.00751 1270.74 1.83664C1290.58 1.43143 1310.43 2.63189 1330.08 5.40053C1349.74 8.16917 1369.16 12.4505 1388.45 17.1484C1407.75 21.8275 1426.96 26.9301 1446.32 31.4515C1451.14 32.6307 1456.03 33.5847 1460.9 34.5764L1468.21 36.0769C1470.65 36.5707 1473.07 37.1172 1475.53 37.4613C1485.36 39.0063 1495.14 40.7685 1505.05 41.7481C1524.78 44.2727 1544.65 45.3234 1564.52 45.8028L1579.43 45.8896L1583.16 45.9103L1586.89 45.8041L1594.33 45.6105C1604.28 45.4803 1614.19 44.8016 1624.1 44.2499C1643.91 42.8143 1663.7 40.9086 1683.36 38.0786C1722.73 32.7429 1761.68 24.6168 1800.24 15.1153Z" fill="#65BFFF"/>
</svg>
