<svg width="846" height="517" viewBox="0 0 846 517" fill="none" xmlns="http://www.w3.org/2000/svg">
<path d="M1820.48 186.179C1800.24 195.031 1779.47 202.637 1758.2 208.702C1752.89 210.205 1747.51 211.44 1742.16 212.824C1739.48 213.496 1736.81 214.193 1734.12 214.82L1726 216.47L1717.87 218.121C1715.16 218.639 1712.48 219.296 1709.74 219.663L1693.38 222.214L1689.28 222.849L1685.17 223.313L1676.93 224.229C1671.44 224.824 1665.96 225.526 1660.45 225.808L1643.93 226.935C1638.41 227.153 1632.88 227.248 1627.37 227.417C1624.62 227.485 1621.85 227.59 1619.09 227.613L1610.8 227.507C1605.28 227.408 1599.75 227.454 1594.23 227.227C1583.2 226.628 1572.17 226.269 1561.17 225.101C1517.13 221.439 1473.62 212.725 1431.07 200.885C1388.52 188.899 1346.91 173.779 1305.93 157.229C1264.98 140.589 1224.63 122.341 1185.75 101.275C1176.05 95.9824 1166.42 90.5614 1156.91 84.9142C1147.42 79.2481 1138.07 73.3855 1128.81 67.3383C1110.28 55.2778 1091.94 42.8481 1072.64 31.9506C1062.97 26.5375 1053.16 21.3547 1042.95 17.0449L1039.15 15.371L1035.27 13.8736C1032.67 12.8969 1030.11 11.8448 1027.5 10.9355C1022.21 9.25981 1016.97 7.41149 1011.56 6.16733C1006.23 4.63052 1000.73 3.76133 995.303 2.69667C992.561 2.26752 989.801 2.00301 987.049 1.65619L982.919 1.15281L978.77 0.877562C977.389 0.769608 976.004 0.710254 974.605 0.718355C973.217 0.707603 971.833 0.648265 970.438 0.67124C967.665 0.776667 964.882 0.788889 962.112 1.08476C959.34 1.25367 956.58 1.70624 953.838 2.1062C952.466 2.33049 951.102 2.64799 949.742 2.9169L947.69 3.33912L945.674 3.8952C934.917 6.69793 924.658 11.8379 916.259 19.2217L913.163 22.0439L910.31 25.1198C909.845 25.6428 909.358 26.1401 908.912 26.6741L907.635 28.3235C906.788 29.4429 905.897 30.5108 905.103 31.648C903.618 34.0067 901.986 36.2931 900.671 38.7499C899.318 41.1848 898.059 43.6742 896.89 46.2032C892.252 56.341 889.177 67.0806 886.568 77.8386C883.996 88.6184 881.695 99.4535 879.509 110.305C875.152 132.005 871.218 153.799 865.973 175.274C863.356 186.002 860.402 196.661 856.923 207.142C853.501 217.656 849.364 227.883 844.115 237.579C833.763 257.043 819.433 274.257 802.819 288.705C786.124 303.093 767.153 314.744 746.981 323.641C706.593 341.445 661.957 348.798 617.922 347.111C606.904 346.684 595.906 345.677 584.987 344.076C582.253 343.676 579.527 343.243 576.822 342.772C574.12 342.253 571.407 341.752 568.708 341.184C563.328 339.995 557.975 338.672 552.646 337.199C541.999 334.296 531.424 331.009 520.727 328.216C510.02 325.442 499.127 323.164 488.056 322.304C486.677 322.147 485.296 322.103 483.901 322.062L479.743 321.933C476.965 321.96 474.188 322.051 471.422 322.186L467.286 322.609C465.908 322.755 464.519 322.856 463.162 323.14L459.057 323.857C457.692 324.111 456.308 324.291 454.979 324.679C444.145 327.136 433.733 331.169 423.828 336.086C403.958 345.986 386.095 359.221 367.986 371.837C358.942 378.182 349.752 384.279 340.255 389.948L311.989 407.246C293.022 418.561 273.753 429.399 253.847 438.989C234.011 448.72 213.305 456.516 192.515 463.936C171.706 471.345 150.667 478.13 129.492 484.41C87.1227 496.958 44.1459 507.358 0.945746 516.685C44.163 507.481 87.1756 497.215 129.592 484.781C150.801 478.572 171.853 471.831 192.697 464.493C213.513 457.114 234.268 449.384 254.161 439.686C274.109 430.133 293.404 419.272 312.393 407.982L340.698 390.706C350.183 385.056 359.432 378.943 368.491 372.594C386.619 359.989 404.464 346.807 424.243 336.98C434.107 332.089 444.448 328.09 455.183 325.676C456.511 325.289 457.866 325.117 459.23 324.863L463.291 324.157C464.633 323.877 466.008 323.78 467.385 323.634L471.492 323.219C474.243 323.088 476.986 322.99 479.735 322.971L483.863 323.109C485.239 323.138 486.605 323.187 487.984 323.343C498.962 324.212 509.802 326.472 520.466 329.258C531.148 332.055 541.693 335.351 552.377 338.275C557.71 339.763 563.078 341.083 568.496 342.293C571.21 342.857 573.927 343.373 576.647 343.903C579.371 344.385 582.112 344.814 584.846 345.213C595.798 346.822 606.834 347.85 617.901 348.28C662.093 350.021 706.913 342.698 747.523 324.834C767.803 315.925 786.905 304.223 803.721 289.754C820.457 275.227 834.915 257.898 845.369 238.279C846.012 237.055 846.689 235.837 847.327 234.598L849.139 230.845C850.402 228.37 851.413 225.788 852.545 223.237C853.642 220.679 854.563 218.057 855.574 215.475L858.308 207.616C861.808 197.098 864.784 186.401 867.427 175.65C872.704 154.118 876.668 132.316 881.043 110.627C883.214 99.7795 885.505 88.9633 888.066 78.2023C890.668 67.4781 893.704 56.8288 898.266 46.8229C899.409 44.3168 900.646 41.8651 901.977 39.4678C903.271 37.0488 904.87 34.8189 906.315 32.487C907.098 31.3687 907.974 30.3047 908.799 29.223L910.05 27.5965C910.481 27.0665 910.973 26.5841 911.427 26.0799L914.217 23.0685L917.247 20.296C925.467 13.072 935.495 8.02544 946.071 5.25557L948.057 4.70747L950.064 4.29719C951.41 4.03226 952.739 3.70785 954.097 3.48754C956.809 3.09552 959.525 2.6549 962.263 2.47908C964.999 2.1763 967.733 2.16113 970.492 2.05967C971.857 2.04465 973.237 2.08913 974.61 2.10387C975.979 2.10373 977.36 2.14821 978.727 2.26014L982.842 2.52848L986.939 3.02495C989.675 3.37575 992.417 3.62935 995.125 4.05159C1000.53 5.10534 1005.97 5.96071 1011.28 7.48662C1016.66 8.72388 1021.85 10.5355 1027.11 12.2043C1029.7 13.1027 1032.26 14.1548 1034.84 15.1207L1038.7 16.6071L1042.49 18.2702C1052.66 22.5432 1062.43 27.7043 1072.07 33.0916C1091.31 43.9416 1109.64 56.3415 1128.2 68.3941C1137.47 74.4372 1146.86 80.3068 1156.37 85.9689C1165.89 91.6122 1175.54 97.0441 1185.25 102.333C1224.21 123.379 1264.6 141.6 1305.58 158.213C1346.61 174.736 1388.27 189.81 1430.88 201.781C1473.49 213.59 1517.06 222.303 1561.16 225.886C1572.16 227.019 1583.22 227.356 1594.26 227.921C1599.77 228.133 1605.31 228.068 1610.85 228.164L1619.13 228.24C1621.89 228.217 1624.66 228.082 1627.41 228.014C1632.93 227.841 1638.45 227.716 1643.98 227.48L1660.52 226.3C1666.04 225.999 1671.52 225.297 1677.02 224.668L1685.25 223.737L1689.38 223.27L1693.42 222.553L1709.79 219.953C1712.52 219.587 1715.21 218.915 1717.93 218.392L1726.05 216.727L1734.17 215.062C1736.86 214.42 1739.52 213.708 1742.2 213.036C1747.54 211.637 1752.94 210.383 1758.24 208.865C1779.5 202.756 1800.25 195.076 1820.48 186.179Z" fill="#65BFFF"/>
</svg>
