<svg width="864" height="141" viewBox="0 0 864 141" fill="none" xmlns="http://www.w3.org/2000/svg">
<path d="M1575.07 -229.785C1541.06 -222.839 1506.92 -216.457 1472.5 -212.041C1455.31 -209.725 1438.02 -208.069 1420.72 -206.828L1407.73 -206.058C1403.4 -205.777 1399.07 -205.748 1394.73 -205.578C1386.06 -205.197 1377.39 -205.332 1368.72 -205.314C1364.39 -205.34 1360.05 -205.577 1355.71 -205.685C1351.38 -205.823 1347.04 -205.932 1342.72 -206.296L1329.74 -207.205C1325.42 -207.598 1321.12 -208.136 1316.8 -208.586L1310.33 -209.297C1308.19 -209.589 1306.04 -209.95 1303.9 -210.272L1291.04 -212.246L1278.29 -214.795C1276.16 -215.232 1274.04 -215.625 1271.92 -216.091L1265.57 -217.548C1248.66 -221.498 1231.85 -225.837 1214.89 -229.606C1197.93 -233.346 1180.8 -236.468 1163.46 -237.884L1156.96 -238.307C1154.79 -238.425 1152.61 -238.455 1150.44 -238.531C1146.1 -238.75 1141.75 -238.59 1137.4 -238.571C1128.72 -238.271 1120.03 -237.745 1111.4 -236.621C1094.13 -234.605 1077.1 -230.868 1060.34 -226.389C1043.59 -221.776 1027.08 -216.333 1010.75 -210.421C994.423 -204.522 978.17 -198.435 961.998 -192.146C929.643 -179.564 897.61 -166.147 866.053 -151.628C850.318 -144.282 834.842 -136.336 819.869 -127.504C804.962 -118.578 790.284 -109.322 775.322 -100.549C745.364 -83.1331 714.017 -67.8319 680.904 -57.5063C664.363 -52.3896 647.351 -48.7675 630.145 -46.8115C621.545 -45.8482 612.899 -45.2639 604.238 -45.1507C595.577 -45.0375 586.916 -45.3432 578.26 -45.888C543.666 -48.1722 509.364 -54.5167 474.597 -55.7769C457.222 -56.4301 439.821 -55.6655 422.548 -53.8034C405.271 -51.9542 388.102 -48.9187 371.372 -44.1981C354.623 -39.5428 338.417 -33.0208 322.886 -25.227C307.335 -17.4557 292.409 -8.55236 277.697 0.684533C270.343 5.30951 263.046 9.98918 255.762 14.721L233.991 29.0068C219.528 38.5964 205.095 48.2477 190.487 57.6105C161.28 76.3197 131.222 93.8319 99.7392 108.471C68.3187 123.135 35.1698 134.42 0.915802 140.176C35.1847 134.528 68.3876 123.34 99.8751 108.77C131.412 94.2281 161.55 76.8063 190.833 58.1743C205.478 48.8436 219.911 39.1924 234.381 29.6288L256.159 15.3691C263.43 10.6408 270.76 5.98017 278.101 1.35869C292.807 -7.84869 307.727 -16.7224 323.243 -24.4702C338.741 -32.2275 354.889 -38.7059 371.589 -43.3343C388.275 -48.0148 405.391 -51.0364 422.633 -52.8621C439.867 -54.7138 457.219 -55.4514 474.543 -54.7843C509.222 -53.4866 543.488 -47.1186 578.178 -44.7901C586.853 -44.2228 595.544 -43.911 604.234 -44.0181C612.938 -44.1288 621.617 -44.694 630.256 -45.6677C647.535 -47.6151 664.631 -51.2321 681.241 -56.3532C714.478 -66.6841 745.936 -81.9871 775.963 -99.4071C790.93 -108.21 805.628 -117.499 820.479 -126.424C835.397 -135.255 850.834 -143.191 866.526 -150.539C898.024 -165.07 930.034 -178.523 962.356 -191.124C978.524 -197.426 994.757 -203.536 1011.07 -209.444C1027.37 -215.362 1043.85 -220.825 1060.55 -225.44C1077.28 -229.938 1094.25 -233.674 1111.47 -235.702C1120.06 -236.832 1128.71 -237.361 1137.37 -237.671C1141.71 -237.686 1146.03 -237.839 1150.37 -237.646C1152.54 -237.57 1154.69 -237.547 1156.86 -237.428L1163.34 -237.015C1180.62 -235.624 1197.72 -232.521 1214.68 -228.807C1231.62 -225.064 1248.43 -220.739 1265.36 -216.808L1271.71 -215.364C1273.83 -214.899 1275.97 -214.508 1278.09 -214.072L1290.87 -211.53L1303.76 -209.562C1305.91 -209.244 1308.05 -208.897 1310.19 -208.605L1316.67 -207.896C1320.99 -207.447 1325.3 -206.926 1329.63 -206.519L1342.62 -205.627C1346.94 -205.262 1351.29 -205.157 1355.63 -205.019C1359.97 -204.911 1364.31 -204.678 1368.65 -204.668C1377.33 -204.716 1386.03 -204.6 1394.69 -205.008C1399.02 -205.191 1403.37 -205.223 1407.71 -205.521L1420.7 -206.334C1438.02 -207.62 1455.29 -209.329 1472.5 -211.704C1506.97 -216.232 1541.08 -222.732 1575.07 -229.785Z" fill="#65BFFF"/>
</svg>
