<svg width="820" height="463" viewBox="0 0 820 463" fill="none" xmlns="http://www.w3.org/2000/svg">
<path d="M1784.07 0.211884C1704.03 12.126 1622.73 6.2833 1542.42 15.8154C1522.35 18.1627 1502.41 21.6881 1482.83 26.6642C1473.06 29.2341 1463.37 32.15 1453.85 35.5448C1444.38 39.0249 1434.99 42.8619 1425.88 47.2174C1389.23 64.228 1354.11 84.3019 1317.71 101.738C1245.11 137.084 1165.12 156.366 1084.56 160.147C1064.42 161.271 1044.23 161.659 1024.05 161.678C1013.96 161.673 1003.87 161.57 993.776 161.389L963.488 161.103L902.93 160.544C892.85 160.407 882.795 159.833 872.737 159.069C862.676 158.29 852.62 157.414 842.587 156.388C802.442 152.287 762.515 146.088 722.5 140.629C702.497 137.859 682.463 135.209 662.388 133C642.306 130.825 622.168 129.095 601.983 128.079C581.813 127.059 561.58 126.758 541.388 127.498C531.295 127.97 521.189 128.271 511.135 129.243C501.072 130.122 491.037 131.345 481.033 132.862C461.063 135.917 441.269 140.28 421.938 146.257C402.661 152.251 383.832 160.277 366.968 171.539C364.893 173.004 362.757 174.357 360.773 175.925L357.739 178.205C356.738 178.983 355.778 179.798 354.785 180.606C350.826 183.771 347.126 187.25 343.574 190.864C340.036 194.474 336.708 198.33 333.565 202.281C330.365 206.199 327.263 210.187 324.184 214.2C311.901 230.26 300.373 246.883 288.732 263.377C265.366 296.292 241.343 328.952 213.157 357.898C206.112 365.11 198.82 372.117 191.217 378.73C183.545 385.265 175.721 391.649 167.549 397.569C151.279 409.501 134.104 420.192 116.18 429.459C98.2646 438.755 79.5234 446.454 60.1977 452.27C40.879 458.053 20.8995 461.844 0.716208 462.677C20.9006 461.907 40.892 458.161 60.2455 452.449C79.6019 446.688 98.3887 439.04 116.335 429.8C134.304 420.585 151.536 409.926 167.882 398.038C176.091 392.14 183.938 385.781 191.658 379.249C199.311 372.639 206.621 365.643 213.699 358.438C227.849 343.998 240.933 328.552 253.416 312.645C265.866 296.732 277.809 280.412 289.48 263.91C301.155 247.423 312.69 230.83 324.966 214.804C328.049 210.805 331.155 206.833 334.34 202.918C337.484 198.967 340.779 195.167 344.306 191.576C347.832 187.985 351.511 184.544 355.448 181.417C356.43 180.628 357.39 179.813 358.376 179.038L361.4 176.777C363.387 175.225 365.509 173.875 367.573 172.429C384.348 161.255 403.066 153.29 422.293 147.342C441.553 141.4 461.306 137.063 481.221 134.039C491.195 132.53 501.204 131.33 511.252 130.455C521.292 129.487 531.369 129.194 541.45 128.74C561.602 128.027 581.79 128.341 601.95 129.379C622.094 130.422 642.202 132.16 662.273 134.354C682.338 136.582 702.346 139.255 722.338 142.044C762.346 147.536 802.256 153.788 842.461 157.936C852.508 158.958 862.579 159.83 872.652 160.591C882.724 161.351 892.823 161.913 902.949 162.037L963.482 162.508L993.762 162.763C1003.87 162.926 1013.95 163.028 1024.06 163.015C1044.25 162.992 1064.47 162.581 1084.63 161.42C1165.33 157.554 1245.48 138.15 1318.15 102.657C1354.58 85.1644 1389.66 65.0687 1426.24 48.0294C1435.34 43.6778 1444.66 39.8418 1454.12 36.3658C1463.6 32.964 1473.27 30.0561 1483.02 27.4753C1502.55 22.4814 1522.46 18.9639 1542.49 16.5611C1622.68 6.79214 1704.06 12.3719 1784.07 0.211884Z" fill="#65BFFF"/>
</svg>
