<svg width="841" height="547" viewBox="0 0 841 547" fill="none" xmlns="http://www.w3.org/2000/svg">
<path d="M1823.92 231.378C1803.33 241.312 1781.94 249.529 1760.04 256.082L1743.52 260.653C1737.97 261.981 1732.37 263.179 1726.8 264.447C1721.25 265.823 1715.59 266.622 1709.98 267.648L1701.54 269.128C1698.73 269.626 1695.87 269.897 1693.05 270.288C1670.43 273.558 1647.55 274.843 1624.71 275.032L1616.14 275.05L1611.86 275.065C1610.44 275.047 1609 274.97 1607.57 274.923L1590.44 274.316C1584.74 274.01 1579.03 273.514 1573.34 273.126C1570.5 272.9 1567.64 272.757 1564.81 272.449L1556.28 271.529L1547.76 270.608L1543.5 270.156L1539.26 269.553L1522.3 267.132C1516.65 266.239 1511.04 265.174 1505.41 264.214C1502.6 263.707 1499.77 263.253 1496.98 262.694L1488.58 260.943L1480.18 259.191C1477.39 258.617 1474.59 258.029 1471.82 257.335L1455.16 253.318C1449.61 251.968 1444.13 250.344 1438.6 248.878L1430.32 246.616L1422.12 244.126C1400.18 237.697 1378.62 230.004 1357.31 221.75L1341.38 215.402L1325.62 208.626C1320.33 206.423 1315.19 203.961 1309.99 201.574C1304.82 199.15 1299.58 196.857 1294.49 194.252C1253.36 174.25 1213.75 151.101 1176.37 124.722L1162.43 114.714L1148.78 104.329C1139.71 97.3711 1130.88 90.0918 1122.04 82.8165C1104.38 68.2579 1086.71 53.6398 1067.92 40.4856C1063.16 37.3148 1058.48 33.9933 1053.55 31.0568C1051.1 29.5771 1048.72 27.9694 1046.2 26.5879L1038.69 22.3831C1037.44 21.6641 1036.17 21.0165 1034.87 20.3918L1031.02 18.4907C1028.45 17.2184 1025.9 15.8935 1023.23 14.8395L1015.31 11.478C1012.62 10.4617 1009.9 9.56535 1007.2 8.59762L1003.13 7.18573L998.974 6.0516C996.197 5.31304 993.445 4.48818 990.659 3.83195C985.016 2.79327 979.41 1.47389 973.686 0.903397C962.3 -0.302095 950.611 -0.0871234 939.418 2.81617C933.852 4.25985 928.362 6.22512 923.334 9.08661C918.291 11.8886 913.515 15.2725 909.506 19.4393L907.954 20.9551C907.46 21.4861 907.022 22.0498 906.551 22.6066C905.622 23.7161 904.671 24.7999 903.766 25.9353C902.166 28.3407 900.34 30.6154 899.022 33.1842C898.324 34.4393 897.592 35.6876 896.917 36.9686C896.294 38.2673 895.637 39.5591 895.071 40.8906C893.881 43.5208 892.868 46.2153 891.908 48.9276C888.145 59.8353 886.102 71.2226 884.511 82.5689C882.971 93.933 881.727 105.33 880.629 116.735C878.432 139.546 876.784 162.385 873.854 185.073C872.389 196.417 870.624 207.714 868.325 218.915C866.041 230.112 863.3 241.209 859.253 251.889C855.304 262.576 850.248 272.874 844.267 282.575C838.287 292.275 831.451 301.456 823.838 309.936C808.556 326.863 790.459 341.182 770.664 352.496C731.103 375.227 685.279 386.645 639.685 386.204C628.277 386.105 616.888 385.187 605.596 383.558C599.939 382.762 594.341 381.712 588.745 380.549C583.188 379.296 577.666 377.874 572.209 376.164C550.398 369.495 529.344 360.008 506.704 355.712C505.3 355.403 503.886 355.176 502.465 354.983L498.21 354.37C495.359 354.065 492.498 353.844 489.634 353.67C483.899 353.533 478.13 353.628 472.453 354.48C461.054 355.956 449.986 359.384 439.518 364.038C418.496 373.385 399.956 387.121 381.354 400.331C362.914 413.848 343.199 425.46 323.602 437.215C303.948 448.873 283.937 459.974 263.273 469.704C252.943 474.576 242.434 479.081 231.754 483.123C221.066 487.134 210.245 490.831 199.413 494.483C177.712 501.652 155.806 508.176 133.762 514.242C89.6888 526.37 45.0934 536.55 0.467742 546.499C45.1105 536.673 89.7417 526.627 133.862 514.614C155.922 508.607 177.863 502.154 199.59 495.025C210.431 491.403 221.263 487.751 231.985 483.746C242.703 479.727 253.234 475.247 263.587 470.401C284.308 460.704 304.348 449.595 324.022 437.947C343.622 426.207 363.385 414.599 381.87 401.07C400.491 387.87 419.01 374.172 439.899 364.925C450.316 360.316 461.298 356.927 472.575 355.468C483.838 353.9 495.356 354.529 506.527 356.716C528.984 360.981 550.008 370.476 571.899 377.204C577.359 378.929 582.915 380.357 588.51 381.632C594.125 382.806 599.757 383.863 605.433 384.67C616.763 386.321 628.218 387.252 639.679 387.37C685.475 387.852 731.508 376.442 771.299 353.617C791.208 342.256 809.432 327.872 824.827 310.835C832.506 302.305 839.408 293.075 845.432 283.299C851.475 273.534 856.56 263.164 860.567 252.398C864.642 241.646 867.419 230.444 869.729 219.224C872.035 207.99 873.836 196.651 875.312 185.288C878.26 162.547 879.949 139.681 882.153 116.9C883.237 105.499 884.474 94.1361 886.003 82.7908C887.573 71.4823 889.594 60.1961 893.3 49.4313C894.239 46.7567 895.241 44.081 896.413 41.5034C896.968 40.1908 897.603 38.9367 898.215 37.6568C898.884 36.4096 899.59 35.1841 900.278 33.9478C901.558 31.4207 903.352 29.2026 904.9 26.8428C905.78 25.7303 906.705 24.6693 907.608 23.5826C908.069 23.0447 908.511 22.4958 908.99 21.9688L910.505 20.4948C914.426 16.4153 919.08 13.1118 924.013 10.3714C928.929 7.57152 934.301 5.63803 939.759 4.20734C950.74 1.34489 962.28 1.10624 973.556 2.26125C979.213 2.81791 984.782 4.11549 990.376 5.15124C993.143 5.79658 995.876 6.61056 998.634 7.33822L1002.76 8.46543L1006.79 9.87041C1009.48 10.8233 1012.19 11.7236 1014.85 12.7181L1022.73 16.0578C1025.38 17.101 1027.92 18.4298 1030.47 19.6912L1034.3 21.5814C1035.58 22.1952 1036.85 22.8428 1038.1 23.5618L1045.57 27.7449C1048.07 29.1154 1050.44 30.7122 1052.88 32.177C1057.79 35.1027 1062.45 38.4133 1067.21 41.5692C1085.95 54.6571 1103.61 69.2454 1121.28 83.7851C1130.12 91.0455 1138.97 98.3169 1148.07 105.286L1161.74 115.682L1175.71 125.696C1213.17 152.085 1252.84 175.233 1294.04 195.215C1299.15 197.816 1304.4 200.109 1309.58 202.53C1314.79 204.912 1319.95 207.371 1325.24 209.573L1341.01 216.346L1356.96 222.69C1378.3 230.936 1399.89 238.621 1421.86 245.041L1430.07 247.528L1438.34 249.774C1443.88 251.241 1449.37 252.846 1454.93 254.211L1471.61 258.22C1474.38 258.928 1477.19 259.498 1479.99 260.072L1488.39 261.824L1496.78 263.575C1499.59 264.13 1502.42 264.584 1505.23 265.091C1510.86 266.051 1516.48 267.112 1522.15 268.001L1539.14 270.399L1543.39 270.998L1547.65 271.45L1556.18 272.352L1564.72 273.253C1567.57 273.557 1570.42 273.686 1573.27 273.912C1578.97 274.281 1584.67 274.777 1590.38 275.049L1607.53 275.618C1608.96 275.665 1610.4 275.728 1611.82 275.745L1616.11 275.727L1624.69 275.675C1647.55 275.433 1670.44 274.081 1693.07 270.743C1695.91 270.334 1698.75 270.067 1701.56 269.554L1710.01 268.055C1715.63 267.01 1721.29 266.196 1726.84 264.805C1732.41 263.518 1737.99 262.309 1743.55 260.963L1760.07 256.347C1781.99 249.659 1803.36 241.382 1823.92 231.378Z" fill="#65BFFF"/>
</svg>
