<svg width="635" height="431" viewBox="0 0 635 431" fill="none" xmlns="http://www.w3.org/2000/svg">
<path d="M1808.77 54.5399C1769.97 67.0258 1730.2 76.5659 1689.82 82.1722C1649.5 88.0838 1608.62 89.9971 1567.9 88.4906C1562.8 88.3093 1557.73 87.9 1552.64 87.6067C1547.55 87.2945 1542.47 87.0309 1537.39 86.446L1522.19 84.9412C1517.13 84.3672 1512.09 83.5987 1507.04 82.9275L1499.47 81.8944C1496.94 81.5662 1494.45 81.0397 1491.93 80.6292L1476.88 77.9678C1471.88 76.9971 1466.92 75.8388 1461.94 74.7817C1456.96 73.7098 1451.97 72.6378 1447.04 71.3784C1407.44 61.663 1368.52 49.296 1328.82 39.784C1308.96 35.0617 1288.96 30.9991 1268.81 27.7756C1248.68 24.4808 1228.43 21.8564 1208.18 19.486C1187.92 17.1195 1167.64 14.9812 1147.42 12.5244C1127.19 10.0379 1107.07 6.70933 1086.81 4.23079C1066.57 1.69968 1046.15 0.142634 1025.72 0.707019C1015.51 1.05069 1005.3 1.69688 995.177 3.16714C985.042 4.43212 974.99 6.59952 965.225 9.66229C960.347 11.2403 955.559 13.0334 950.865 15.12C946.217 17.2582 941.609 19.5451 937.258 22.2572C932.903 24.9545 928.648 27.8481 924.71 31.151C922.678 32.7157 920.841 34.5312 918.923 36.2248C917.142 38.0729 915.236 39.8111 913.576 41.7544C910.176 45.5825 906.675 49.3264 903.578 53.3923C900.421 57.4106 897.388 61.5389 894.45 65.7217C888.574 74.0873 882.863 82.536 877.091 90.9372C865.575 107.78 853.995 124.561 841.337 140.53C835.025 148.518 828.434 156.294 821.516 163.743C814.658 171.24 807.145 178.131 799.163 184.399C783.183 196.938 765.253 206.955 746.316 214.34C736.854 218.056 727.13 221.092 717.273 223.573C707.421 226.07 697.425 228.031 687.372 229.545C667.246 232.61 646.896 233.95 626.539 234.431C616.349 234.659 606.167 234.677 595.989 234.535C585.801 234.411 575.621 234.142 565.434 233.667L534.897 232.396C524.742 231.802 514.587 230.856 504.431 230.022C484.149 228.347 463.552 227.219 443.314 230.521C433.211 232.144 423.31 234.877 413.749 238.459C404.176 242.06 394.954 246.492 386 251.394C368.078 261.202 351.285 272.843 334.286 284.077C325.805 289.73 317.173 295.119 308.561 300.583L282.706 316.9C265.412 327.687 247.954 338.216 230.061 347.952C212.203 357.759 193.727 366.392 175.143 374.735C156.527 383.023 137.663 390.74 118.542 397.792C80.2785 411.823 40.968 423.073 0.936846 430.803C40.989 423.211 80.3464 412.076 118.671 398.156C137.827 391.174 156.737 383.509 175.379 375.261C193.995 366.973 212.512 358.377 230.431 348.618C248.365 338.919 265.853 328.382 283.165 317.606L309.044 301.315C317.659 295.866 326.306 290.472 334.807 284.831C351.824 273.608 368.611 262 386.481 252.238C395.409 247.359 404.61 242.965 414.127 239.394C423.644 235.824 433.478 233.141 443.507 231.538C463.615 228.286 484.119 229.423 504.376 231.121C514.536 231.97 524.69 232.916 534.868 233.536L565.431 234.848C575.619 235.322 585.806 235.621 596.01 235.741C606.202 235.879 616.408 235.886 626.601 235.674C646.996 235.214 667.399 233.892 687.592 230.841C697.693 229.33 707.723 227.376 717.624 224.882C727.529 222.403 737.317 219.366 746.824 215.639C765.869 208.241 783.932 198.188 800.048 185.564C808.101 179.262 815.68 172.321 822.589 164.779C829.548 157.303 836.161 149.489 842.503 141.493C855.197 125.482 866.836 108.686 878.356 91.8575C884.124 83.4415 889.831 74.9778 895.667 66.6391C898.594 62.4752 901.601 58.3697 904.732 54.3742C907.819 50.3271 911.279 46.6101 914.653 42.8048C916.298 40.8655 918.164 39.1541 919.919 37.3288C921.811 35.6581 923.623 33.8654 925.625 32.3086C929.493 29.0405 933.692 26.1777 937.992 23.5112C942.288 20.8299 946.84 18.5738 951.444 16.4476C956.082 14.3917 960.826 12.6105 965.655 11.0296C975.331 7.99071 985.286 5.81742 995.372 4.54951C1005.44 3.08028 1015.6 2.41234 1025.76 2.06573C1046.11 1.47661 1066.46 3.01981 1086.66 5.51427C1106.88 7.97103 1127.02 11.2808 1147.27 13.7444C1167.52 16.1784 1187.8 18.283 1208.05 20.6385C1248.54 25.2674 1288.93 31.2312 1328.56 40.7928C1368.22 50.2533 1407.15 62.5866 1446.79 72.2563C1451.75 73.5118 1456.72 74.5688 1461.72 75.6368C1466.72 76.6899 1471.69 77.8442 1476.69 78.815L1491.77 81.4535C1494.29 81.864 1496.78 82.3905 1499.32 82.7147L1506.9 83.7439C1511.97 84.3962 1517 85.1835 1522.07 85.7387L1537.3 87.2207C1542.37 87.7907 1547.46 88.0692 1552.55 88.3625C1557.64 88.6409 1562.73 89.0463 1567.82 89.2127C1608.59 90.5952 1649.49 88.547 1689.82 82.5084C1730.25 76.8079 1770 67.1448 1808.77 54.5399Z" fill="#65BFFF"/>
</svg>
