<svg width="855" height="458" viewBox="0 0 855 458" fill="none" xmlns="http://www.w3.org/2000/svg">
<path d="M1812.58 96.7537C1734.25 125.442 1650.03 136.977 1566.86 132.562C1525.27 130.106 1483.87 123.92 1443.51 113.451C1403.11 103.141 1363.46 90.1396 1323.35 78.6811C1283.27 67.1025 1242.67 57.4336 1202.2 47.3926C1181.99 42.3364 1161.76 37.2019 1141.79 31.3163C1121.8 25.4159 1102.05 18.6565 1081.95 13.0269C1071.89 10.2384 1061.75 7.72772 1051.51 5.67429C1041.25 3.68831 1030.88 2.24197 1020.47 1.36394C1010.05 0.601961 999.576 0.539226 989.138 1.08839C978.702 1.7645 968.285 3.34412 958.236 6.35554C955.697 7.03603 953.259 7.9763 950.763 8.82038C948.337 9.80523 945.872 10.7048 943.508 11.8642C938.722 14.0233 934.153 16.6345 929.803 19.5856C925.402 22.4704 921.407 25.9162 917.605 29.5492L914.845 32.3771C913.914 33.2962 913.115 34.3551 912.248 35.3367C910.48 37.293 908.988 39.4464 907.416 41.5413C905.882 43.6581 904.235 45.7094 902.799 47.8955C901.349 50.0856 899.95 52.2934 898.613 54.5488C895.919 59.0488 893.424 63.6388 891.023 68.2833C886.237 77.5684 881.65 86.9435 877.081 96.3295C867.959 115.098 858.928 133.905 848.702 152.06C838.386 170.112 827.376 188.015 812.714 202.8C798.226 217.697 781.168 230.015 762.708 239.537C744.263 249.118 724.424 255.868 704.193 260.62C683.942 265.361 663.232 268.088 642.464 269.413C621.681 270.741 600.83 270.685 580.027 269.739C569.631 269.257 559.23 268.521 548.877 267.485C538.524 266.449 528.228 264.856 517.921 263.282C497.378 260.098 476.458 257.111 455.565 259.218C445.155 260.286 434.905 262.666 425.031 266.093C415.157 269.52 405.655 273.979 396.505 278.981C378.162 288.997 361.161 301.172 343.855 312.744C335.231 318.578 326.374 324.076 317.539 329.599C308.701 335.108 299.901 340.702 291.009 346.129C273.247 357.01 255.248 367.54 236.76 377.133C218.31 386.811 199.164 395.081 179.932 403.088C160.669 411.039 141.173 418.415 121.46 425.164C82.0236 438.616 41.7043 449.547 0.841734 457.738C41.7361 449.666 82.0874 438.854 121.586 425.513C141.329 418.82 160.86 411.514 180.15 403.603C199.413 395.652 218.6 387.418 237.11 377.788C255.637 368.217 273.65 357.683 291.449 346.824C300.356 341.393 309.145 335.818 317.999 330.305C326.837 324.796 335.71 319.294 344.353 313.471C361.692 301.907 378.686 289.765 396.963 279.799C406.091 274.834 415.537 270.406 425.356 267.01C435.174 263.614 445.335 261.258 455.672 260.21C476.401 258.147 497.22 261.113 517.756 264.33C528.052 265.923 538.367 267.527 548.769 268.566C559.156 269.609 569.56 270.36 579.975 270.853C600.82 271.835 621.705 271.898 642.54 270.588C663.361 269.281 684.138 266.567 704.486 261.833C724.796 257.076 744.743 250.313 763.321 240.696C781.899 231.142 799.098 218.755 813.719 203.758C821.02 196.254 827.71 188.133 833.514 179.436C839.393 170.783 844.835 161.864 849.971 152.756C860.248 134.556 869.305 115.725 878.446 96.968C883.015 87.582 887.572 78.2149 892.348 68.9487C894.737 64.3231 897.221 59.7519 899.879 55.2936C901.206 53.0571 902.593 50.868 904.018 48.7008C905.443 46.5336 907.064 44.505 908.587 42.4072C910.148 40.3311 911.61 38.1857 913.357 36.2671C914.213 35.3044 915.001 34.2643 915.918 33.3491L918.626 30.5669C922.366 26.9984 926.28 23.6062 930.61 20.7563C934.879 17.8587 939.389 15.2635 944.104 13.1391C946.423 11.9917 948.859 11.1001 951.255 10.1232C953.706 9.291 956.13 8.35475 958.625 7.68621C978.544 1.7111 999.687 1.37024 1020.37 2.68408C1030.72 3.5443 1041.04 4.97285 1051.26 6.93703C1061.47 8.98354 1071.57 11.4576 1081.61 14.2352C1101.67 19.8429 1121.41 26.5727 1141.44 32.4611C1161.46 38.3347 1181.7 43.4504 1201.92 48.4878C1242.41 58.491 1283 68.1154 1323.07 79.6493C1363.16 91.0632 1402.83 104.027 1443.3 114.307C1483.72 124.74 1525.17 130.915 1566.81 133.291C1650.09 137.488 1734.32 125.661 1812.58 96.7537Z" fill="#65BFFF"/>
</svg>
