<svg width="862" height="148" viewBox="0 0 862 148" fill="none" xmlns="http://www.w3.org/2000/svg">
<path d="M1576.76 -216.106C1542.87 -208.533 1508.76 -201.825 1474.32 -197.333C1457.11 -194.958 1439.82 -193.328 1422.51 -192.113L1409.51 -191.382L1406.27 -191.197L1403.02 -191.108L1396.51 -190.928C1387.83 -190.573 1379.15 -190.721 1370.47 -190.755C1353.12 -191.192 1335.76 -191.99 1318.53 -194.19C1309.88 -195.017 1301.35 -196.614 1292.76 -197.89C1288.49 -198.644 1284.26 -199.593 1280 -200.423L1273.63 -201.718C1271.5 -202.168 1269.4 -202.68 1267.29 -203.162C1233.49 -211.04 1199.99 -220.923 1165.36 -224.86C1148.07 -226.751 1130.6 -227.213 1113.26 -225.933C1104.58 -225.423 1095.94 -224.351 1087.32 -223.201C1078.71 -221.93 1070.14 -220.457 1061.64 -218.709C1044.59 -215.231 1027.74 -210.885 1011.03 -206.168C994.307 -201.451 977.617 -196.685 960.968 -191.707C927.689 -181.742 894.699 -170.695 862.617 -157.251C846.642 -150.386 831.078 -142.457 816.452 -133.006C801.889 -123.473 787.935 -113.126 773.546 -103.417C744.842 -83.9762 714.729 -66.2537 682.301 -53.8904C666.074 -47.81 649.234 -43.3953 632.114 -40.7501C623.549 -39.447 614.924 -38.575 606.263 -38.1541C597.61 -37.7498 588.935 -37.7443 580.258 -38.004C545.569 -39.0756 511.074 -44.1666 476.289 -44.9748C458.9 -45.415 441.503 -44.6931 424.185 -43.308C406.872 -41.8543 389.575 -39.4549 372.734 -35.0402C364.312 -32.8394 356.008 -30.1954 347.917 -27.0214C339.809 -23.8569 331.898 -20.2145 324.154 -16.2672C308.654 -8.35599 293.843 0.767996 279.198 10.0987C264.554 19.4294 250.017 28.9548 235.47 38.441C220.97 47.9985 206.449 57.5334 191.707 66.7086C176.992 75.9325 161.978 84.6637 146.72 92.9572C131.46 101.238 115.932 109.044 100.078 116.101C68.4011 130.275 35.1648 141.234 0.923176 147.14C35.1927 141.338 68.4733 130.493 100.218 116.413C116.108 109.389 131.666 101.643 146.963 93.395C162.248 85.1503 177.299 76.4511 192.054 67.2724C206.816 58.1198 221.349 48.5814 235.869 39.0465C250.42 29.5733 264.963 20.0741 279.625 10.7529C294.273 1.43518 309.078 -7.65927 324.545 -15.5339C332.281 -19.4647 340.169 -23.0871 348.241 -26.2281C356.31 -29.3821 364.591 -32.0061 372.977 -34.1834C389.757 -38.5676 407.005 -40.94 424.283 -42.3702C441.574 -43.7483 458.937 -44.4467 476.289 -43.983C511 -43.1409 545.464 -38.0134 580.247 -36.8975C588.941 -36.6283 597.646 -36.6277 606.341 -37.0295C615.032 -37.4443 623.703 -38.3007 632.31 -39.6012C649.519 -42.2282 666.454 -46.6543 682.749 -52.7391C715.324 -65.1277 745.544 -82.8651 774.317 -102.31C788.712 -112.049 802.675 -122.413 817.173 -131.928C831.725 -141.345 847.207 -149.266 863.13 -156.117C895.111 -169.576 928.081 -180.646 961.31 -190.639C977.938 -195.64 994.626 -200.418 1011.34 -205.161C1028.04 -209.888 1044.85 -214.24 1061.84 -217.744C1095.76 -224.806 1130.74 -227.962 1165.27 -223.997C1199.8 -220.105 1233.3 -210.274 1267.12 -202.42C1269.25 -201.941 1271.35 -201.429 1273.48 -200.98L1279.87 -199.687C1284.14 -198.848 1288.38 -197.916 1292.66 -197.165C1301.27 -195.88 1309.82 -194.302 1318.48 -193.479C1335.74 -191.299 1353.12 -190.508 1370.48 -190.117C1379.18 -190.113 1387.86 -189.994 1396.55 -190.366L1403.06 -190.562L1406.31 -190.664L1409.57 -190.852L1422.57 -191.626C1439.89 -192.9 1457.2 -194.589 1474.39 -197.016C1508.8 -201.613 1542.9 -208.416 1576.76 -216.106Z" fill="#65BFFF"/>
</svg>
