<svg width="818" height="303" viewBox="0 0 818 303" fill="none" xmlns="http://www.w3.org/2000/svg">
<path d="M1565.54 -93.7852C1530.93 -87.7948 1495.8 -85.8152 1460.74 -84.4259C1425.68 -83.0235 1390.55 -82.2582 1355.6 -78.802C1320.71 -75.3633 1285.79 -68.9684 1253.08 -55.9295C1220.4 -43.0645 1188.82 -27.632 1156.33 -14.4133C1140.08 -7.82532 1123.58 -1.83856 1106.75 3.07676C1089.93 8.03116 1072.85 12.1027 1055.63 15.3356C1038.39 18.5424 1021.01 20.9662 1003.54 22.4322C986.071 23.8721 968.531 24.4786 950.992 24.5679C933.446 24.6867 915.905 24.3014 898.369 23.8309L872.052 23.073C863.273 22.7987 854.497 22.6356 845.71 22.6429C828.146 22.6409 810.573 23.2283 793.069 24.5935C784.342 25.2413 775.571 25.412 766.808 25.4549C758.041 25.4848 749.259 25.5607 740.494 25.4923C722.958 25.3852 705.409 24.9182 687.883 24.2773C670.344 23.64 652.818 22.9435 635.291 22.0375C600.244 20.2517 565.168 18.3059 530.032 18.2203C512.471 18.1757 494.902 18.4684 477.379 19.5034C459.839 20.3193 442.338 22.0609 424.952 24.5959C407.576 27.1701 390.313 30.5803 373.368 35.2324C356.444 39.907 339.864 46.3892 325.024 55.9261C321.349 58.3498 317.751 60.9065 314.32 63.6699C310.906 66.4429 307.646 69.426 304.555 72.5733C298.467 78.9547 292.872 85.7208 287.334 92.5416C276.315 106.238 265.994 120.459 255.457 134.501C234.285 162.472 212.393 190.104 186.985 214.348C174.361 226.532 160.594 237.472 146.143 247.421C131.688 257.358 116.53 266.281 100.786 274.007C85.0144 281.683 68.6639 288.188 51.8188 293.107C34.9831 298.009 17.6493 301.313 0.108806 302.282C17.6503 301.368 35.0111 298.113 51.8607 293.263C68.7363 288.406 85.1269 281.947 100.922 274.306C116.706 266.625 131.914 257.731 146.421 247.836C160.912 237.932 174.751 227.001 187.438 214.841C200.182 202.737 212.044 189.737 223.355 176.298C234.647 162.836 245.511 149.028 256.077 134.992C266.643 120.956 276.967 106.748 287.981 93.0808C293.51 86.2766 299.13 79.5035 305.167 73.1917C308.236 70.0644 311.464 67.1178 314.868 64.3613C318.276 61.618 321.855 59.0943 325.507 56.6906C340.258 47.2338 356.753 40.802 373.616 36.1578C390.512 31.5328 407.757 28.1556 425.097 25.6049C442.447 23.0934 459.913 21.3753 477.43 20.5794C494.944 19.561 512.494 19.3013 530.029 19.3529C565.119 19.4785 600.167 21.4738 635.221 23.2857C652.755 24.2178 670.298 24.9238 687.831 25.5907C705.373 26.2411 722.932 26.7472 740.481 26.8509C749.273 26.9123 758.038 26.8268 766.818 26.7935C775.604 26.7306 784.387 26.5564 793.166 25.8946C810.654 24.5198 828.181 23.9169 845.725 23.8963C854.495 23.8794 863.255 24.033 872.034 24.3073L898.358 25.0356C915.899 25.4766 933.463 25.8419 951.018 25.7065C968.58 25.5972 986.143 24.9708 1003.65 23.5204C1021.16 22.0274 1038.58 19.5966 1055.83 16.3567C1073.09 13.1003 1090.19 8.99575 1107.04 4.01784C1123.9 -0.917489 1140.43 -6.94077 1156.7 -13.5488C1189.22 -26.817 1220.77 -42.2852 1253.41 -55.1658C1286.02 -68.2063 1320.85 -74.6194 1355.71 -78.1068C1390.63 -81.6637 1425.75 -82.5533 1460.81 -84.0539C1495.82 -85.5962 1530.94 -87.687 1565.54 -93.7852Z" fill="#65BFFF"/>
</svg>
