<svg width="836" height="495" viewBox="0 0 836 495" fill="none" xmlns="http://www.w3.org/2000/svg">
<path d="M1814.88 147.774L1799.84 153.542C1797.33 154.487 1794.85 155.518 1792.31 156.374L1784.64 158.842L1776.98 161.31L1773.16 162.542L1771.23 163.152L1769.29 163.673L1753.73 167.795C1748.57 169.288 1743.27 170.246 1738.05 171.407L1730.17 173.087L1726.24 173.932C1724.93 174.189 1723.59 174.387 1722.27 174.614L1706.4 177.273L1702.42 177.925L1698.43 178.42L1690.43 179.415C1647.82 184.871 1604.73 185.368 1561.87 183.527C1540.44 182.431 1519 180.954 1497.66 178.669C1486.96 177.661 1476.32 176.305 1465.66 175.066C1460.33 174.436 1455.01 173.661 1449.69 172.968C1444.36 172.242 1439.04 171.564 1433.74 170.77C1391.26 164.568 1349.06 156.061 1307.79 144.147C1266.52 132.267 1226.29 116.821 1187.64 98.1008C1168.31 88.7425 1149.42 78.518 1130.97 67.4869C1112.51 56.4934 1094.28 45.0703 1075.33 34.8429C1056.46 24.5173 1036.75 15.561 1016.17 9.19993C1010.96 7.80683 1005.84 6.15085 1000.53 5.13272C997.901 4.5785 995.275 3.9271 992.633 3.45522L984.656 2.19731C974.004 0.524067 963.129 0.154212 952.375 1.18662C941.652 2.33804 930.972 5.07229 921.365 10.1492C911.734 15.1369 903.353 22.5316 897.052 31.33C890.652 40.059 885.497 49.6339 881.319 59.5849C877.182 69.5725 873.807 79.7867 870.469 90.0226C863.894 110.515 858.133 131.252 850.808 151.436C847.124 161.51 843.11 171.48 838.34 181.064C835.795 185.763 833.494 190.604 830.441 195.009C828.968 197.237 827.617 199.559 826.046 201.718L821.199 208.102C820.381 209.15 819.609 210.249 818.739 211.28L816.076 214.289L810.759 220.289L805.037 225.903C803.133 227.768 801.241 229.678 799.163 231.367L793.065 236.587L791.535 237.89L789.934 239.1L786.726 241.506C784.571 243.088 782.478 244.78 780.269 246.281L773.576 250.705L770.223 252.926L766.756 254.955L759.817 258.998C757.528 260.377 755.074 261.497 752.72 262.749C750.338 263.961 747.973 265.233 745.561 266.389L738.232 269.692C735.79 270.793 733.374 271.934 730.853 272.865C725.862 274.792 720.941 276.923 715.822 278.55C675.336 292.602 632.168 298.781 589.327 297.332C578.612 296.967 567.915 296.135 557.273 294.794C546.646 293.449 536.142 291.258 525.644 288.969C515.15 286.696 504.658 284.311 494.001 282.735C483.362 281.169 472.549 280.32 461.774 281.215C456.4 281.714 451.062 282.523 445.813 283.786C440.572 285.079 435.447 286.803 430.473 288.853C420.53 293.032 411.171 298.441 402.217 304.411C384.345 316.421 368.174 330.685 351.372 344.019C343.002 350.741 334.281 356.983 325.567 363.256C316.849 369.513 308.067 375.708 299.193 381.737C281.448 393.808 263.248 405.253 244.333 415.39C225.479 425.639 205.601 433.851 185.671 441.805C165.698 449.66 145.444 456.824 124.974 463.298C84.0203 476.2 42.2618 486.513 0.0518363 494.427C42.2828 486.65 84.0732 476.457 125.088 463.666C145.589 457.248 165.863 450.158 185.878 442.34C205.843 434.456 225.762 426.281 244.692 416.075C263.664 405.97 281.874 394.507 299.653 382.442C308.542 376.41 317.328 370.23 326.06 363.968C334.778 357.711 343.544 351.457 351.929 344.73C368.776 331.385 384.928 317.173 402.754 305.223C411.671 299.295 420.993 293.928 430.851 289.788C435.795 287.746 440.884 286.063 446.065 284.787C451.258 283.554 456.549 282.743 461.863 282.259C472.53 281.378 483.265 282.232 493.84 283.798C504.434 285.375 514.907 287.75 525.405 290.038C535.903 292.326 546.445 294.539 557.124 295.902C567.8 297.25 578.531 298.089 589.283 298.475C632.267 299.982 675.566 293.816 716.242 279.761C721.376 278.13 726.312 275.994 731.336 274.074C733.857 273.144 736.302 271.994 738.745 270.893L746.103 267.583C748.531 266.422 750.896 265.151 753.307 263.931C755.676 262.674 758.145 261.551 760.448 260.168L767.428 256.098L770.906 254.05L774.274 251.825L781.008 247.374C783.231 245.87 785.34 244.173 787.509 242.587L790.742 240.159L792.359 238.944L793.903 237.638L800.057 232.386C802.15 230.694 804.057 228.78 805.986 226.892L811.76 221.232L817.128 215.187L819.818 212.154C820.688 211.124 821.474 210.021 822.303 208.954L827.198 202.509C828.779 200.332 830.156 197.986 831.639 195.74C834.73 191.293 837.067 186.411 839.629 181.659C844.447 172.015 848.497 162.002 852.188 151.895C859.561 131.651 865.352 110.906 871.92 90.4469C875.232 80.2338 878.603 70.0048 882.69 60.1263C886.824 50.2507 891.91 40.774 898.226 32.1472C904.436 23.4848 912.597 16.2768 922.024 11.3596C931.431 6.36815 941.929 3.6668 952.51 2.52147C963.122 1.4951 973.882 1.84819 984.447 3.49671L992.372 4.73681C995.009 5.19382 997.606 5.85319 1000.23 6.39252C1005.5 7.40374 1010.61 9.04884 1015.78 10.4201C1036.27 16.7268 1055.89 25.6246 1074.73 35.9136C1093.63 46.1043 1111.87 57.4937 1130.35 68.4832C1148.82 79.5064 1167.77 89.7486 1187.13 99.084C1225.86 117.8 1266.17 133.236 1307.5 145.085C1348.84 156.964 1391.08 165.43 1433.59 171.605C1438.9 172.399 1444.24 173.073 1449.56 173.8C1454.88 174.492 1460.2 175.267 1465.54 175.878C1476.2 177.118 1486.86 178.47 1497.57 179.459C1518.93 181.721 1540.37 183.198 1561.84 184.237C1604.74 185.939 1647.86 185.337 1690.49 179.735L1698.47 178.711L1702.47 178.197L1706.45 177.53L1722.33 174.822C1723.65 174.595 1724.98 174.383 1726.29 174.126L1730.24 173.276L1738.1 171.567C1743.34 170.386 1748.62 169.418 1753.79 167.906L1769.35 163.736L1771.3 163.215L1773.22 162.589L1777.05 161.338L1784.71 158.855L1792.37 156.373C1794.91 155.517 1797.38 154.471 1799.9 153.526L1814.88 147.774Z" fill="#65BFFF"/>
</svg>
