<svg width="866" height="417" viewBox="0 0 866 417" fill="none" xmlns="http://www.w3.org/2000/svg">
<path d="M1802.47 17.7199C1763.91 27.8452 1724.84 36.2234 1685.31 41.5394C1665.57 44.3743 1645.72 46.2028 1625.83 47.5314C1615.87 48.0316 1605.92 48.6398 1595.94 48.6996L1588.47 48.8377L1584.73 48.9142L1580.99 48.8638L1566.04 48.6619L1562.3 48.6115L1558.58 48.4301L1551.11 48.0713L1543.64 47.7125L1539.92 47.5311L1536.19 47.2228L1521.29 45.9706L1517.57 45.6434L1513.87 45.1853L1506.45 44.2731C1496.53 43.2152 1486.71 41.446 1476.89 39.8376C1474.42 39.4786 1471.99 38.951 1469.55 38.4423L1462.23 36.912C1457.35 35.8757 1452.45 34.9406 1447.62 33.7316C1408.82 24.5858 1370.55 12.8878 1331.13 6.20212C1311.45 2.85133 1291.52 0.93883 1271.56 0.341457C1251.59 -0.222197 1231.62 0.409253 1211.71 1.90251C1191.81 3.36203 1171.97 5.61592 1152.18 8.0334C1132.4 10.4806 1112.57 12.5887 1092.77 15.0737C1072.99 17.5844 1053.23 20.5503 1033.68 24.611C1023.9 26.6096 1014.2 28.9691 1004.54 31.526C994.894 34.0937 985.305 36.9818 975.943 40.4787C957.235 47.4683 939.241 56.7693 923.487 69.2004C921.51 70.7343 919.602 72.3456 917.679 73.9608C915.771 75.572 913.821 77.1466 911.958 78.8094L900.916 88.9257L889.874 99.0421L878.888 109.191C864.192 122.662 849.204 135.812 833.453 148.019C825.583 154.113 817.526 159.986 809.255 165.534C801.007 171.108 792.506 176.271 783.666 180.824C766.009 189.955 747.206 196.89 727.859 201.5C708.51 206.159 688.625 208.283 668.74 209.099C648.84 209.92 628.891 209.431 608.972 208.695L579.073 207.604L564.125 207.066L556.649 206.789C554.16 206.707 551.669 206.737 549.162 206.707L519.23 206.502C509.263 206.494 499.295 206.599 489.302 206.789C469.366 207.237 449.325 208.542 429.792 212.931C410.219 217.171 391.571 224.862 373.963 234.235C356.302 243.591 339.547 254.488 322.834 265.359L272.548 297.787C255.789 308.607 238.941 319.274 221.77 329.391C204.612 339.552 187.022 348.936 169.205 357.886C151.38 366.807 133.266 375.184 114.844 382.766C77.9838 397.935 39.7104 409.849 0.447914 416.942C39.7275 409.972 78.0663 398.184 114.999 383.107C133.463 375.562 151.612 367.255 169.478 358.371C187.326 349.476 204.976 340.14 222.177 330.015C239.385 319.92 256.247 309.249 273.014 298.459L323.331 266.087C340.068 255.242 356.8 244.382 374.424 235.068C392 225.752 410.563 218.099 430.04 213.917C449.473 209.571 469.454 208.282 489.35 207.861C499.313 207.678 509.282 207.573 519.252 207.596L549.144 207.828C551.636 207.862 554.127 207.832 556.617 207.914L564.092 208.19L579.044 208.743L608.936 209.868C628.863 210.634 648.831 211.134 668.802 210.342C688.744 209.558 708.711 207.444 728.172 202.787C747.631 198.179 766.541 191.231 784.299 182.057C793.198 177.489 801.77 172.29 810.048 166.709C818.348 161.153 826.439 155.287 834.334 149.17C850.144 136.947 865.196 123.796 879.903 110.306L890.881 100.127L901.893 90.0188L912.906 79.9104C914.754 78.2517 916.707 76.6919 918.601 75.0847C920.509 73.4734 922.402 71.8662 924.368 70.3511C939.956 58.0124 957.801 48.7512 976.406 41.7894C985.723 38.3045 995.248 35.4175 1004.87 32.8388C1014.49 30.2939 1024.17 27.9234 1033.93 25.9139C1053.43 21.8355 1073.14 18.8518 1092.91 16.3262C1112.68 13.8194 1132.52 11.6925 1152.31 9.21153C1172.09 6.77918 1191.9 4.49952 1211.77 3.03308C1231.65 1.51803 1251.58 0.864803 1271.49 1.41065C1291.4 1.99021 1311.28 3.8849 1330.92 7.19903C1370.26 13.8262 1408.53 25.4757 1447.38 34.5947C1452.22 35.7996 1457.13 36.7159 1462.01 37.7671L1469.34 39.2934C1471.79 39.817 1474.22 40.3297 1476.69 40.6887C1486.54 42.2892 1496.37 44.0543 1506.3 45.1083C1526.1 47.7102 1546.05 48.8679 1565.99 49.4395L1580.95 49.6076L1584.69 49.6432L1588.42 49.5667L1595.91 49.3949C1605.88 49.3053 1615.84 48.6594 1625.81 48.1255C1645.71 46.7294 1665.58 44.8335 1685.31 41.939C1724.88 36.4693 1763.92 27.9682 1802.47 17.7199Z" fill="#65BFFF"/>
</svg>
