<svg width="598" height="443" viewBox="0 0 598 443" fill="none" xmlns="http://www.w3.org/2000/svg">
<path d="M1789.39 0.948609L1774.69 3.53248L1767.33 4.81895L1759.93 5.82975L1745.14 7.83251L1730.29 9.37315L1722.87 10.134L1715.43 10.7085L1700.54 11.8763C1690.6 12.4359 1680.67 13.1523 1670.72 13.585C1630.95 15.5698 1591.12 16.4537 1551.41 19.7446C1541.47 20.4312 1531.59 21.6285 1521.69 22.688C1519.2 22.9231 1516.74 23.2812 1514.27 23.6393L1506.88 24.6947C1501.95 25.4258 1497 26.0041 1492.12 26.992L1477.42 29.7028C1474.97 30.1055 1472.55 30.769 1470.13 31.3056L1462.85 33.0165L1455.58 34.7274C1453.14 35.2679 1450.78 36.0911 1448.39 36.7655L1434.05 41.0053C1396.17 53.3863 1359.29 68.5445 1321.54 81.1476C1283.86 93.9549 1244.89 102.88 1205.4 107.755C1185.66 110.175 1165.81 111.813 1145.93 112.26C1126.04 112.745 1106.14 112.195 1086.26 111.305C1066.37 110.4 1046.5 109.14 1026.61 108.03C1016.67 107.473 1006.73 106.95 996.775 106.523C986.831 106.064 976.852 105.772 966.88 105.862C946.938 105.992 926.986 107.273 907.262 110.295C897.443 111.906 887.573 112.972 877.667 113.905C867.754 114.807 857.841 115.949 847.955 116.956C828.162 119.008 808.335 120.813 788.488 122.369C768.642 123.925 748.796 125.305 728.898 126.014C689.118 127.491 649.284 127.818 609.473 129.24C589.571 129.933 569.665 130.851 549.79 132.24C529.909 133.549 510.077 135.516 490.328 138.145C480.447 139.47 470.604 140.991 460.802 142.725C450.992 144.429 441.195 146.305 431.508 148.645C421.82 150.986 412.215 153.751 402.884 157.303C393.561 160.886 384.523 165.236 376.035 170.507C367.52 175.738 359.661 182.052 352.637 189.163C345.65 196.296 339.038 203.759 332.597 211.383C319.725 226.612 307.682 242.497 295.253 258.07C270.226 289.007 244.391 319.538 214.599 345.997C199.778 359.294 183.722 371.136 167.053 381.995C150.357 392.813 132.919 402.523 114.864 410.884C96.8131 419.26 78.1511 426.364 59.0091 431.796C39.8631 437.213 20.2115 440.981 0.347021 442.35C20.2234 441.025 39.895 437.332 59.0718 431.971C78.2446 426.594 96.9373 419.545 115.034 411.221C133.134 402.912 150.614 393.238 167.371 382.468C184.1 371.656 200.227 359.843 215.116 346.559C230.055 333.343 244.01 319.066 257.344 304.255C270.655 289.418 283.47 274.156 295.975 258.626C308.423 243.063 320.489 227.205 333.354 212.009C339.788 204.419 346.4 196.956 353.369 189.876C360.361 182.821 368.146 176.591 376.606 171.391C385.043 166.165 394.025 161.845 403.297 158.309C412.572 154.787 422.148 152.03 431.81 149.712C441.471 147.394 451.253 145.523 461.052 143.837C470.859 142.119 480.691 140.616 490.541 139.299C510.261 136.678 530.086 134.745 549.941 133.458C569.791 132.093 589.685 131.194 609.577 130.519C649.37 129.15 689.197 128.856 729.008 127.435C748.914 126.756 768.813 125.393 788.663 123.853C808.513 122.312 828.363 120.532 848.175 118.491C858.091 117.476 867.97 116.328 877.88 115.41C887.781 114.463 897.725 113.376 907.555 111.747C927.193 108.7 947.078 107.406 966.952 107.261C976.895 107.18 986.836 107.449 996.776 107.894C1006.72 108.305 1016.67 108.814 1026.6 109.356C1046.49 110.451 1066.35 111.696 1086.26 112.578C1106.15 113.45 1126.1 113.988 1146.02 113.48C1165.95 113.017 1185.83 111.356 1205.62 108.909C1245.17 103.985 1284.22 95.0058 1321.93 82.142C1359.72 69.4823 1396.57 54.2836 1434.4 41.8848L1448.7 37.638C1451.1 36.9636 1453.44 36.1444 1455.88 35.6039L1463.13 33.8821L1470.39 32.1603C1472.82 31.6049 1475.21 30.9493 1477.68 30.5426L1492.34 27.8249C1497.22 26.8222 1502.16 26.2478 1507.09 25.5167L1514.48 24.4613C1516.94 24.1032 1519.39 23.7342 1521.87 23.4991C1531.77 22.4247 1541.64 21.2314 1551.57 20.515C1591.23 17.1092 1631.07 16.0943 1670.84 13.9826C1680.79 13.5161 1690.72 12.7849 1700.66 12.1955L1715.55 10.9791L1722.99 10.371L1730.42 9.57634L1745.28 7.98711L1760.07 5.93578L1767.47 4.91008L1774.69 3.59594L1789.39 0.948609Z" fill="#65BFFF"/>
</svg>
