<svg width="840" height="224" viewBox="0 0 840 224" fill="none" xmlns="http://www.w3.org/2000/svg">
<path d="M1595.49 -65.6559C1577.75 -57.8976 1559.54 -51.2315 1540.91 -45.9166C1536.25 -44.5994 1531.53 -43.5168 1526.85 -42.3039C1524.5 -41.7153 1522.16 -41.104 1519.8 -40.5544L1512.68 -39.1083L1505.57 -37.6622C1503.19 -37.2073 1500.83 -36.6317 1498.44 -36.3107L1484.1 -34.0746L1480.51 -33.5179L1476.9 -33.1117L1469.68 -32.3087C1464.87 -31.7875 1460.07 -31.1716 1455.24 -30.9251L1440.76 -29.937C1435.93 -29.7461 1431.08 -29.663 1426.25 -29.5147C1423.84 -29.4554 1421.41 -29.3629 1418.99 -29.3427L1411.72 -29.4358C1406.89 -29.5231 1402.04 -29.4825 1397.2 -29.681C1387.54 -30.2058 1377.87 -30.5212 1368.23 -31.544C1329.64 -34.7542 1291.5 -42.3906 1254.21 -52.7674C1216.92 -63.272 1180.45 -76.523 1144.53 -91.027C1108.65 -105.61 1073.29 -121.603 1039.21 -140.065C1030.72 -144.704 1022.27 -149.454 1013.94 -154.404C1005.62 -159.369 997.425 -164.507 989.309 -169.807C973.071 -180.377 956.997 -191.27 940.083 -200.821C931.613 -205.565 923.017 -210.107 914.067 -213.884L910.73 -215.351L907.338 -216.663C905.058 -217.519 902.816 -218.441 900.524 -219.238C895.889 -220.707 891.298 -222.327 886.556 -223.417C881.884 -224.764 877.063 -225.526 872.307 -226.459C869.904 -226.835 867.484 -227.067 865.073 -227.371L861.454 -227.812L857.818 -228.053C856.607 -228.148 855.393 -228.2 854.167 -228.193C852.951 -228.202 851.737 -228.254 850.515 -228.234C848.085 -228.141 845.646 -228.131 843.219 -227.871C840.789 -227.723 838.37 -227.327 835.967 -226.976C834.764 -226.78 833.57 -226.501 832.377 -226.266L830.579 -225.896L828.812 -225.408C819.385 -222.952 810.394 -218.447 803.033 -211.976L800.319 -209.503L797.819 -206.807C797.412 -206.349 796.985 -205.913 796.594 -205.445L795.475 -204C794.733 -203.019 793.951 -202.083 793.256 -201.086C791.954 -199.019 790.524 -197.015 789.371 -194.862C788.186 -192.728 787.082 -190.546 786.058 -188.33C781.994 -179.445 779.298 -170.033 777.012 -160.605C774.758 -151.157 772.741 -141.661 770.825 -132.151C767.007 -113.133 763.559 -94.0335 758.963 -75.2126C756.669 -65.8104 754.08 -56.4688 751.031 -47.2832C748.032 -38.0691 744.407 -29.1064 739.806 -20.6089C730.734 -3.55045 718.175 11.5361 703.614 24.1975C688.983 36.8076 672.357 47.0188 654.678 54.8153C619.283 70.4188 580.163 76.8632 541.571 75.3845C531.915 75.01 522.276 74.128 512.707 72.7243C510.312 72.3743 507.922 71.9947 505.552 71.582C503.184 71.1268 500.806 70.6881 498.441 70.1903C493.725 69.1486 489.034 67.9886 484.364 66.6973C475.033 64.154 465.765 61.2725 456.391 58.8248C447.006 56.3936 437.46 54.3972 427.758 53.6438C426.549 53.5066 425.339 53.4676 424.116 53.4321L420.472 53.3187C418.037 53.3424 415.603 53.4218 413.18 53.5403L409.555 53.9109C408.347 54.0388 407.129 54.1276 405.941 54.3763L402.342 55.0051C401.147 55.2278 399.933 55.3852 398.769 55.7251C389.274 57.8782 380.149 61.4129 371.469 65.7226C354.054 74.3985 338.399 85.9978 322.529 97.054C314.602 102.615 306.548 107.958 298.226 112.926L273.453 128.087C256.831 138.003 239.944 147.502 222.498 155.906C205.113 164.434 186.967 171.267 168.747 177.769C150.51 184.263 132.071 190.209 113.513 195.713C76.3812 206.71 38.7165 215.824 0.855941 223.999C38.7313 215.932 76.4275 206.935 113.601 196.038C132.189 190.597 150.638 184.689 168.906 178.258C187.149 171.791 205.339 165.017 222.773 156.517C240.255 148.145 257.165 138.626 273.807 128.732L298.613 113.591C306.926 108.639 315.032 103.282 322.972 97.7177C338.858 86.6711 354.498 75.1179 371.832 66.5054C380.477 62.2193 389.54 58.715 398.947 56.5994C400.112 56.2595 401.299 56.109 402.495 55.8864L406.054 55.268C407.23 55.0228 408.435 54.9375 409.642 54.8096L413.241 54.4459C415.652 54.3309 418.056 54.2455 420.465 54.2287L424.083 54.3491C425.289 54.3751 426.486 54.4176 427.695 54.5548C437.315 55.316 446.816 57.2968 456.161 59.7385C465.523 62.1897 474.765 65.0782 484.128 67.6406C488.802 68.9449 493.506 70.1014 498.255 71.1622C500.633 71.6565 503.014 72.1083 505.399 72.573C507.786 72.9952 510.188 73.3714 512.584 73.7214C522.183 75.1311 531.854 76.0322 541.553 76.4093C580.283 77.9348 619.563 71.5172 655.154 55.8614C672.927 48.0535 689.667 37.7979 704.405 25.1173C719.073 12.3854 731.744 -2.80121 740.905 -19.9953C741.469 -21.0684 742.062 -22.1353 742.622 -23.2214L744.209 -26.5109C745.316 -28.6796 746.203 -30.9428 747.194 -33.1783C748.156 -35.4199 748.963 -37.7178 749.849 -39.9811L752.245 -46.8679C755.313 -56.0865 757.92 -65.4611 760.237 -74.8833C764.862 -93.7538 768.335 -112.861 772.17 -131.869C774.073 -141.376 776.081 -150.855 778.325 -160.286C780.605 -169.685 783.266 -179.018 787.264 -187.787C788.265 -189.983 789.35 -192.132 790.517 -194.233C791.65 -196.353 793.052 -198.307 794.318 -200.351C795.004 -201.331 795.772 -202.263 796.495 -203.211L797.592 -204.637C797.969 -205.101 798.4 -205.524 798.798 -205.966L801.244 -208.605L803.899 -211.035C811.102 -217.366 819.892 -221.789 829.16 -224.216L830.9 -224.697L832.66 -225.056C833.839 -225.288 835.004 -225.573 836.194 -225.766C838.571 -226.109 840.951 -226.495 843.351 -226.649C845.749 -226.915 848.145 -226.928 850.562 -227.017C851.758 -227.03 852.969 -226.991 854.172 -226.978C855.371 -226.978 856.582 -226.939 857.78 -226.841L861.386 -226.606L864.976 -226.171C867.374 -225.864 869.778 -225.641 872.151 -225.271C876.89 -224.348 881.653 -223.598 886.308 -222.261C891.02 -221.177 895.575 -219.589 900.18 -218.126C902.455 -217.339 904.697 -216.417 906.961 -215.57L910.337 -214.268L913.657 -212.81C922.57 -209.065 931.134 -204.542 939.584 -199.821C956.444 -190.312 972.511 -179.445 988.776 -168.882C996.905 -163.586 1005.13 -158.442 1013.47 -153.479C1021.81 -148.534 1030.27 -143.773 1038.78 -139.138C1072.92 -120.693 1108.32 -104.724 1144.24 -90.1645C1180.19 -75.684 1216.71 -62.473 1254.04 -51.9824C1291.38 -41.6326 1329.58 -33.997 1368.22 -30.8565C1377.86 -29.8632 1387.55 -29.5679 1397.23 -29.0726C1402.06 -28.8871 1406.92 -28.9442 1411.77 -28.8604L1419.02 -28.7934C1421.45 -28.8137 1423.87 -28.9321 1426.28 -28.9915C1431.12 -29.1433 1435.96 -29.2525 1440.8 -29.4599L1455.3 -30.494C1460.14 -30.7571 1464.94 -31.373 1469.76 -31.9237L1476.98 -32.7397L1480.59 -33.1495L1484.13 -33.7774L1498.48 -36.0561C1500.87 -36.3771 1503.23 -36.9657 1505.62 -37.4241L1512.73 -38.8832L1519.84 -40.3424C1522.2 -40.905 1524.53 -41.5293 1526.89 -42.1179C1531.57 -43.3439 1536.29 -44.443 1540.95 -45.7732C1559.57 -51.1272 1577.76 -57.8585 1595.49 -65.6559Z" fill="#65BFFF"/>
</svg>
