<svg width="833" height="248" viewBox="0 0 833 248" fill="none" xmlns="http://www.w3.org/2000/svg">
<path d="M1593.53 -46.8468L1580.2 -41.4163C1577.97 -40.5383 1575.78 -39.5465 1573.52 -38.7597L1566.71 -36.4316L1559.89 -34.1035C1557.62 -33.3393 1555.38 -32.4874 1553.05 -31.8927L1539.21 -27.9594C1520.63 -23.1922 1501.81 -19.2522 1482.75 -16.9808L1475.61 -16.0188C1473.23 -15.7013 1470.84 -15.5507 1468.45 -15.3149L1454.12 -13.9889L1439.75 -13.212L1432.56 -12.8384L1425.37 -12.7134L1410.98 -12.4764L1396.59 -12.7269L1389.39 -12.867L1382.21 -13.22L1367.85 -13.9391C1329.55 -16.5454 1291.46 -21.7898 1253.79 -29.1885C1216.11 -36.528 1178.96 -46.5502 1142.76 -59.3739C1124.66 -65.7266 1106.85 -72.9713 1089.35 -80.856C1071.85 -88.7538 1054.69 -97.4002 1037.91 -106.72C1029.52 -111.387 1021.23 -116.236 1013.06 -121.269C1004.88 -126.286 996.873 -131.588 988.887 -136.923C972.944 -147.641 957.134 -158.591 940.578 -168.419C938.523 -169.685 936.437 -170.858 934.334 -172.041C932.235 -173.211 930.161 -174.444 928.033 -175.564C923.756 -177.785 919.538 -180.092 915.157 -182.075C910.844 -184.217 906.384 -186.025 901.948 -187.896C899.742 -188.842 897.438 -189.58 895.187 -190.43C892.918 -191.247 890.677 -192.113 888.355 -192.762L881.434 -194.848C879.116 -195.484 876.75 -195.982 874.419 -196.559L870.904 -197.391C869.733 -197.65 868.534 -197.804 867.347 -198.016L860.216 -199.221C855.44 -199.814 850.629 -200.327 845.791 -200.316L843.983 -200.348L842.17 -200.295C840.967 -200.253 839.758 -200.236 838.55 -200.164C836.142 -199.938 833.735 -199.809 831.349 -199.394C828.945 -199.099 826.59 -198.566 824.216 -198.055C823.034 -197.781 821.877 -197.415 820.722 -197.091L818.972 -196.594L817.27 -195.971C812.677 -194.419 808.315 -192.216 804.248 -189.589C800.124 -187.018 796.484 -183.737 793.174 -180.21L790.782 -177.473C790.034 -176.518 789.338 -175.521 788.623 -174.547C787.129 -172.624 785.916 -170.539 784.657 -168.469C779.75 -160.127 776.196 -151.058 773.376 -141.85C770.605 -132.613 768.311 -123.266 766.118 -113.905C761.765 -95.1636 758.046 -76.2982 753.023 -57.7681C750.511 -48.503 747.681 -39.3342 744.324 -30.3596C742.685 -25.855 740.763 -21.4701 738.709 -17.1616C736.546 -12.8938 734.301 -8.67373 731.726 -4.64463C729.236 -0.554766 726.423 3.31459 723.56 7.15531C720.591 10.9127 717.566 14.6153 714.284 18.0931C707.779 25.1033 700.682 31.5733 693.094 37.4067C677.961 49.1316 661.075 58.5319 643.391 65.8408C625.709 73.2054 607.142 78.362 588.285 81.7101C569.415 85.0061 550.198 86.3831 531.058 85.7558C521.484 85.4291 511.922 84.6243 502.436 83.324C492.941 82.0403 483.582 79.9654 474.29 77.5655C465.001 75.1786 455.751 72.5717 446.35 70.4943C441.657 69.4326 436.916 68.6073 432.151 67.9002C429.754 67.6484 427.362 67.3114 424.963 67.1578C422.562 67.0468 420.152 66.7985 417.741 66.8578C408.113 66.7971 398.43 68.148 389.26 71.15C384.673 72.6167 380.193 74.4318 375.859 76.5292C373.649 77.4985 371.558 78.7015 369.419 79.7775C367.321 80.9544 365.22 82.1183 363.152 83.3568C346.648 93.2975 331.843 105.675 316.637 117.336C312.83 120.256 308.999 123.14 305.082 125.908C301.184 128.699 297.2 131.373 293.242 134.096C285.316 139.503 277.35 144.865 269.307 150.094C253.217 160.538 236.769 170.478 219.695 179.23C211.157 183.6 202.473 187.687 193.618 191.345C184.743 194.98 175.831 198.528 166.83 201.848C148.842 208.54 130.638 214.633 112.277 220.195C75.532 231.285 38.1729 240.289 0.523042 247.793C38.1878 240.397 75.5783 231.51 112.361 220.508C130.748 214.994 148.983 208.963 166.995 202.306C176.016 199.009 184.948 195.484 193.843 191.871C202.731 188.232 211.448 184.164 220.006 179.817C237.126 171.081 253.591 161.151 269.71 150.712C277.77 145.493 285.739 140.144 293.678 134.734C297.639 132.024 301.624 129.35 305.534 126.556C309.461 123.771 313.296 120.899 317.116 117.976C332.348 106.308 347.147 93.9603 363.586 84.0927C365.641 82.8576 367.73 81.6972 369.818 80.5369C371.961 79.4738 374.039 78.2743 376.222 77.3121C380.534 75.2346 384.962 73.4335 389.526 71.9868C398.625 69.0319 408.187 67.6993 417.733 67.7679C420.128 67.699 422.512 67.9543 424.888 68.0722C427.273 68.2293 429.639 68.5733 432.02 68.8156C436.756 69.5166 441.471 70.3488 446.15 71.4141C455.509 73.4889 464.746 76.0992 474.051 78.4957C483.347 80.9087 492.768 83.0087 502.296 84.3115C511.815 85.6309 521.423 86.4513 531.026 86.7841C550.242 87.4331 569.535 86.0777 588.474 82.7773C607.402 79.4378 626.051 74.2733 643.828 66.8974C661.602 59.5641 678.579 50.1393 693.823 38.357C701.459 32.4966 708.618 25.9961 715.178 18.9294C718.495 15.4281 721.556 11.702 724.544 7.91157C727.429 4.05084 730.275 0.144918 732.783 -3.97797C735.391 -8.0436 737.651 -12.3097 739.846 -16.614C741.916 -20.9687 743.87 -25.3901 745.515 -29.9243C748.9 -38.9484 751.762 -48.1538 754.28 -57.4484C759.332 -76.0281 763.087 -94.917 767.434 -113.629C769.614 -122.987 771.899 -132.317 774.64 -141.504C777.432 -150.662 780.945 -159.623 785.782 -167.863C787.022 -169.899 788.226 -171.968 789.674 -173.851C790.38 -174.809 791.053 -175.785 791.792 -176.724L794.129 -179.404C797.358 -182.868 800.922 -186.072 804.948 -188.59C808.935 -191.153 813.193 -193.327 817.711 -194.845L819.387 -195.462L821.098 -195.949C822.243 -196.255 823.371 -196.627 824.54 -196.899C826.862 -197.395 829.187 -197.934 831.552 -198.219C833.899 -198.624 836.28 -198.745 838.659 -198.977L842.236 -199.112L844.02 -199.17L845.815 -199.135C850.584 -199.141 855.349 -198.644 860.092 -198.07L867.163 -196.878C868.337 -196.661 869.524 -196.504 870.691 -196.258L874.177 -195.432C876.505 -194.868 878.844 -194.363 881.146 -193.737L888.02 -191.667C890.326 -191.027 892.564 -190.174 894.82 -189.353C897.054 -188.513 899.342 -187.785 901.548 -186.839C905.967 -184.977 910.407 -183.191 914.703 -181.059C919.069 -179.086 923.282 -176.792 927.544 -174.581C929.658 -173.457 931.729 -172.237 933.824 -171.08C935.911 -169.907 938.01 -168.737 940.048 -167.481C956.564 -157.698 972.37 -146.761 988.336 -136.062C996.335 -130.731 1004.36 -125.42 1012.56 -120.41C1020.76 -115.383 1029.06 -110.538 1037.47 -105.862C1054.28 -96.5358 1071.48 -87.8999 1089.01 -80.0091C1106.54 -72.1184 1124.36 -64.8937 1142.51 -58.5384C1178.75 -45.7418 1215.98 -35.7369 1253.69 -28.4339C1291.39 -21.0718 1329.52 -15.8508 1367.85 -13.2976L1382.24 -12.6116L1389.43 -12.2751L1396.63 -12.1516L1411.03 -11.9436L1425.42 -12.2102L1432.62 -12.3517L1439.81 -12.7549L1454.18 -13.5743L1468.52 -14.9299C1470.91 -15.1788 1473.31 -15.3329 1475.68 -15.6599L1482.81 -16.635C1501.87 -18.9619 1520.7 -22.9575 1539.27 -27.7804L1553.1 -31.7528C1555.42 -32.3605 1557.68 -33.216 1559.94 -33.9897L1566.74 -36.3439L1573.55 -38.698C1575.82 -39.4883 1577.99 -40.4897 1580.23 -41.3677L1593.53 -46.8468Z" fill="#65BFFF"/>
</svg>
