<svg width="864" height="414" viewBox="0 0 864 414" fill="none" xmlns="http://www.w3.org/2000/svg">
<path d="M1804.68 22.3296C1766.08 33.2136 1726.86 41.9867 1687.11 47.392C1667.27 50.2846 1647.29 52.1003 1627.27 53.3824L1612.25 54.1079L1608.49 54.2856L1604.74 54.3511L1597.23 54.4675L1589.71 54.5838L1585.95 54.6345L1582.2 54.5731L1567.16 54.298C1547.13 53.5598 1527.1 52.3099 1507.24 49.5672C1497.26 48.4617 1487.41 46.6222 1477.53 44.9811C1475.06 44.6072 1472.61 44.0687 1470.16 43.5451L1462.8 41.9931C1457.9 40.931 1452.98 39.985 1448.12 38.7691C1409.11 29.4698 1370.7 17.5725 1331.24 9.92384C1311.53 6.0881 1291.58 3.46253 1271.57 1.95475C1251.55 0.480691 1231.46 0.0123467 1211.38 0.2422C1191.32 0.438341 1171.26 1.26921 1151.24 2.10699C1131.21 2.97848 1111.15 3.28272 1091.1 4.11357C1071.05 4.95931 1051 6.36142 1031.11 9.25109C1021.17 10.6399 1011.28 12.4759 1001.47 14.6283C991.651 16.732 981.904 19.3276 972.424 22.6808C953.467 29.3384 935.307 38.9073 920.162 52.3068C904.936 65.521 891.88 80.8955 878.086 95.4156C864.373 110.058 850.42 124.461 835.624 137.974C828.236 144.736 820.619 151.241 812.748 157.447C804.895 163.664 796.732 169.438 788.136 174.547C770.972 184.805 752.424 192.692 733.19 198.197C723.573 200.917 713.781 203.047 703.906 204.688C694.034 206.281 684.069 207.405 674.09 208.182C664.11 208.959 654.091 209.348 644.083 209.543C634.068 209.708 624.05 209.746 614.018 209.437L553.865 208.068L493.693 206.99C473.644 206.719 453.435 207.336 433.69 211.351C423.825 213.325 414.166 216.247 404.792 219.875C395.417 223.503 386.331 227.851 377.498 232.608C359.807 242.147 343.072 253.295 326.304 264.26C309.517 275.214 292.559 285.943 275.677 296.78C258.764 307.56 241.74 318.164 224.358 328.145C206.988 338.172 189.118 347.28 171.066 356.007C153.006 364.704 134.667 372.838 116.018 380.226C78.7442 394.98 40.1792 406.637 0.729831 413.923C40.2111 406.756 78.8228 395.214 116.158 380.571C134.823 373.242 153.207 365.16 171.313 356.515C189.396 347.843 207.308 338.772 224.724 328.797C242.147 318.852 259.186 308.244 276.122 297.489C293.008 286.668 309.974 275.968 326.795 265.021C343.581 254.067 360.31 242.953 377.949 233.46C395.556 223.96 414.248 216.257 433.898 212.363C453.524 208.38 473.663 207.798 493.682 208.077L553.84 209.222L613.994 210.655C624.015 210.983 634.066 210.952 644.101 210.798C654.143 210.61 664.166 210.235 674.194 209.462C684.206 208.692 694.191 207.578 704.126 205.984C714.035 204.35 723.879 202.238 733.556 199.502C752.902 193.999 771.564 186.065 788.847 175.775C797.498 170.635 805.75 164.838 813.629 158.598C821.534 152.398 829.173 145.856 836.606 139.082C851.461 125.553 865.469 111.119 879.197 96.4729C893.009 81.9002 906.028 66.5674 921.128 53.4188C936.089 40.1642 954.072 30.6431 972.88 24.0252C982.297 20.6732 991.965 18.0826 1001.75 15.9868C1011.52 13.8315 1021.37 11.9885 1031.28 10.6077C1051.1 7.68935 1071.11 6.2803 1091.13 5.41279C1111.15 4.56013 1131.21 4.23704 1151.27 3.34272C1171.3 2.48608 1191.33 1.62947 1211.38 1.42243C1231.42 1.18565 1251.48 1.61335 1271.47 3.06562C1291.46 4.54764 1311.35 7.15541 1331.03 10.9545C1370.42 18.5407 1408.84 30.4043 1447.9 39.6579C1452.76 40.8738 1457.69 41.8159 1462.61 42.874L1469.98 44.422C1472.43 44.9456 1474.89 45.4801 1477.37 45.854C1487.27 47.4871 1497.14 49.3227 1507.13 50.4093C1527.02 53.1292 1547.08 54.386 1567.13 55.0716L1582.18 55.2942L1585.94 55.3555L1589.69 55.2899L1597.22 55.1548L1604.74 55.0196L1608.51 54.95L1612.27 54.7575L1627.29 53.9834C1647.31 52.6378 1667.29 50.7587 1687.14 47.7986C1726.91 42.2286 1766.13 33.3435 1804.68 22.3296Z" fill="#65BFFF"/>
</svg>
