<svg width="820" height="298" viewBox="0 0 820 298" fill="none" xmlns="http://www.w3.org/2000/svg">
<path d="M1568.72 -89.5203L1555.84 -87.2558L1549.39 -86.1283L1542.9 -85.2425L1529.94 -83.4873L1516.92 -82.1371L1510.42 -81.4702L1503.9 -80.9668L1490.85 -79.9433C1482.14 -79.4529 1473.43 -78.825 1464.72 -78.4458C1429.86 -76.7064 1394.96 -75.9317 1360.16 -73.0476C1351.45 -72.4458 1342.78 -71.3965 1334.1 -70.468C1331.93 -70.2619 1329.77 -69.9481 1327.6 -69.6343L1321.13 -68.7093C1316.81 -68.0686 1312.47 -67.5617 1308.19 -66.6959L1295.31 -64.3202C1293.16 -63.9673 1291.04 -63.3858 1288.92 -62.9155L1282.54 -61.4161L1276.17 -59.9167C1274.03 -59.443 1271.97 -58.7216 1269.86 -58.1305L1257.3 -54.4147C1224.1 -43.5641 1191.78 -30.2795 1158.7 -19.2342C1125.67 -8.00996 1091.52 -0.187649 1056.91 4.08441C1039.61 6.20565 1022.21 7.64119 1004.79 8.03284C987.359 8.45754 969.917 7.97568 952.494 7.19568C935.067 6.40263 917.654 5.2984 900.221 4.32544C891.511 3.8372 882.794 3.37853 874.073 3.00504C865.358 2.60201 856.612 2.34679 847.873 2.42529C830.396 2.53973 812.91 3.66241 795.624 6.31036C787.019 7.7221 778.369 8.65669 769.687 9.47397C760.999 10.2652 752.311 11.2659 743.648 12.1483C726.301 13.9463 708.925 15.5287 691.531 16.8921C674.138 18.2555 656.745 19.465 639.307 20.0862C604.443 21.3806 569.533 21.6676 534.643 22.9134C517.201 23.5215 499.755 24.326 482.337 25.5425C464.913 26.6904 447.533 28.4137 430.224 30.7183C421.565 31.8789 412.939 33.2124 404.348 34.7319C395.751 36.2253 387.165 37.8691 378.675 39.9205C370.185 41.9719 361.767 44.3952 353.589 47.5085C345.419 50.6478 337.498 54.4606 330.059 59.0804C322.596 63.6646 315.709 69.1984 309.553 75.4304C303.43 81.6814 297.635 88.2217 291.99 94.9035C280.709 108.251 270.155 122.172 259.261 135.82C237.329 162.933 214.687 189.69 188.577 212.878C175.588 224.532 161.517 234.911 146.908 244.427C132.276 253.908 116.993 262.418 101.17 269.745C85.3499 277.086 68.9945 283.312 52.2186 288.073C35.4392 292.82 18.2165 296.122 0.807292 297.322C18.227 296.161 35.4671 292.925 52.2735 288.226C69.0765 283.514 85.4587 277.336 101.318 270.041C117.181 262.759 132.501 254.281 147.186 244.842C161.848 235.367 175.981 225.013 189.03 213.372C202.123 201.789 214.353 189.277 226.039 176.296C237.704 163.293 248.935 149.917 259.894 136.307C270.804 122.668 281.379 108.77 292.653 95.4523C298.292 88.8 304.087 82.2598 310.194 76.0548C316.322 69.8723 323.145 64.4116 330.559 59.8544C337.953 55.2746 345.825 51.4889 353.951 48.3895C362.08 45.3033 370.472 42.8869 378.94 40.8555C387.407 38.8242 395.98 37.1839 404.568 35.707C413.162 34.2005 421.779 32.8835 430.412 31.7299C447.694 29.4322 465.069 27.7385 482.469 26.6107C499.866 25.4142 517.301 24.6262 534.734 24.0346C569.609 22.8349 604.513 22.5774 639.403 21.3316C656.849 20.7366 674.288 19.5426 691.684 18.1923C709.081 16.8419 726.478 15.2821 743.841 13.4937C752.53 12.6042 761.189 11.5975 769.874 10.7933C778.551 9.96295 787.266 9.01093 795.881 7.58266C813.092 4.91302 830.519 3.77821 847.936 3.65167C856.65 3.58013 865.362 3.81627 874.074 4.20628C882.792 4.56672 891.505 5.01236 900.211 5.48756C917.641 6.44748 935.05 7.53868 952.5 8.31172C969.933 9.0752 987.413 9.54661 1004.87 9.10189C1022.34 8.6963 1039.76 7.24072 1057.1 5.09598C1091.77 0.780419 1125.99 -7.0889 1159.04 -18.3628C1192.16 -29.4576 1224.45 -42.7777 1257.6 -53.644L1270.14 -57.3658C1272.24 -57.9569 1274.29 -58.6748 1276.43 -59.1485L1282.79 -60.6575L1289.15 -62.1665C1291.28 -62.6533 1293.37 -63.2278 1295.54 -63.5842L1308.39 -65.966C1312.66 -66.8448 1316.99 -67.3482 1321.31 -67.9889L1327.78 -68.9138C1329.95 -69.2277 1332.09 -69.5511 1334.27 -69.7571C1342.94 -70.6987 1351.59 -71.7445 1360.3 -72.3723C1395.05 -75.3573 1429.97 -76.2467 1464.82 -78.0974C1473.55 -78.5062 1482.25 -79.147 1490.95 -79.6635L1504 -80.7296L1510.53 -81.2626L1517.04 -81.959L1530.06 -83.3518L1543.02 -85.1496L1549.51 -86.0485L1555.84 -87.2002L1568.72 -89.5203Z" fill="#65BFFF"/>
</svg>
