<svg width="817" height="484" viewBox="0 0 817 484" fill="none" xmlns="http://www.w3.org/2000/svg">
<path d="M1778.36 0.47858C1737.27 4.69991 1695.9 4.59336 1654.63 5.14626C1613.38 5.71003 1571.93 6.77384 1531.13 13.6569C1520.93 15.3375 1510.83 17.5803 1500.81 20.076C1490.81 22.7055 1480.94 25.7664 1471.22 29.3101C1461.58 33.0095 1452.02 37.0212 1442.85 41.8072C1433.67 46.5932 1424.78 51.86 1416.02 57.334C1380.9 79.1445 1347.72 103.833 1312.73 125.738C1308.36 128.473 1303.97 131.178 1299.53 133.802C1295.12 136.467 1290.54 138.858 1286.07 141.397L1272.55 148.925L1258.67 155.782L1251.74 159.202C1249.41 160.305 1247.15 161.563 1244.77 162.536L1230.58 168.697L1223.48 171.779C1222.3 172.273 1221.13 172.841 1219.93 173.291L1216.31 174.657L1201.84 180.128C1163.14 194.356 1122.98 204.702 1082.19 210.771C1041.38 216.78 999.979 218.691 958.794 216.352L943.35 215.389C940.775 215.282 938.221 214.898 935.654 214.645L927.959 213.79L912.585 212.075L897.317 209.63L889.684 208.407C887.136 207.99 884.575 207.64 882.063 207.054L866.928 203.856C856.804 201.898 846.844 199.178 836.82 196.699C796.879 186.232 757.627 173.284 718.124 161.184C698.396 155.04 678.511 149.385 658.532 144.089C648.487 141.648 638.493 138.985 628.365 136.949L620.78 135.315C618.246 134.766 615.737 134.195 613.175 133.782L597.914 131.064C577.508 127.86 556.927 125.308 536.241 124.857C525.906 124.247 515.579 124.734 505.231 124.909C494.901 125.206 484.59 126.231 474.353 127.651C453.865 130.494 433.657 135.335 414.18 142.307C404.449 145.792 394.915 149.893 385.693 154.564C376.47 159.235 367.527 164.532 359.116 170.564C350.7 176.581 342.713 183.249 335.489 190.684C328.242 198.094 321.833 206.315 316.133 214.92C304.452 231.983 293.41 249.464 282.42 266.963C260.484 301.949 238.477 337.082 211.93 368.761C210.32 370.771 208.615 372.726 206.903 374.651L201.792 380.468C198.352 384.323 194.738 388.002 191.21 391.769C189.414 393.621 187.531 395.385 185.694 397.2C183.829 398.975 182.056 400.853 180.109 402.554L174.364 407.728L171.492 410.315L168.509 412.788C152.728 426.071 135.768 437.981 117.899 448.284C100.035 458.603 81.1562 467.216 61.4915 473.489C41.8566 479.755 21.3721 483.682 0.701584 483.944C21.3732 483.745 41.8735 479.878 61.5581 473.679C81.2536 467.461 100.178 458.899 118.099 448.613C136.028 438.358 153.045 426.481 168.897 413.226L171.879 410.753L174.771 408.177L180.549 403.01C182.501 401.324 184.289 399.442 186.153 397.667C187.991 395.851 189.889 394.084 191.688 392.246C195.23 388.476 198.864 384.808 202.319 380.949L207.463 375.139C209.191 373.209 210.884 371.273 212.51 369.259C239.149 337.572 261.197 302.412 283.17 267.447C294.179 249.959 305.226 232.493 316.914 215.46C322.63 206.851 328.988 198.739 336.198 191.371C343.389 183.992 351.329 177.385 359.704 171.395C368.079 165.404 376.971 160.152 386.167 155.504C395.364 150.856 404.843 146.786 414.552 143.339C433.963 136.417 454.12 131.622 474.519 128.802C484.73 127.405 494.996 126.392 505.296 126.103C515.599 125.94 525.912 125.457 536.217 126.075C556.844 126.542 577.351 129.113 597.712 132.33L612.943 135.055C615.49 135.473 617.999 136.044 620.534 136.592L628.104 138.23C638.217 140.271 648.2 142.952 658.211 145.387C678.161 150.69 698.004 156.373 717.722 162.535C757.203 174.672 796.456 187.684 836.439 198.188C846.477 200.664 856.453 203.379 866.606 205.329L881.785 208.515C884.298 209.101 886.874 209.447 889.421 209.864L897.085 211.079L912.397 213.512L927.816 215.215L935.522 216.052C938.088 216.304 940.657 216.684 943.233 216.791L958.702 217.731C999.972 220.032 1041.47 218.078 1082.36 212.015C1123.24 205.908 1163.46 195.498 1202.22 181.19L1216.71 175.681L1220.34 174.311C1221.55 173.843 1222.71 173.293 1223.9 172.799L1231 169.702L1245.21 163.504C1247.6 162.527 1249.86 161.268 1252.19 160.165L1259.13 156.727L1273.01 149.836L1286.54 142.289C1291.03 139.731 1295.61 137.34 1300.03 134.657C1304.47 132.018 1308.87 129.309 1313.24 126.559C1348.25 104.586 1381.4 79.8571 1416.45 58.0477C1425.18 52.5668 1434.07 47.3 1443.2 42.526C1452.33 37.7519 1461.84 33.7373 1471.47 30.0419C1481.15 26.4912 1490.99 23.4234 1500.97 20.7978C1510.96 18.2952 1521.05 16.0713 1531.22 14.35C1571.93 7.36395 1613.36 6.16231 1654.59 5.47555C1695.9 4.83238 1737.27 4.82686 1778.36 0.47858Z" fill="#65BFFF"/>
</svg>
