<svg width="868" height="127" viewBox="0 0 868 127" fill="none" xmlns="http://www.w3.org/2000/svg">
<path d="M1571.66 -257.138C1537.3 -251.453 1502.96 -245.66 1468.4 -241.389C1433.87 -236.997 1399.08 -234.313 1364.27 -234.443C1355.58 -234.712 1346.87 -234.67 1338.18 -235.345L1331.67 -235.739C1329.5 -235.87 1327.33 -235.971 1325.17 -236.217L1312.18 -237.516L1308.94 -237.848L1305.72 -238.313L1299.26 -239.25C1294.95 -239.899 1290.63 -240.404 1286.37 -241.316L1273.56 -243.792C1269.3 -244.678 1265.06 -245.665 1260.81 -246.636C1243.85 -250.543 1226.94 -254.772 1209.79 -258.001C1192.68 -261.225 1175.3 -263.554 1157.83 -263.498C1149.12 -263.384 1140.38 -262.955 1131.74 -261.746C1127.4 -261.282 1123.12 -260.468 1118.82 -259.749C1116.66 -259.409 1114.55 -258.871 1112.41 -258.452C1110.28 -257.979 1108.13 -257.6 1106.03 -257.022C1089.08 -252.926 1072.52 -247.289 1056.43 -240.575C1040.32 -233.937 1024.64 -226.272 1009.19 -218.234C993.747 -210.157 978.511 -201.729 963.371 -193.104C933.096 -175.883 903.235 -157.948 872.865 -140.925C842.505 -123.919 811.61 -107.761 779.538 -94.2777C747.523 -80.7396 714.259 -69.8845 680.071 -63.5181C645.932 -57.123 610.775 -55.4146 576.302 -60.1622C541.822 -64.7264 508.006 -73.9953 473.183 -76.973C438.376 -79.8429 403.11 -74.948 370.121 -63.6916C353.583 -58.1985 337.452 -51.5011 321.778 -43.8783C306.134 -36.1939 290.896 -27.724 275.954 -18.7746C246.06 -0.859305 217.584 19.2747 188.717 38.7311C174.279 48.4676 159.743 58.0486 144.942 67.2117C130.118 76.3391 114.99 84.961 99.4472 92.814L93.6 95.7219C91.6553 96.6901 89.7141 97.6713 87.7154 98.5421L75.8241 103.936L63.7352 108.851C61.733 109.709 59.6794 110.427 57.6258 111.145L51.4719 113.325C35.022 118.99 18.1223 123.393 0.930066 126.183C18.1362 123.445 35.0535 119.107 51.5268 113.478L57.6843 111.311C59.7379 110.593 61.7949 109.888 63.7971 109.03L75.9095 104.15L87.8243 98.7924C89.823 97.9215 91.7677 96.9534 93.7255 95.9817L99.5761 93.0868C115.146 85.2825 130.31 76.6928 145.175 67.6104C160.012 58.4795 174.588 48.9437 189.053 39.2558C217.96 19.8446 246.43 -0.259875 276.321 -18.1326C291.254 -27.0655 306.486 -35.5058 322.11 -43.1572C337.762 -50.7599 353.861 -57.4208 370.367 -62.8773C403.279 -74.0572 438.409 -78.8877 473.066 -76.0055C507.764 -73.0225 541.548 -63.7171 576.127 -59.0956C610.726 -54.2976 646.018 -55.9722 680.274 -62.3431C714.577 -68.6983 747.942 -79.5387 780.039 -93.0847C812.162 -106.638 843.082 -122.858 873.445 -139.907C903.817 -156.973 933.654 -174.943 963.896 -192.183C979.024 -200.805 994.239 -209.255 1009.65 -217.338C1025.07 -225.395 1040.71 -233.05 1056.78 -239.691C1072.83 -246.407 1089.33 -252.043 1106.21 -256.134C1108.31 -256.696 1110.45 -257.088 1112.57 -257.558C1114.7 -257.989 1116.8 -258.512 1118.96 -258.865C1123.24 -259.58 1127.51 -260.403 1131.82 -260.874C1140.43 -262.076 1149.13 -262.52 1157.8 -262.637C1175.19 -262.714 1192.51 -260.41 1209.6 -257.222C1226.71 -254.012 1243.61 -249.809 1260.59 -245.919C1264.84 -244.948 1269.08 -243.961 1273.35 -243.078L1286.19 -240.609C1290.45 -239.698 1294.78 -239.196 1299.1 -238.55L1305.57 -237.616L1308.8 -237.156L1312.05 -236.839L1325.07 -235.548C1327.23 -235.289 1329.41 -235.204 1331.58 -235.073L1338.1 -234.696C1342.45 -234.437 1346.8 -234.148 1351.16 -234.116L1364.23 -233.83C1399.08 -233.808 1433.87 -236.607 1468.39 -241.107C1503 -245.435 1537.33 -251.335 1571.66 -257.138Z" fill="#65BFFF"/>
</svg>
