<svg width="871" height="427" viewBox="0 0 871 427" fill="none" xmlns="http://www.w3.org/2000/svg">
<path d="M1799.01 12.5095C1760.34 21.1502 1721.41 28.8053 1682.12 33.9306C1662.49 36.6405 1642.75 38.5006 1623 39.8866L1608.17 40.721L1604.47 40.9314L1600.76 41.0337L1593.33 41.2381C1583.43 41.6441 1573.53 41.4747 1563.62 41.4363C1543.82 40.937 1524.02 40.0271 1504.36 37.5163C1494.49 36.5734 1484.75 34.7506 1474.95 33.2948C1470.08 32.4341 1465.25 31.3521 1460.4 30.405L1453.12 28.9263C1450.69 28.4136 1448.29 27.8294 1445.88 27.279C1407.33 18.2897 1369.1 7.01312 1329.58 2.52136C1309.85 0.362727 1289.92 -0.164259 1270.13 1.29716C1260.23 1.87862 1250.37 3.1017 1240.53 4.41405C1230.72 5.86422 1220.93 7.54545 1211.23 9.53902C1191.78 13.5084 1172.56 18.4673 1153.48 23.8496C1134.41 29.2319 1115.36 34.6698 1096.36 40.3496C1058.39 51.72 1020.75 64.325 984.143 79.6654C965.915 87.4987 948.155 96.5455 931.466 107.33C914.849 118.207 898.928 130.013 882.509 141.092C849.756 163.275 815.397 183.497 778.396 197.604C759.88 204.542 740.664 209.579 721.13 212.597C711.357 214.084 701.516 215.079 691.633 215.559C681.76 216.021 671.861 216.027 661.96 215.731C622.38 214.508 583.019 208.699 543.327 207.777C523.487 207.274 503.635 208.098 483.875 209.678C464.12 211.337 444.384 214.075 425.168 219.112C415.558 221.623 406.084 224.64 396.851 228.262C387.599 231.873 378.573 236.029 369.736 240.533C352.051 249.56 335.15 259.971 318.44 270.617C301.73 281.264 285.143 292.133 268.544 302.957C251.999 313.862 235.431 324.742 218.61 335.211C201.819 345.736 184.687 355.699 167.278 365.162C149.865 374.61 132.148 383.518 114.058 391.569C77.913 407.743 39.9891 420.248 0.918159 426.986C40.021 420.367 77.9954 407.992 114.217 391.925C132.348 383.911 150.1 375.073 167.555 365.662C184.995 356.254 202.169 346.328 219.005 335.855C235.849 325.411 252.432 314.528 269 303.648C285.603 292.839 302.198 282 318.927 271.364C335.641 260.732 352.534 250.355 370.183 241.37C379.009 236.884 388.01 232.751 397.221 229.167C406.428 225.568 415.876 222.574 425.446 220.09C444.591 215.087 464.272 212.38 483.987 210.748C503.717 209.176 523.528 208.379 543.328 208.908C582.934 209.869 622.259 215.72 661.948 216.993C671.868 217.3 681.8 217.301 691.722 216.842C701.639 216.369 711.533 215.392 721.354 213.908C740.989 210.91 760.313 205.86 778.907 198.917C816.075 184.781 850.558 164.542 883.388 142.355C899.814 131.242 915.747 119.417 932.289 108.56C948.893 97.8144 966.559 88.7765 984.728 80.9592C1021.22 65.602 1058.84 52.9713 1096.76 41.5681C1115.73 35.8626 1134.77 30.4099 1153.84 24.9978C1172.89 19.6046 1192.08 14.6388 1211.46 10.6407C1250.17 2.58219 1290.08 -1.01831 1329.48 3.50529C1368.88 7.94656 1407.1 19.1637 1445.7 28.1261C1448.12 28.6726 1450.52 29.2567 1452.95 29.7695L1460.24 31.2441C1465.11 32.2021 1469.95 33.2653 1474.84 34.1221C1484.66 35.5887 1494.42 37.3887 1504.3 38.3276C1523.99 40.8156 1543.83 41.7175 1563.64 42.1643C1573.55 42.169 1583.46 42.3045 1593.37 41.8798L1600.81 41.6564L1604.52 41.5393L1608.24 41.325L1623.07 40.4419C1642.84 38.9884 1662.58 37.0609 1682.2 34.2915C1721.46 29.0472 1760.37 21.284 1799.01 12.5095Z" fill="#65BFFF"/>
</svg>
