<svg width="827" height="411" viewBox="0 0 827 411" fill="none" xmlns="http://www.w3.org/2000/svg">
<path d="M1797.8 0.551954L1783.29 4.10364L1776.05 5.87007L1768.73 7.32014L1754.08 10.2094L1739.33 12.5364L1731.95 13.7L1724.55 14.6324L1709.74 16.4636C1704.79 16.9934 1699.84 17.4259 1694.88 17.911C1689.93 18.3921 1684.97 18.8922 1680.01 19.2017C1640.31 22.2834 1600.5 23.3537 1560.72 24.9091C1540.83 25.6327 1520.94 26.7223 1501.07 28.0429L1486.19 29.2741L1478.75 29.8972L1471.32 30.7067L1456.47 32.3256L1441.68 34.3919C1402.3 40.2433 1363.19 47.8826 1323.68 52.6679C1303.93 55.0437 1284.1 56.7224 1264.21 57.2219C1244.32 57.7511 1224.41 57.2836 1204.57 55.9373C1184.73 54.5425 1164.91 52.4077 1145.3 49.1342C1125.67 45.8647 1106.21 41.6737 1086.71 37.6067C1067.2 33.5546 1047.66 29.5928 1027.95 26.6645C1018.1 25.1275 1008.2 23.9872 998.279 22.9778C988.354 22.1143 978.385 21.3262 968.403 21.4981C963.405 21.4982 958.419 21.7821 953.434 22.1293C948.459 22.5699 943.488 23.0887 938.564 23.8981C928.707 25.4872 918.934 27.8666 909.577 31.4418C904.878 33.211 900.372 35.3431 895.821 37.3116L882.115 43.2478C877.562 45.2649 873.025 47.3415 868.585 49.663C864.175 51.9765 859.773 54.3197 855.42 56.7294C837.954 66.3353 820.848 76.5142 803.233 85.7454C798.819 88.0441 794.397 90.3129 789.932 92.4817C787.717 93.6013 785.429 94.5652 783.179 95.6143C780.929 96.6635 778.671 97.683 776.352 98.5914C767.225 102.488 757.79 105.653 748.335 108.681C710.31 120.336 670.894 126.913 631.452 131.854C611.704 134.308 591.889 136.222 572.063 137.852L512.525 142.343L497.639 143.462C492.669 143.806 487.717 144.096 482.75 144.391C472.812 144.965 462.871 145.525 452.947 146.51C433.155 148.386 413.216 152.565 395.392 161.789C386.496 166.372 378.34 172.288 370.81 178.817C363.237 185.31 356.034 192.229 349.062 199.358C335.115 213.601 322.035 228.647 308.264 243.017C280.514 271.511 251.946 299.507 219.807 323.024C215.807 325.977 211.73 328.822 207.608 331.617C203.505 334.422 199.241 336.983 195.042 339.67C190.836 342.328 186.514 344.793 182.25 347.354C177.932 349.834 173.58 352.244 169.25 354.68C151.752 364.166 133.741 372.691 115.305 380.165C78.4372 395.066 39.7658 405.97 0.166295 410.379C39.783 406.092 78.5009 395.304 115.446 380.51C133.927 373.087 151.983 364.615 169.527 355.179C173.876 352.755 178.247 350.356 182.569 347.891C186.833 345.329 191.177 342.89 195.399 340.228C199.601 337.556 203.884 335.006 208.006 332.211C212.128 329.417 216.223 326.582 220.257 323.636C252.49 300.11 281.106 272.118 308.909 243.641C322.709 229.263 335.812 214.243 349.753 200.034C356.718 192.939 363.895 186.042 371.46 179.583C378.984 173.088 387.045 167.23 395.878 162.711C413.554 153.59 433.33 149.455 453.063 147.595C462.956 146.618 472.883 146.062 482.825 145.503C487.796 145.223 492.763 144.928 497.733 144.585L512.623 143.481L572.192 139.045C592.037 137.425 611.874 135.537 631.627 133.098C671.124 128.19 710.602 121.661 748.768 110C758.268 106.96 767.736 103.801 776.923 99.8892C779.242 98.9807 781.53 97.9534 783.794 96.9002C786.059 95.847 788.362 94.8791 790.592 93.7556C795.072 91.5829 799.513 89.3249 803.941 87.0222C821.619 77.79 838.744 67.622 856.189 58.0537C860.541 55.6441 864.929 53.3048 869.324 50.9953C873.708 48.7046 878.231 46.632 882.769 44.6189L896.456 38.6718C901.036 36.6953 905.543 34.5633 910.153 32.8179C919.391 29.2745 929.07 26.9041 938.845 25.3052C943.74 24.5038 948.677 23.978 953.604 23.5345C958.559 23.1952 963.511 22.9045 968.475 22.8974C978.405 22.7077 988.31 23.4969 998.217 24.3495C1008.11 25.3331 1018 26.4625 1027.83 27.9886C1047.52 30.8911 1067.02 34.8312 1086.53 38.8496C1106.03 42.8868 1125.52 47.0698 1145.19 50.3125C1164.86 53.5701 1184.69 55.7009 1204.57 57.0689C1224.46 58.4033 1244.39 58.8479 1264.32 58.2919C1284.23 57.7696 1304.12 56.0601 1323.88 53.6655C1363.44 48.8385 1402.54 41.1654 1441.9 35.2585L1456.67 33.1814L1471.5 31.5515L1478.92 30.742L1486.37 30.119L1501.23 28.8769C1521.09 27.5265 1540.96 26.4409 1560.86 25.6538C1600.63 23.9715 1640.46 22.7851 1680.16 19.5765C1685.13 19.2332 1690.07 18.7372 1695.03 18.2372C1699.99 17.7372 1704.95 17.2858 1709.89 16.7412L1724.7 14.8614L1732.11 13.914L1739.48 12.7357L1754.22 10.364L1768.86 7.43012L1776.18 5.96118L1783.42 4.16501L1797.8 0.551954Z" fill="#65BFFF"/>
</svg>
