<svg width="830" height="258" viewBox="0 0 830 258" fill="none" xmlns="http://www.w3.org/2000/svg">
<path d="M1588.16 -55.3768C1553.63 -42.1574 1517.36 -33.7796 1480.66 -29.6466C1462.33 -27.3185 1443.87 -26.2846 1425.42 -25.5452C1416.19 -25.3768 1406.95 -25.0249 1397.72 -25.1642C1393.11 -25.1995 1388.49 -25.1496 1383.86 -25.237L1370.01 -25.5784C1365.39 -25.6528 1360.78 -25.8715 1356.17 -26.0737L1342.32 -26.6802C1333.1 -27.2549 1323.87 -27.6889 1314.66 -28.4209C1296.24 -29.6721 1277.83 -31.3752 1259.43 -33.0688C1222.66 -36.6003 1185.98 -41.6651 1149.89 -49.6396C1113.8 -57.5584 1078.44 -68.7756 1044.29 -82.8569C1027.22 -89.9206 1010.43 -97.6599 994.049 -106.25C977.65 -114.765 961.487 -123.805 944.827 -131.886C936.529 -135.992 928.057 -139.757 919.497 -143.275C915.183 -144.955 910.88 -146.695 906.488 -148.144C902.139 -149.745 897.682 -151.023 893.249 -152.364C884.309 -154.803 875.272 -156.978 866.079 -158.175C861.497 -158.875 856.885 -159.428 852.243 -159.623C849.926 -159.784 847.606 -159.749 845.278 -159.796C842.955 -159.719 840.637 -159.726 838.31 -159.508C829.047 -158.884 819.82 -156.929 811.216 -153.324C806.916 -151.515 802.85 -149.196 798.992 -146.57C795.184 -143.859 791.698 -140.731 788.534 -137.285C782.324 -130.368 776.917 -122.744 772.349 -114.647C770.055 -110.609 768.042 -106.409 766.067 -102.22C764.109 -98.0208 762.214 -93.7967 760.385 -89.5344C753.057 -72.5244 746.559 -55.1778 738.578 -38.5235C737.587 -36.4419 736.583 -34.3567 735.527 -32.3132C734.503 -30.2507 733.42 -28.2002 732.33 -26.1758C730.158 -22.101 727.853 -18.1026 725.291 -14.2864L723.418 -11.3818C723.1 -10.9052 722.801 -10.406 722.479 -9.94248L721.437 -8.57352L717.242 -3.09066L716.187 -1.71821L715.039 -0.432587L712.742 2.13863L710.446 4.70988L709.298 5.99551L708.056 7.19427C704.741 10.3878 701.526 13.6943 697.93 16.5717C696.161 18.0377 694.458 19.5976 692.629 20.9959L687.097 25.1326C686.164 25.8157 685.264 26.5179 684.328 27.1879L681.448 29.0912L675.688 32.8978C673.728 34.1215 671.724 35.2314 669.737 36.4065C667.726 37.5459 665.803 38.8017 663.728 39.8048C647.477 48.504 630.25 55.3276 612.574 60.5808C610.379 61.2945 608.147 61.8648 605.917 62.4481L599.237 64.2242C594.758 65.3127 590.247 66.2838 585.746 67.2941C581.207 68.1053 576.689 69.0504 572.135 69.7539L558.428 71.6522C549.295 72.9679 540.081 73.6205 530.864 74.1062C521.647 74.5363 512.42 74.6195 503.188 74.369C493.974 74.0855 484.743 73.5273 475.583 72.5031C466.422 71.479 457.323 69.8516 448.215 68.2963C439.111 66.7541 429.962 65.2519 420.715 64.5303C411.475 63.8348 402.134 63.9625 392.978 65.5076C383.809 67.0007 374.938 70.0763 366.657 74.2648C358.381 78.4664 350.603 83.5402 343.146 89.031C328.219 100.016 314.628 112.599 300.377 124.339C293.261 130.214 285.857 135.746 278.5 141.35C271.133 146.914 263.705 152.411 256.187 157.779C241.148 168.5 225.694 178.663 209.586 187.687C201.531 192.193 193.344 196.468 184.916 200.263L178.621 203.165L172.281 205.954C168.074 207.849 163.803 209.609 159.538 211.394C142.478 218.48 125.153 224.938 107.613 230.7C72.5234 242.24 36.6069 251.319 0.202799 257.692C36.6219 251.426 72.5828 242.461 107.726 231.019C125.306 225.302 142.646 218.896 159.745 211.855C164.013 210.083 168.285 208.324 172.512 206.451L178.868 203.672L185.167 200.782C193.601 197.014 201.831 192.741 209.907 188.258C226.06 179.249 241.541 169.08 256.609 158.364C264.144 153.006 271.584 147.506 278.968 141.951C286.328 136.36 293.749 130.837 300.888 124.943C315.181 113.205 328.776 100.635 343.661 89.7033C351.086 84.2491 358.841 79.1952 367.06 75.0372C375.272 70.9087 384.065 67.854 393.148 66.3984C402.225 64.8742 411.484 64.7544 420.668 65.4508C429.863 66.1863 438.97 67.686 448.078 69.2412C457.186 70.7965 466.288 72.4369 475.495 73.4767C484.701 74.5164 493.936 75.0877 503.179 75.3773C512.428 75.6373 521.684 75.5601 530.935 75.1492C540.168 74.673 549.414 74.0395 558.574 72.7169L572.323 70.8211C576.894 70.1271 581.425 69.1786 585.981 68.3769C590.494 67.3632 595.021 66.4016 599.517 65.3227L606.227 63.5526C608.469 62.9658 610.702 62.3955 612.909 61.6783C630.654 56.4207 647.963 49.5893 664.302 40.8525C666.39 39.846 668.336 38.5702 670.346 37.4308C672.346 36.2522 674.36 35.1258 676.333 33.8986L682.145 30.078L685.051 28.1678C686 27.4942 686.913 26.7886 687.846 26.1055L693.413 21.9453C695.252 20.5304 696.968 18.9671 698.763 17.494C702.394 14.5931 705.632 11.2667 708.983 8.04966L710.234 6.83435L711.392 5.5322L713.711 2.94098L716.029 0.349735L717.187 -0.95242L718.255 -2.32836L722.495 -7.85123L723.56 -9.24021C723.891 -9.72027 724.194 -10.2064 724.509 -10.696L726.404 -13.6207C728.995 -17.4864 731.309 -21.5014 733.504 -25.5962C734.616 -27.6406 735.703 -29.678 736.736 -31.7571C737.802 -33.8171 738.806 -35.9022 739.809 -37.9874C747.842 -54.7112 754.369 -72.0518 761.678 -89.0288C763.498 -93.2745 765.38 -97.4951 767.329 -101.678C769.29 -105.863 771.288 -110.017 773.55 -114.018C778.054 -122.043 783.409 -129.597 789.542 -136.438C792.642 -139.811 796.048 -142.875 799.771 -145.535C803.545 -148.111 807.54 -150.383 811.762 -152.171C820.213 -155.721 829.29 -157.664 838.455 -158.289C840.74 -158.51 843.044 -158.499 845.338 -158.583C847.636 -158.542 849.931 -158.57 852.231 -158.418C856.831 -158.226 861.41 -157.692 865.962 -156.998C875.109 -155.817 884.096 -153.67 892.977 -151.244C897.393 -149.912 901.822 -148.64 906.154 -147.049C910.533 -145.596 914.816 -143.879 919.113 -142.208C927.653 -138.713 936.105 -134.97 944.387 -130.874C961.01 -122.825 977.17 -113.798 993.608 -105.294C1010.01 -96.7234 1026.84 -88.9815 1043.95 -81.9153C1078.18 -67.8384 1113.6 -56.6387 1149.75 -48.7503C1185.89 -40.8028 1222.6 -35.7745 1259.41 -32.2795C1277.81 -30.5894 1296.23 -28.9159 1314.67 -27.6812C1323.89 -26.9657 1333.12 -26.5353 1342.34 -25.9736L1356.19 -25.3801C1360.8 -25.1779 1365.42 -24.9758 1370.04 -24.9144L1383.9 -24.6191C1388.52 -24.5447 1393.14 -24.5946 1397.76 -24.5758C1407.01 -24.4696 1416.25 -24.8475 1425.48 -25.0455C1443.95 -25.844 1462.42 -26.937 1480.75 -29.3208C1517.42 -33.571 1553.69 -42.0601 1588.16 -55.3768Z" fill="#65BFFF"/>
</svg>
