<svg width="827" height="411" viewBox="0 0 827 411" fill="none" xmlns="http://www.w3.org/2000/svg">
<path d="M1797.8 0.552076L1783.29 4.10376L1776.05 5.87019L1768.73 7.32026L1754.08 10.2096L1739.33 12.5366L1731.95 13.7001L1724.55 14.6326L1709.74 16.4638C1704.79 16.9935 1699.84 17.426 1694.88 17.9111C1689.93 18.3923 1684.97 18.8923 1680.01 19.2019C1640.31 22.2835 1600.5 23.3538 1560.72 24.9092C1540.83 25.6328 1520.94 26.7224 1501.07 28.043L1486.19 29.2743L1478.75 29.8973L1471.32 30.7068L1456.47 32.3258L1441.68 34.392C1402.3 40.2434 1363.19 47.8827 1323.68 52.6681C1303.93 55.0439 1284.1 56.7225 1264.21 57.222C1244.32 57.7512 1224.41 57.2837 1204.57 55.9374C1184.73 54.5426 1164.91 52.4078 1145.3 49.1343C1125.67 45.8648 1106.21 41.6738 1086.71 37.6068C1067.2 33.5547 1047.66 29.5929 1027.95 26.6646C1018.1 25.1276 1008.2 23.9873 998.279 22.9779C988.354 22.1144 978.385 21.3263 968.403 21.4982C963.405 21.4984 958.419 21.7822 953.434 22.1295C948.459 22.57 943.488 23.0888 938.564 23.8982C928.707 25.4873 918.934 27.8667 909.577 31.4419C904.878 33.2112 900.372 35.3432 895.821 37.3117L882.115 43.248C877.562 45.265 873.025 47.3416 868.585 49.6631C864.175 51.9766 859.773 54.3198 855.42 56.7295C837.954 66.3354 820.848 76.5144 803.233 85.7455C798.819 88.0442 794.397 90.3131 789.932 92.4818C787.717 93.6014 785.429 94.5653 783.179 95.6145C780.929 96.6637 778.671 97.6831 776.352 98.5915C767.225 102.488 757.79 105.653 748.335 108.681C710.31 120.336 670.894 126.913 631.452 131.854C611.704 134.308 591.889 136.222 572.063 137.852L512.525 142.343L497.639 143.462C492.669 143.806 487.717 144.096 482.75 144.391C472.812 144.966 462.871 145.525 452.947 146.51C433.155 148.386 413.216 152.565 395.392 161.789C386.496 166.372 378.34 172.288 370.81 178.817C363.237 185.31 356.034 192.229 349.062 199.358C335.115 213.601 322.035 228.647 308.264 243.017C280.514 271.511 251.946 299.507 219.807 323.024C215.807 325.977 211.73 328.823 207.608 331.617C203.505 334.422 199.241 336.983 195.042 339.671C190.836 342.328 186.514 344.793 182.25 347.355C177.932 349.835 173.58 352.244 169.25 354.68C151.752 364.167 133.741 372.691 115.305 380.165C78.4372 395.066 39.7658 405.97 0.166295 410.379C39.783 406.093 78.5009 395.304 115.446 380.51C133.927 373.088 151.983 364.615 169.527 355.179C173.876 352.755 178.247 350.356 182.569 347.891C186.833 345.329 191.177 342.89 195.399 340.229C199.601 337.556 203.884 335.006 208.006 332.212C212.128 329.417 216.223 326.582 220.257 323.636C252.49 300.11 281.106 272.118 308.909 243.641C322.709 229.263 335.812 214.243 349.753 200.034C356.718 192.939 363.895 186.042 371.46 179.583C378.984 173.088 387.045 167.23 395.878 162.711C413.554 153.591 433.33 149.455 453.063 147.595C462.956 146.618 472.883 146.062 482.825 145.503C487.796 145.223 492.763 144.928 497.733 144.585L512.623 143.481L572.192 139.045C592.037 137.426 611.874 135.538 631.627 133.098C671.124 128.19 710.602 121.661 748.768 110C758.268 106.96 767.736 103.802 776.923 99.8893C779.242 98.9809 781.53 97.9535 783.794 96.9003C786.059 95.8472 788.362 94.8793 790.592 93.7557C795.072 91.583 799.513 89.325 803.941 87.0224C821.619 77.7901 838.744 67.6221 856.189 58.0539C860.541 55.6442 864.929 53.305 869.324 50.9954C873.708 48.7048 878.231 46.6321 882.769 44.619L896.456 38.6719C901.036 36.6955 905.543 34.5634 910.153 32.818C919.391 29.2747 929.07 26.9042 938.845 25.3053C943.74 24.5039 948.677 23.9781 953.604 23.5347C958.559 23.1953 963.511 22.9046 968.475 22.8975C978.405 22.7078 988.31 23.497 998.217 24.3496C1008.11 25.3332 1018 26.4626 1027.83 27.9887C1047.52 30.8912 1067.02 34.8313 1086.53 38.8497C1106.03 42.8869 1125.52 47.07 1145.19 50.3126C1164.86 53.5702 1184.69 55.701 1204.57 57.069C1224.46 58.4034 1244.39 58.8481 1264.32 58.292C1284.23 57.7697 1304.12 56.0603 1323.88 53.6656C1363.44 48.8386 1402.54 41.1655 1441.9 35.2586L1456.67 33.1815L1471.5 31.5516L1478.92 30.7422L1486.37 30.1191L1501.23 28.877C1521.09 27.5266 1540.96 26.441 1560.86 25.6539C1600.63 23.9716 1640.46 22.7852 1680.16 19.5766C1685.13 19.2333 1690.07 18.7373 1695.03 18.2373C1699.99 17.7373 1704.95 17.2859 1709.89 16.7413L1724.7 14.8615L1732.11 13.9142L1739.48 12.7358L1754.22 10.3642L1768.86 7.43025L1776.18 5.9613L1783.42 4.16513L1797.8 0.552076Z" fill="#65BFFF"/>
</svg>
