<svg width="623" height="502" viewBox="0 0 623 502" fill="none" xmlns="http://www.w3.org/2000/svg">
<path d="M1817.89 163.573L1802.75 169.637L1798.97 171.159L1797.08 171.923L1795.15 172.582L1787.45 175.252L1779.74 177.922L1775.9 179.256L1771.99 180.414L1756.35 185.004C1753.75 185.828 1751.09 186.364 1748.46 187.039L1740.54 188.97L1732.62 190.9C1729.96 191.486 1727.29 191.978 1724.63 192.514C1719.29 193.547 1713.97 194.67 1708.63 195.639L1692.51 198.108C1670.98 201.054 1649.29 203.104 1627.56 203.506L1619.41 203.745C1616.7 203.85 1613.98 203.734 1611.26 203.73L1594.95 203.588L1578.66 202.852L1570.52 202.452L1562.39 201.76C1556.98 201.282 1551.56 200.886 1546.15 200.359L1529.96 198.399C1527.27 198.037 1524.55 197.809 1521.88 197.36L1513.82 196.092C1508.46 195.202 1503.08 194.491 1497.72 193.47C1487.05 191.371 1476.35 189.49 1465.79 186.866C1460.5 185.605 1455.18 184.498 1449.92 183.117C1444.64 181.788 1439.4 180.388 1434.14 178.958C1392.19 167.452 1351.11 153.018 1310.29 137.922C1269.51 122.755 1229.01 106.81 1189.52 88.4876C1179.65 83.9108 1169.86 79.1872 1160.17 74.2412C1155.32 71.8114 1150.51 69.2428 1145.7 66.7227C1140.92 64.1123 1136.14 61.5356 1131.41 58.8499C1112.44 48.2158 1093.75 36.9796 1074.2 27.311C1069.36 24.8138 1064.36 22.6142 1059.43 20.3015C1054.4 18.2071 1049.42 15.9697 1044.28 14.1273C1039.22 12.1043 1033.99 10.5248 1028.8 8.82123C1026.18 8.07262 1023.53 7.39545 1020.9 6.66569C1019.58 6.31766 1018.27 5.92107 1016.95 5.63653L1012.95 4.79484L1008.94 3.95714C1007.61 3.67658 1006.27 3.38114 1004.92 3.21663L996.816 2.02428C995.466 1.79629 994.114 1.68039 992.75 1.58333L988.664 1.24357C985.945 1.01572 983.232 0.754152 980.487 0.724685C977.761 0.59405 975.018 0.691533 972.288 0.721559C970.927 0.751445 969.561 0.878532 968.197 0.95702C966.829 1.02065 965.473 1.12888 964.103 1.30457C958.648 1.79407 953.273 2.88351 947.978 4.27044C942.668 5.66134 937.563 7.69872 932.613 10.0771C927.694 12.5111 923.103 15.5745 918.794 18.9769C914.584 22.5121 910.72 26.4487 907.367 30.8064C906.486 31.8554 905.772 33.0511 904.97 34.1586C904.206 35.2879 903.375 36.4033 902.672 37.5802C901.227 39.912 899.873 42.2835 898.598 44.7134C893.532 54.44 889.913 64.8151 886.773 75.2532C883.651 85.7022 880.788 96.2253 878.022 106.754C872.495 127.827 867.341 148.991 860.872 169.758C857.638 180.142 854.073 190.423 850.005 200.488C845.993 210.585 841.166 220.312 835.397 229.494C823.798 247.809 808.751 263.893 791.509 277.009C774.291 290.215 754.949 300.483 734.721 308.279C714.452 316.037 693.278 321.312 671.787 324.393C650.299 327.488 628.518 328.414 606.822 327.405C595.974 326.9 585.155 325.909 574.406 324.406C563.646 322.921 553.029 320.665 542.484 318.022C531.928 315.399 521.435 312.535 510.776 310.242C500.141 307.975 489.308 306.159 478.383 305.962C475.649 305.977 472.92 305.831 470.194 306.052L466.098 306.273C464.738 306.366 463.377 306.571 462.033 306.724C460.678 306.896 459.311 307.023 457.969 307.239L453.942 308.015L449.92 308.806L445.966 309.85C435.413 312.645 425.288 316.857 415.598 321.86C396.206 331.887 378.604 344.845 360.713 357.147C351.775 363.352 342.656 369.239 333.353 374.856L305.563 391.915C286.926 403.094 267.991 413.811 248.476 423.376C238.73 428.171 228.814 432.629 218.758 436.743L203.605 442.747C198.517 444.669 193.464 446.661 188.356 448.507C167.963 456.044 147.339 462.957 126.558 469.338C84.9903 482.086 42.7467 492.609 0.212571 501.63C42.7786 492.728 85.054 482.324 126.668 469.691C147.481 463.365 168.116 456.497 188.544 449.031C193.656 447.199 198.728 445.218 203.82 443.312L218.999 437.347C229.078 433.26 239.032 428.823 248.801 424.054C268.368 414.507 287.322 403.8 305.993 392.628L333.816 375.577C343.119 369.959 352.298 364.057 361.226 357.87C379.15 345.575 396.731 332.655 416.045 322.697C425.684 317.739 435.753 313.558 446.221 310.802L450.146 309.766L454.127 309.002L458.109 308.238C459.437 308.026 460.789 307.902 462.128 307.735C463.476 307.597 464.819 307.38 466.164 307.291L470.215 307.082C472.912 306.87 475.622 307.004 478.326 306.997C489.162 307.218 499.912 309.024 510.514 311.285C521.124 313.575 531.621 316.453 542.181 319.092C552.73 321.749 563.419 324.034 574.217 325.54C585.004 327.066 595.856 328.064 606.742 328.59C628.49 329.617 650.358 328.716 671.927 325.63C693.482 322.549 714.767 317.276 735.145 309.504C755.477 301.681 774.953 291.377 792.297 278.106C809.679 264.919 824.843 248.741 836.563 230.281C842.394 221.035 847.287 211.195 851.32 201.06C855.425 190.953 859.011 180.635 862.257 170.232C868.758 149.409 873.956 128.233 879.488 107.175C882.239 96.6496 885.091 86.1453 888.187 75.7191C891.305 65.3187 894.885 55.034 899.871 45.4245C901.124 43.0322 902.467 40.6796 903.886 38.3706C904.579 37.2126 905.384 36.12 906.137 35.0096C906.928 33.9209 907.617 32.7481 908.487 31.7179C911.785 27.4545 915.557 23.5904 919.671 20.1127C923.885 16.7679 928.38 13.7621 933.214 11.3669C938.063 9.03124 943.079 7.01773 948.315 5.64674C953.521 4.28369 958.832 3.19529 964.225 2.70682C965.561 2.52422 966.905 2.43485 968.254 2.36034C969.603 2.28583 970.955 2.16272 972.301 2.13682C974.997 2.09988 977.711 2.01035 980.403 2.13408C983.115 2.15662 985.812 2.42217 988.513 2.63911L992.565 2.97197C993.914 3.07302 995.262 3.17404 996.597 3.406L1004.63 4.58453C1005.98 4.74905 1007.3 5.04845 1008.63 5.31413L1012.61 6.14493L1016.59 6.97572C1017.91 7.26026 1019.21 7.66086 1020.53 7.994C1023.14 8.71286 1025.77 9.37914 1028.37 10.1168C1033.51 11.7986 1038.73 13.3673 1043.77 15.3794C1048.89 17.196 1053.85 19.4224 1058.86 21.506C1063.79 23.8038 1068.76 25.9965 1073.59 28.4789C1093.09 38.0959 1111.76 49.3212 1130.77 59.9284C1135.51 62.6142 1140.31 65.2018 1145.09 67.7933C1149.92 70.3243 1154.72 72.8821 1159.59 75.3228C1169.3 80.2607 1179.1 84.9844 1188.98 89.5572C1228.51 107.853 1269.07 123.782 1309.87 138.911C1350.71 153.954 1391.83 168.362 1433.84 179.837C1439.09 181.267 1444.35 182.663 1449.62 183.977C1454.9 185.354 1460.22 186.461 1465.52 187.704C1476.09 190.308 1486.83 192.182 1497.5 194.281C1502.84 195.287 1508.24 196.008 1513.61 196.898L1521.67 198.166C1524.35 198.626 1527.07 198.854 1529.76 199.202L1545.97 201.138C1551.38 201.665 1556.82 202.058 1562.23 202.521L1570.36 203.179L1578.52 203.545L1594.83 204.244L1611.14 204.352C1613.86 204.341 1616.58 204.457 1619.3 204.333L1627.46 204.061C1649.21 203.606 1670.91 201.489 1692.43 198.479L1708.55 195.961C1713.89 194.977 1719.22 193.836 1724.56 192.788C1727.21 192.237 1729.9 191.74 1732.54 191.159L1740.45 189.199L1748.37 187.238C1751 186.549 1753.67 186.008 1756.25 185.174L1771.88 180.539L1775.79 179.381L1779.63 178.033L1787.33 175.347L1795.03 172.662L1796.95 171.988L1798.85 171.225L1802.63 169.702L1817.89 163.573Z" fill="#65BFFF"/>
</svg>
