<svg width="856" height="169" viewBox="0 0 856 169" fill="none" xmlns="http://www.w3.org/2000/svg">
<path d="M1581.87 -175.073C1548.04 -165.534 1513.66 -157.846 1478.83 -153.108C1461.44 -150.573 1443.93 -148.982 1426.39 -147.859L1413.22 -147.223L1409.93 -147.067L1406.64 -147.01L1400.05 -146.908L1393.47 -146.806L1390.17 -146.761L1386.88 -146.815L1373.7 -147.056C1356.15 -147.703 1338.6 -148.799 1321.19 -151.202C1312.45 -152.171 1303.81 -153.783 1295.15 -155.221C1292.99 -155.549 1290.84 -156.021 1288.69 -156.48L1282.24 -157.84C1277.95 -158.771 1273.64 -159.6 1269.38 -160.666C1235.19 -168.815 1201.53 -179.242 1166.95 -185.945C1149.67 -189.307 1132.19 -191.608 1114.65 -192.93C1097.1 -194.221 1079.5 -194.632 1061.9 -194.43C1044.32 -194.259 1026.74 -193.53 1009.19 -192.796C991.638 -192.032 974.063 -191.766 956.485 -191.038C938.911 -190.296 921.343 -189.068 903.914 -186.535C895.2 -185.318 886.536 -183.709 877.932 -181.823C869.33 -179.979 860.789 -177.704 852.48 -174.765C835.867 -168.931 819.951 -160.545 806.678 -148.801C793.334 -137.22 781.892 -123.746 769.803 -111.021C757.785 -98.1885 745.557 -85.5656 732.59 -73.7225C726.114 -67.7963 719.439 -62.0958 712.54 -56.6568C705.658 -51.2082 698.504 -46.1479 690.971 -41.6706C675.929 -32.6802 659.673 -25.768 642.817 -20.9439C634.388 -18.5597 625.806 -16.6934 617.152 -15.2547C608.501 -13.8585 599.767 -12.8735 591.021 -12.1926C582.275 -11.5117 573.494 -11.1707 564.724 -11C555.946 -10.8554 547.166 -10.822 538.375 -11.0929L485.656 -12.2931L432.923 -13.2377C415.351 -13.4752 397.64 -12.9346 380.336 -9.41572C371.69 -7.68582 363.225 -5.1243 355.01 -1.94494C346.794 1.23442 338.831 5.04461 331.09 9.21445C315.585 17.5741 300.919 27.3438 286.223 36.9536C271.511 46.5538 256.649 55.9569 241.854 65.4537C227.031 74.9019 212.111 84.1947 196.878 92.9427C181.655 101.73 165.994 109.712 150.173 117.36C134.345 124.982 118.273 132.111 101.929 138.586C69.2626 151.516 35.4645 161.732 0.891145 168.118C35.4924 161.836 69.3316 151.721 102.052 138.888C118.41 132.465 134.522 125.382 150.39 117.805C166.238 110.206 181.936 102.255 197.199 93.5134C212.468 84.7975 227.401 75.5014 242.243 66.0758C257.042 56.5919 271.912 47.2149 286.653 37.6208C301.365 28.0205 316.025 18.2804 331.485 9.96074C346.915 1.63503 363.297 -5.11564 380.518 -8.52845C397.718 -12.0195 415.368 -12.5295 432.913 -12.285L485.634 -11.2813L538.354 -10.0256C547.136 -9.73818 555.945 -9.76547 564.739 -9.90052C573.54 -10.0651 582.324 -10.3932 591.112 -11.0714C599.887 -11.7462 608.638 -12.7218 617.345 -14.1188C626.029 -15.5515 634.656 -17.4022 643.137 -19.8003C660.092 -24.6227 676.448 -31.5759 691.594 -40.5941C699.176 -45.0985 706.408 -50.1797 713.313 -55.6483C720.241 -61.0812 726.935 -66.8148 733.45 -72.7515C746.469 -84.6085 758.745 -97.2585 770.777 -110.094C782.881 -122.866 794.291 -136.303 807.525 -147.827C820.636 -159.443 836.396 -167.787 852.88 -173.587C861.132 -176.525 869.606 -178.795 878.181 -180.632C886.743 -182.521 895.377 -184.136 904.065 -185.346C921.431 -187.904 938.97 -189.139 956.511 -189.899C974.056 -190.646 991.641 -190.929 1009.22 -191.713C1026.77 -192.464 1044.33 -193.215 1061.9 -193.396C1079.47 -193.604 1097.05 -193.229 1114.56 -191.956C1132.08 -190.657 1149.52 -188.372 1166.76 -185.042C1201.28 -178.394 1234.95 -167.997 1269.18 -159.887C1273.44 -158.821 1277.77 -157.995 1282.08 -157.068L1288.53 -155.711C1290.68 -155.253 1292.84 -154.784 1295.01 -154.456C1303.69 -153.025 1312.34 -151.416 1321.09 -150.464C1338.53 -148.08 1356.11 -146.979 1373.68 -146.378L1386.87 -146.183L1390.16 -146.129L1393.45 -146.187L1400.05 -146.305L1406.64 -146.424L1409.95 -146.485L1413.24 -146.653L1426.4 -147.332C1443.94 -148.511 1461.46 -150.158 1478.85 -152.752C1513.71 -157.634 1548.09 -165.421 1581.87 -175.073Z" fill="#65BFFF"/>
</svg>
