<svg width="875" height="440" viewBox="0 0 875 440" fill="none" xmlns="http://www.w3.org/2000/svg">
<path d="M1794.56 9.29561C1755.59 16.5034 1716.55 23.4395 1677.21 28.4012C1637.91 33.5117 1598.3 36.4574 1558.68 36.2026L1543.83 35.8122L1536.41 35.6021L1528.99 35.1342L1514.16 34.1497L1499.39 32.593C1496.93 32.3124 1494.46 32.129 1492 31.7511L1484.66 30.6583L1477.31 29.5655C1474.87 29.1837 1472.4 28.8882 1469.99 28.3715C1460.27 26.4476 1450.53 24.6586 1440.89 22.315C1421.58 17.8303 1402.36 12.937 1382.93 8.92841C1363.51 4.88613 1343.84 1.80411 1323.98 0.954732C1304.13 0.0567465 1284.23 1.77017 1264.68 5.19213C1254.93 6.99235 1245.21 9.08711 1235.64 11.7133C1226.05 14.2354 1216.57 17.2226 1207.19 20.406C1188.41 26.8404 1170.03 34.3326 1151.89 42.3473C1133.76 50.3471 1115.76 58.692 1097.89 67.2589C1062.13 84.3818 1026.77 102.32 991.421 120.257C973.761 129.262 956.206 138.477 938.782 147.944C930.068 152.67 921.438 157.533 912.632 162.093L899.495 169.024L892.926 172.49L886.292 175.83C850.847 193.425 813.911 208.312 775.462 217.785C756.267 222.546 736.673 225.756 716.948 227.231C707.084 227.961 697.197 228.251 687.303 228.097C677.415 227.908 667.527 227.242 657.686 226.276C618.282 222.328 579.414 213.486 539.708 211.26C519.882 210.101 499.955 210.881 480.267 213.382C460.566 215.839 441.082 219.992 422.095 225.765C403.112 231.553 384.646 239.036 366.864 247.818C349.058 256.574 331.851 266.493 314.965 276.9C281.167 297.673 248.663 320.426 215.565 342.208C199.024 353.128 182.264 363.708 165.216 373.808C148.173 383.922 130.753 393.404 112.93 402.037C77.3308 419.355 39.5707 432.709 0.408066 439.106C39.5917 432.847 77.4133 419.604 113.085 402.378C130.953 393.797 148.419 384.366 165.504 374.288C182.598 364.24 199.403 353.712 215.986 342.828C249.145 321.095 281.656 298.371 315.452 277.646C332.33 267.273 349.516 257.392 367.3 248.673C385.061 239.929 403.475 232.492 422.402 226.735C441.338 221.008 460.767 216.886 480.412 214.459C500.041 211.974 519.893 211.213 539.649 212.408C579.225 214.684 618.068 223.549 657.566 227.552C667.445 228.539 677.352 229.217 687.292 229.423C697.224 229.599 707.159 229.312 717.057 228.589C736.868 227.138 756.541 223.923 775.802 219.177C814.398 209.712 851.464 194.838 886.984 177.223L893.633 173.879L900.212 170.394L913.36 163.444C922.162 158.869 930.807 154.002 939.502 149.265C956.888 139.777 974.444 130.561 992.08 121.531C1027.41 103.568 1062.74 85.5893 1098.46 68.4446C1116.33 59.8628 1134.29 51.511 1152.41 43.5003C1170.52 35.4747 1188.87 27.9756 1207.59 21.5423C1216.95 18.3479 1226.4 15.3539 1235.96 12.8397C1245.5 10.2026 1255.18 8.10491 1264.9 6.29778C1284.37 2.86597 1304.18 1.14271 1323.96 2.01198C1343.74 2.81779 1363.38 5.87802 1382.76 9.89851C1402.17 13.8813 1421.39 18.7558 1440.72 23.2217C1479.33 32.5798 1519.05 36.5379 1558.7 36.994C1598.37 37.1248 1637.99 34.0482 1677.29 28.8108C1716.59 23.7003 1755.62 16.6224 1794.56 9.29561Z" fill="#65BFFF"/>
</svg>
