<svg width="848" height="502" viewBox="0 0 848 502" fill="none" xmlns="http://www.w3.org/2000/svg">
<path d="M1818.25 163.572L1803.12 169.637L1799.34 171.159L1797.44 171.923L1795.52 172.582L1787.81 175.252L1780.11 177.922L1776.26 179.255L1772.35 180.414L1756.71 185.004C1754.11 185.827 1751.46 186.364 1748.82 187.039L1740.9 188.969L1732.98 190.9C1730.32 191.485 1727.65 191.978 1724.99 192.514C1719.65 193.547 1714.33 194.669 1708.99 195.639L1692.88 198.108C1671.35 201.054 1649.66 203.103 1627.93 203.506L1619.78 203.745C1617.07 203.85 1614.35 203.734 1611.63 203.73L1595.32 203.588L1579.03 202.852L1570.88 202.452L1562.76 201.76C1557.34 201.282 1551.92 200.886 1546.51 200.358L1530.32 198.399C1527.63 198.036 1524.91 197.809 1522.24 197.36L1514.18 196.092C1508.82 195.202 1503.44 194.491 1498.09 193.47C1487.42 191.371 1476.71 189.49 1466.16 186.866C1460.87 185.605 1455.54 184.498 1450.28 183.117C1445.01 181.788 1439.76 180.388 1434.51 178.958C1392.56 167.452 1351.47 153.018 1310.66 137.922C1269.87 122.755 1229.37 106.81 1189.89 88.4875C1180.02 83.9107 1170.22 79.187 1160.54 74.2411C1155.69 71.8113 1150.87 69.2426 1146.06 66.7225C1141.29 64.1122 1136.51 61.5355 1131.77 58.8497C1112.8 48.2157 1094.11 36.9795 1074.57 27.3109C1069.73 24.8137 1064.73 22.6141 1059.8 20.3014C1054.76 18.2069 1049.79 15.9696 1044.64 14.1272C1039.58 12.1042 1034.35 10.5247 1029.17 8.82111C1026.55 8.0725 1023.9 7.39533 1021.27 6.66557C1019.95 6.31754 1018.63 5.92094 1017.31 5.6364L1013.32 4.79471L1009.3 3.95702C1007.97 3.67646 1006.63 3.38101 1005.28 3.21651L997.181 2.02416C995.831 1.79617 994.479 1.68027 993.116 1.5832L989.029 1.24345C986.31 1.0156 983.598 0.75403 980.852 0.724562C978.127 0.593928 975.383 0.691411 972.653 0.721437C971.293 0.751323 969.926 0.87841 968.562 0.956898C967.194 1.02053 965.838 1.12876 964.469 1.30445C959.013 1.79395 953.638 2.88339 948.343 4.27032C943.033 5.66122 937.928 7.6986 932.978 10.077C928.059 12.511 923.468 15.5744 919.159 18.9768C914.949 22.512 911.085 26.4486 907.732 30.8063C906.851 31.8553 906.137 33.051 905.335 34.1585C904.572 35.2878 903.74 36.4032 903.037 37.58C901.592 39.9119 900.238 42.2834 898.963 44.7133C893.897 54.4399 890.278 64.8149 887.138 75.253C884.016 85.702 881.153 96.2252 878.387 106.754C872.86 127.827 867.707 148.991 861.237 169.758C858.003 180.142 854.438 190.423 850.37 200.488C846.358 210.585 841.531 220.312 835.762 229.493C824.163 247.809 809.117 263.893 791.875 277.009C774.656 290.215 755.314 300.483 735.086 308.278C714.817 316.037 693.643 321.312 672.152 324.392C650.665 327.488 628.883 328.414 607.187 327.405C596.339 326.9 585.521 325.909 574.771 324.406C564.011 322.921 553.394 320.665 542.849 318.022C532.293 315.399 521.8 312.535 511.142 310.242C500.506 307.975 489.673 306.159 478.748 305.962C476.014 305.977 473.285 305.831 470.559 306.052L466.463 306.272C465.103 306.366 463.742 306.571 462.398 306.724C461.043 306.896 459.677 307.023 458.334 307.239L454.308 308.015L450.285 308.806L446.331 309.85C435.778 312.645 425.653 316.857 415.963 321.86C396.572 331.886 378.969 344.845 361.079 357.147C352.14 363.352 343.021 369.239 333.718 374.856L305.928 391.915C287.291 403.093 268.356 413.81 248.841 423.375C239.095 428.171 229.179 432.629 219.123 436.742L203.971 442.747C198.882 444.669 193.829 446.66 188.721 448.507C168.328 456.044 147.705 462.957 126.923 469.338C85.3555 482.086 43.1119 492.608 0.577806 501.63C43.1438 492.727 85.4193 482.324 127.033 469.691C147.846 463.365 168.481 456.497 188.909 449.031C194.021 447.199 199.093 445.218 204.185 443.312L219.365 437.347C229.443 433.26 239.397 428.823 249.166 424.054C268.733 414.506 287.688 403.8 306.358 392.628L334.182 375.576C343.485 369.959 352.663 364.056 361.591 357.87C379.515 345.575 397.096 332.655 416.41 322.697C426.049 317.739 436.119 313.558 446.586 310.801L450.511 309.766L454.492 309.002L458.474 308.238C459.802 308.025 461.154 307.902 462.494 307.735C463.842 307.597 465.184 307.38 466.529 307.291L470.58 307.082C473.277 306.87 475.987 307.004 478.691 306.997C489.527 307.218 500.278 309.024 510.88 311.285C521.49 313.575 531.986 316.453 542.546 319.092C553.096 321.749 563.784 324.034 574.582 325.54C585.369 327.066 596.221 328.063 607.107 328.59C628.855 329.617 650.723 328.715 672.292 325.63C693.847 322.549 715.133 317.276 735.51 309.504C755.842 301.681 775.318 291.377 792.662 278.105C810.044 264.919 825.208 248.741 836.928 230.281C842.759 221.035 847.652 211.195 851.685 201.06C855.79 190.953 859.376 180.635 862.622 170.232C869.124 149.408 874.321 128.233 879.853 107.175C882.604 96.6495 885.456 86.1451 888.552 75.719C891.671 65.3186 895.25 55.0339 900.236 45.4244C901.489 43.0321 902.833 40.6795 904.251 38.3705C904.944 37.2125 905.75 36.1199 906.503 35.0094C907.293 33.9208 907.982 32.748 908.852 31.7178C912.151 27.4544 915.922 23.5902 920.036 20.1126C924.25 16.7678 928.745 13.762 933.579 11.3668C938.429 9.03112 943.444 7.01761 948.68 5.64662C953.886 4.28357 959.197 3.19517 964.59 2.7067C965.926 2.5241 967.271 2.43472 968.62 2.36022C969.969 2.28571 971.32 2.1626 972.667 2.1367C975.363 2.09976 978.076 2.01022 980.768 2.13396C983.48 2.1565 986.177 2.42205 988.878 2.63899L992.931 2.97185C994.279 3.07289 995.627 3.17392 996.963 3.40588L1005 4.58441C1006.35 4.74893 1007.67 5.04832 1009 5.31401L1012.98 6.14481L1016.96 6.9756C1018.27 7.26014 1019.58 7.66074 1020.89 7.99388C1023.5 8.71274 1026.13 9.37902 1028.73 10.1167C1033.88 11.7985 1039.09 13.3671 1044.14 15.3792C1049.25 17.1959 1054.21 19.4223 1059.23 21.5059C1064.16 23.8037 1069.12 25.9964 1073.96 28.4788C1093.45 38.0958 1112.13 49.3211 1131.14 59.9283C1135.87 62.6141 1140.67 65.2016 1145.46 67.7932C1150.29 70.3242 1155.08 72.882 1159.95 75.3227C1169.67 80.2606 1179.46 84.9843 1189.35 89.5571C1228.87 107.852 1269.43 123.782 1310.24 138.911C1351.07 153.954 1392.19 168.361 1434.2 179.837C1439.46 181.267 1444.72 182.663 1449.99 183.977C1455.26 185.354 1460.59 186.461 1465.89 187.704C1476.45 190.308 1487.19 192.182 1497.86 194.28C1503.21 195.287 1508.61 196.008 1513.97 196.898L1522.03 198.166C1524.72 198.626 1527.44 198.854 1530.12 199.202L1546.34 201.138C1551.75 201.665 1557.18 202.057 1562.59 202.521L1570.73 203.179L1578.88 203.545L1595.19 204.244L1611.51 204.352C1614.22 204.341 1616.95 204.457 1619.67 204.333L1627.82 204.061C1649.57 203.605 1671.27 201.489 1692.8 198.479L1708.92 195.961C1714.26 194.977 1719.59 193.836 1724.92 192.788C1727.58 192.237 1730.26 191.74 1732.91 191.159L1740.82 189.199L1748.73 187.238C1751.36 186.549 1754.04 186.008 1756.61 185.174L1772.24 180.539L1776.15 179.381L1779.99 178.033L1787.69 175.347L1795.4 172.662L1797.32 171.988L1799.21 171.225L1802.99 169.702L1818.25 163.572Z" fill="#65BFFF"/>
</svg>
