<svg width="610" height="478" viewBox="0 0 610 478" fill="none" xmlns="http://www.w3.org/2000/svg">
<path d="M1812.16 119.907C1772.77 134.991 1731.38 144.551 1689.51 149.266C1668.59 151.923 1647.52 153.103 1626.47 153.946C1615.94 154.139 1605.39 154.54 1594.86 154.381C1589.6 154.341 1584.33 154.398 1579.05 154.298L1563.25 153.908C1557.97 153.824 1552.72 153.574 1547.45 153.343L1531.65 152.651C1521.13 151.995 1510.6 151.5 1500.09 150.665C1479.07 149.237 1458.06 147.294 1437.07 145.362C1395.12 141.332 1353.26 135.553 1312.08 126.454C1270.9 117.418 1230.56 104.619 1191.59 88.5516C1172.11 80.4917 1152.95 71.6609 1134.26 61.8588C1115.55 52.143 1097.11 41.8288 1078.1 32.6072C1068.63 27.9229 1058.96 23.6266 1049.19 19.612C1044.27 17.695 1039.36 15.7106 1034.35 14.0565C1029.39 12.2298 1024.3 10.7711 1019.24 9.24102C1009.04 6.45861 998.732 3.97679 988.242 2.61088C983.014 1.81187 977.751 1.18147 972.455 0.958743C969.811 0.774477 967.163 0.814379 964.507 0.761043C961.856 0.849513 959.212 0.8408 956.556 1.08995C945.987 1.80187 935.458 4.03316 925.641 8.14626C920.734 10.2103 916.095 12.8562 911.693 15.853C907.348 18.946 903.37 22.5148 899.76 26.4472C892.674 34.3397 886.505 43.0387 881.293 52.2785C878.675 56.8855 876.378 61.6777 874.125 66.4579C871.891 71.2491 869.728 76.0689 867.641 80.9323C859.28 100.341 851.865 120.135 842.758 139.138C841.628 141.513 840.483 143.892 839.277 146.224C838.109 148.577 836.873 150.917 835.63 153.227C833.151 157.876 830.521 162.439 827.597 166.793L825.461 170.107C825.097 170.651 824.756 171.221 824.389 171.75L823.2 173.312L818.413 179.568L817.209 181.134L815.899 182.601L813.279 185.535L810.659 188.469L809.349 189.935L807.932 191.303C804.149 194.947 800.48 198.72 796.378 202.003C794.359 203.676 792.416 205.456 790.329 207.051L784.017 211.772C782.952 212.551 781.925 213.352 780.857 214.117L777.571 216.289L770.999 220.632C768.762 222.028 766.475 223.295 764.208 224.635C761.914 225.936 759.719 227.369 757.352 228.513C738.809 238.439 719.152 246.225 698.983 252.219C696.479 253.034 693.931 253.684 691.388 254.35L683.765 256.377C678.654 257.619 673.507 258.727 668.372 259.879C663.192 260.805 658.038 261.883 652.841 262.686L637.201 264.852C626.779 266.353 616.266 267.098 605.75 267.652C595.232 268.143 584.704 268.238 574.17 267.952C563.657 267.629 553.124 266.992 542.671 265.823C532.219 264.655 521.836 262.798 511.444 261.023C501.056 259.263 490.616 257.549 480.065 256.726C469.522 255.932 458.864 256.078 448.417 257.841C437.954 259.545 427.831 263.054 418.384 267.833C408.94 272.627 400.065 278.417 391.556 284.682C374.524 297.216 359.016 311.574 342.756 324.97C334.635 331.673 326.187 337.986 317.793 344.38C309.386 350.729 300.911 357.001 292.333 363.126C275.173 375.359 257.539 386.955 239.16 397.252C229.968 402.393 220.626 407.271 211.01 411.602L203.827 414.913L196.594 418.095C191.793 420.258 186.919 422.265 182.053 424.303C162.587 432.388 142.818 439.757 122.804 446.331C82.7658 459.499 41.7839 469.858 0.245479 477.13C41.8009 469.981 82.8337 459.752 122.934 446.695C142.993 440.173 162.778 432.863 182.289 424.829C187.159 422.807 192.034 420.799 196.857 418.662L204.11 415.491L211.296 412.194C220.92 407.894 230.311 403.019 239.525 397.903C257.957 387.624 275.621 376.021 292.815 363.794C301.412 357.68 309.901 351.404 318.326 345.066C326.725 338.686 335.192 332.385 343.338 325.659C359.647 312.266 375.159 297.923 392.144 285.449C400.616 279.226 409.465 273.459 418.843 268.715C428.213 264.004 438.247 260.518 448.61 258.857C458.968 257.118 469.532 256.981 480.012 257.776C490.504 258.615 500.895 260.327 511.287 262.101C521.679 263.876 532.066 265.748 542.571 266.934C553.076 268.12 563.613 268.772 574.16 269.103C584.713 269.399 595.275 269.311 605.83 268.842C616.365 268.299 626.916 267.576 637.367 266.067L653.055 263.904C658.271 263.112 663.441 262.03 668.64 261.115C673.789 259.958 678.955 258.861 684.085 257.63L691.741 255.61C694.3 254.941 696.847 254.29 699.366 253.472C719.613 247.472 739.364 239.678 758.007 229.709C760.389 228.56 762.609 227.104 764.903 225.804C767.185 224.459 769.483 223.174 771.734 221.774L778.366 217.415L781.682 215.235C782.765 214.466 783.807 213.661 784.871 212.882L791.224 208.135C793.322 206.52 795.28 204.736 797.329 203.056C801.472 199.746 805.166 195.95 808.99 192.279L810.417 190.893L811.738 189.407L814.384 186.45L817.03 183.493L818.351 182.008L819.57 180.438L824.407 174.136L825.622 172.551C826.001 172.003 826.346 171.448 826.705 170.89L828.867 167.553C831.824 163.142 834.464 158.561 836.969 153.888C838.238 151.555 839.478 149.231 840.657 146.858C841.873 144.508 843.018 142.129 844.164 139.749C853.329 120.667 860.777 100.881 869.117 81.5093C871.193 76.6647 873.341 71.8489 875.564 67.0766C877.802 62.3003 880.082 57.5607 882.663 52.9954C887.802 43.839 893.913 35.2193 900.91 27.4142C904.447 23.5652 908.334 20.0689 912.582 17.0335C916.888 14.0943 921.446 11.502 926.264 9.46184C935.907 5.41137 946.264 3.1941 956.722 2.48028C959.329 2.22819 961.958 2.2409 964.575 2.14551C967.198 2.19193 969.816 2.15999 972.441 2.33336C977.689 2.55316 982.914 3.16175 988.109 3.95386C998.546 5.30197 1008.8 7.7511 1018.93 10.5197C1023.97 12.0389 1029.03 13.4906 1033.97 15.3065C1038.97 16.9645 1043.85 18.9232 1048.76 20.8293C1058.5 24.8181 1068.14 29.0886 1077.59 33.762C1096.56 42.947 1115 53.2463 1133.76 62.9502C1152.47 72.7294 1171.68 81.5632 1191.2 89.626C1230.26 105.688 1270.67 118.468 1311.92 127.469C1353.16 136.537 1395.05 142.274 1437.04 146.262C1458.05 148.191 1479.06 150.1 1500.1 151.509C1510.62 152.326 1521.16 152.817 1531.68 153.458L1547.47 154.135C1552.74 154.365 1558.01 154.596 1563.28 154.666L1579.09 155.003C1584.37 155.088 1589.64 155.031 1594.91 155.052C1605.47 155.174 1616 154.742 1626.54 154.517C1647.61 153.605 1668.69 152.358 1689.61 149.638C1731.44 144.789 1772.83 135.102 1812.16 119.907Z" fill="#65BFFF"/>
</svg>
