<svg width="816" height="313" viewBox="0 0 816 313" fill="none" xmlns="http://www.w3.org/2000/svg">
<path d="M1561.18 -102.319C1490.14 -93.3977 1418.15 -99.7301 1347.13 -89.7556C1338.29 -88.4479 1329.46 -86.9899 1320.72 -85.0392L1317.43 -84.3402L1314.17 -83.55L1307.65 -81.9566C1303.34 -80.7597 1299.01 -79.6409 1294.75 -78.2484C1277.61 -73.0695 1261.14 -65.7642 1245.51 -57.1045C1214.04 -40.0667 1184.06 -20.4807 1152.79 -3.18743C1121.61 14.2483 1088.55 28.2618 1054.42 38.8038C1020.31 49.398 985.09 56.2494 949.551 59.8625C931.786 61.6608 913.95 62.7795 896.089 63.1784C878.229 63.633 860.361 63.3775 842.504 62.8534C824.649 62.2867 806.779 61.4028 789.003 59.879C771.225 58.244 753.579 55.386 736.008 52.1306C700.867 45.6199 666.165 36.8959 631.241 29.1117C596.358 21.2744 561.197 14.224 525.574 10.4968C507.773 8.67234 489.885 7.66761 471.976 7.73025L468.616 7.73648L465.267 7.83749L458.563 8.06903C454.087 8.2344 449.617 8.31459 445.151 8.67291C436.225 9.3044 427.321 10.2792 418.472 11.6164C400.771 14.2777 383.274 18.3792 366.312 24.1116C349.367 29.8536 332.943 37.4396 318.163 47.6171C310.798 52.7201 303.872 58.4738 297.561 64.8589C294.432 68.0723 291.457 71.4402 288.693 74.9749C285.946 78.5191 283.301 82.1337 280.67 85.7447C270.157 100.241 260.277 115.169 250.373 130.061C230.554 159.807 210.372 189.496 186.357 216.021C162.606 242.754 133.943 264.95 102.611 282.077L99.6835 283.7L96.6988 285.212L90.7129 288.227C86.7063 290.195 82.6012 291.951 78.5442 293.835C74.3983 295.491 70.2767 297.238 66.0899 298.793L59.7669 301.018L56.6053 302.13L53.4054 303.099C36.3438 308.356 18.635 311.718 0.74308 312.209C18.6231 311.777 36.3588 308.463 53.4473 303.256L56.6638 302.296L59.8287 301.197L66.1587 298.998C70.3492 297.456 74.4742 295.722 78.6366 294.076C82.7006 292.218 86.8188 290.458 90.8288 288.503L96.8312 285.498L99.8323 283.995L102.776 282.382C134.198 265.329 162.973 243.187 186.855 216.474C210.952 189.941 231.17 160.228 251.021 130.502C260.942 115.62 270.842 100.714 281.348 86.2474C283.983 82.6494 286.641 79.0314 289.369 75.5202C292.127 72.015 295.08 68.6671 298.19 65.4868C304.455 59.1417 311.353 53.4376 318.673 48.3745C333.376 38.2737 349.732 30.7477 366.616 25.0362C383.533 19.3437 400.971 15.2858 418.62 12.6384C427.443 11.3082 436.325 10.3534 445.225 9.72893C449.668 9.39062 454.138 9.31044 458.601 9.14854L465.292 8.9205L468.641 8.81949L471.992 8.82974C489.849 8.78106 507.698 9.79628 525.463 11.6442C561.012 15.4053 596.107 22.4732 630.971 30.3435C665.85 38.1678 700.563 46.9309 735.754 53.4702C753.35 56.7186 771.031 59.5532 788.878 61.1838C806.719 62.6901 824.582 63.548 842.459 64.0947C860.339 64.5987 878.231 64.8342 896.113 64.3596C913.996 63.9407 931.868 62.7985 949.668 60.9767C985.253 57.3236 1020.55 50.4217 1054.72 39.771C1088.89 29.1759 1122.01 15.1058 1153.23 -2.39597C1184.51 -19.7483 1214.47 -39.3569 1245.88 -56.4069C1261.49 -65.0761 1277.87 -72.357 1294.97 -77.5515C1299.21 -78.9405 1303.53 -80.0558 1307.82 -81.2623L1314.33 -82.8653L1317.58 -83.6519L1320.85 -84.3474C1329.56 -86.3042 1338.38 -87.7457 1347.21 -89.0924C1418.1 -99.2842 1490.17 -93.1822 1561.18 -102.319Z" fill="#65BFFF"/>
</svg>
