<svg width="597" height="452" viewBox="0 0 597 452" fill="none" xmlns="http://www.w3.org/2000/svg">
<path d="M1787.04 0.0817955C1747.55 6.91711 1707.47 9.17589 1667.46 10.7612C1627.46 12.3613 1587.37 13.2345 1547.49 17.1782C1507.68 21.1019 1467.84 28.3987 1430.52 43.2765C1393.22 57.956 1357.19 75.5651 1320.12 90.648C1301.58 98.1652 1282.75 104.996 1263.55 110.605C1244.35 116.258 1224.87 120.904 1205.22 124.593C1185.55 128.252 1165.71 131.017 1145.78 132.69C1125.85 134.333 1105.84 135.025 1085.82 135.127C1065.8 135.263 1045.79 134.823 1025.78 134.286L995.749 133.421C985.732 133.108 975.718 132.922 965.692 132.931C945.651 132.928 925.599 133.598 905.626 135.156C895.669 135.895 885.661 136.09 875.662 136.139C865.659 136.173 855.638 136.26 845.637 136.182C825.627 136.06 805.603 135.527 785.606 134.795C765.593 134.068 745.595 133.274 725.596 132.24C685.606 130.202 645.583 127.982 605.492 127.884C585.454 127.833 565.407 128.167 545.413 129.348C525.399 130.279 505.43 132.266 485.591 135.159C465.765 138.096 446.067 141.987 426.733 147.296C407.421 152.629 388.503 160.026 371.57 170.908C367.376 173.673 363.271 176.591 359.357 179.744C355.461 182.908 351.741 186.312 348.215 189.903C341.268 197.184 334.884 204.905 328.565 212.688C315.991 228.315 304.214 244.543 292.192 260.565C268.033 292.481 243.054 324.01 214.063 351.673C199.658 365.576 183.949 378.058 167.46 389.411C150.967 400.749 133.671 410.931 115.706 419.746C97.7103 428.505 79.0538 435.927 59.8328 441.54C40.6228 447.134 20.8443 450.903 0.829872 452.009C20.8454 450.966 40.6547 447.253 59.8806 441.718C79.1364 436.176 97.8385 428.806 115.861 420.087C133.872 411.324 151.224 401.174 167.778 389.884C184.312 378.583 200.103 366.11 214.58 352.236C229.12 338.424 242.655 323.591 255.562 308.256C268.447 292.896 280.843 277.14 292.899 261.125C304.955 245.109 316.736 228.897 329.303 213.303C335.611 205.539 342.024 197.811 348.913 190.609C352.414 187.04 356.097 183.678 359.982 180.533C363.871 177.403 367.954 174.523 372.122 171.78C388.952 160.99 407.774 153.651 427.016 148.352C446.295 143.074 465.971 139.221 485.757 136.31C505.554 133.445 525.483 131.484 545.471 130.576C565.455 129.414 585.48 129.118 605.488 129.177C645.527 129.32 685.518 131.597 725.516 133.664C745.523 134.728 765.54 135.533 785.546 136.294C805.562 137.036 825.598 137.614 845.622 137.732C855.653 137.802 865.655 137.705 875.673 137.666C885.698 137.595 895.721 137.396 905.737 136.641C925.692 135.072 945.691 134.384 965.709 134.361C975.716 134.341 985.712 134.517 995.728 134.83L1025.76 135.661C1045.78 136.164 1065.82 136.581 1085.85 136.426C1105.89 136.302 1125.93 135.587 1145.91 133.932C1165.89 132.228 1185.76 129.455 1205.45 125.758C1225.15 122.042 1244.65 117.359 1263.88 111.679C1283.11 106.047 1301.98 99.1745 1320.54 91.6345C1357.65 76.495 1393.65 58.8452 1430.89 44.1479C1468.1 29.2682 1507.84 21.9507 1547.62 17.9715C1587.46 13.9129 1627.54 12.8978 1667.54 11.1856C1707.49 9.4258 1747.56 7.04008 1787.04 0.0817955Z" fill="#65BFFF"/>
</svg>
