<svg width="832" height="442" viewBox="0 0 832 442" fill="none" xmlns="http://www.w3.org/2000/svg">
<path d="M1806.84 63.1701L1792.22 67.7583L1784.9 70.0375L1777.47 71.9637L1762.63 75.7973L1747.62 78.9577L1740.12 80.523L1732.56 81.7977L1717.44 84.3363L1702.23 86.3384L1694.64 87.3375L1687.01 88.0906L1671.75 89.5969L1656.46 90.6965L1648.81 91.2483C1646.25 91.4062 1643.7 91.5005 1641.16 91.6395L1625.85 92.3623C1605.42 93.0536 1584.98 93.4613 1564.52 93.3949C1523.63 93.4635 1482.74 92.4342 1441.84 92.4096C1400.96 92.4593 1360.02 92.1739 1319.29 88.662C1298.93 86.9433 1278.63 84.3309 1258.51 80.7484C1238.38 77.1659 1218.44 72.643 1198.71 67.2799C1188.86 64.5964 1179.04 61.7106 1169.31 58.5955C1164.44 57.0474 1159.59 55.4279 1154.75 53.7935C1149.94 52.0688 1145.1 50.4007 1140.33 48.5857C1121.17 41.428 1102.29 33.5263 1083.14 26.3051C1063.98 19.084 1044.55 12.4463 1024.6 7.733C1019.64 6.44781 1014.59 5.53757 1009.58 4.48845C1007.07 3.98075 1004.52 3.62681 1002.01 3.20143C999.481 2.8098 996.963 2.32094 994.411 2.0642C989.328 1.44955 984.247 0.786284 979.109 0.441434C973.991 0.17095 968.854 -0.0469464 963.718 0.149726C961.141 0.154833 958.583 0.409852 956.022 0.537926C953.472 0.822697 950.905 0.984518 948.361 1.41111C943.27 2.07387 938.22 3.18783 933.264 4.53182C928.296 5.89467 923.472 7.7295 918.767 9.83497C914.097 12.0108 909.625 14.6279 905.401 17.577C901.224 20.6411 897.335 23.9469 893.465 27.3271C889.614 30.7182 885.859 34.2273 882.278 37.9127C878.693 41.5833 875.276 45.464 872.104 49.4863C868.871 53.461 865.782 57.5566 862.693 61.6523C850.447 78.0853 839.136 95.1602 826.359 111.098C823.137 115.054 819.896 118.999 816.485 122.782C815.624 123.73 814.802 124.7 813.919 125.622L811.243 128.347C809.431 130.14 807.744 132.043 805.841 133.732L800.132 138.801L798.702 140.061L797.201 141.228L794.186 143.582C790.247 146.822 785.961 149.596 781.788 152.5C764.729 163.686 746.151 172.41 727.084 179.608C707.976 186.768 688.214 192.143 668.25 196.409C628.267 204.795 587.354 208.52 546.507 208.513C536.287 208.509 526.075 208.297 515.882 207.68C505.688 207.064 495.501 206.111 485.28 205.454C475.064 204.812 464.797 204.455 454.566 205.124C444.343 205.823 434.139 207.6 424.392 210.85C414.607 214.014 405.41 218.837 396.914 224.557C388.346 230.184 380.303 236.58 372.521 243.24C356.961 256.576 342.537 271.121 327.307 284.735C296.476 311.536 264.94 337.84 230.174 359.398L223.63 363.368L217.004 367.216C212.568 369.727 208.024 372.077 203.507 374.467C194.446 379.206 185.261 383.66 176 388.006C157.453 396.611 138.507 404.318 119.263 411.211C80.7641 424.955 41.0402 435.375 0.596319 441.446C41.0572 435.498 80.8426 425.189 119.389 411.56C138.663 404.722 157.655 397.067 176.233 388.518C185.506 384.216 194.724 379.769 203.808 375.056C208.344 372.677 212.891 370.342 217.347 367.841L223.991 364.004L230.57 360.042C248.002 349.297 264.617 337.289 280.723 324.684C296.817 312.034 312.488 298.876 327.9 285.405C343.175 271.779 357.618 257.245 373.145 243.966C380.901 237.328 388.923 230.97 397.454 225.385C405.914 219.707 415.015 214.94 424.704 211.834C434.365 208.624 444.47 206.889 454.629 206.191C464.801 205.538 475.023 205.907 485.21 206.557C495.4 207.222 505.592 208.19 515.804 208.817C526.02 209.459 536.266 209.679 546.49 209.697C587.412 209.748 628.397 206.051 668.499 197.697C688.516 193.449 708.341 188.073 727.528 180.908C746.688 173.701 765.374 164.964 782.544 153.716C786.761 150.801 791.073 148.003 795.057 144.752L798.101 142.39L799.613 141.204L801.054 139.925L806.818 134.825C808.736 133.132 810.464 131.202 812.286 129.391L814.988 126.642C815.867 125.705 816.705 124.732 817.565 123.784C821.002 119.978 824.268 116.01 827.505 112.05C840.349 96.0627 851.704 78.9758 863.918 62.5994C866.977 58.5117 870.07 54.431 873.277 50.4791C876.438 46.4756 879.789 42.6446 883.348 38.9968C886.889 35.3382 890.619 31.852 894.443 28.4837C898.273 25.1303 902.188 21.8016 906.258 18.814C910.416 15.9145 914.788 13.3402 919.387 11.1992C924.007 9.13243 928.753 7.30264 933.661 5.9557C938.558 4.62763 943.526 3.50378 948.572 2.85296C951.087 2.43433 953.62 2.2656 956.151 1.96994C958.697 1.84584 961.221 1.58392 963.765 1.57189C968.849 1.35743 973.94 1.58726 979.025 1.85082C984.115 2.19274 989.172 2.83023 994.226 3.45284C996.763 3.71356 999.278 4.18754 1001.79 4.58317C1004.3 5.00854 1006.83 5.35159 1009.32 5.86326C1014.31 6.90148 1019.35 7.81571 1024.29 9.09001C1044.17 13.7746 1063.56 20.3757 1082.69 27.5562C1101.83 34.7664 1120.72 42.6493 1139.92 49.7801C1144.7 51.606 1149.55 53.2741 1154.37 54.9949C1159.22 56.6441 1164.07 58.2448 1168.96 59.7889C1178.72 62.8811 1188.54 65.7819 1198.42 68.4426C1218.19 73.7937 1238.17 78.3086 1258.33 81.8643C1278.5 85.4199 1298.82 88.0244 1319.2 89.7203C1359.99 93.2014 1400.96 93.4302 1441.85 93.3468C1482.73 93.3119 1523.64 94.3224 1564.55 94.1864C1585 94.1893 1605.45 93.7141 1625.88 92.9593L1641.21 92.1839C1643.77 92.041 1646.32 91.9466 1648.87 91.7739L1656.52 91.2072L1671.81 90.059L1687.07 88.5041L1694.69 87.7213L1702.3 86.7033L1717.49 84.6566L1732.61 82.0734L1740.17 80.7798L1747.67 79.1997L1762.67 75.9947L1777.5 72.1164L1784.92 70.1753L1792.23 67.8664L1806.84 63.1701Z" fill="#65BFFF"/>
</svg>
