<svg width="829" height="407" viewBox="0 0 829 407" fill="none" xmlns="http://www.w3.org/2000/svg">
<path d="M1801.16 7.43294L1786.65 11.3208L1779.4 13.2628L1772.06 14.8626L1757.38 18.0624L1742.59 20.6553L1735.2 21.9497L1727.76 22.9873L1712.88 25.0437L1697.96 26.6677C1692.98 27.2203 1688 27.758 1683.02 28.1201C1643.12 31.5748 1603.05 32.698 1563.02 33.7308C1543.01 34.2473 1522.98 34.8798 1502.96 35.6838L1487.96 36.4351L1480.46 36.8202L1472.97 37.3282L1457.98 38.3483L1443.01 39.7115C1403.15 43.6174 1363.38 48.6459 1323.39 50.7053C1303.4 51.7106 1283.38 52.0218 1263.38 51.1487C1243.38 50.3203 1223.43 48.5238 1203.58 45.8407C1183.76 43.1347 1164.01 39.6728 1144.52 35.1239C1125.03 30.5748 1105.75 25.141 1086.37 20.0038C1066.98 14.9002 1047.52 10.0071 1027.76 6.4709C1017.9 4.60163 1007.96 3.24914 997.991 2.0613C988.015 1.06788 977.992 0.134943 967.925 0.345607C962.897 0.353736 957.878 0.694131 952.861 1.09796C947.861 1.62478 942.87 2.2448 937.926 3.21886C932.996 4.18893 928.081 5.33057 923.293 6.88469C918.492 8.3942 913.759 10.1565 909.201 12.3343C904.617 14.4714 900.285 17.0189 895.922 19.4474C891.548 21.8948 887.177 24.357 882.869 26.9303C878.56 29.5036 874.317 32.2027 870.212 35.12C866.145 38.059 862.096 41.0089 858.105 44.055C842.125 56.1799 826.763 69.0639 810.537 80.7446C806.484 83.6797 802.374 86.5186 798.214 89.291C796.135 90.6773 793.989 91.9376 791.879 93.2684L788.697 95.2367L785.423 97.0385C776.758 102.007 767.638 106.108 758.443 109.991C739.927 117.519 720.797 123.473 701.356 128.204C681.919 132.95 662.255 136.673 642.456 139.651C602.86 145.558 562.898 148.677 522.904 150.483C512.896 150.917 502.896 151.317 492.902 151.444C482.901 151.605 472.872 151.662 462.858 152.129C452.839 152.582 442.822 153.513 432.949 155.457C423.101 157.378 413.39 160.283 404.269 164.56C395.136 168.793 386.699 174.433 378.899 180.731C371.044 186.997 363.603 193.741 356.397 200.709C341.989 214.661 328.488 229.501 314.238 243.569C285.504 271.419 255.996 298.758 223.019 321.526C218.913 324.38 214.73 327.127 210.521 329.833C206.311 332.539 201.956 334.997 197.666 337.581C193.368 340.136 188.959 342.513 184.608 344.986L171.361 352.043C153.547 361.184 135.281 369.41 116.615 376.675C79.3099 391.134 40.4076 401.829 0.634631 406.779C40.4247 401.952 79.3737 391.372 116.755 377.02C135.456 369.825 153.768 361.651 171.623 352.546L184.912 345.526C189.267 343.068 193.695 340.702 198.008 338.144C202.301 335.574 206.672 333.112 210.9 330.417C215.128 327.722 219.33 324.986 223.455 322.143C256.533 299.395 286.085 272.044 314.872 244.213C329.17 230.147 342.675 215.322 357.061 201.408C364.256 194.459 371.687 187.733 379.51 181.524C387.302 175.26 395.647 169.692 404.699 165.513C413.739 161.289 423.365 158.423 433.153 156.518C442.956 154.608 452.929 153.69 462.903 153.249C472.888 152.789 482.901 152.736 492.921 152.586C502.938 152.485 512.953 152.081 522.965 151.662C562.987 149.897 602.993 146.829 642.661 140.951C662.479 137.984 682.199 134.294 701.685 129.551C721.164 124.842 740.386 118.878 758.981 111.345C768.225 107.465 777.4 103.333 786.139 98.3451L789.443 96.5353L792.654 94.559C794.78 93.2243 796.951 91.9411 799.045 90.5509C803.22 87.7744 807.36 84.9276 811.427 81.9885C827.728 70.2879 843.124 57.4108 859.067 45.3277C863.043 42.2855 867.077 39.3396 871.129 36.4045C875.179 33.5181 879.392 30.8269 883.675 28.2764C887.954 25.7111 892.309 23.2529 896.684 20.8055C901.062 18.373 905.378 15.8295 909.863 13.7351C914.347 11.5773 919.02 9.83085 923.761 8.33726C928.491 6.79907 933.361 5.66936 938.242 4.69634C943.123 3.72334 948.08 3.0964 953.036 2.58152C958.004 2.17474 962.989 1.82745 967.968 1.81639C977.953 1.59589 987.924 2.51099 997.866 3.49752C1007.79 4.66356 1017.7 6.00911 1027.54 7.8526C1047.25 11.3561 1066.68 16.2235 1086.06 21.2973C1105.43 26.4048 1124.73 31.8198 1144.27 36.3717C1163.81 40.9237 1183.58 44.3626 1203.45 47.0567C1223.32 49.717 1243.31 51.4867 1263.34 52.3072C1283.36 53.1574 1303.43 52.8343 1323.45 51.7912C1363.49 49.6862 1403.26 44.6091 1443.09 40.6626L1458.04 39.2885L1473.02 38.2386L1480.51 37.7157L1488.01 37.3306L1503.01 36.5645C1523.02 35.7307 1543.03 35.0873 1563.05 34.5371C1603.09 33.3733 1643.15 32.1233 1683.05 28.5416C1688.04 28.1606 1693.02 27.608 1697.99 27.0406L1712.92 25.368L1727.8 23.263L1735.23 22.1956L1742.63 20.8823L1757.41 18.2448L1772.08 15.0005L1779.41 13.3709L1786.65 11.414L1801.16 7.43294Z" fill="#65BFFF"/>
</svg>
