<svg width="824" height="432" viewBox="0 0 824 432" fill="none" xmlns="http://www.w3.org/2000/svg">
<path d="M1792.11 0.81517L1777.51 3.70738L1770.21 5.15349L1762.86 6.29415L1748.14 8.57952L1733.36 10.3393L1725.97 11.2191L1718.56 11.8977L1703.74 13.2399L1688.89 14.2688C1683.94 14.623 1678.98 14.9624 1674.03 15.1896C1634.39 17.4411 1594.69 18.2446 1555.06 20.8917C1535.24 22.1072 1515.48 24.117 1495.78 26.7011C1485.98 28.2444 1476.12 29.5459 1466.4 31.6555L1459.1 33.1016L1455.45 33.8267C1454.22 34.0746 1453.04 34.4079 1451.83 34.7005L1437.37 38.3185C1399.05 48.7461 1361.35 61.3035 1322.92 71.2174C1303.73 76.217 1284.34 80.4878 1264.77 83.6598C1245.2 86.8467 1225.45 88.9647 1205.65 90.2059C1195.75 90.8171 1185.84 91.1933 1175.92 91.3493C1170.96 91.4347 1166.01 91.4378 1161.04 91.4152C1156.08 91.3102 1151.13 91.2647 1146.16 91.0328C1126.35 90.3172 1106.56 88.5405 1086.82 86.61C1067.07 84.6646 1047.31 82.5288 1027.53 80.8155C1017.63 79.944 1007.73 79.2035 997.81 78.6087C992.848 78.3281 987.897 78.0287 982.911 77.898C977.93 77.7821 972.965 77.7892 967.992 77.9421C948.092 78.5239 928.326 81.0941 908.732 84.3038C898.908 85.8363 889.163 87.8418 879.473 90.0556L850.452 96.6998C831.107 101.134 811.769 105.598 792.35 109.638C782.638 111.65 772.914 113.618 763.149 115.31C753.375 116.973 743.568 118.453 733.723 119.672C714.058 122.199 694.29 123.989 674.508 125.607C654.722 127.21 634.932 128.56 615.123 129.898C575.524 132.586 535.866 135.114 496.413 139.771C486.548 140.916 476.708 142.214 466.87 143.575C457.035 144.95 447.21 146.419 437.455 148.332C418.003 152.189 398.602 157.961 381.491 168.301C372.871 173.32 364.997 179.575 357.903 186.545C350.748 193.468 343.935 200.714 337.368 208.164C324.199 223.059 311.826 238.601 298.964 253.749C273.064 283.803 246.299 313.356 215.766 338.77C208.135 345.103 200.294 351.189 192.126 356.821C184.033 362.56 175.685 367.938 167.24 373.134C150.308 383.489 132.686 392.691 114.548 400.739C96.4051 408.773 77.7198 415.613 58.6053 420.91C39.4909 426.207 19.9216 429.984 0.128896 431.621C19.9187 430.032 39.5079 426.33 58.6532 421.088C77.7984 415.847 96.5145 409.062 114.703 401.08C132.872 393.087 150.555 383.933 167.528 373.615C175.992 368.43 184.378 363.074 192.493 357.361C200.7 351.75 208.573 345.671 216.238 339.345C246.868 313.937 273.679 284.372 299.626 254.32C312.507 239.184 324.9 223.652 338.065 208.806C344.636 201.371 351.439 194.144 358.575 187.274C365.648 180.341 373.449 174.17 382.002 169.2C398.999 158.971 418.271 153.249 437.653 149.426C447.382 147.537 457.192 146.072 467.016 144.715C476.84 143.358 486.683 142.075 496.533 140.935C535.954 136.334 575.59 133.843 615.201 131.2C635.014 129.877 654.809 128.542 674.617 126.965C694.407 125.376 714.194 123.598 733.897 121.092C743.761 119.884 753.586 118.415 763.375 116.748C773.174 115.063 782.898 113.095 792.628 111.094C812.086 107.076 831.427 102.627 850.777 98.207C870.166 93.9362 889.373 88.8057 908.948 85.7606C928.504 82.529 948.202 79.945 968.005 79.3574C972.949 79.2124 977.909 79.1904 982.857 79.2994C987.809 79.4232 992.756 79.7078 997.703 79.9923C1007.6 80.5762 1017.51 81.3019 1027.38 82.1625C1047.16 83.846 1066.89 85.9709 1086.67 87.8935C1106.43 89.7863 1126.23 91.5442 1146.09 92.2477C1151.06 92.4797 1156.03 92.5172 1160.99 92.6073C1165.96 92.63 1170.92 92.608 1175.9 92.5186C1185.83 92.3438 1195.76 91.9636 1205.68 91.3296C1225.51 90.0804 1245.28 87.9248 1264.89 84.711C1284.5 81.5122 1303.92 77.2185 1323.13 72.1812C1361.59 62.2108 1399.28 49.6088 1437.55 39.1485L1451.97 35.5235C1453.18 35.2309 1454.36 34.8977 1455.58 34.6348L1459.23 33.9138L1466.53 32.4677C1476.22 30.3472 1486.06 29.0497 1495.85 27.4954C1515.51 24.8896 1535.26 22.8649 1555.06 21.6088C1594.65 18.8277 1634.37 17.8933 1674.01 15.5298C1678.97 15.2837 1683.92 14.9146 1688.87 14.5604L1703.72 13.483L1718.55 12.0921L1725.95 11.3838L1733.33 10.4742L1748.11 8.66581L1762.82 6.33585L1770.17 5.1803L1777.46 3.71932L1792.11 0.81517Z" fill="#65BFFF"/>
</svg>
