<svg width="846" height="204" viewBox="0 0 846 204" fill="none" xmlns="http://www.w3.org/2000/svg">
<path d="M1590.39 -106.689L1577.35 -101.937C1575.17 -101.171 1573.01 -100.301 1570.81 -99.6137L1564.21 -97.5082L1557.6 -95.4028C1555.4 -94.7021 1553.2 -93.9719 1550.95 -93.3981L1537.56 -89.7408C1536.44 -89.4409 1535.33 -89.1149 1534.22 -88.8445L1530.84 -88.0655L1524.08 -86.5041C1519.57 -85.4773 1515.08 -84.3593 1510.52 -83.5706L1496.88 -80.9926C1492.32 -80.23 1487.74 -79.6047 1483.18 -78.8978L1476.31 -77.8682L1469.41 -77.0967L1455.62 -75.5929L1441.78 -74.5958C1439.47 -74.453 1437.17 -74.2121 1434.86 -74.1381L1427.92 -73.8994C1409.43 -73.0253 1390.92 -73.5419 1372.46 -74.547L1358.62 -75.5891L1355.16 -75.8495L1351.71 -76.2248L1344.82 -77.0048L1337.93 -77.7849L1334.49 -78.1767L1331.06 -78.6832L1317.35 -80.7352C1315.06 -81.0445 1312.78 -81.4686 1310.5 -81.9056L1303.69 -83.1811C1299.16 -84.0622 1294.58 -84.792 1290.08 -85.8765L1276.54 -88.9266C1274.27 -89.4097 1272.04 -89.9981 1269.79 -90.5568C1267.55 -91.1156 1265.31 -91.6874 1263.07 -92.2757C1227.25 -101.593 1192.1 -113.37 1156.74 -124.362C1121.4 -135.458 1085.8 -145.673 1050.5 -156.865C1032.87 -162.492 1015.31 -168.363 998.027 -174.965C980.761 -181.613 963.716 -188.893 946.245 -195.109C937.512 -198.232 928.642 -200.982 919.681 -203.345C910.713 -205.734 901.57 -207.42 892.37 -208.643C883.166 -209.879 873.858 -210.151 864.583 -210.041C859.931 -209.912 855.303 -209.482 850.698 -208.863C846.107 -208.136 841.53 -207.259 837.054 -205.948C828.122 -203.359 819.497 -199.469 811.933 -193.963C804.274 -188.6 798.014 -181.404 792.854 -173.693C787.678 -165.935 783.579 -157.544 779.845 -149.041C776.14 -140.532 772.636 -131.951 769.162 -123.364C762.229 -106.181 755.472 -88.9183 747.6 -72.1677C743.664 -63.7924 739.455 -55.5533 734.849 -47.5434C732.581 -43.5128 730.088 -39.6455 727.483 -35.8319C724.788 -32.0922 722.044 -28.381 719.031 -24.8913C713.082 -17.8347 706.492 -11.3468 699.375 -5.47213C692.278 0.425145 684.72 5.74736 676.766 10.4215C660.883 19.8185 643.595 26.7281 625.836 31.7241C608.05 36.6715 589.755 39.7714 571.349 41.3642C552.933 42.9736 534.412 43.1445 515.95 42.2376C506.717 41.7776 497.505 41.0325 488.318 39.9597C479.137 38.913 470.04 37.243 460.937 35.5469C451.837 33.8639 442.735 32.0696 433.53 30.9316C424.331 29.7641 415.027 29.1973 405.754 29.7821C396.479 30.3113 387.297 32.2267 378.468 35.0954C369.643 37.9772 361.164 41.8417 353.015 46.2604C336.692 55.1049 321.656 65.9936 306.319 76.334C298.674 81.5398 290.835 86.4346 282.962 91.3104C275.102 96.1826 267.276 101.13 259.369 105.931C243.556 115.533 227.528 124.801 211.036 133.174C194.578 141.621 177.486 148.744 160.315 155.622C143.121 162.464 125.727 168.773 108.159 174.585C73.0078 186.155 37.1632 195.606 0.910868 203.014C37.1912 195.71 73.0636 186.363 108.269 174.89C125.868 169.141 143.285 162.867 160.506 156.074C177.704 149.244 194.836 142.167 211.343 133.748C227.868 125.394 243.922 116.119 259.756 106.54C267.676 101.735 275.492 96.8047 283.365 91.9289C291.241 87.0662 299.107 82.1644 306.764 76.9551C322.118 66.6242 337.164 55.7747 353.43 46.9737C361.543 42.5784 369.989 38.7505 378.753 35.8992C387.521 33.061 396.615 31.183 405.821 30.6582C415.03 30.0908 424.277 30.6585 433.434 31.8235C442.6 32.9719 451.676 34.7732 460.78 36.4692C469.874 38.1819 479 39.8579 488.213 40.9238C497.418 42.0061 506.659 42.7572 515.908 43.2268C534.416 44.1493 552.984 43.994 571.445 42.4002C589.91 40.8195 608.264 37.7317 626.145 32.773C643.986 27.769 661.369 20.848 677.378 11.4032C685.397 6.71158 693.013 1.34587 700.159 -4.57836C707.321 -10.4931 713.982 -17.028 719.976 -24.1246C723.024 -27.6378 725.804 -31.3724 728.518 -35.1452C731.145 -38.9788 733.68 -42.8992 735.961 -46.9333C740.602 -54.9667 744.844 -63.2423 748.789 -71.6342C756.689 -88.4343 763.49 -105.694 770.426 -122.865C773.887 -131.448 777.391 -140.029 781.073 -148.518C784.775 -156.985 788.836 -165.31 793.938 -172.978C799.043 -180.632 805.14 -187.659 812.683 -192.935C820.101 -198.36 828.587 -202.198 837.402 -204.756C841.812 -206.049 846.334 -206.925 850.882 -207.655C855.444 -208.277 860.033 -208.696 864.64 -208.841C873.856 -208.963 883.092 -208.699 892.249 -207.479C901.39 -206.268 910.487 -204.598 919.422 -202.228C928.351 -199.884 937.188 -197.153 945.9 -194.053C963.331 -187.882 980.373 -180.615 997.678 -173.977C1015 -167.386 1032.59 -161.509 1050.23 -155.911C1085.54 -144.739 1121.16 -134.57 1156.5 -123.517C1191.87 -112.568 1227.02 -100.82 1262.89 -91.5298C1265.13 -90.9415 1267.38 -90.3697 1269.63 -89.8144C1271.87 -89.2556 1274.12 -88.6838 1276.39 -88.1877L1289.94 -85.1411C1294.45 -84.0435 1299.02 -83.3268 1303.56 -82.4492L1310.39 -81.1771C1312.67 -80.7401 1314.94 -80.3291 1317.25 -80.0103L1330.99 -77.9782L1334.42 -77.4717L1337.87 -77.0834L1344.77 -76.3199L1351.67 -75.5564L1355.12 -75.1811L1358.58 -74.9206L1372.43 -73.8951C1390.91 -72.9396 1409.45 -72.4725 1427.95 -73.4057L1434.89 -73.6705C1437.2 -73.7445 1439.5 -73.9855 1441.82 -74.1447L1455.67 -75.1879L1469.47 -76.7343L1476.37 -77.5223L1483.24 -78.5649C1487.8 -79.2849 1492.39 -79.9137 1496.95 -80.7023L1510.59 -83.323C1515.14 -84.1247 1519.64 -85.2592 1524.14 -86.299L1530.91 -87.8735L1534.28 -88.6655C1535.4 -88.9524 1536.52 -89.2784 1537.63 -89.5783L1551.01 -93.2748C1553.26 -93.8486 1555.45 -94.5883 1557.66 -95.2924L1564.26 -97.4109L1570.86 -99.5294C1573.08 -100.22 1575.21 -101.1 1577.39 -101.866L1590.39 -106.689Z" fill="#65BFFF"/>
</svg>
