<svg width="641" height="417" viewBox="0 0 641 417" fill="none" xmlns="http://www.w3.org/2000/svg">
<path d="M1802.1 17.7201C1763.54 27.8453 1724.48 36.2235 1684.95 41.5395C1665.2 44.3745 1645.35 46.2029 1625.46 47.5315C1615.5 48.0317 1605.56 48.6399 1595.58 48.6998L1588.1 48.8379L1584.37 48.9143L1580.63 48.8639L1565.67 48.662L1561.94 48.6116L1558.21 48.4302L1550.74 48.0714L1543.28 47.7126L1539.55 47.5313L1535.82 47.2229L1520.92 45.9707L1517.21 45.6436L1513.5 45.1855L1506.08 44.2732C1496.17 43.2153 1486.35 41.4461 1476.53 39.8377C1474.06 39.4787 1471.63 38.9511 1469.18 38.4424L1461.86 36.9122C1456.98 35.8758 1452.09 34.9407 1447.26 33.7317C1408.45 24.586 1370.19 12.8879 1330.77 6.20224C1311.08 2.85146 1291.15 0.938952 1271.19 0.341579C1251.22 -0.222074 1231.26 0.409375 1211.34 1.90263C1191.44 3.36215 1171.61 5.61604 1151.82 8.03352C1132.03 10.4808 1112.21 12.5889 1092.4 15.0738C1072.62 17.5845 1052.87 20.5504 1033.31 24.6111C1023.53 26.6097 1013.83 28.9692 1004.17 31.5261C994.529 34.0939 984.94 36.9819 975.578 40.4788C956.87 47.4685 938.876 56.7694 923.121 69.2005C921.145 70.7344 919.236 72.3457 917.314 73.9609C915.405 75.5721 913.455 77.1467 911.593 78.8095L900.551 88.9258L889.509 99.0422L878.523 109.191C863.827 122.662 848.838 135.812 833.088 148.019C825.218 154.113 817.161 159.986 808.89 165.534C800.642 171.108 792.141 176.271 783.301 180.824C765.643 189.955 746.84 196.89 727.494 201.5C708.145 206.159 688.26 208.283 668.375 209.1C648.475 209.92 628.526 209.431 608.607 208.695L578.708 207.604L563.76 207.066L556.284 206.789C553.795 206.707 551.304 206.737 548.797 206.707L518.864 206.502C508.898 206.494 498.93 206.599 488.937 206.79C469 207.238 448.959 208.542 429.427 212.931C409.854 217.172 391.206 224.862 373.597 234.235C355.936 243.591 339.182 254.488 322.468 265.359L272.183 297.787C255.423 308.607 238.576 319.274 221.405 329.391C204.247 339.552 186.657 348.936 168.84 357.886C151.015 366.807 132.901 375.184 114.478 382.767C77.6186 397.936 39.3452 409.849 0.0826798 416.942C39.3622 409.972 77.7011 398.184 114.633 383.108C133.097 375.562 151.246 367.255 169.113 358.371C186.961 349.476 204.611 340.14 221.811 330.015C239.02 319.921 255.882 309.249 272.649 298.459L322.966 266.087C339.702 255.242 356.435 244.382 374.059 235.068C391.635 225.752 410.198 218.1 429.675 213.917C449.108 209.571 469.089 208.282 488.985 207.861C498.948 207.678 508.916 207.573 518.887 207.596L548.779 207.828C551.271 207.862 553.762 207.832 556.251 207.914L563.727 208.191L578.679 208.743L608.571 209.868C628.498 210.634 648.466 211.134 668.437 210.342C688.379 209.558 708.346 207.444 727.807 202.787C747.265 198.179 766.176 191.231 783.934 182.057C792.833 177.489 801.405 172.291 809.682 166.709C817.983 161.153 826.073 155.287 833.969 149.17C849.779 136.947 864.831 123.796 879.538 110.306L890.516 100.127L901.528 90.019L912.541 79.9106C914.388 78.2518 916.342 76.6921 918.235 75.0848C920.144 73.4736 922.037 71.8663 924.003 70.3512C939.591 58.0125 957.436 48.7514 976.041 41.7895C985.358 38.3046 994.883 35.4176 1004.51 32.8389C1014.12 30.294 1023.8 27.9236 1033.56 25.9141C1053.07 21.8356 1072.77 18.8519 1092.55 16.3263C1112.31 13.8196 1132.15 11.6926 1151.94 9.21165C1171.73 6.7793 1191.54 4.49965 1211.41 3.0332C1231.28 1.51816 1251.21 0.864925 1271.13 1.41077C1291.04 1.99034 1310.92 3.88502 1330.55 7.19916C1369.9 13.8264 1408.16 25.4758 1447.01 34.5948C1451.85 35.7997 1456.76 36.7161 1461.65 37.7673L1468.98 39.2935C1471.43 39.8171 1473.86 40.3298 1476.32 40.6888C1486.18 42.2893 1496.01 44.0545 1505.94 45.1084C1525.74 47.7103 1545.69 48.868 1565.63 49.4397L1580.59 49.6078L1584.32 49.6433L1588.06 49.5669L1595.54 49.395C1605.51 49.3055 1615.48 48.6595 1625.44 48.1256C1645.35 46.7295 1665.22 44.8336 1684.94 41.9392C1724.51 36.4695 1763.56 27.9683 1802.1 17.7201Z" fill="#65BFFF"/>
</svg>
