<svg width="843" height="532" viewBox="0 0 843 532" fill="none" xmlns="http://www.w3.org/2000/svg">
<path d="M1821.69 208.772C1801.26 218.136 1780.2 226.061 1758.64 232.41C1753.23 233.907 1747.78 235.241 1742.34 236.667C1739.6 237.336 1736.92 238.15 1734.16 238.699L1725.91 240.4L1717.65 242.101L1713.54 242.949C1712.16 243.207 1710.76 243.391 1709.39 243.615L1692.74 246.242C1648.23 252.272 1603.01 252.766 1558.31 248.308L1549.92 247.527C1547.14 247.237 1544.35 246.82 1541.57 246.481L1524.86 244.31L1508.24 241.558C1505.47 241.089 1502.69 240.686 1499.94 240.149L1491.67 238.489C1486.18 237.347 1480.65 236.358 1475.17 235.101L1458.77 231.236C1447.83 228.668 1437 225.672 1426.21 222.57C1383.06 209.997 1340.88 194.165 1299.79 175.955C1258.7 157.746 1218.68 137.016 1180.5 113.275C1161.38 101.438 1142.9 88.648 1124.83 75.2353C1115.79 68.5572 1106.76 61.8414 1097.64 55.2467C1088.48 48.6937 1079.23 42.2766 1069.71 36.2525C1050.65 24.3015 1030.48 13.717 1008.8 7.34797L1004.76 6.11854C1003.41 5.71501 1002.02 5.45034 1000.65 5.11428L992.405 3.19607L984.046 1.88096C982.655 1.6798 981.263 1.41515 979.865 1.2477L975.647 0.831678C970.026 0.408871 964.353 0.207284 958.71 0.651302C955.888 0.753815 953.084 1.21829 950.273 1.54095C947.488 2.07983 944.687 2.49571 941.974 3.30229C939.214 3.9304 936.557 4.94521 933.868 5.84102C931.277 6.98174 928.601 7.98565 926.149 9.40791C923.585 10.6527 921.271 12.2931 918.88 13.8263C916.665 15.5995 914.313 17.218 912.327 19.2489C911.322 20.2514 910.207 21.14 909.293 22.2456L906.472 25.4404C905.513 26.4945 904.773 27.713 903.898 28.8404C903.059 29.9896 902.184 31.117 901.496 32.3533C898.434 37.1431 895.918 42.2489 893.827 47.512C889.628 58.0422 887.073 69.1205 884.992 80.1836C882.948 91.2684 881.17 102.394 879.556 113.539C876.294 135.822 873.526 158.164 869.471 180.277C867.434 191.328 865.079 202.321 862.191 213.169C859.304 224.018 855.971 234.747 851.267 244.934C842.013 265.348 828.807 283.903 812.769 299.55C796.802 315.29 778.135 328.135 758.179 338.313C738.158 348.364 716.82 355.819 694.89 360.468C672.979 365.191 650.478 367.235 628.062 366.626C616.856 366.329 605.656 365.344 594.569 363.708C583.46 362.109 572.497 359.691 561.741 356.499C550.979 353.341 540.345 349.655 529.569 346.389C518.808 343.119 507.881 340.18 496.678 338.766C485.497 337.315 474.076 337.346 462.971 339.445C451.861 341.465 441.138 345.231 430.952 350.049C410.544 359.726 392.369 373.22 374.019 386.123C355.827 399.319 336.26 410.412 317.142 422.23C297.839 433.715 278.203 444.668 257.932 454.324C247.795 459.144 237.511 463.654 227.036 467.688C221.804 469.727 216.51 471.592 211.243 473.561L195.36 479.156C174.106 486.446 152.65 493.103 131.043 499.259C87.839 511.601 44.0659 521.879 0.184668 531.517C44.1018 522.013 87.8879 511.843 131.143 499.631C152.761 493.52 174.252 486.932 195.538 479.699L211.447 474.144C216.718 472.19 222.016 470.34 227.266 468.312C237.765 464.303 248.087 459.816 258.261 455.017C278.588 445.394 298.251 434.418 317.576 422.959C336.684 411.16 356.299 400.069 374.539 386.877C392.908 373.984 411.066 360.542 431.367 350.942C441.483 346.159 452.139 342.443 463.145 340.45C474.146 338.379 485.455 338.346 496.543 339.807C507.648 341.215 518.527 344.15 529.258 347.428C540.004 350.702 550.623 354.393 561.424 357.572C572.218 360.786 583.252 363.233 594.395 364.839C605.534 366.493 616.767 367.484 628.026 367.799C650.528 368.433 673.116 366.414 695.134 361.678C717.162 357.035 738.607 349.567 758.747 339.484C778.826 329.289 797.619 316.379 813.703 300.543C829.864 284.815 843.19 266.116 852.546 245.548C857.279 235.289 860.677 224.447 863.571 213.565C866.476 202.664 868.857 191.648 870.901 180.563C874.988 158.394 877.786 136.044 881.052 113.775C882.67 102.645 884.418 91.528 886.455 80.4769C888.53 69.4476 891.05 58.4745 895.186 48.0722C897.249 42.8806 899.722 37.8502 902.715 33.1586C903.387 31.9262 904.26 30.8475 905.069 29.7062C905.919 28.6017 906.652 27.4169 907.585 26.3857L910.344 23.2553C911.232 22.1726 912.321 21.3068 913.3 20.3271C915.246 18.3231 917.543 16.7354 919.706 15.0079C922.041 13.5054 924.315 11.8918 926.823 10.6778C929.235 9.28236 931.836 8.29837 934.387 7.18447C937.031 6.30058 939.629 5.30168 942.345 4.68551C945.017 3.90575 947.785 3.48295 950.506 2.94513C953.268 2.61954 956.024 2.15212 958.816 2.05756C964.381 1.61856 969.986 1.80631 975.54 2.21529L979.706 2.61351C981.099 2.76608 982.477 3.03471 983.849 3.22498L992.14 4.52626L1000.32 6.41578C1001.68 6.75185 1003.06 7.0056 1004.41 7.40912L1008.42 8.62767C1029.96 14.9245 1050.03 25.4396 1069.04 37.3242C1078.53 43.3265 1087.77 49.7287 1096.92 56.252C1106.04 62.8318 1115.08 69.5287 1124.12 76.2068C1142.2 89.6156 1160.75 102.419 1179.91 114.249C1218.16 137.984 1258.24 158.698 1299.39 176.892C1340.54 195.071 1382.76 210.89 1425.97 223.429C1436.78 226.527 1447.63 229.519 1458.58 232.083L1475.01 235.94C1480.48 237.183 1486.02 238.186 1491.53 239.324L1499.81 240.98C1502.56 241.517 1505.36 241.916 1508.13 242.386L1524.78 245.114L1541.51 247.262C1544.29 247.601 1547.09 248.014 1549.87 248.305L1558.28 249.066C1603.04 253.412 1648.29 252.797 1692.83 246.633L1709.48 243.957C1710.86 243.729 1712.26 243.531 1713.64 243.273L1717.74 242.428L1725.99 240.698L1734.23 238.967C1736.98 238.406 1739.67 237.589 1742.4 236.905C1747.82 235.468 1753.28 234.101 1758.69 232.589C1780.25 226.191 1801.29 218.191 1821.69 208.772Z" fill="#65BFFF"/>
</svg>
