<svg width="600" height="432" viewBox="0 0 600 432" fill="none" xmlns="http://www.w3.org/2000/svg">
<path d="M1792.74 0.81517L1778.14 3.70738L1770.84 5.15349L1763.49 6.29415L1748.77 8.57952L1734 10.3393L1726.61 11.2191L1719.2 11.8977L1704.37 13.2399L1689.52 14.2688C1684.57 14.623 1679.62 14.9624 1674.67 15.1896C1635.03 17.4411 1595.32 18.2446 1555.7 20.8917C1535.87 22.1072 1516.11 24.117 1496.42 26.7011C1486.61 28.2444 1476.76 29.5459 1467.04 31.6555L1459.74 33.1016L1456.08 33.8267C1454.86 34.0746 1453.67 34.4079 1452.46 34.7005L1438.01 38.3185C1399.69 48.7461 1361.98 61.3035 1323.56 71.2174C1304.36 76.217 1284.97 80.4878 1265.4 83.6598C1245.83 86.8467 1226.09 88.9647 1206.28 90.2059C1196.39 90.8171 1186.48 91.1933 1176.55 91.3493C1171.6 91.4347 1166.65 91.4378 1161.67 91.4152C1156.71 91.3102 1151.76 91.2647 1146.8 91.0328C1126.98 90.3172 1107.2 88.5405 1087.45 86.61C1067.7 84.6646 1047.95 82.5288 1028.17 80.8155C1018.27 79.944 1008.36 79.2035 998.444 78.6087C993.482 78.3281 988.531 78.0287 983.546 77.898C978.565 77.7821 973.6 77.7892 968.627 77.9421C948.727 78.5239 928.961 81.0941 909.367 84.3038C899.543 85.8363 889.797 87.8418 880.108 90.0556L851.087 96.6998C831.742 101.134 812.404 105.598 792.984 109.638C783.273 111.65 773.549 113.618 763.783 115.31C754.01 116.973 744.203 118.453 734.358 119.672C714.693 122.199 694.925 123.989 675.143 125.607C655.357 127.21 635.567 128.56 615.758 129.898C576.159 132.586 536.501 135.114 497.047 139.771C487.183 140.916 477.343 142.214 467.504 143.575C457.67 144.95 447.844 146.419 438.09 148.332C418.637 152.189 399.236 157.961 382.126 168.301C373.506 173.32 365.632 179.575 358.538 186.545C351.383 193.468 344.57 200.714 338.003 208.164C324.834 223.059 312.46 238.601 299.598 253.749C273.699 283.803 246.934 313.356 216.4 338.77C208.769 345.103 200.929 351.189 192.76 356.821C184.668 362.56 176.319 367.938 167.875 373.134C150.943 383.489 133.321 392.691 115.182 400.739C97.0399 408.773 78.3545 415.613 59.2401 420.91C40.1257 426.207 20.5564 429.984 0.763662 431.621C20.5535 430.032 40.1427 426.33 59.2879 421.088C78.4332 415.847 97.1493 409.062 115.337 401.08C133.507 393.087 151.19 383.933 168.163 373.615C176.626 368.43 185.013 363.074 193.128 357.361C201.334 351.75 209.208 345.671 216.873 339.345C247.503 313.937 274.313 284.372 300.261 254.32C313.142 239.184 325.534 223.652 338.7 208.806C345.271 201.371 352.073 194.144 359.21 187.274C366.282 180.341 374.084 174.17 382.637 169.2C399.634 158.971 418.905 153.249 438.288 149.426C448.016 147.537 457.827 146.072 467.651 144.715C477.474 143.358 487.318 142.075 497.168 140.935C536.589 136.334 576.225 133.843 615.836 131.2C635.649 129.877 655.443 128.542 675.252 126.965C695.042 125.376 714.828 123.598 734.532 121.092C744.395 119.884 754.221 118.415 764.009 116.748C773.809 115.063 783.533 113.095 793.263 111.094C812.72 107.076 832.062 102.627 851.411 98.207C870.801 93.9362 890.008 88.8057 909.582 85.7606C929.139 82.529 948.837 79.945 968.64 79.3574C973.584 79.2124 978.544 79.1904 983.492 79.2994C988.444 79.4232 993.391 79.7078 998.338 79.9923C1008.24 80.5762 1018.14 81.3019 1028.02 82.1625C1047.79 83.846 1067.53 85.9709 1087.3 87.8935C1107.07 89.7863 1126.86 91.5442 1146.73 92.2477C1151.69 92.4797 1156.67 92.5172 1161.63 92.6073C1166.6 92.63 1171.56 92.608 1176.53 92.5186C1186.47 92.3438 1196.39 91.9636 1206.32 91.3296C1226.15 90.0804 1245.91 87.9248 1265.52 84.711C1285.14 81.5122 1304.55 77.2185 1323.77 72.1812C1362.23 62.2108 1399.92 49.6088 1438.18 39.1485L1452.6 35.5235C1453.81 35.2309 1455 34.8977 1456.22 34.6348L1459.86 33.9138L1467.16 32.4677C1476.86 30.3472 1486.7 29.0497 1496.49 27.4954C1516.15 24.8896 1535.9 22.8649 1555.7 21.6088C1595.29 18.8277 1635.01 17.8933 1674.65 15.5298C1679.61 15.2837 1684.56 14.9146 1689.51 14.5604L1704.36 13.483L1719.19 12.0921L1726.59 11.3838L1733.97 10.4742L1748.75 8.66581L1763.45 6.33585L1770.8 5.1803L1778.1 3.71932L1792.74 0.81517Z" fill="#65BFFF"/>
</svg>
