<svg width="873" height="434" viewBox="0 0 873 434" fill="none" xmlns="http://www.w3.org/2000/svg">
<path d="M1796.79 10.9009C1757.99 18.8266 1719.04 26.1088 1679.76 31.1478C1660.15 33.7903 1640.42 35.6801 1620.68 37.0959L1605.86 37.9749C1600.91 38.2954 1595.97 38.3283 1591.02 38.5218C1581.13 38.9575 1571.24 38.803 1561.34 38.8241C1556.4 38.7935 1551.45 38.5238 1546.5 38.4C1541.56 38.2424 1536.61 38.1186 1531.67 37.7032L1516.86 36.6661C1511.93 36.217 1507.03 35.6032 1502.1 35.0905L1494.72 34.2784C1492.27 33.9452 1489.82 33.5337 1487.38 33.1668L1472.71 30.9137L1458.16 28.005C1455.73 27.5071 1453.31 27.0579 1450.89 26.5263L1443.64 24.8641C1424.35 20.3566 1405.17 15.4067 1385.82 11.1055C1366.47 6.83803 1346.92 3.27589 1327.13 1.65981L1319.71 1.17702C1317.24 1.0422 1314.75 1.00855 1312.28 0.922339C1307.32 0.671548 1302.36 0.854194 1297.4 0.876155C1287.49 1.2186 1277.58 1.81889 1267.73 3.10148C1248.02 5.40187 1228.6 9.66576 1209.47 14.7764C1190.36 20.0397 1171.52 26.2509 1152.89 32.9966C1134.26 39.7273 1115.71 46.6733 1097.26 53.8492C1060.34 68.205 1023.79 83.5146 987.781 100.081C969.828 108.463 952.169 117.53 935.084 127.608C918.075 137.793 901.326 148.354 884.255 158.365C850.072 178.237 814.303 195.696 776.52 207.478C757.646 213.316 738.235 217.449 718.602 219.681C708.789 220.78 698.923 221.447 689.041 221.576C679.159 221.705 669.276 221.356 659.4 220.734C619.926 218.128 580.787 210.889 541.117 209.451C521.291 208.706 501.436 209.578 481.726 211.703C462.013 213.813 442.423 217.276 423.332 222.663C404.222 227.975 385.73 235.416 368.009 244.309C350.265 253.177 333.233 263.336 316.447 273.875C308.055 279.153 299.729 284.492 291.418 289.892L266.577 306.192C250.073 317.134 233.604 328.147 216.936 338.83C183.61 360.178 149.313 380.16 113.39 396.864C77.5379 413.596 39.7138 426.473 0.6287 433.04C39.7308 426.596 77.6166 413.83 113.545 397.205C149.53 380.612 183.918 360.733 217.331 339.473C234.041 328.827 250.51 317.814 267.021 306.902L291.871 290.631C300.167 285.236 308.531 279.918 316.907 274.645C333.687 264.139 350.712 254.013 368.415 245.173C386.1 236.322 404.526 228.929 423.581 223.648C442.62 218.308 462.15 214.86 481.823 212.777C501.488 210.664 521.287 209.822 541.054 210.583C580.624 212.064 619.723 219.33 659.306 221.987C669.205 222.635 679.122 222.99 689.037 222.868C698.968 222.742 708.871 222.097 718.729 220.986C738.444 218.764 757.952 214.637 776.904 208.793C814.829 197.005 850.724 179.544 884.986 159.667C902.064 149.623 918.835 139.024 935.78 128.84C952.802 118.764 970.416 109.708 988.321 101.324C1024.26 84.7431 1060.79 69.3928 1097.67 55.0152C1116.11 47.8244 1134.64 40.8527 1153.25 34.111C1171.85 27.3585 1190.65 21.1254 1209.71 15.8592C1228.8 10.7268 1248.16 6.46395 1267.81 4.14973C1277.62 2.86023 1287.48 2.25698 1297.37 1.90365C1302.31 1.88567 1307.25 1.711 1312.2 1.93203C1314.67 2.01825 1317.13 2.04498 1319.6 2.1798L1327 2.6517C1346.72 4.23907 1366.23 7.77943 1385.57 12.0171C1404.91 16.2886 1424.09 21.2236 1443.41 25.7083L1450.65 27.3556C1453.07 27.8872 1455.51 28.3325 1457.94 28.8303L1472.51 31.7311L1487.22 33.9762C1489.67 34.3391 1492.12 34.7358 1494.56 35.069L1501.96 35.8771C1506.89 36.3898 1511.8 36.9847 1516.74 37.4488L1531.56 38.4669C1536.49 38.8824 1541.46 39.0022 1546.4 39.1598C1551.36 39.2836 1556.31 39.5493 1561.27 39.561C1571.17 39.5062 1581.09 39.6378 1590.98 39.1724C1595.92 38.964 1600.88 38.9272 1605.83 38.5879L1620.66 37.6602C1640.41 36.1919 1660.12 34.2426 1679.76 31.5326C1719.09 26.3656 1758.01 18.9496 1796.79 10.9009Z" fill="#65BFFF"/>
</svg>
