<svg width="648" height="434" viewBox="0 0 648 434" fill="none" xmlns="http://www.w3.org/2000/svg">
<path d="M1796.43 10.9009C1757.63 18.8266 1718.67 26.1088 1679.4 31.1478C1659.78 33.7903 1640.05 35.6801 1620.31 37.0959L1605.49 37.9749C1600.55 38.2954 1595.61 38.3283 1590.66 38.5218C1580.76 38.9575 1570.87 38.803 1560.97 38.8241C1556.03 38.7935 1551.09 38.5238 1546.14 38.4C1541.19 38.2424 1536.24 38.1186 1531.31 37.7032L1516.5 36.6661C1511.57 36.217 1506.66 35.6032 1501.73 35.0905L1494.35 34.2784C1491.91 33.9452 1489.46 33.5337 1487.02 33.1668L1472.34 30.9137L1457.79 28.005C1455.37 27.5071 1452.94 27.0579 1450.52 26.5263L1443.28 24.8641C1423.99 20.3566 1404.8 15.4067 1385.46 11.1055C1366.1 6.83803 1346.56 3.27589 1326.77 1.65981L1319.35 1.17702C1316.88 1.0422 1314.39 1.00855 1311.91 0.922339C1306.96 0.671548 1301.99 0.854194 1297.03 0.876155C1287.13 1.2186 1277.21 1.81889 1267.37 3.10148C1247.66 5.40187 1228.23 9.66576 1209.1 14.7764C1189.99 20.0397 1171.16 26.2509 1152.53 32.9966C1133.89 39.7273 1115.35 46.6733 1096.89 53.8492C1059.98 68.205 1023.42 83.5146 987.416 100.081C969.462 108.463 951.804 117.53 934.719 127.608C917.71 137.793 900.961 148.354 883.889 158.365C849.706 178.237 813.938 195.696 776.154 207.478C757.281 213.316 737.87 217.449 718.237 219.681C708.424 220.78 698.558 221.447 688.676 221.576C678.794 221.705 668.911 221.356 659.035 220.734C619.561 218.128 580.422 210.889 540.751 209.451C520.925 208.706 501.071 209.578 481.361 211.703C461.647 213.813 442.058 217.276 422.967 222.663C403.857 227.975 385.365 235.416 367.643 244.309C349.9 253.177 332.868 263.336 316.081 273.875C307.69 279.153 299.363 284.492 291.053 289.892L266.211 306.192C249.708 317.134 233.239 328.147 216.571 338.83C183.245 360.178 148.948 380.16 113.025 396.864C77.1726 413.596 39.3485 426.473 0.263466 433.04C39.3656 426.596 77.2514 413.83 113.18 397.205C149.165 380.612 183.553 360.733 216.966 339.473C233.676 328.827 250.145 317.814 266.656 306.902L291.505 290.631C299.801 285.236 308.166 279.918 316.542 274.645C333.322 264.139 350.347 254.013 368.05 245.173C385.735 236.322 404.16 228.929 423.215 223.648C442.254 218.308 461.785 214.86 481.458 212.777C501.123 210.664 520.922 209.822 540.689 210.583C580.259 212.064 619.358 219.33 658.941 221.987C668.84 222.635 678.756 222.99 688.672 222.868C698.603 222.742 708.506 222.097 718.364 220.986C738.079 218.764 757.587 214.637 776.539 208.793C814.464 197.005 850.359 179.544 884.62 159.667C901.699 149.623 918.469 139.024 935.415 128.84C952.437 118.764 970.051 109.708 987.956 101.324C1023.9 84.7431 1060.42 69.3928 1097.3 55.0152C1115.75 47.8244 1134.27 40.8527 1152.89 34.111C1171.49 27.3585 1190.29 21.1254 1209.34 15.8592C1228.44 10.7268 1247.8 6.46395 1267.44 4.14973C1277.25 2.86023 1287.12 2.25698 1297 1.90365C1301.95 1.88567 1306.89 1.711 1311.83 1.93203C1314.31 2.01825 1316.76 2.04498 1319.24 2.1798L1326.64 2.6517C1346.35 4.23907 1365.86 7.77943 1385.21 12.0171C1404.55 16.2886 1423.73 21.2236 1443.04 25.7083L1450.28 27.3556C1452.7 27.8872 1455.14 28.3325 1457.57 28.8303L1472.15 31.7311L1486.85 33.9762C1489.31 34.3391 1491.75 34.7358 1494.2 35.069L1501.59 35.8771C1506.52 36.3898 1511.44 36.9847 1516.37 37.4488L1531.19 38.4669C1536.13 38.8824 1541.09 39.0022 1546.04 39.1598C1550.99 39.2836 1555.95 39.5493 1560.9 39.561C1570.8 39.5062 1580.72 39.6378 1590.61 39.1724C1595.55 38.964 1600.51 38.9272 1605.46 38.5879L1620.29 37.6602C1640.05 36.1919 1659.76 34.2426 1679.39 31.5326C1718.72 26.3656 1757.64 18.9496 1796.43 10.9009Z" fill="#65BFFF"/>
</svg>
