<svg width="866" height="134" viewBox="0 0 866 134" fill="none" xmlns="http://www.w3.org/2000/svg">
<path d="M1573.36 -243.462C1539.2 -237.145 1504.99 -231.066 1470.51 -226.718C1436.07 -222.239 1401.36 -219.657 1366.63 -219.881L1353.62 -220.223L1347.11 -220.407L1340.61 -220.817L1327.62 -221.68L1314.67 -223.044C1312.51 -223.29 1310.35 -223.451 1308.19 -223.782L1301.76 -224.74L1295.32 -225.697C1293.18 -226.032 1291.02 -226.291 1288.9 -226.744C1280.39 -228.43 1271.85 -229.998 1263.4 -232.052C1246.47 -235.982 1229.63 -240.271 1212.61 -243.784C1195.59 -247.326 1178.35 -250.027 1160.95 -250.772C1143.55 -251.559 1126.11 -250.057 1108.97 -247.058C1100.42 -245.48 1091.9 -243.645 1083.52 -241.343C1075.12 -239.133 1066.81 -236.515 1058.58 -233.725C1042.13 -228.086 1026.02 -221.52 1010.13 -214.496C994.233 -207.484 978.462 -200.171 962.799 -192.663C931.456 -177.657 900.472 -161.936 869.488 -146.215C854.011 -138.324 838.626 -130.248 823.356 -121.951C815.719 -117.809 808.156 -113.547 800.438 -109.551L788.924 -103.477L783.168 -100.439L777.354 -97.5121C746.289 -82.0913 713.919 -69.0449 680.222 -60.7423C663.4 -56.5701 646.228 -53.7571 628.941 -52.4642C620.296 -51.8243 611.631 -51.5703 602.96 -51.7056C594.295 -51.8705 585.629 -52.4544 577.004 -53.3008C542.471 -56.7611 508.406 -64.5105 473.608 -66.4608C456.233 -67.4773 438.769 -66.7935 421.514 -64.601C404.249 -62.4476 387.173 -58.8081 370.533 -53.7487C353.896 -48.6762 337.713 -42.1186 322.129 -34.4221C306.524 -26.7481 291.443 -18.055 276.645 -8.9345C247.024 9.27089 218.538 29.212 189.531 48.3009C175.034 57.8714 160.346 67.1439 145.406 75.9951C130.469 84.8593 115.202 93.1692 99.5822 100.735C68.383 115.913 35.2902 127.616 0.968263 133.222C35.3087 127.737 68.4553 116.131 99.718 101.034C115.378 93.5133 130.685 85.2485 145.658 76.4164C160.639 67.6104 175.367 58.383 189.9 48.8447C218.96 29.7975 247.453 9.88246 277.071 -8.28036C291.864 -17.3713 306.925 -26.0314 322.511 -33.6723C338.077 -41.3358 354.214 -47.8533 370.802 -52.8988C387.397 -57.9182 404.425 -61.5308 421.642 -63.6572C438.844 -65.8357 456.243 -66.502 473.557 -65.4551C508.242 -63.4603 542.283 -55.691 576.899 -52.1829C585.557 -51.3174 594.239 -50.724 602.951 -50.5435C611.655 -50.389 620.362 -50.6405 629.037 -51.2743C646.399 -52.5456 663.64 -55.363 680.521 -59.523C714.346 -67.8179 746.83 -80.8531 777.96 -96.2914L783.787 -99.2219L789.553 -102.276L801.076 -108.367C808.79 -112.376 816.366 -116.641 823.987 -120.793C839.224 -129.109 854.609 -137.185 870.066 -145.099C901.03 -160.842 931.99 -176.598 963.3 -191.624C978.96 -199.145 994.701 -206.464 1010.58 -213.485C1026.45 -220.519 1042.53 -227.091 1058.94 -232.729C1067.14 -235.528 1075.42 -238.152 1083.8 -240.356C1092.17 -242.667 1100.64 -244.505 1109.16 -246.089C1126.23 -249.097 1143.59 -250.607 1160.93 -249.845C1178.26 -249.139 1195.47 -246.457 1212.46 -242.934C1229.46 -239.443 1246.32 -235.171 1263.25 -231.257C1297.09 -223.056 1331.9 -219.587 1366.65 -219.187C1401.42 -219.073 1436.14 -221.769 1470.58 -226.359C1505.02 -230.838 1539.23 -237.041 1573.36 -243.462Z" fill="#65BFFF"/>
</svg>
