<svg width="616" height="547" viewBox="0 0 616 547" fill="none" xmlns="http://www.w3.org/2000/svg">
<path d="M1823.56 231.378C1802.96 241.312 1781.58 249.529 1759.68 256.082L1743.15 260.653C1737.6 261.981 1732 263.179 1726.44 264.447C1720.89 265.823 1715.23 266.622 1709.61 267.648L1701.17 269.128C1698.36 269.626 1695.51 269.897 1692.68 270.288C1670.06 273.558 1647.18 274.843 1624.35 275.032L1615.77 275.05L1611.49 275.065C1610.07 275.047 1608.63 274.97 1607.2 274.923L1590.07 274.316C1584.37 274.01 1578.67 273.514 1572.98 273.126C1570.13 272.9 1567.28 272.757 1564.44 272.449L1555.92 271.529L1547.39 270.608L1543.13 270.156L1538.9 269.553L1521.93 267.132C1516.28 266.239 1510.68 265.174 1505.04 264.214C1502.23 263.707 1499.4 263.253 1496.61 262.694L1488.22 260.943L1479.82 259.191C1477.02 258.617 1474.22 258.029 1471.46 257.335L1454.8 253.318C1449.25 251.968 1443.77 250.344 1438.23 248.878L1429.95 246.616L1421.76 244.126C1399.82 237.697 1378.26 230.004 1356.95 221.75L1341.01 215.402L1325.26 208.626C1319.97 206.423 1314.82 203.961 1309.63 201.574C1304.46 199.15 1299.21 196.857 1294.12 194.252C1252.99 174.25 1213.38 151.101 1176 124.722L1162.07 114.714L1148.42 104.329C1139.34 97.3711 1130.51 90.0918 1121.67 82.8165C1104.02 68.2579 1086.35 53.6398 1067.56 40.4856C1062.79 37.3148 1058.11 33.9933 1053.19 31.0568C1050.74 29.5771 1048.35 27.9694 1045.83 26.5879L1038.32 22.3831C1037.08 21.6641 1035.81 21.0165 1034.51 20.3918L1030.66 18.4907C1028.09 17.2184 1025.54 15.8935 1022.87 14.8395L1014.95 11.478C1012.25 10.4617 1009.53 9.56535 1006.84 8.59762L1002.76 7.18573L998.608 6.0516C995.832 5.31304 993.08 4.48818 990.294 3.83195C984.651 2.79327 979.045 1.47389 973.321 0.903397C961.935 -0.302095 950.245 -0.0871234 939.053 2.81617C933.487 4.25985 927.997 6.22512 922.969 9.08661C917.926 11.8886 913.15 15.2725 909.141 19.4393L907.589 20.9551C907.095 21.4861 906.657 22.0498 906.185 22.6066C905.257 23.7161 904.306 24.7999 903.4 25.9353C901.8 28.3407 899.975 30.6154 898.657 33.1842C897.959 34.4393 897.227 35.6876 896.551 36.9686C895.928 38.2673 895.272 39.5591 894.705 40.8906C893.516 43.5208 892.503 46.2153 891.542 48.9276C887.78 59.8353 885.737 71.2226 884.145 82.5689C882.606 93.933 881.362 105.33 880.264 116.735C878.067 139.546 876.419 162.385 873.488 185.073C872.023 196.417 870.259 207.714 867.96 218.915C865.676 230.112 862.934 241.209 858.888 251.889C854.939 262.576 849.882 272.874 843.902 282.575C837.922 292.275 831.086 301.456 823.473 309.936C808.191 326.863 790.093 341.182 770.299 352.496C730.738 375.227 684.914 386.645 639.319 386.204C627.912 386.105 616.523 385.187 605.231 383.558C599.574 382.762 593.976 381.712 588.38 380.549C582.823 379.296 577.301 377.874 571.844 376.164C550.033 369.495 528.978 360.008 506.339 355.712C504.935 355.403 503.521 355.176 502.1 354.983L497.845 354.37C494.994 354.065 492.133 353.844 489.269 353.67C483.534 353.533 477.765 353.628 472.088 354.48C460.689 355.956 449.621 359.384 439.153 364.038C418.131 373.385 399.59 387.121 380.988 400.331C362.548 413.848 342.834 425.46 323.237 437.215C303.583 448.873 283.572 459.974 262.908 469.704C252.577 474.576 242.069 479.081 231.389 483.123C220.701 487.134 209.88 490.831 199.048 494.483C177.347 501.652 155.441 508.176 133.397 514.242C89.3236 526.37 44.7282 536.55 0.102508 546.499C44.7452 536.673 89.3765 526.627 133.497 514.614C155.557 508.607 177.498 502.154 199.225 495.025C210.065 491.403 220.898 487.751 231.62 483.746C242.338 479.727 252.869 475.247 263.222 470.401C283.943 460.704 303.983 449.595 323.656 437.947C343.257 426.207 363.02 414.599 381.505 401.07C400.125 387.87 418.644 374.172 439.533 364.925C449.95 360.316 460.933 356.927 472.209 355.468C483.473 353.9 494.99 354.529 506.162 356.716C528.618 360.981 549.643 370.476 571.534 377.204C576.994 378.929 582.55 380.357 588.145 381.632C593.76 382.806 599.391 383.863 605.067 384.67C616.397 386.321 627.853 387.252 639.313 387.37C685.11 387.852 731.143 376.442 770.934 353.617C790.843 342.256 809.067 327.872 824.462 310.835C832.141 302.305 839.043 293.075 845.067 283.299C851.11 273.534 856.195 263.164 860.202 252.398C864.277 241.646 867.054 230.444 869.364 219.224C871.67 207.99 873.471 196.651 874.947 185.288C877.895 162.547 879.583 139.681 881.788 116.9C882.872 105.499 884.109 94.1361 885.637 82.7908C887.208 71.4823 889.229 60.1961 892.935 49.4313C893.874 46.7567 894.876 44.081 896.047 41.5034C896.603 40.1908 897.238 38.9367 897.85 37.6568C898.519 36.4096 899.225 35.1841 899.912 33.9478C901.193 31.4207 902.986 29.2026 904.535 26.8428C905.415 25.7303 906.34 24.6693 907.243 23.5826C907.704 23.0447 908.145 22.4958 908.625 21.9688L910.14 20.4948C914.061 16.4153 918.715 13.1118 923.648 10.3714C928.564 7.57152 933.936 5.63803 939.394 4.20734C950.374 1.34489 961.914 1.10624 973.191 2.26125C978.848 2.81791 984.416 4.11549 990.01 5.15124C992.778 5.79658 995.511 6.61056 998.269 7.33822L1002.39 8.46543L1006.43 9.87041C1009.12 10.8233 1011.83 11.7236 1014.48 12.7181L1022.36 16.0578C1025.02 17.101 1027.55 18.4298 1030.1 19.6912L1033.94 21.5814C1035.22 22.1952 1036.49 22.8428 1037.73 23.5618L1045.2 27.7449C1047.7 29.1154 1050.07 30.7122 1052.52 32.177C1057.42 35.1027 1062.08 38.4133 1066.85 41.5692C1085.59 54.6571 1103.25 69.2454 1120.91 83.7851C1129.75 91.0455 1138.61 98.3169 1147.7 105.286L1161.37 115.682L1175.34 125.696C1212.8 152.085 1252.48 175.233 1293.68 195.215C1298.78 197.816 1304.03 200.109 1309.22 202.53C1314.42 204.912 1319.59 207.371 1324.87 209.573L1340.65 216.346L1356.59 222.69C1377.94 230.936 1399.53 238.621 1421.49 245.041L1429.7 247.528L1437.98 249.774C1443.51 251.241 1449.01 252.846 1454.56 254.211L1471.25 258.22C1474.02 258.928 1476.83 259.498 1479.63 260.072L1488.02 261.824L1496.42 263.575C1499.22 264.13 1502.05 264.584 1504.86 265.091C1510.5 266.051 1516.12 267.112 1521.78 268.001L1538.77 270.399L1543.02 270.998L1547.28 271.45L1555.82 272.352L1564.35 273.253C1567.2 273.557 1570.06 273.686 1572.9 273.912C1578.6 274.281 1584.31 274.777 1590.02 275.049L1607.17 275.618C1608.6 275.665 1610.03 275.728 1611.45 275.745L1615.75 275.727L1624.33 275.675C1647.18 275.433 1670.08 274.081 1692.71 270.743C1695.54 270.334 1698.39 270.067 1701.19 269.554L1709.64 268.055C1715.27 267.01 1720.92 266.196 1726.47 264.805C1732.05 263.518 1737.63 262.309 1743.19 260.963L1759.7 256.347C1781.63 249.659 1803 241.382 1823.56 231.378Z" fill="#65BFFF"/>
</svg>
