<svg width="829" height="263" viewBox="0 0 829 263" fill="none" xmlns="http://www.w3.org/2000/svg">
<path d="M1585.99 -59.645L1573.07 -55.2884C1570.92 -54.5721 1568.78 -53.8168 1566.6 -53.1361L1560.04 -51.2932C1555.66 -50.0788 1551.3 -48.8123 1546.91 -47.65L1533.62 -44.6064C1531.41 -44.1248 1529.2 -43.5484 1526.97 -43.1319L1520.27 -41.8956C1515.8 -41.0888 1511.35 -40.2168 1506.86 -39.4751L1493.37 -37.5378C1491.12 -37.2292 1488.88 -36.8518 1486.62 -36.6083L1479.84 -35.8813C1475.32 -35.4107 1470.8 -34.8716 1466.29 -34.4437L1452.7 -33.4016C1450.43 -33.2398 1448.16 -33.0388 1445.9 -32.8935L1439.1 -32.5654L1425.48 -31.9057C1407.31 -31.397 1389.13 -31.0942 1370.96 -31.4494C1334.61 -31.8818 1298.3 -33.8169 1261.97 -35.5261C1225.67 -37.2127 1189.37 -39.878 1153.43 -45.4067C1117.5 -50.8667 1082.09 -59.6249 1047.7 -71.4079C1030.52 -77.3241 1013.52 -83.836 996.959 -91.3007C980.356 -98.6995 963.999 -106.695 947.275 -113.921C938.942 -117.584 930.467 -120.943 921.939 -124.135L915.49 -126.389L912.261 -127.507L909.004 -128.521L902.477 -130.544L895.886 -132.34C894.789 -132.633 893.685 -132.952 892.582 -133.215L889.251 -133.985L882.583 -135.496L875.851 -136.723C874.723 -136.924 873.618 -137.145 872.484 -137.316L869.099 -137.764C860.098 -139.181 850.93 -139.714 841.802 -139.364C832.684 -138.876 823.558 -137.479 814.895 -134.459L813.27 -133.912L811.67 -133.274C810.615 -132.837 809.536 -132.436 808.492 -131.961C806.43 -130.961 804.341 -130.011 802.371 -128.826C800.343 -127.752 798.474 -126.399 796.547 -125.156C794.737 -123.735 792.857 -122.421 791.191 -120.829C784.396 -114.691 778.283 -107.884 772.796 -100.56C770.067 -96.8947 767.537 -93.0595 765.188 -89.1748C762.793 -85.3058 760.504 -81.3534 758.228 -77.4046C749.236 -61.5552 741.089 -45.2616 731.511 -29.8281C726.727 -22.1197 721.636 -14.5665 715.855 -7.61082C709.962 -0.764543 703.597 5.73273 696.486 11.3684C682.507 22.9237 666.619 31.9868 650.102 39.4304C633.555 46.8678 616.29 52.6675 598.68 57.0228C563.44 65.7109 527.012 69.4925 490.713 68.8663C481.642 68.6982 472.558 68.3242 463.518 67.4912C454.478 66.6581 445.471 65.4252 436.447 64.3367C427.422 63.2481 418.333 62.3865 409.212 62.3436C404.647 62.2813 400.092 62.5658 395.546 62.9877C393.286 63.2998 391.012 63.5599 388.767 63.9798L385.405 64.6571L383.724 64.9957L382.071 65.4386C373.194 67.6077 364.733 71.3279 356.899 75.9837C349.045 80.6169 341.627 85.9433 334.514 91.6215C320.293 103.004 307.18 115.655 293.382 127.469C286.482 133.369 279.344 139.012 272.244 144.687C265.123 150.339 257.955 155.92 250.681 161.362C236.128 172.233 221.154 182.574 205.488 191.787C197.653 196.387 189.676 200.718 181.479 204.647C173.341 208.686 165.08 212.478 156.775 216.156C140.141 223.477 123.2 230.07 106.002 235.964C71.6197 247.747 36.3013 256.819 0.407681 262.651C36.3128 256.914 71.6755 247.956 106.112 236.269C123.324 230.428 140.304 223.88 156.978 216.604C165.303 212.949 173.584 209.179 181.743 205.163C189.96 201.257 197.979 196.929 205.834 192.351C221.55 183.166 236.546 172.805 251.129 161.94C258.42 156.508 265.6 150.924 272.738 145.281C279.838 139.606 286.979 133.977 293.906 128.069C307.742 116.244 320.863 103.62 335.055 92.2869C342.146 86.6287 349.544 81.3353 357.353 76.7421C365.142 72.1263 373.519 68.4566 382.309 66.325L383.949 65.8856L385.616 65.5504L388.939 64.8836C391.162 64.4837 393.41 64.2307 395.653 63.9089C400.16 63.4976 404.686 63.207 409.212 63.2797C418.28 63.3365 427.318 64.2121 436.342 65.3007C445.367 66.3893 454.378 67.6352 463.434 68.4777C472.503 69.3168 481.604 69.7004 490.691 69.878C527.082 70.5354 563.586 66.7755 598.957 58.1082C616.639 53.7615 633.969 47.9444 650.598 40.4991C667.193 33.0346 683.185 23.9435 697.271 12.3178C704.43 6.65514 710.866 0.110883 716.824 -6.80846C722.682 -13.8407 727.795 -21.4139 732.598 -29.1554C742.23 -44.6454 750.404 -60.946 759.38 -76.7493C761.643 -80.6947 763.91 -84.627 766.295 -88.4795C768.641 -92.3772 771.119 -96.1428 773.829 -99.7748C779.239 -107.022 785.33 -113.81 792.022 -119.864C793.656 -121.419 795.5 -122.71 797.261 -124.104C799.149 -125.336 800.97 -126.662 802.962 -127.713C804.894 -128.887 806.947 -129.815 808.973 -130.791C809.995 -131.246 811.06 -131.643 812.099 -132.089L813.66 -132.717L815.259 -133.257C823.779 -136.239 832.79 -137.647 841.814 -138.123C850.856 -138.479 859.923 -137.96 868.878 -136.559L872.249 -136.108C873.37 -135.933 874.476 -135.712 875.604 -135.512L882.29 -134.299L888.925 -132.808L892.24 -132.048C893.343 -131.784 894.433 -131.462 895.53 -131.169L902.102 -129.395L908.612 -127.382L911.869 -126.368L915.082 -125.259L921.511 -123.028C930.018 -119.859 938.464 -116.506 946.79 -112.869C963.477 -105.675 979.844 -97.696 996.472 -90.3043C1013.08 -82.8369 1030.1 -76.319 1047.32 -70.4262C1081.76 -58.6572 1117.26 -49.9235 1153.24 -44.4904C1189.23 -38.9887 1225.56 -36.3599 1261.89 -34.7064C1298.21 -33.0528 1334.53 -31.1342 1370.9 -30.7645C1389.09 -30.4684 1407.27 -30.8137 1425.45 -31.3816L1439.07 -32.0838L1445.88 -32.4415C1448.15 -32.5868 1450.42 -32.7912 1452.68 -32.9626L1466.27 -34.0473C1470.79 -34.4917 1475.31 -35.0309 1479.82 -35.5144L1486.6 -36.2675C1488.86 -36.5241 1491.1 -36.9014 1493.34 -37.2232L1506.83 -39.203C1511.32 -39.9577 1515.77 -40.8428 1520.25 -41.6661L1526.95 -42.9155C1529.17 -43.345 1531.38 -43.9214 1533.59 -44.416L1546.87 -47.4987C1551.26 -48.661 1555.61 -49.9536 1560 -51.1845L1566.56 -53.0405C1568.72 -53.7307 1570.87 -54.4895 1573.02 -55.2188L1585.99 -59.645Z" fill="#65BFFF"/>
</svg>
