<svg width="826" height="422" viewBox="0 0 826 422" fill="none" xmlns="http://www.w3.org/2000/svg">
<path d="M1795.45 0.68545L1780.92 3.90888L1773.65 5.52255L1766.32 6.81598L1751.67 9.40278L1736.92 11.4571L1729.56 12.4897L1722.17 13.306L1707.37 14.9131L1692.54 16.177C1687.59 16.5947 1682.66 17.0232 1677.7 17.2991C1638.09 20.0206 1598.41 21.0106 1558.76 23.1053C1538.93 24.0669 1519.13 25.6106 1499.37 27.4935L1484.58 29.2087C1482.11 29.5033 1479.65 29.7493 1477.19 30.0885L1469.83 31.1846C1464.92 31.9414 1460 32.5902 1455.1 33.4402L1440.47 36.2283C1401.55 44.1224 1363.16 54.3308 1324.18 61.7628C1304.69 65.5011 1285.07 68.4946 1265.32 70.3438C1245.57 72.193 1225.74 73.0574 1205.91 72.9994C1186.08 72.9077 1166.24 72.0881 1146.51 70.0564C1126.78 68.0733 1107.15 65.0914 1087.53 62.1096C1067.89 59.1128 1048.26 56.0674 1028.54 53.7481C1018.68 52.5473 1008.78 51.5975 998.876 50.8083C993.917 50.4792 988.972 50.0826 983.996 49.8695C979.025 49.6713 974.054 49.5366 969.076 49.6111C949.199 49.8041 929.207 52.0046 910.081 57.7351C905.298 59.192 900.642 60.8858 895.931 62.3714L881.725 66.7996C876.98 68.2783 872.243 69.7867 867.553 71.4737L853.576 76.6376C834.995 83.6251 816.549 90.9429 797.857 97.5775C788.514 100.91 779.109 104.067 769.624 106.864C760.111 109.62 750.472 111.964 740.793 114.095C702.009 122.383 662.522 127.033 623.044 130.884C603.297 132.812 583.507 134.4 563.73 136.097L504.407 141.391C494.515 142.256 484.627 143.136 474.76 144.154C464.882 145.127 455.004 146.164 445.168 147.652C435.35 149.151 425.547 151.06 416.014 153.917C406.485 156.79 397.195 160.554 388.502 165.418C379.763 170.23 371.793 176.367 364.517 183.131C357.138 189.811 350.196 196.932 343.42 204.199C329.873 218.749 317.174 234.028 303.869 248.768C277.049 278.001 249.407 306.721 218.081 331.136C214.172 334.192 210.191 337.155 206.179 340.064C202.163 342.957 198.002 345.666 193.891 348.441C189.803 351.243 185.531 353.774 181.347 356.457C177.129 359.07 172.822 361.531 168.568 364.074C151.368 373.959 133.571 382.809 115.301 390.542C78.777 405.956 40.2261 417.13 0.677328 421.016C40.2431 417.253 78.8408 406.194 115.441 390.887C133.738 383.195 151.599 374.407 168.842 364.559C173.114 362.027 177.42 359.566 181.658 356.964C185.845 354.296 190.136 351.775 194.244 348.985C198.374 346.22 202.538 343.526 206.584 340.625C210.611 337.712 214.611 334.759 218.523 331.718C249.947 307.31 277.648 278.574 304.52 249.358C317.859 234.625 330.577 219.357 344.103 204.845C350.867 197.597 357.813 190.491 365.17 183.849C372.44 177.118 380.337 171.065 388.994 166.306C397.636 161.488 406.841 157.762 416.315 154.921C425.788 152.079 435.536 150.201 445.324 148.71C455.116 147.234 464.982 146.216 474.865 145.258C484.736 144.255 494.628 143.39 504.505 142.529L563.814 137.302C583.595 135.62 603.378 134.065 623.143 132.149C662.645 128.324 702.178 123.725 741.062 115.458C750.772 113.318 760.429 110.986 769.99 108.232C779.539 105.435 788.959 102.273 798.32 98.9517C817.046 92.324 835.515 85.032 854.086 78.0633L868.029 72.8925C872.674 71.2175 877.392 69.6981 882.123 68.2234L896.339 63.7764C901.081 62.2829 905.766 60.581 910.471 59.1291C929.414 53.4316 949.275 51.2183 969.051 51.0046C974 50.938 978.952 51.0618 983.904 51.2491C988.846 51.4553 993.791 51.8519 998.746 52.1661C1008.63 52.9444 1018.51 53.8685 1028.35 55.0584C1048.05 57.352 1067.67 60.3676 1087.3 63.3495C1106.93 66.3165 1126.58 69.2756 1146.37 71.2427C1166.15 73.2585 1186.03 74.0553 1205.88 74.139C1225.75 74.1701 1245.62 73.2938 1265.4 71.4069C1285.17 69.5349 1304.84 66.5146 1324.33 62.7574C1363.34 55.2689 1401.74 45.0119 1440.61 37.1L1455.22 34.301C1460.1 33.4549 1465.02 32.7913 1469.93 32.0345L1477.29 30.9235C1479.74 30.5694 1482.21 30.3383 1484.67 30.0288L1499.44 28.3028C1519.19 26.3901 1538.98 24.8504 1558.8 23.8442C1598.43 21.6264 1638.13 20.5056 1677.74 17.672C1682.69 17.3813 1687.63 16.9338 1692.58 16.5013L1707.41 15.1888L1722.19 13.556L1729.59 12.7207L1736.96 11.6692L1751.7 9.57033L1766.35 6.93493L1773.67 5.61183L1780.94 3.98324L1795.45 0.68545Z" fill="#65BFFF"/>
</svg>
