<svg width="821" height="452" viewBox="0 0 821 452" fill="none" xmlns="http://www.w3.org/2000/svg">
<path d="M1786.4 0.0817955C1746.91 6.91711 1706.83 9.17589 1666.83 10.7612C1626.82 12.3613 1586.74 13.2345 1546.86 17.1782C1507.05 21.1019 1467.2 28.3987 1429.88 43.2765C1392.59 57.956 1356.56 75.5651 1319.48 90.648C1300.95 98.1652 1282.12 104.996 1262.91 110.605C1243.72 116.258 1224.24 120.904 1204.58 124.593C1184.92 128.252 1165.08 131.017 1145.15 132.69C1125.21 134.333 1105.2 135.025 1085.19 135.127C1065.17 135.263 1045.15 134.823 1025.14 134.286L995.114 133.421C985.097 133.108 975.083 132.922 965.057 132.931C945.016 132.928 924.964 133.598 904.991 135.156C895.034 135.895 885.026 136.09 875.027 136.139C865.024 136.173 855.003 136.26 845.002 136.182C824.992 136.06 804.968 135.527 784.971 134.795C764.959 134.068 744.96 133.274 724.961 132.24C684.971 130.202 644.948 127.982 604.857 127.884C584.819 127.833 564.773 128.167 544.778 129.348C524.764 130.279 504.795 132.266 484.957 135.159C465.13 138.096 445.432 141.987 426.098 147.296C406.786 152.629 387.868 160.026 370.935 170.908C366.741 173.673 362.636 176.591 358.722 179.744C354.826 182.908 351.106 186.312 347.58 189.903C340.633 197.184 334.249 204.905 327.93 212.688C315.356 228.315 303.58 244.543 291.557 260.565C267.398 292.481 242.419 324.01 213.428 351.673C199.023 365.576 183.314 378.058 166.825 389.411C150.332 400.749 133.036 410.931 115.071 419.746C97.0755 428.505 78.419 435.927 59.198 441.54C39.988 447.134 20.2096 450.903 0.195107 452.009C20.2107 450.966 40.0199 447.253 59.2459 441.718C78.5016 436.176 97.2038 428.806 115.226 420.087C133.237 411.324 150.589 401.174 167.143 389.884C183.678 378.583 199.469 366.11 213.945 352.236C228.486 338.424 242.021 323.591 254.928 308.256C267.812 292.896 280.208 277.14 292.264 261.125C304.32 245.109 316.101 228.897 328.668 213.303C334.976 205.539 341.39 197.811 348.278 190.609C351.779 187.04 355.462 183.678 359.347 180.533C363.236 177.403 367.319 174.523 371.487 171.78C388.318 160.99 407.14 153.651 426.381 148.352C445.66 143.074 465.336 139.221 485.122 136.31C504.92 133.445 524.849 131.484 544.837 130.576C564.82 129.414 584.845 129.118 604.853 129.177C644.893 129.32 684.883 131.597 724.881 133.664C744.888 134.728 764.905 135.533 784.911 136.294C804.927 137.036 824.963 137.614 844.987 137.732C855.018 137.802 865.02 137.705 875.038 137.666C885.063 137.595 895.086 137.396 905.103 136.641C925.057 135.072 945.056 134.384 965.074 134.361C975.081 134.341 985.077 134.517 995.093 134.83L1025.13 135.661C1045.15 136.164 1065.19 136.581 1085.22 136.426C1105.26 136.302 1125.3 135.587 1145.27 133.932C1165.26 132.228 1185.13 129.455 1204.81 125.758C1224.51 122.042 1244.01 117.359 1263.25 111.679C1282.48 106.047 1301.35 99.1745 1319.91 91.6345C1357.01 76.495 1393.02 58.8452 1430.26 44.1479C1467.47 29.2682 1507.21 21.9507 1546.99 17.9715C1586.83 13.9129 1626.9 12.8978 1666.91 11.1856C1706.85 9.4258 1746.93 7.04008 1786.4 0.0817955Z" fill="#65BFFF"/>
</svg>
