<svg width="823" height="443" viewBox="0 0 823 443" fill="none" xmlns="http://www.w3.org/2000/svg">
<path d="M1789.76 0.948609L1775.06 3.53248L1767.7 4.81895L1760.3 5.82975L1745.5 7.83251L1730.65 9.37315L1723.23 10.134L1715.79 10.7085L1700.9 11.8763C1690.96 12.4359 1681.03 13.1523 1671.09 13.585C1631.31 15.5698 1591.49 16.4537 1551.78 19.7446C1541.84 20.4312 1531.96 21.6285 1522.05 22.688C1519.57 22.9231 1517.1 23.2812 1514.64 23.6393L1507.25 24.6947C1502.32 25.4258 1497.36 26.0041 1492.49 26.992L1477.79 29.7028C1475.33 30.1055 1472.92 30.769 1470.5 31.3056L1463.22 33.0165L1455.94 34.7274C1453.51 35.2679 1451.15 36.0911 1448.75 36.7655L1434.42 41.0053C1396.54 53.3863 1359.66 68.5445 1321.91 81.1476C1284.22 93.9549 1245.26 102.88 1205.77 107.755C1186.03 110.175 1166.17 111.813 1146.3 112.26C1126.4 112.745 1106.5 112.195 1086.62 111.305C1066.74 110.4 1046.87 109.14 1026.98 108.03C1017.04 107.473 1007.09 106.95 997.14 106.523C987.196 106.064 977.217 105.772 967.245 105.862C947.303 105.992 927.351 107.273 907.627 110.295C897.808 111.906 887.938 112.972 878.033 113.905C868.119 114.807 858.206 115.949 848.32 116.956C828.527 119.008 808.7 120.813 788.854 122.369C769.007 123.925 749.162 125.305 729.263 126.014C689.483 127.491 649.649 127.818 609.838 129.24C589.936 129.933 570.03 130.851 550.155 132.24C530.274 133.549 510.442 135.516 490.693 138.145C480.813 139.47 470.969 140.991 461.167 142.725C451.357 144.429 441.561 146.305 431.873 148.645C422.186 150.986 412.58 153.751 403.249 157.303C393.926 160.886 384.889 165.236 376.4 170.507C367.885 175.738 360.027 182.052 353.002 189.163C346.015 196.296 339.403 203.759 332.962 211.383C320.091 226.612 308.047 242.497 295.618 258.07C270.592 289.007 244.756 319.538 214.965 345.997C200.143 359.294 184.087 371.136 167.418 381.995C150.722 392.813 133.284 402.523 115.229 410.884C97.1783 419.26 78.5163 426.364 59.3743 431.796C40.2284 437.213 20.5767 440.981 0.712255 442.35C20.5887 441.025 40.2602 437.332 59.437 431.971C78.6098 426.594 97.3025 419.545 115.399 411.221C133.499 402.912 150.98 393.238 167.736 382.468C184.465 371.656 200.592 359.843 215.482 346.559C230.421 333.343 244.375 319.066 257.709 304.255C271.02 289.418 283.835 274.156 296.34 258.626C308.788 243.063 320.854 227.205 333.719 212.009C340.153 204.419 346.765 196.956 353.734 189.876C360.726 182.821 368.512 176.591 376.971 171.391C385.408 166.165 394.39 161.845 403.662 158.309C412.937 154.787 422.513 152.03 432.175 149.712C441.837 147.394 451.618 145.523 461.417 143.837C471.224 142.119 481.056 140.616 490.907 139.299C510.626 136.678 530.451 134.745 550.306 133.458C570.156 132.093 590.051 131.194 609.942 130.519C649.735 129.15 689.562 128.856 729.373 127.435C749.28 126.756 769.178 125.393 789.028 123.853C808.879 122.312 828.729 120.532 848.54 118.491C858.456 117.476 868.335 116.328 878.245 115.41C888.147 114.463 898.09 113.376 907.921 111.747C927.559 108.7 947.443 107.406 967.317 107.261C977.26 107.18 987.201 107.449 997.142 107.894C1007.09 108.305 1017.03 108.814 1026.96 109.356C1046.85 110.451 1066.72 111.696 1086.63 112.578C1106.52 113.45 1126.47 113.988 1146.39 113.48C1166.32 113.017 1186.2 111.356 1205.98 108.909C1245.54 103.985 1284.58 95.0058 1322.3 82.142C1360.09 69.4823 1396.94 54.2836 1434.76 41.8848L1449.07 37.638C1451.46 36.9636 1453.81 36.1444 1456.24 35.6039L1463.5 33.8821L1470.76 32.1603C1473.19 31.6049 1475.57 30.9493 1478.04 30.5426L1492.71 27.8249C1497.58 26.8222 1502.52 26.2478 1507.45 25.5167L1514.84 24.4613C1517.31 24.1032 1519.76 23.7342 1522.24 23.4991C1532.14 22.4247 1542.01 21.2314 1551.94 20.515C1591.6 17.1092 1631.44 16.0943 1671.21 13.9826C1681.16 13.5161 1691.09 12.7849 1701.02 12.1955L1715.91 10.9791L1723.36 10.371L1730.79 9.57634L1745.64 7.98711L1760.44 5.93578L1767.83 4.91008L1775.06 3.59594L1789.76 0.948609Z" fill="#65BFFF"/>
</svg>
