<svg width="866" height="417" viewBox="0 0 866 417" fill="none" xmlns="http://www.w3.org/2000/svg">
<path d="M1802.47 17.7201C1763.91 27.8453 1724.84 36.2235 1685.31 41.5395C1665.57 44.3745 1645.72 46.2029 1625.83 47.5315C1615.87 48.0317 1605.92 48.6399 1595.94 48.6998L1588.47 48.8379L1584.73 48.9143L1580.99 48.8639L1566.04 48.662L1562.3 48.6116L1558.58 48.4302L1551.11 48.0714L1543.64 47.7126L1539.92 47.5313L1536.19 47.2229L1521.29 45.9707L1517.57 45.6436L1513.87 45.1855L1506.45 44.2732C1496.53 43.2153 1486.71 41.4461 1476.89 39.8377C1474.42 39.4787 1471.99 38.9511 1469.55 38.4424L1462.23 36.9122C1457.35 35.8758 1452.45 34.9407 1447.62 33.7317C1408.82 24.586 1370.55 12.8879 1331.13 6.20224C1311.45 2.85146 1291.52 0.938952 1271.56 0.341579C1251.59 -0.222074 1231.62 0.409375 1211.71 1.90263C1191.81 3.36215 1171.97 5.61604 1152.18 8.03352C1132.4 10.4808 1112.57 12.5889 1092.77 15.0738C1072.99 17.5845 1053.23 20.5504 1033.68 24.6111C1023.9 26.6097 1014.2 28.9692 1004.54 31.5261C994.894 34.0939 985.305 36.9819 975.943 40.4788C957.235 47.4685 939.241 56.7694 923.487 69.2005C921.51 70.7344 919.602 72.3457 917.679 73.9609C915.771 75.5721 913.821 77.1467 911.958 78.8095L900.916 88.9258L889.874 99.0422L878.888 109.191C864.192 122.662 849.204 135.812 833.453 148.019C825.583 154.113 817.526 159.986 809.255 165.534C801.007 171.108 792.506 176.271 783.666 180.824C766.009 189.955 747.206 196.89 727.859 201.5C708.51 206.159 688.625 208.283 668.74 209.1C648.84 209.92 628.891 209.431 608.972 208.695L579.073 207.604L564.125 207.066L556.649 206.789C554.16 206.707 551.669 206.737 549.162 206.707L519.23 206.502C509.263 206.494 499.295 206.599 489.302 206.79C469.366 207.238 449.325 208.542 429.792 212.931C410.219 217.172 391.571 224.862 373.963 234.235C356.302 243.591 339.547 254.488 322.834 265.359L272.548 297.787C255.789 308.607 238.941 319.274 221.77 329.391C204.612 339.552 187.022 348.936 169.205 357.886C151.38 366.807 133.266 375.184 114.844 382.767C77.9838 397.936 39.7104 409.849 0.447914 416.942C39.7275 409.972 78.0663 398.184 114.999 383.108C133.463 375.562 151.612 367.255 169.478 358.371C187.326 349.476 204.976 340.14 222.177 330.015C239.385 319.921 256.247 309.249 273.014 298.459L323.331 266.087C340.068 255.242 356.8 244.382 374.424 235.068C392 225.752 410.563 218.1 430.04 213.917C449.473 209.571 469.454 208.282 489.35 207.861C499.313 207.678 509.282 207.573 519.252 207.596L549.144 207.828C551.636 207.862 554.127 207.832 556.617 207.914L564.092 208.191L579.044 208.743L608.936 209.868C628.863 210.634 648.831 211.134 668.802 210.342C688.744 209.558 708.711 207.444 728.172 202.787C747.631 198.179 766.541 191.231 784.299 182.057C793.198 177.489 801.77 172.291 810.048 166.709C818.348 161.153 826.439 155.287 834.334 149.17C850.144 136.947 865.196 123.796 879.903 110.306L890.881 100.127L901.893 90.019L912.906 79.9106C914.754 78.2518 916.707 76.6921 918.601 75.0848C920.509 73.4736 922.402 71.8663 924.368 70.3512C939.956 58.0125 957.801 48.7514 976.406 41.7895C985.723 38.3046 995.248 35.4176 1004.87 32.8389C1014.49 30.294 1024.17 27.9236 1033.93 25.9141C1053.43 21.8356 1073.14 18.8519 1092.91 16.3263C1112.68 13.8196 1132.52 11.6926 1152.31 9.21165C1172.09 6.7793 1191.9 4.49965 1211.77 3.0332C1231.65 1.51816 1251.58 0.864925 1271.49 1.41077C1291.4 1.99034 1311.28 3.88502 1330.92 7.19916C1370.26 13.8264 1408.53 25.4758 1447.38 34.5948C1452.22 35.7997 1457.13 36.7161 1462.01 37.7673L1469.34 39.2935C1471.79 39.8171 1474.22 40.3298 1476.69 40.6888C1486.54 42.2893 1496.37 44.0545 1506.3 45.1084C1526.1 47.7103 1546.05 48.868 1565.99 49.4397L1580.95 49.6078L1584.69 49.6433L1588.42 49.5669L1595.91 49.395C1605.88 49.3055 1615.84 48.6595 1625.81 48.1256C1645.71 46.7295 1665.58 44.8336 1685.31 41.9392C1724.88 36.4695 1763.92 27.9683 1802.47 17.7201Z" fill="#65BFFF"/>
</svg>
