<svg width="818" height="474" viewBox="0 0 818 474" fill="none" xmlns="http://www.w3.org/2000/svg">
<path d="M1780.72 0.345088C1699.66 10.5244 1617.51 3.2989 1536.48 14.6802C1526.39 16.1723 1516.32 17.8359 1506.34 20.0618L1502.59 20.8593L1498.87 21.7609L1491.43 23.5791C1486.51 24.9449 1481.57 26.2214 1476.71 27.8103C1457.16 33.7196 1438.36 42.0552 1420.53 51.9362C1384.62 71.3771 1350.42 93.7254 1314.73 113.458C1279.15 133.352 1241.43 149.342 1202.49 161.371C1163.56 173.459 1123.38 181.277 1082.83 185.4C1062.56 187.452 1042.21 188.728 1021.83 189.183C1001.45 189.702 981.057 189.411 960.682 188.813C940.309 188.166 919.919 187.157 899.635 185.419C879.35 183.553 859.216 180.292 839.167 176.578C799.069 169.149 759.473 159.194 719.623 150.312C679.82 141.369 639.701 133.325 599.054 129.072C578.742 126.99 558.331 125.844 537.896 125.915L534.062 125.922L530.241 126.037L522.591 126.302C517.484 126.49 512.384 126.582 507.288 126.991C497.103 127.711 486.943 128.824 476.846 130.349C456.649 133.386 436.684 138.066 417.33 144.607C397.995 151.159 379.255 159.815 362.39 171.427C353.986 177.25 346.083 183.815 338.882 191.101C335.312 194.767 331.917 198.61 328.764 202.644C325.629 206.688 322.611 210.812 319.609 214.932C307.614 231.473 296.34 248.507 285.039 265.499C262.425 299.44 239.397 333.316 211.994 363.582C184.894 394.086 152.188 419.412 116.437 438.955L113.097 440.807L109.691 442.532L102.861 445.972C98.2895 448.217 93.6054 450.222 88.9762 452.371C84.2455 454.26 79.5427 456.254 74.7653 458.028L67.5505 460.567L63.9431 461.836L60.2918 462.942C40.824 468.94 20.6177 472.776 0.202204 473.336C20.6039 472.843 40.841 469.063 60.3397 463.121L64.0098 462.026L67.6211 460.771L74.8439 458.262C79.6253 456.502 84.3321 454.524 89.0816 452.645C93.7188 450.526 98.4177 448.518 102.993 446.288L109.842 442.858L113.267 441.144L116.626 439.303C152.479 419.844 185.313 394.579 212.562 364.099C240.058 333.824 263.127 299.921 285.779 266.002C297.098 249.021 308.395 232.013 320.383 215.506C323.39 211.401 326.422 207.272 329.535 203.266C332.682 199.266 336.051 195.446 339.6 191.817C346.749 184.577 354.619 178.069 362.972 172.292C379.749 160.766 398.411 152.179 417.676 145.662C436.979 139.166 456.877 134.536 477.015 131.515C487.082 129.998 497.217 128.908 507.372 128.196C512.442 127.81 517.543 127.718 522.635 127.533L530.269 127.273L534.09 127.158L537.914 127.17C558.289 127.114 578.656 128.272 598.927 130.381C639.489 134.673 679.534 142.737 719.315 151.718C759.114 160.645 798.722 170.644 838.876 178.106C858.954 181.813 879.129 185.047 899.493 186.907C919.851 188.626 940.233 189.605 960.631 190.229C981.033 190.804 1001.45 191.073 1021.85 190.531C1042.26 190.053 1062.65 188.75 1082.96 186.671C1123.56 182.503 1163.84 174.628 1202.83 162.475C1241.82 150.385 1279.61 134.331 1315.23 114.361C1350.93 94.561 1385.11 72.1869 1420.95 52.7323C1438.77 42.8404 1457.45 34.5327 1476.96 28.6055C1481.8 27.0206 1486.73 25.748 1491.63 24.3714L1499.05 22.5423L1502.76 21.6446L1506.49 20.8511C1516.43 18.6183 1526.5 16.9736 1536.57 15.4369C1617.46 3.80775 1699.69 10.7703 1780.72 0.345088Z" fill="#65BFFF"/>
</svg>
