<svg width="646" height="427" viewBox="0 0 646 427" fill="none" xmlns="http://www.w3.org/2000/svg">
<path d="M1798.64 12.5095C1759.97 21.1502 1721.05 28.8053 1681.75 33.9306C1662.12 36.6405 1642.39 38.5006 1622.64 39.8866L1607.8 40.721L1604.1 40.9314L1600.39 41.0337L1592.96 41.2381C1583.06 41.6441 1573.16 41.4747 1563.25 41.4363C1543.46 40.937 1523.65 40.0271 1503.99 37.5163C1494.12 36.5734 1484.39 34.7506 1474.59 33.2948C1469.71 32.4341 1464.88 31.3521 1460.03 30.405L1452.76 28.9263C1450.33 28.4136 1447.93 27.8294 1445.52 27.279C1406.96 18.2897 1368.73 7.01312 1329.21 2.52136C1309.49 0.362727 1289.56 -0.164259 1269.77 1.29716C1259.86 1.87862 1250 3.1017 1240.17 4.41405C1230.35 5.86422 1220.57 7.54545 1210.87 9.53902C1191.41 13.5084 1172.19 18.4673 1153.12 23.8496C1134.04 29.2319 1115 34.6698 1096 40.3496C1058.03 51.72 1020.38 64.325 983.777 79.6654C965.549 87.4987 947.79 96.5455 931.101 107.33C914.484 118.207 898.562 130.013 882.143 141.092C849.391 163.275 815.032 183.497 778.03 197.604C759.515 204.542 740.299 209.579 720.765 212.597C710.992 214.084 701.151 215.079 691.267 215.559C681.395 216.021 671.496 216.027 661.595 215.731C622.014 214.508 582.653 208.699 542.962 207.777C523.122 207.274 503.27 208.098 483.51 209.678C463.755 211.337 444.019 214.075 424.803 219.112C415.193 221.623 405.718 224.64 396.485 228.262C387.234 231.873 378.208 236.029 369.371 240.533C351.685 249.56 334.785 259.971 318.075 270.617C301.365 281.264 284.778 292.133 268.179 302.957C251.634 313.862 235.066 324.742 218.245 335.211C201.454 345.736 184.322 355.699 166.913 365.162C149.5 374.61 131.783 383.518 113.693 391.569C77.5477 407.743 39.6239 420.248 0.552924 426.986C39.6558 420.367 77.6302 407.992 113.852 391.925C131.983 383.911 149.735 375.073 167.19 365.662C184.63 356.254 201.804 346.328 218.64 335.855C235.484 325.411 252.067 314.528 268.635 303.648C285.238 292.839 301.833 282 318.561 271.364C335.275 260.732 352.169 250.355 369.818 241.37C378.644 236.884 387.644 232.751 396.855 229.167C406.062 225.568 415.511 222.574 425.08 220.09C444.226 215.087 463.907 212.38 483.622 210.748C503.352 209.176 523.163 208.379 542.963 208.908C582.569 209.869 621.893 215.72 661.583 216.993C671.502 217.3 681.435 217.301 691.357 216.842C701.274 216.369 711.167 215.392 720.989 213.908C740.624 210.91 759.948 205.86 778.542 198.917C815.71 184.781 850.193 164.542 883.023 142.355C899.449 131.242 915.382 119.417 931.924 108.56C948.528 97.8144 966.194 88.7765 984.363 80.9592C1020.85 65.602 1058.47 52.9713 1096.39 41.5681C1115.36 35.8626 1134.4 30.4099 1153.47 24.9978C1172.53 19.6046 1191.72 14.6388 1211.1 10.6407C1249.8 2.58219 1289.71 -1.01831 1329.11 3.50529C1368.52 7.94656 1406.73 19.1637 1445.33 28.1261C1447.76 28.6726 1450.16 29.2567 1452.59 29.7695L1459.87 31.2441C1464.75 32.2021 1469.58 33.2653 1474.48 34.1221C1484.29 35.5887 1494.06 37.3887 1503.94 38.3276C1523.63 40.8156 1543.46 41.7175 1563.27 42.1643C1573.19 42.169 1583.09 42.3045 1593.01 41.8798L1600.45 41.6564L1604.16 41.5393L1607.87 41.325L1622.71 40.4419C1642.47 38.9884 1662.22 37.0609 1681.83 34.2915C1721.1 29.0472 1760.01 21.284 1798.64 12.5095Z" fill="#65BFFF"/>
</svg>
