<svg width="857" height="444" viewBox="0 0 857 444" fill="none" xmlns="http://www.w3.org/2000/svg">
<path d="M1810.35 75.149L1795.68 79.9733C1793.23 80.7569 1790.8 81.6148 1788.32 82.3428L1780.91 84.4892C1775.95 85.8967 1771.03 87.438 1766.06 88.7076L1751.09 92.4947C1731.06 97.2243 1710.85 101.333 1690.45 104.104C1649.71 110.142 1608.37 111.798 1567.25 110.063L1551.85 109.058L1544.15 108.553L1536.48 107.772L1521.12 106.18L1505.83 104.027L1498.19 102.95L1490.6 101.574L1475.39 98.8404L1460.3 95.5185L1452.76 93.8576L1445.26 92.0092C1405.29 82.0124 1366.02 69.371 1326.14 58.8872C1286.27 48.3211 1245.76 40.5256 1205.2 33.1714C1184.93 29.468 1164.65 25.847 1144.48 21.6714C1124.32 17.4919 1104.35 12.3869 1084.12 8.30566C1074.01 6.27989 1063.86 4.44162 1053.62 3.12012C1043.39 1.82837 1033.1 0.903637 1022.77 0.625563C1012.45 0.44071 1002.1 0.663503 991.83 1.7104C986.683 2.16493 981.56 2.88426 976.474 3.86438C971.391 4.79589 966.362 6.04773 961.405 7.56729C951.498 10.5726 941.959 14.8343 933.2 20.4014C928.851 23.2405 924.705 26.3601 920.821 29.8078C917.021 33.3288 913.314 37.0163 910.161 41.113C903.358 48.9299 897.745 57.687 892.35 66.4816C887.015 75.3237 881.861 84.2451 876.673 93.1595C866.345 110.991 856.021 128.838 844.562 145.953C833.026 162.96 820.804 179.722 805.383 193.339C790.098 207.047 772.569 218.2 753.844 226.613C744.491 230.856 734.82 234.388 724.998 237.355C715.165 240.34 705.162 242.75 695.075 244.671C674.881 248.552 654.356 250.545 633.808 251.443C613.252 252.312 592.652 252.061 572.074 251.246C561.787 250.815 551.509 250.237 541.256 249.398C531.007 248.573 520.78 247.296 510.558 246.097C490.14 243.678 469.377 241.637 448.825 244.418C438.576 245.793 428.505 248.364 418.804 251.904C409.104 255.444 399.744 259.897 390.709 264.852C372.599 274.79 355.713 286.679 338.583 298.076C330.028 303.812 321.296 309.244 312.581 314.736C303.857 320.198 295.172 325.745 286.402 331.156C268.882 341.987 251.167 352.505 232.977 362.145C214.827 371.871 196.031 380.319 177.13 388.492C158.213 396.605 139.029 404.137 119.625 411.026C80.8047 424.759 41.0175 435.835 0.598386 443.78C41.0494 435.954 80.8684 424.997 119.75 411.375C139.185 404.541 158.381 397.054 177.348 389.007C196.28 380.89 215.121 372.494 233.313 362.805C251.54 353.186 269.271 342.665 286.814 331.858C295.587 326.463 304.276 320.93 313.015 315.464C321.734 309.988 330.496 304.547 339.07 298.823C356.233 287.433 373.113 275.577 391.175 265.7C400.199 260.763 409.504 256.341 419.153 252.847C428.798 249.338 438.795 246.787 448.973 245.446C469.377 242.705 490.046 244.755 510.439 247.197C520.665 248.411 530.896 249.703 541.178 250.534C551.45 251.385 561.748 251.973 572.039 252.42C592.624 253.265 613.262 253.537 633.87 252.686C654.471 251.805 675.052 249.845 695.325 245.959C705.46 244.041 715.512 241.634 725.393 238.652C735.279 235.684 745.009 232.136 754.421 227.877C773.265 219.432 790.924 208.228 806.341 194.421C814.022 187.501 821.196 179.999 827.576 171.849C834.006 163.766 840.054 155.386 845.811 146.814C857.326 129.668 867.69 111.795 878.022 93.9776C883.195 85.0672 888.327 76.1201 893.655 67.3116C899.01 58.5438 904.575 49.8473 911.301 42.0989C914.442 38.021 918.062 34.4209 921.807 30.9307C925.624 27.5327 929.715 24.4438 933.993 21.6395C942.627 16.1379 952.032 11.9121 961.835 8.93457C966.733 7.43094 971.717 6.19106 976.751 5.25659C981.789 4.27354 986.868 3.56617 991.981 3.10472C1002.21 2.05489 1012.49 1.81826 1022.75 1.98531C1033.03 2.26045 1043.27 3.16738 1053.48 4.43335C1063.68 5.73306 1073.8 7.5793 1083.9 9.57531C1104.09 13.6199 1124.06 18.7101 1144.26 22.8776C1164.46 27.0303 1184.75 30.6325 1205.01 34.321C1245.56 41.6306 1286.06 49.3666 1325.9 59.8921C1365.75 70.3204 1405.04 82.9241 1445.07 92.89L1452.58 94.7345L1460.14 96.3914L1475.24 99.7093L1490.46 102.439L1498.07 103.796L1505.72 104.869L1521.04 107.015L1536.42 108.584L1544.11 109.361L1551.82 109.861L1567.26 110.843C1608.44 112.45 1649.79 110.664 1690.54 104.51C1710.95 101.671 1731.15 97.5029 1751.18 92.7099L1766.15 88.8742C1771.13 87.5708 1776.05 86.0146 1781 84.6071L1788.41 82.431C1790.88 81.7069 1793.3 80.8342 1795.76 80.0318L1810.35 75.149Z" fill="#65BFFF"/>
</svg>
