<svg width="632" height="444" viewBox="0 0 632 444" fill="none" xmlns="http://www.w3.org/2000/svg">
<path d="M1809.99 75.149L1795.31 79.9733C1792.87 80.7569 1790.44 81.6148 1787.96 82.3428L1780.54 84.4892C1775.59 85.8967 1770.67 87.438 1765.69 88.7076L1750.73 92.4947C1730.69 97.2243 1710.48 101.333 1690.09 104.104C1649.35 110.142 1608.01 111.798 1566.89 110.063L1551.48 109.058L1543.78 108.553L1536.11 107.772L1520.75 106.18L1505.47 104.027L1497.83 102.95L1490.23 101.574L1475.03 98.8404L1459.94 95.5185L1452.4 93.8576L1444.9 92.0092C1404.92 82.0124 1365.66 69.371 1325.78 58.8872C1285.9 48.3211 1245.39 40.5256 1204.83 33.1714C1184.57 29.468 1164.29 25.847 1144.12 21.6714C1123.96 17.4919 1103.98 12.3869 1083.76 8.30566C1073.65 6.27989 1063.49 4.44162 1053.25 3.12012C1043.02 1.82837 1032.73 0.903637 1022.4 0.625563C1012.09 0.44071 1001.74 0.663503 991.465 1.7104C986.318 2.16493 981.194 2.88426 976.109 3.86438C971.026 4.79589 965.997 6.04773 961.04 7.56729C951.133 10.5726 941.594 14.8343 932.834 20.4014C928.486 23.2405 924.339 26.3601 920.456 29.8078C916.656 33.3288 912.948 37.0163 909.796 41.113C902.993 48.9299 897.38 57.687 891.985 66.4816C886.65 75.3237 881.495 84.2451 876.307 93.1595C865.979 110.991 855.656 128.838 844.196 145.953C832.661 162.96 820.438 179.722 805.018 193.339C789.733 207.047 772.204 218.2 753.478 226.613C744.126 230.856 734.455 234.388 724.633 237.355C714.8 240.34 704.796 242.75 694.71 244.671C674.516 248.552 653.99 250.545 633.443 251.443C612.887 252.312 592.286 252.061 571.709 251.246C561.422 250.815 551.144 250.237 540.891 249.398C530.642 248.573 520.415 247.296 510.193 246.097C489.775 243.678 469.012 241.637 448.46 244.418C438.211 245.793 428.14 248.364 418.439 251.904C408.739 255.444 399.378 259.897 390.344 264.852C372.234 274.79 355.348 286.679 338.218 298.076C329.663 303.812 320.931 309.244 312.215 314.736C303.492 320.198 294.807 325.745 286.037 331.156C268.517 341.987 250.802 352.505 232.612 362.145C214.461 371.871 195.666 380.319 176.765 388.492C157.848 396.605 138.664 404.137 119.26 411.026C80.4394 424.759 40.6523 435.835 0.233152 443.78C40.6841 435.954 80.5032 424.997 119.385 411.375C138.82 404.541 158.016 397.054 176.983 389.007C195.914 380.89 214.756 372.494 232.948 362.805C251.175 353.186 268.906 342.665 286.448 331.858C295.222 326.463 303.911 320.93 312.649 315.464C321.369 309.988 330.131 304.547 338.704 298.823C355.868 287.433 372.747 275.577 390.81 265.7C399.833 260.763 409.138 256.341 418.787 252.847C428.432 249.338 438.429 246.787 448.608 245.446C469.012 242.705 489.681 244.755 510.073 247.197C520.299 248.411 530.53 249.703 540.813 250.534C551.085 251.385 561.382 251.973 571.673 252.42C592.258 253.265 612.897 253.537 633.505 252.686C654.105 251.805 674.687 249.845 694.96 245.959C705.095 244.041 715.146 241.634 725.028 238.652C734.914 235.684 744.644 232.136 754.056 227.877C772.9 219.432 790.559 208.228 805.976 194.421C813.657 187.501 820.831 179.999 827.211 171.849C833.641 163.766 839.688 155.386 845.446 146.814C856.96 129.668 867.325 111.795 877.657 93.9776C882.83 85.0672 887.962 76.1201 893.29 67.3116C898.644 58.5438 904.209 49.8473 910.936 42.0989C914.077 38.021 917.697 34.4209 921.441 30.9307C925.258 27.5327 929.349 24.4438 933.628 21.6395C942.261 16.1379 951.667 11.9121 961.47 8.93457C966.368 7.43094 971.352 6.19106 976.386 5.25659C981.423 4.27354 986.503 3.56617 991.616 3.10472C1001.84 2.05489 1012.12 1.81826 1022.39 1.98531C1032.66 2.26045 1042.9 3.16738 1053.11 4.43335C1063.31 5.73306 1073.44 7.5793 1083.54 9.57531C1103.72 13.6199 1123.7 18.7101 1143.9 22.8776C1164.1 27.0303 1184.38 30.6325 1204.65 34.321C1245.19 41.6306 1285.69 49.3666 1325.54 59.8921C1365.39 70.3204 1404.67 82.9241 1444.7 92.89L1452.22 94.7345L1459.78 96.3914L1474.88 99.7093L1490.1 102.439L1497.7 103.796L1505.36 104.869L1520.67 107.015L1536.06 108.584L1543.75 109.361L1551.46 109.861L1566.89 110.843C1608.07 112.45 1649.42 110.664 1690.18 104.51C1710.59 101.671 1730.79 97.5029 1750.81 92.7099L1765.78 88.8742C1770.77 87.5708 1775.68 86.0146 1780.64 84.6071L1788.05 82.431C1790.51 81.7069 1792.93 80.8342 1795.39 80.0318L1809.99 75.149Z" fill="#65BFFF"/>
</svg>
