<svg width="653" height="446" viewBox="0 0 653 446" fill="none" xmlns="http://www.w3.org/2000/svg">
<path d="M1792.97 7.69069C1753.77 14.1777 1714.58 20.7876 1675.16 25.6611C1635.75 30.6725 1596.06 33.7353 1556.34 33.5867C1546.42 33.2795 1536.48 33.3274 1526.57 32.5571L1519.14 32.108C1516.66 31.9583 1514.18 31.8423 1511.72 31.5617L1496.9 30.0804L1493.2 29.7006L1489.52 29.1711L1482.15 28.1011C1477.24 27.3603 1472.32 26.7842 1467.45 25.7439L1452.83 22.9185C1447.98 21.908 1443.14 20.7814 1438.29 19.6736C1418.93 15.2157 1399.64 10.3908 1380.07 6.70572C1360.54 3.02752 1340.71 0.370107 1320.79 0.433227C1310.84 0.56345 1300.86 1.05273 1291.01 2.43252C1286.06 2.96227 1281.17 3.89066 1276.26 4.71095C1273.81 5.09879 1271.39 5.71371 1268.96 6.19079C1266.52 6.73134 1264.08 7.1638 1261.67 7.82334C1242.33 12.4968 1223.44 18.9292 1205.08 26.589C1186.69 34.1636 1168.8 42.91 1151.17 52.0817C1133.56 61.2981 1116.17 70.9139 1098.9 80.7557C1064.35 100.406 1030.28 120.869 995.625 140.293C960.982 159.699 925.73 178.135 889.135 193.52C852.605 208.968 814.649 221.354 775.64 228.618C736.686 235.915 696.571 237.864 657.235 232.447C617.892 227.239 579.307 216.663 539.574 213.265C499.857 209.991 459.618 215.576 421.975 228.42C403.105 234.688 384.699 242.33 366.814 251.028C348.964 259.796 331.577 269.46 314.527 279.672C280.417 300.114 247.925 323.088 214.987 345.288C198.512 356.398 181.927 367.33 165.038 377.785C148.123 388.2 130.862 398.038 113.127 406.999L106.455 410.317C104.236 411.421 102.021 412.541 99.7402 413.535L86.1719 419.689L72.378 425.298C70.0935 426.277 67.7503 427.096 65.407 427.915L58.3851 430.402C39.6153 436.866 20.3321 441.89 0.71503 445.074C20.348 441.949 39.6511 437 58.4478 430.577L65.4737 428.104C67.817 427.285 70.1642 426.481 72.4486 425.502L86.2694 419.934L99.8645 413.82C102.145 412.826 104.364 411.722 106.598 410.613L113.274 407.31C131.039 398.405 148.342 388.604 165.303 378.24C182.234 367.822 198.865 356.941 215.37 345.887C248.354 323.738 280.839 300.798 314.946 280.404C331.985 270.212 349.365 260.581 367.194 251.851C385.053 243.176 403.423 235.575 422.256 229.349C459.81 216.592 499.894 211.081 539.44 214.369C579.032 217.773 617.58 228.391 657.036 233.664C696.515 239.139 736.783 237.228 775.871 229.959C815.012 222.707 853.083 210.338 889.707 194.881C926.36 179.417 961.641 160.909 996.286 141.455C1030.94 121.983 1064.99 101.478 1099.49 81.8065C1116.76 71.9686 1134.12 62.3271 1151.7 53.1038C1169.3 43.9103 1187.14 35.1758 1205.48 27.5983C1223.79 19.9356 1242.61 13.5041 1261.88 8.83576C1264.27 8.19507 1266.72 7.74775 1269.13 7.21118C1271.57 6.71922 1273.97 6.12315 1276.42 5.72044C1281.31 4.90412 1286.19 3.96484 1291.11 3.42819C1300.93 2.05635 1310.85 1.54927 1320.75 1.41611C1340.59 1.32826 1360.35 3.95698 1379.85 7.59454C1399.37 11.2579 1418.66 16.053 1438.03 20.492C1442.88 21.5998 1447.72 22.7264 1452.59 23.733L1467.24 26.5504C1472.1 27.5907 1477.05 28.1628 1481.97 28.8996L1489.36 29.9656L1493.05 30.4912L1496.76 30.8521L1511.6 32.3255C1514.07 32.621 1516.56 32.7181 1519.04 32.8678L1526.48 33.298C1531.44 33.5934 1536.4 33.9225 1541.38 33.9601L1556.29 34.2859C1596.05 34.3105 1635.76 31.1168 1675.15 25.9825C1714.64 21.0444 1753.8 14.3115 1792.97 7.69069Z" fill="#65BFFF"/>
</svg>
