<svg width="850" height="190" viewBox="0 0 850 190" fill="none" xmlns="http://www.w3.org/2000/svg">
<path d="M1586.97 -134.041L1574.11 -129.813C1571.97 -129.126 1569.84 -128.374 1567.67 -127.736L1561.17 -125.855C1556.82 -124.622 1552.51 -123.271 1548.15 -122.158L1535.04 -118.839C1517.48 -114.694 1499.77 -111.093 1481.89 -108.665C1446.19 -103.373 1409.96 -101.922 1373.92 -103.443L1360.42 -104.323L1353.67 -104.765L1346.95 -105.45L1333.49 -106.845L1320.09 -108.732L1313.39 -109.676L1306.74 -110.882L1293.42 -113.278L1280.19 -116.189L1273.58 -117.645L1267.01 -119.265C1231.98 -128.026 1197.56 -139.105 1162.61 -148.292C1127.67 -157.553 1092.16 -164.385 1056.62 -170.83C1038.86 -174.075 1021.08 -177.249 1003.4 -180.908C985.739 -184.571 968.233 -189.045 950.506 -192.622C941.646 -194.397 932.747 -196.008 923.773 -197.167C914.807 -198.299 905.787 -199.109 896.738 -199.353C887.697 -199.515 878.626 -199.32 869.623 -198.402C865.112 -198.004 860.621 -197.373 856.164 -196.514C851.71 -195.698 847.302 -194.601 842.958 -193.269C834.275 -190.635 825.915 -186.9 818.239 -182.021C814.428 -179.533 810.794 -176.799 807.39 -173.778C804.06 -170.692 800.811 -167.46 798.048 -163.87C792.086 -157.019 787.167 -149.344 782.438 -141.637C777.763 -133.888 773.246 -126.069 768.699 -118.256C759.647 -102.629 750.6 -86.9879 740.557 -71.9887C730.447 -57.0832 719.735 -42.3937 706.221 -30.4598C692.825 -18.4461 677.463 -8.67146 661.052 -1.29843C652.855 2.42068 644.38 5.51595 635.772 8.11586C627.154 10.7323 618.387 12.8439 609.548 14.5279C591.849 17.9289 573.861 19.6752 555.853 20.4629C537.838 21.2244 519.784 21.0047 501.75 20.2904C492.735 19.9119 483.727 19.4057 474.741 18.67C465.759 17.9473 456.796 16.8282 447.837 15.7779C429.943 13.6571 411.747 11.8686 393.735 14.3059C384.753 15.5111 375.926 17.7644 367.425 20.8667C358.923 23.9689 350.72 27.8714 342.802 32.2143C326.931 40.9238 312.132 51.3437 297.119 61.3318C289.622 66.3585 281.969 71.1193 274.331 75.9322C266.685 80.7191 259.074 85.5808 251.388 90.3225C236.034 99.8155 220.508 109.033 204.567 117.482C188.66 126.005 172.187 133.409 155.622 140.572C139.044 147.682 122.231 154.283 105.225 160.32C71.2031 172.357 36.3339 182.063 0.910736 189.026C36.3619 182.167 71.259 172.565 105.335 160.626C122.368 154.637 139.191 148.076 155.813 141.023C172.405 133.909 188.917 126.551 204.861 118.06C220.835 109.63 236.374 100.409 251.749 90.9384C259.438 86.2097 267.053 81.3612 274.711 76.5708C282.353 71.7709 290.032 67.0031 297.546 61.986C312.588 52.0039 327.381 41.6135 343.21 32.9572C351.119 28.6307 359.274 24.7552 367.73 21.693C376.183 18.6177 384.944 16.3819 393.864 15.2072C411.747 12.8047 429.861 14.6011 447.733 16.7419C456.695 17.8053 465.661 18.9374 474.673 19.6661C483.675 20.4114 492.7 20.9272 501.719 21.3187C519.759 22.059 537.847 22.2979 555.908 21.5519C573.962 20.7799 592 19.0622 609.766 15.6568C618.648 13.9754 627.458 11.8664 636.118 9.25248C644.782 6.65164 653.309 3.54245 661.558 -0.190593C678.073 -7.59155 693.549 -17.4106 707.061 -29.5113C713.792 -35.5761 720.08 -42.1506 725.671 -49.293C731.306 -56.3773 736.606 -63.7211 741.652 -71.2342C751.743 -86.2605 760.826 -101.925 769.881 -117.539C774.415 -125.349 778.912 -133.19 783.582 -140.909C788.275 -148.593 793.152 -156.215 799.047 -163.006C801.8 -166.58 804.972 -169.735 808.254 -172.794C811.599 -175.772 815.185 -178.479 818.934 -180.936C826.501 -185.758 834.743 -189.461 843.335 -192.071C847.627 -193.389 851.995 -194.475 856.408 -195.294C860.822 -196.156 865.273 -196.776 869.755 -197.18C878.715 -198.1 887.727 -198.308 896.723 -198.161C905.729 -197.92 914.703 -197.125 923.649 -196.016C932.59 -194.877 941.463 -193.259 950.316 -191.509C968.006 -187.965 985.509 -183.504 1003.21 -179.851C1020.92 -176.212 1038.7 -173.055 1056.46 -169.822C1091.99 -163.416 1127.48 -156.636 1162.4 -147.412C1197.33 -138.273 1231.76 -127.227 1266.84 -118.493L1273.42 -116.876L1280.05 -115.424L1293.28 -112.516L1306.62 -110.124L1313.29 -108.934L1320 -107.994L1333.42 -106.114L1346.9 -104.739L1353.64 -104.058L1360.4 -103.619L1373.92 -102.758C1410.01 -101.35 1446.25 -102.916 1481.97 -108.309C1499.86 -110.797 1517.56 -114.45 1535.11 -118.65L1548.23 -122.012C1552.6 -123.154 1556.91 -124.518 1561.25 -125.752L1567.74 -127.659C1569.9 -128.293 1572.03 -129.058 1574.18 -129.762L1586.97 -134.041Z" fill="#65BFFF"/>
</svg>
