<svg width="835" height="478" viewBox="0 0 835 478" fill="none" xmlns="http://www.w3.org/2000/svg">
<path d="M1812.53 119.907C1773.13 134.991 1731.74 144.551 1689.87 149.266C1668.95 151.923 1647.89 153.103 1626.83 153.946C1616.3 154.139 1605.76 154.54 1595.23 154.381C1589.96 154.341 1584.69 154.398 1579.41 154.298L1563.61 153.908C1558.34 153.824 1553.08 153.574 1547.82 153.343L1532.02 152.651C1521.49 151.995 1510.97 151.5 1500.46 150.665C1479.43 149.237 1458.43 147.294 1437.44 145.362C1395.48 141.332 1353.63 135.553 1312.45 126.454C1271.27 117.418 1230.92 104.619 1191.95 88.5516C1172.47 80.4917 1153.31 71.6609 1134.63 61.8588C1115.91 52.143 1097.47 41.8288 1078.46 32.6072C1068.99 27.9229 1059.33 23.6266 1049.56 19.612C1044.64 17.695 1039.73 15.7106 1034.72 14.0565C1029.75 12.2298 1024.67 10.7711 1019.61 9.24102C1009.41 6.45861 999.097 3.97679 988.607 2.61088C983.379 1.81187 978.117 1.18147 972.82 0.958743C970.176 0.774477 967.529 0.814379 964.872 0.761043C962.221 0.849513 959.577 0.8408 956.922 1.08995C946.352 1.80187 935.824 4.03316 926.006 8.14626C921.099 10.2103 916.46 12.8562 912.058 15.853C907.713 18.946 903.735 22.5148 900.125 26.4472C893.039 34.3397 886.87 43.0387 881.658 52.2785C879.04 56.8855 876.743 61.6777 874.49 66.4579C872.256 71.2491 870.093 76.0689 868.006 80.9323C859.645 100.341 852.23 120.135 843.123 139.138C841.993 141.513 840.848 143.892 839.642 146.224C838.474 148.577 837.238 150.917 835.995 153.227C833.516 157.876 830.887 162.439 827.962 166.793L825.826 170.107C825.462 170.651 825.122 171.221 824.754 171.75L823.565 173.312L818.779 179.568L817.575 181.134L816.265 182.601L813.644 185.535L811.024 188.469L809.714 189.935L808.298 191.303C804.515 194.947 800.846 198.72 796.743 202.003C794.724 203.676 792.782 205.456 790.694 207.051L784.382 211.772C783.318 212.551 782.291 213.352 781.222 214.117L777.936 216.289L771.364 220.632C769.128 222.028 766.841 223.295 764.573 224.635C762.279 225.936 760.085 227.369 757.717 228.513C739.175 238.439 719.517 246.225 699.348 252.219C696.844 253.034 694.297 253.684 691.753 254.35L684.13 256.377C679.019 257.619 673.872 258.727 668.737 259.879C663.558 260.805 658.403 261.883 653.206 262.686L637.566 264.852C627.144 266.353 616.631 267.098 606.115 267.652C595.597 268.143 585.069 268.238 574.535 267.952C564.022 267.629 553.489 266.992 543.036 265.823C532.584 264.655 522.201 262.798 511.809 261.023C501.421 259.263 490.981 257.549 480.43 256.726C469.887 255.932 459.229 256.078 448.782 257.841C438.319 259.545 428.197 263.054 418.749 267.833C409.305 272.627 400.43 278.417 391.922 284.682C374.89 297.216 359.381 311.574 343.121 324.97C335 331.673 326.552 337.986 318.158 344.38C309.751 350.729 301.277 357.001 292.698 363.126C275.538 375.359 257.905 386.955 239.525 397.252C230.333 402.393 220.991 407.271 211.375 411.602L204.192 414.913L196.959 418.095C192.158 420.258 187.284 422.265 182.418 424.303C162.952 432.388 143.183 439.757 123.17 446.331C83.1311 459.499 42.1491 469.858 0.610713 477.13C42.1661 469.981 83.1989 459.752 123.299 446.695C143.358 440.173 163.143 432.863 182.655 424.829C187.525 422.807 192.399 420.799 197.222 418.662L204.475 415.491L211.662 412.194C221.286 407.894 230.676 403.019 239.89 397.903C258.323 387.624 275.986 376.021 293.18 363.794C301.777 357.68 310.266 351.404 318.692 345.066C327.09 338.686 335.557 332.385 343.703 325.659C360.012 312.266 375.525 297.923 392.509 285.449C400.981 279.226 409.83 273.459 419.208 268.715C428.579 264.004 438.612 260.518 448.975 258.857C459.333 257.118 469.898 256.981 480.377 257.776C490.869 258.615 501.26 260.327 511.652 262.101C522.045 263.876 532.431 265.748 542.936 266.934C553.441 268.12 563.979 268.772 574.525 269.103C585.078 269.399 595.64 269.311 606.195 268.842C616.73 268.299 627.281 267.576 637.732 266.067L653.421 263.904C658.636 263.112 663.806 262.03 669.005 261.115C674.155 259.958 679.32 258.861 684.45 257.63L692.107 255.61C694.665 254.941 697.213 254.29 699.731 253.472C719.979 247.472 739.729 239.678 758.372 229.709C760.754 228.56 762.975 227.104 765.269 225.804C767.55 224.459 769.848 223.174 772.1 221.774L778.731 217.415L782.047 215.235C783.13 214.466 784.172 213.661 785.237 212.882L791.589 208.135C793.688 206.52 795.645 204.736 797.694 203.056C801.837 199.746 805.531 195.95 809.355 192.279L810.782 190.893L812.103 189.407L814.749 186.45L817.395 183.493L818.716 182.008L819.935 180.438L824.773 174.136L825.987 172.551C826.366 172.003 826.711 171.448 827.07 170.89L829.232 167.553C832.189 163.142 834.83 158.561 837.334 153.888C838.603 151.555 839.843 149.231 841.022 146.858C842.238 144.508 843.384 142.129 844.529 139.749C853.694 120.667 861.142 100.881 869.482 81.5093C871.558 76.6647 873.706 71.8489 875.929 67.0766C878.167 62.3003 880.447 57.5607 883.028 52.9954C888.167 43.839 894.278 35.2193 901.276 27.4142C904.813 23.5652 908.699 20.0689 912.947 17.0335C917.253 14.0943 921.812 11.502 926.629 9.46184C936.272 5.41137 946.63 3.1941 957.087 2.48028C959.694 2.22819 962.324 2.2409 964.94 2.14551C967.563 2.19193 970.181 2.15999 972.806 2.33336C978.054 2.55316 983.279 3.16175 988.474 3.95386C998.911 5.30197 1009.17 7.7511 1019.3 10.5197C1024.34 12.0389 1029.39 13.4906 1034.33 15.3065C1039.33 16.9645 1044.22 18.9232 1049.12 20.8293C1058.87 24.8181 1068.51 29.0886 1077.96 33.762C1096.93 42.947 1115.37 53.2463 1134.12 62.9502C1152.84 72.7294 1172.04 81.5632 1191.57 89.626C1230.62 105.688 1271.04 118.468 1312.29 127.469C1353.53 136.537 1395.42 142.274 1437.41 146.262C1458.41 148.191 1479.42 150.1 1500.46 151.509C1510.98 152.326 1521.52 152.817 1532.04 153.458L1547.84 154.135C1553.1 154.365 1558.37 154.596 1563.64 154.666L1579.46 155.003C1584.74 155.088 1590 155.031 1595.28 155.052C1605.83 155.174 1616.37 154.742 1626.91 154.517C1647.98 153.605 1669.05 152.358 1689.97 149.638C1731.81 144.789 1773.19 135.102 1812.53 119.907Z" fill="#65BFFF"/>
</svg>
