<svg width="650" height="440" viewBox="0 0 650 440" fill="none" xmlns="http://www.w3.org/2000/svg">
<path d="M1794.2 9.29561C1755.22 16.5034 1716.19 23.4395 1676.85 28.4012C1637.55 33.5117 1597.94 36.4574 1558.31 36.2026L1543.47 35.8122L1536.04 35.6021L1528.63 35.1342L1513.8 34.1497L1499.02 32.593C1496.56 32.3124 1494.09 32.129 1491.64 31.7511L1484.29 30.6583L1476.95 29.5655C1474.51 29.1837 1472.04 28.8882 1469.62 28.3715C1459.91 26.4476 1450.16 24.6586 1440.53 22.315C1421.21 17.8303 1401.99 12.937 1382.57 8.92841C1363.15 4.88613 1343.47 1.80411 1323.62 0.954732C1303.77 0.0567465 1283.87 1.77017 1264.31 5.19213C1254.56 6.99235 1244.84 9.08711 1235.28 11.7133C1225.69 14.2354 1216.2 17.2226 1206.82 20.406C1188.04 26.8404 1169.66 34.3326 1151.53 42.3473C1133.39 50.3471 1115.4 58.692 1097.53 67.2589C1061.76 84.3818 1026.41 102.32 991.055 120.257C973.396 129.262 955.841 138.477 938.417 147.944C929.703 152.67 921.073 157.533 912.267 162.093L899.13 169.024L892.561 172.49L885.927 175.83C850.481 193.425 813.546 208.312 775.096 217.785C755.902 222.546 736.308 225.756 716.583 227.231C706.719 227.961 696.832 228.251 686.937 228.097C677.05 227.908 667.162 227.242 657.32 226.276C617.917 222.328 579.048 213.486 539.342 211.26C519.517 210.101 499.59 210.881 479.901 213.382C460.201 215.839 440.716 219.992 421.729 225.765C402.746 231.553 384.281 239.036 366.499 247.818C348.693 256.574 331.486 266.493 314.6 276.9C280.802 297.673 248.298 320.426 215.2 342.208C198.658 353.128 181.899 363.708 164.851 373.808C147.808 383.922 130.387 393.404 112.565 402.037C76.9655 419.355 39.2054 432.709 0.0428317 439.106C39.2265 432.847 77.048 419.604 112.72 402.378C130.588 393.797 148.054 384.366 165.139 374.288C182.232 364.24 199.038 353.712 215.621 342.828C248.78 321.095 281.291 298.371 315.086 277.646C331.965 267.273 349.151 257.392 366.935 248.673C384.696 239.929 403.109 232.492 422.037 226.735C440.973 221.008 460.402 216.886 480.047 214.459C499.676 211.974 519.528 211.213 539.284 212.408C578.86 214.684 617.703 223.549 657.201 227.552C667.079 228.539 676.987 229.217 686.927 229.423C696.859 229.599 706.794 229.312 716.692 228.589C736.503 227.138 756.175 223.923 775.437 219.177C814.032 209.712 851.099 194.838 886.618 177.223L893.267 173.879L899.847 170.394L912.995 163.444C921.797 158.869 930.442 154.002 939.137 149.265C956.523 139.777 974.078 130.561 991.715 121.531C1027.05 103.568 1062.37 85.5893 1098.1 68.4446C1115.97 59.8628 1133.93 51.511 1152.05 43.5003C1170.16 35.4747 1188.51 27.9756 1207.22 21.5423C1216.58 18.3479 1226.03 15.3539 1235.6 12.8397C1245.14 10.2026 1254.81 8.10491 1264.53 6.29778C1284 2.86597 1303.82 1.14271 1323.6 2.01198C1343.38 2.81779 1363.01 5.87802 1382.4 9.89851C1401.8 13.8813 1421.03 18.7558 1440.36 23.2217C1478.96 32.5798 1518.69 36.5379 1558.34 36.994C1598.01 37.1248 1637.63 34.0482 1676.93 28.8108C1716.23 23.7003 1755.25 16.6224 1794.2 9.29561Z" fill="#65BFFF"/>
</svg>
