<svg width="814" height="318" viewBox="0 0 814 318" fill="none" xmlns="http://www.w3.org/2000/svg">
<path d="M1557.99 -106.584C1521.97 -102.884 1485.72 -102.978 1449.55 -102.493C1413.4 -101.999 1377.07 -101.067 1341.32 -95.0343C1332.38 -93.5615 1323.53 -91.5959 1314.74 -89.4087C1305.99 -87.1041 1297.33 -84.4216 1288.82 -81.3159C1280.37 -78.0737 1271.99 -74.5579 1263.95 -70.3635C1255.91 -66.169 1248.12 -61.5533 1240.43 -56.7559C1209.66 -37.6412 1180.58 -16.0047 1149.92 3.19328C1146.08 5.59021 1142.24 7.9611 1138.35 10.2607C1134.48 12.596 1130.47 14.6914 1126.54 16.9163L1114.7 23.5137L1102.54 29.5238L1096.46 32.5206C1094.42 33.4871 1092.44 34.59 1090.35 35.4427L1077.92 40.842L1071.7 43.5433C1070.66 43.9762 1069.63 44.4742 1068.58 44.868L1065.41 46.0657L1052.73 50.8603C1018.81 63.33 983.619 72.397 947.867 77.7156C912.101 82.9821 875.819 84.6567 839.725 82.6066L826.19 81.7625C823.933 81.6688 821.694 81.3325 819.445 81.111L812.701 80.3613L799.227 78.8583L785.847 76.7155L779.157 75.6441C776.924 75.2783 774.68 74.9716 772.478 74.458L759.213 71.6554C750.341 69.9392 741.612 67.5561 732.827 65.3835C697.823 56.2095 663.422 44.862 628.803 34.2578C611.512 28.8736 594.086 23.9171 576.576 19.2763C567.773 17.1367 559.014 14.8032 550.138 13.0183L543.491 11.5861C541.269 11.1056 539.071 10.605 536.825 10.2427L523.451 7.86085C505.567 5.05254 487.53 2.8163 469.401 2.42104C460.343 1.88618 451.293 2.31348 442.224 2.46615C433.17 2.7266 424.134 3.62499 415.163 4.86926C397.207 7.36133 379.497 11.6038 362.427 17.7144C353.899 20.768 345.543 24.3621 337.461 28.4557C329.378 32.5493 321.541 37.1921 314.169 42.4785C306.793 47.7519 299.793 53.5952 293.462 60.1115C287.111 66.6053 281.495 73.8104 276.499 81.3521C266.262 96.3055 256.585 111.626 246.953 126.962C227.729 157.624 208.442 188.415 185.176 216.178C183.765 217.939 182.271 219.652 180.77 221.34L176.291 226.438C173.276 229.816 170.109 233.04 167.017 236.341C165.443 237.965 163.793 239.51 162.183 241.102C160.549 242.657 158.995 244.303 157.288 245.794L152.253 250.328L149.736 252.596L147.122 254.763C133.292 266.404 118.428 276.842 102.768 285.871C87.1114 294.914 70.5663 302.463 53.3322 307.961C36.1243 313.452 18.1717 316.893 0.0562705 317.123C18.1727 316.949 36.1392 313.56 53.3906 308.127C70.6516 302.678 87.2366 295.174 102.943 286.16C118.655 277.172 133.569 266.763 147.462 255.147L150.076 252.979L152.61 250.722L157.674 246.194C159.384 244.715 160.951 243.066 162.585 241.511C164.196 239.919 165.859 238.37 167.436 236.76C170.541 233.455 173.725 230.241 176.753 226.859L181.261 221.767C182.775 220.076 184.26 218.379 185.684 216.614C209.031 188.843 228.354 158.029 247.611 127.387C257.259 112.06 266.94 96.7526 277.183 81.8253C282.193 74.28 287.765 67.1707 294.084 60.7134C300.386 54.2466 307.345 48.4564 314.685 43.2065C322.025 37.9566 329.817 33.3538 337.877 29.2802C345.937 25.2066 354.244 21.6395 362.753 18.619C379.765 12.5518 397.43 8.34944 415.308 5.87829C424.256 4.65403 433.254 3.76607 442.281 3.51259C451.311 3.37038 460.348 2.94656 469.38 3.48843C487.457 3.89762 505.429 6.15131 523.273 8.97012L536.622 11.3589C538.854 11.7247 541.053 12.2252 543.275 12.7058L549.909 14.1415C558.772 15.9299 567.521 18.2798 576.295 20.4134C593.779 25.0612 611.17 30.0412 628.45 35.442C663.051 46.0791 697.453 57.4823 732.493 66.6884C741.291 68.8576 750.034 71.2371 758.931 72.9464L772.235 75.7385C774.437 76.2521 776.694 76.5554 778.927 76.9212L785.643 77.9856L799.063 80.1179L812.576 81.6104L819.329 82.3436C821.578 82.5651 823.83 82.8979 826.087 82.9917L839.644 83.8157C875.813 85.8318 912.183 84.1198 948.02 78.8063C983.847 73.4537 1019.1 64.3302 1053.07 51.7909L1065.76 46.9633L1068.94 45.7621C1070.01 45.3518 1071.02 44.8703 1072.06 44.4374L1078.28 41.723L1090.74 36.2907C1092.84 35.4346 1094.81 34.3316 1096.86 33.3651L1102.94 30.3518L1115.11 24.3122L1126.96 17.6982C1130.9 15.4568 1134.91 13.3613 1138.79 11.0096C1142.67 8.69692 1146.53 6.32257 1150.36 3.91261C1181.04 -15.3445 1210.09 -37.0167 1240.81 -56.1304C1248.46 -60.9338 1256.25 -65.5496 1264.26 -69.7335C1272.26 -73.9175 1280.59 -77.4359 1289.03 -80.6746C1297.51 -83.7864 1306.14 -86.475 1314.88 -88.776C1323.64 -90.9693 1332.48 -92.9184 1341.4 -94.4268C1377.07 -100.549 1413.38 -101.603 1449.52 -102.204C1485.72 -102.768 1521.98 -102.773 1557.99 -106.584Z" fill="#65BFFF"/>
</svg>
