<svg width="603" height="411" viewBox="0 0 603 411" fill="none" xmlns="http://www.w3.org/2000/svg">
<path d="M1798.43 0.551954L1783.93 4.10364L1776.68 5.87007L1769.37 7.32014L1754.72 10.2094L1739.96 12.5364L1732.59 13.7L1725.18 14.6324L1710.37 16.4636C1705.42 16.9934 1700.48 17.4259 1695.51 17.911C1690.56 18.3921 1685.61 18.8922 1680.64 19.2017C1640.94 22.2834 1601.13 23.3537 1561.36 24.9091C1541.46 25.6327 1521.57 26.7223 1501.71 28.0429L1486.82 29.2741L1479.38 29.8972L1471.96 30.7067L1457.11 32.3256L1442.32 34.3919C1402.93 40.2433 1363.83 47.8826 1324.31 52.6679C1304.56 55.0437 1284.73 56.7224 1264.84 57.2219C1244.96 57.7511 1225.05 57.2836 1205.2 55.9373C1185.36 54.5425 1165.55 52.4077 1145.93 49.1342C1126.31 45.8647 1106.85 41.6737 1087.34 37.6067C1067.84 33.5546 1048.3 29.5928 1028.59 26.6645C1018.73 25.1275 1008.83 23.9872 998.914 22.9778C988.988 22.1143 979.02 21.3262 969.038 21.4981C964.039 21.4982 959.054 21.7821 954.069 22.1293C949.093 22.5699 944.123 23.0887 939.198 23.8981C929.341 25.4872 919.569 27.8666 910.212 31.4418C905.513 33.211 901.006 35.3431 896.456 37.3116L882.75 43.2478C878.197 45.2649 873.659 47.3415 869.22 49.663C864.81 51.9765 860.407 54.3197 856.055 56.7294C838.589 66.3353 821.483 76.5142 803.868 85.7454C799.454 88.0441 795.032 90.3129 790.567 92.4817C788.352 93.6013 786.064 94.5652 783.814 95.6143C781.564 96.6635 779.306 97.683 776.987 98.5914C767.86 102.488 758.425 105.653 748.969 108.681C710.945 120.336 671.528 126.913 632.087 131.854C612.338 134.308 592.524 136.222 572.698 137.852L513.159 142.343L498.274 143.462C493.304 143.806 488.352 144.096 483.385 144.391C473.447 144.965 463.505 145.525 453.582 146.51C433.79 148.386 413.85 152.565 396.027 161.789C387.131 166.372 378.975 172.288 371.444 178.817C363.872 185.31 356.669 192.229 349.697 199.358C335.749 213.601 322.669 228.647 308.899 243.017C281.149 271.511 252.581 299.507 220.441 323.024C216.441 325.977 212.365 328.822 208.243 331.617C204.139 334.422 199.875 336.983 195.677 339.67C191.47 342.328 187.149 344.793 182.884 347.354C178.567 349.834 174.214 352.244 169.885 354.68C152.386 364.166 134.376 372.691 115.94 380.165C79.0719 395.066 40.4006 405.97 0.801061 410.379C40.4177 406.092 79.1357 395.304 116.08 380.51C134.561 373.087 152.618 364.615 170.162 355.179C174.51 352.755 178.882 350.356 183.203 347.891C187.468 345.329 191.812 342.89 196.033 340.228C200.236 337.556 204.519 335.006 208.641 332.211C212.763 329.417 216.858 326.582 220.892 323.636C253.125 300.11 281.741 272.118 309.544 243.641C323.344 229.263 336.447 214.243 350.388 200.034C357.352 192.939 364.53 186.042 372.095 179.583C379.619 173.088 387.679 167.23 396.513 162.711C414.189 153.59 433.965 149.455 453.698 147.595C463.591 146.618 473.518 146.062 483.46 145.503C488.431 145.223 493.398 144.928 498.368 144.585L513.257 143.481L572.826 139.045C592.672 137.425 612.509 135.537 632.261 133.098C671.759 128.19 711.236 121.661 749.402 110C758.902 106.96 768.371 103.801 777.557 99.8892C779.877 98.9807 782.164 97.9534 784.429 96.9002C786.694 95.847 788.997 94.8791 791.227 93.7556C795.706 91.5829 800.147 89.3249 804.576 87.0222C822.254 77.79 839.379 67.622 856.824 58.0537C861.176 55.6441 865.563 53.3048 869.959 50.9953C874.343 48.7046 878.865 46.632 883.404 44.6189L897.091 38.6718C901.671 36.6953 906.178 34.5633 910.788 32.8179C920.026 29.2745 929.705 26.9041 939.48 25.3052C944.375 24.5038 949.311 23.978 954.239 23.5345C959.194 23.1952 964.146 22.9045 969.11 22.8974C979.04 22.7077 988.945 23.4969 998.851 24.3495C1008.75 25.3331 1018.63 26.4625 1028.46 27.9886C1048.15 30.8911 1067.65 34.8312 1087.16 38.8496C1106.66 42.8868 1126.15 47.0698 1145.82 50.3125C1165.49 53.5701 1185.32 55.7009 1205.2 57.0689C1225.09 58.4033 1245.03 58.8479 1264.95 58.2919C1284.87 57.7696 1304.75 56.0601 1324.52 53.6655C1364.07 48.8385 1403.18 41.1654 1442.53 35.2585L1457.31 33.1814L1472.13 31.5515L1479.56 30.742L1487 30.119L1501.87 28.8769C1521.72 27.5265 1541.6 26.4409 1561.49 25.6538C1601.27 23.9715 1641.09 22.7851 1680.79 19.5765C1685.76 19.2332 1690.71 18.7372 1695.66 18.2372C1700.62 17.7372 1705.58 17.2858 1710.53 16.7412L1725.34 14.8614L1732.74 13.914L1740.11 12.7357L1754.85 10.364L1769.49 7.43012L1776.82 5.96118L1784.06 4.16501L1798.43 0.551954Z" fill="#65BFFF"/>
</svg>
