<svg width="842" height="217" viewBox="0 0 842 217" fill="none" xmlns="http://www.w3.org/2000/svg">
<path d="M1593.78 -79.3331L1580.52 -74.0183L1577.21 -72.6839L1575.54 -72.0151L1573.86 -71.4374L1567.11 -69.0971L1560.35 -66.7569L1556.98 -65.5885L1553.56 -64.5731L1539.85 -60.5504C1537.57 -59.8288 1535.24 -59.3584 1532.93 -58.7672L1525.99 -57.0752L1519.05 -55.3832C1516.72 -54.8702 1514.38 -54.4389 1512.05 -53.9684C1507.37 -53.0632 1502.71 -52.0798 1498.03 -51.2302L1483.9 -49.0664C1465.04 -46.484 1446.03 -44.6882 1426.98 -44.3352L1419.84 -44.1259C1417.47 -44.0344 1415.08 -44.1358 1412.7 -44.1391L1398.41 -44.2637L1384.13 -44.909L1376.99 -45.2594L1369.87 -45.8654C1365.12 -46.2848 1360.37 -46.632 1355.63 -47.094L1341.44 -48.8111C1339.08 -49.129 1336.7 -49.3287 1334.36 -49.7222L1327.3 -50.8332C1322.6 -51.6134 1317.88 -52.2361 1313.19 -53.131C1303.84 -54.9703 1294.46 -56.6192 1285.21 -58.9184C1280.57 -60.0236 1275.9 -60.9941 1271.3 -62.2046C1266.67 -63.3689 1262.08 -64.5959 1257.47 -65.8489C1220.7 -75.9333 1184.7 -88.5832 1148.93 -101.813C1113.18 -115.106 1077.69 -129.08 1043.09 -145.137C1034.44 -149.148 1025.85 -153.288 1017.37 -157.623C1013.11 -159.752 1008.9 -162.003 1004.68 -164.212C1000.49 -166.5 996.303 -168.758 992.157 -171.112C975.528 -180.431 959.148 -190.279 942.021 -198.752C937.78 -200.941 933.399 -202.868 929.075 -204.895C924.663 -206.731 920.302 -208.692 915.796 -210.306C911.359 -212.079 906.775 -213.464 902.232 -214.957C899.935 -215.613 897.614 -216.206 895.308 -216.846C894.153 -217.151 892.999 -217.498 891.844 -217.748L888.34 -218.485L884.824 -219.219C883.656 -219.465 882.484 -219.724 881.302 -219.868L874.2 -220.913C873.016 -221.113 871.831 -221.215 870.637 -221.3L867.055 -221.598C864.672 -221.797 862.295 -222.026 859.889 -222.052C857.501 -222.167 855.096 -222.081 852.704 -222.055C851.511 -222.029 850.313 -221.917 849.118 -221.849C847.919 -221.793 846.731 -221.698 845.531 -221.544C840.749 -221.115 836.039 -220.16 831.398 -218.945C826.745 -217.726 822.271 -215.94 817.933 -213.856C813.622 -211.723 809.598 -209.038 805.821 -206.056C802.132 -202.958 798.745 -199.508 795.807 -195.689C795.035 -194.769 794.409 -193.722 793.706 -192.751C793.037 -191.761 792.308 -190.784 791.692 -189.752C790.426 -187.709 789.239 -185.63 788.122 -183.501C783.682 -174.976 780.51 -165.884 777.758 -156.736C775.022 -147.578 772.513 -138.356 770.089 -129.128C765.245 -110.66 760.729 -92.1122 755.059 -73.9118C752.224 -64.8116 749.1 -55.8016 745.535 -46.9807C742.019 -38.1312 737.789 -29.607 732.733 -21.5602C722.567 -5.50822 709.381 8.58707 694.27 20.0825C679.18 31.6561 662.228 40.655 644.501 47.4867C626.737 54.2863 608.18 58.9093 589.345 61.6089C570.514 64.3216 551.425 65.1336 532.41 64.2489C522.904 63.8065 513.422 62.9382 504.001 61.6205C494.571 60.3193 485.266 58.3418 476.025 56.0261C466.773 53.727 457.578 51.2174 448.236 49.2077C438.915 47.2206 429.421 45.6292 419.847 45.4563C417.451 45.4696 415.059 45.3421 412.67 45.5353L409.081 45.7286C407.889 45.8104 406.696 45.9905 405.518 46.1244C404.331 46.2749 403.133 46.3863 401.956 46.5759L398.427 47.2559L394.902 47.949L391.437 48.8637C382.189 51.3137 373.315 55.0047 364.822 59.3899C347.828 68.1767 332.401 79.5333 316.722 90.3146C308.888 95.7527 300.896 100.912 292.743 105.835L268.388 120.785C252.055 130.582 235.46 139.975 218.357 148.357C209.816 152.56 201.126 156.467 192.312 160.072L179.033 165.335C174.574 167.019 170.145 168.764 165.668 170.383C147.796 176.988 129.722 183.046 111.509 188.639C75.0793 199.811 38.0572 209.033 0.780411 216.939C38.0851 209.137 75.1352 200.02 111.606 188.948C129.846 183.404 147.931 177.385 165.833 170.842C170.313 169.236 174.758 167.5 179.221 165.829L192.524 160.602C201.357 157.02 210.081 153.132 218.642 148.952C235.791 140.584 252.402 131.202 268.765 121.411L293.15 106.466C301.303 101.543 309.347 96.3703 317.171 90.9488C332.879 80.1735 348.287 68.8499 365.214 60.1231C373.662 55.778 382.487 52.114 391.66 49.6979L395.1 48.7902L398.589 48.1206L402.079 47.4511C403.243 47.265 404.427 47.1571 405.602 47.0101C406.783 46.8891 407.96 46.6996 409.139 46.6212L412.689 46.4384C415.052 46.2521 417.427 46.3701 419.797 46.3638C429.293 46.5576 438.715 48.1404 448.007 50.1214C457.305 52.1285 466.505 54.6511 475.76 56.9633C485.005 59.2921 494.372 61.2947 503.835 62.615C513.289 63.9518 522.8 64.8262 532.34 65.2876C551.4 66.188 570.565 65.3977 589.468 62.6936C608.359 59.993 627.014 55.3717 644.872 48.5607C662.691 41.7046 679.76 32.6743 694.96 21.0432C710.194 9.48688 723.484 -4.69193 733.754 -20.87C738.865 -28.9734 743.153 -37.5967 746.688 -46.4793C750.285 -55.3367 753.428 -64.3798 756.272 -73.4965C761.971 -91.7464 766.526 -110.305 771.374 -128.76C773.785 -137.984 776.284 -147.19 778.998 -156.327C781.731 -165.442 784.868 -174.456 789.237 -182.878C790.336 -184.974 791.513 -187.036 792.756 -189.06C793.363 -190.074 794.069 -191.032 794.729 -192.005C795.422 -192.959 796.026 -193.987 796.788 -194.89C799.679 -198.626 802.985 -202.013 806.59 -205.061C810.283 -207.992 814.222 -210.626 818.459 -212.725C822.709 -214.772 827.105 -216.537 831.694 -217.739C836.256 -218.933 840.911 -219.887 845.637 -220.315C846.808 -220.475 847.986 -220.554 849.169 -220.619C850.351 -220.684 851.536 -220.792 852.715 -220.815C855.078 -220.847 857.456 -220.926 859.815 -220.817C862.192 -220.797 864.556 -220.565 866.923 -220.375L870.475 -220.083C871.656 -219.994 872.838 -219.906 874.008 -219.702L881.051 -218.67C882.233 -218.525 883.392 -218.263 884.556 -218.03L888.044 -217.302L891.531 -216.574C892.686 -216.325 893.826 -215.973 894.979 -215.682C897.268 -215.052 899.573 -214.468 901.852 -213.821C906.363 -212.347 910.93 -210.972 915.35 -209.209C919.836 -207.617 924.182 -205.666 928.577 -203.84C932.897 -201.826 937.248 -199.904 941.486 -197.729C958.574 -189.3 974.937 -179.462 991.601 -170.166C995.747 -167.813 999.954 -165.545 1004.15 -163.274C1008.38 -161.056 1012.58 -158.814 1016.85 -156.675C1025.36 -152.347 1033.95 -148.207 1042.61 -144.2C1077.25 -128.166 1112.8 -114.206 1148.56 -100.946C1184.35 -87.7624 1220.39 -75.136 1257.21 -65.0786C1261.81 -63.8256 1266.42 -62.6021 1271.04 -61.4508C1275.66 -60.2438 1280.33 -59.2733 1284.97 -58.1846C1294.23 -55.9019 1303.64 -54.26 1312.99 -52.4207C1317.68 -51.5389 1322.41 -50.9066 1327.11 -50.1264L1334.18 -49.0154C1336.53 -48.6123 1338.91 -48.4126 1341.27 -48.1077L1355.48 -46.4107C1360.22 -45.9487 1364.98 -45.605 1369.73 -45.1987L1376.85 -44.6222L1384 -44.3013L1398.29 -43.689L1412.59 -43.594C1414.97 -43.6038 1417.36 -43.5023 1419.74 -43.6103L1426.89 -43.8492C1445.95 -44.2483 1464.97 -46.1033 1483.84 -48.7413L1497.96 -50.9476C1502.64 -51.8103 1507.31 -52.8102 1511.99 -53.7285C1514.32 -54.212 1516.67 -54.6468 1518.99 -55.1563L1525.92 -56.8743L1532.85 -58.5924C1535.16 -59.1967 1537.5 -59.6706 1539.76 -60.4017L1553.46 -64.4635L1556.89 -65.4789L1560.25 -66.6603L1567 -69.0136L1573.75 -71.3669L1575.43 -71.9576L1577.1 -72.6265L1580.41 -73.9608L1593.78 -79.3331Z" fill="#65BFFF"/>
</svg>
