<svg width="830" height="425" viewBox="0 0 830 425" fill="none" xmlns="http://www.w3.org/2000/svg">
<path d="M1803.49 35.3044L1788.95 39.5364L1781.66 41.647L1774.29 43.4007L1759.55 46.9188L1744.67 49.7894L1737.23 51.2267L1729.73 52.3735L1714.75 54.667L1699.7 56.4835L1692.17 57.3843C1689.67 57.6571 1687.14 57.8556 1684.62 58.0838C1644.4 61.9285 1603.95 63.0728 1563.55 63.5853C1523.15 64.1762 1482.7 64.2226 1442.31 66.1166C1401.95 68.0999 1361.57 70.4868 1321.18 69.7854C1300.98 69.4272 1280.8 68.2806 1260.73 66.0716C1240.65 63.8627 1220.69 60.7145 1200.9 56.6933C1181.11 52.6385 1161.45 47.8793 1142.14 41.9903C1122.8 36.1389 1103.7 29.4771 1084.45 23.2697C1065.18 17.1148 1045.75 11.3211 1025.92 7.18093C1016.03 5.01714 1006.02 3.42666 995.988 2.09807C990.947 1.58355 985.93 0.919237 980.868 0.617957C975.811 0.282966 970.74 0.127495 965.658 0.229896C955.507 0.367243 945.366 1.4904 935.465 3.74497C925.579 6.05904 915.915 9.55712 907.085 14.681C902.664 17.2524 898.533 20.1925 894.391 23.0879C890.252 25.9983 886.152 28.9939 882.166 32.1183C874.104 38.3275 866.936 45.5566 859.812 52.7102C845.614 67.1474 832.253 82.3327 817.651 96.2723C813.999 99.7535 810.298 103.168 806.491 106.484C804.621 108.181 802.603 109.678 800.661 111.282L797.729 113.646C796.747 114.435 795.688 115.117 794.679 115.866L788.51 120.229L782.123 124.252C780.028 125.642 777.807 126.859 775.62 128.083C773.414 129.296 771.247 130.594 769.006 131.736C751.112 140.994 732.235 148.364 712.944 154.25C693.63 160.111 673.932 164.655 654.068 168.225C614.306 175.292 573.927 178.635 533.565 179.487C523.464 179.691 513.365 179.782 503.278 179.504C493.18 179.245 483.084 178.81 472.97 178.73C462.857 178.65 452.698 178.933 442.654 180.301C432.607 181.654 422.678 184.044 413.25 187.829C403.822 191.615 395.047 196.883 386.903 202.907C378.737 208.905 371.01 215.471 363.54 222.287C348.59 235.937 334.664 250.62 319.915 264.424C290.152 291.704 259.654 318.495 225.815 340.602C221.592 343.376 217.307 346.038 212.991 348.645C208.676 351.252 204.222 353.641 199.826 356.126C195.43 358.611 190.915 360.889 186.477 363.274C181.988 365.593 177.461 367.826 172.946 370.104C154.784 378.956 136.193 386.918 117.261 393.968C79.4094 408.047 40.1463 418.584 0.0918871 424.088C40.1634 418.707 79.4732 408.285 117.387 394.317C136.349 387.323 154.967 379.401 173.175 370.601C177.694 368.338 182.244 366.13 186.732 363.811C191.19 361.437 195.705 359.16 200.12 356.685C204.534 354.211 208.988 351.822 213.322 349.226C217.652 346.615 221.956 343.964 226.198 341.201C260.153 319.111 290.681 292.311 320.496 265.049C335.275 251.238 349.22 236.566 364.152 222.968C371.611 216.171 379.317 209.643 387.461 203.682C395.568 197.7 404.267 192.5 413.609 188.753C422.956 185.021 432.81 182.652 442.784 181.318C452.768 179.966 462.864 179.684 472.951 179.787C483.035 179.875 493.14 180.339 503.252 180.595C513.358 180.884 523.49 180.799 533.595 180.61C574.018 179.806 614.453 176.496 654.302 169.453C674.219 165.902 693.969 161.375 713.346 155.513C732.7 149.626 751.66 142.266 769.669 132.961C771.92 131.8 774.106 130.513 776.327 129.296C778.544 128.064 780.765 126.848 782.889 125.449L789.332 121.396L795.542 117.006C796.566 116.253 797.639 115.567 798.621 114.778L801.594 112.387C803.551 110.779 805.595 109.259 807.479 107.558C811.301 104.239 815.032 100.816 818.709 97.3119C833.378 83.3226 846.787 68.1402 860.934 53.7487C868.054 46.5802 875.16 39.4156 883.126 33.264C887.082 30.1475 891.156 27.1748 895.28 24.2684C899.404 21.3621 903.539 18.4368 907.848 15.927C916.523 10.8767 926.053 7.41442 935.816 5.11729C945.61 2.8757 955.658 1.76156 965.711 1.61835C970.741 1.49814 975.783 1.66158 980.805 1.98966C985.834 2.28402 990.837 2.95229 995.858 3.45592C1005.85 4.76273 1015.83 6.3314 1025.68 8.4883C1045.46 12.5957 1064.84 18.3528 1084.09 24.4819C1103.33 30.6597 1122.43 37.3066 1141.81 43.146C1161.18 49.0191 1180.87 53.7703 1200.7 57.8132C1220.54 61.8076 1240.55 64.9438 1260.65 67.1448C1280.76 69.3458 1300.98 70.4616 1321.19 70.8009C1361.65 71.4716 1402.04 69.0321 1442.39 67.0042C1482.75 65.0546 1523.19 64.9785 1563.6 64.3202C1604.01 63.6807 1644.46 62.4204 1684.69 58.4487C1687.2 58.2057 1689.73 57.9923 1692.23 57.7195L1699.75 56.8038L1714.79 54.9427L1729.76 52.6045L1737.25 51.428L1744.69 49.961L1759.57 47.0418L1774.29 43.479L1781.66 41.6956L1788.93 39.5553L1803.49 35.3044Z" fill="#65BFFF"/>
</svg>
