<svg width="822" height="288" viewBox="0 0 822 288" fill="none" xmlns="http://www.w3.org/2000/svg">
<path d="M1573.08 -80.9869L1560.35 -78.1619L1553.97 -76.7477L1547.55 -75.6141L1534.71 -73.3471L1521.79 -71.5467L1515.34 -70.6418L1508.86 -69.9263L1495.89 -68.5179L1482.89 -67.4102C1478.55 -67.0441 1474.23 -66.6685 1469.89 -66.4268C1435.17 -64.0417 1400.39 -63.1741 1365.65 -61.3382C1348.27 -60.4955 1330.91 -59.1426 1313.6 -57.4924L1300.63 -55.9893C1298.47 -55.7311 1296.31 -55.5155 1294.16 -55.2182L1287.71 -54.2576C1283.41 -53.5943 1279.09 -53.0258 1274.8 -52.2808L1261.98 -49.8373C1227.87 -42.919 1194.22 -33.9723 1160.06 -27.459C1142.98 -24.1828 1125.79 -21.5592 1108.48 -19.9386C1091.17 -18.318 1073.79 -17.5605 1056.41 -17.6113C1039.04 -17.6916 1021.64 -18.4099 1004.36 -20.1905C987.066 -21.9284 969.862 -24.5418 952.659 -27.1551C935.452 -29.7814 918.248 -32.4504 900.963 -34.483C892.325 -35.5354 883.648 -36.3678 874.967 -37.0595C870.621 -37.3479 866.287 -37.6955 861.926 -37.8822C857.569 -38.0559 853.213 -38.174 848.85 -38.1087C831.43 -37.9396 813.909 -36.0111 797.147 -30.9889C792.956 -29.712 788.876 -28.2276 784.746 -26.9256L772.296 -23.0448C768.138 -21.7488 763.986 -20.4269 759.876 -18.9484L747.627 -14.4228C731.342 -8.29893 715.176 -1.8857 698.794 3.92886C690.607 6.84916 682.364 9.61654 674.051 12.0676C665.715 14.483 657.267 16.537 648.784 18.4049C614.794 25.6682 580.188 29.7439 545.589 33.1189C528.283 34.8082 510.939 36.2002 493.607 37.687L441.616 42.3272C432.947 43.0853 424.282 43.8565 415.634 44.7485C406.977 45.6014 398.32 46.51 389.699 47.8139C381.095 49.1275 372.504 50.8008 364.149 53.3049C355.798 55.822 347.656 59.1213 340.037 63.384C332.379 67.6016 325.394 72.9798 319.017 78.9078C312.55 84.7619 306.466 91.0025 300.528 97.3717C288.655 110.123 277.526 123.513 265.865 136.431C242.36 162.051 218.135 187.221 190.681 208.618C187.256 211.296 183.767 213.894 180.251 216.443C176.731 218.978 173.084 221.353 169.481 223.785C165.898 226.24 162.154 228.459 158.488 230.81C154.791 233.1 151.016 235.257 147.289 237.485C132.214 246.149 116.617 253.905 100.605 260.682C68.5958 274.19 34.81 283.984 0.149562 287.389C34.825 284.091 68.6518 274.399 100.728 260.984C116.764 254.243 132.417 246.542 147.528 237.91C151.272 235.691 155.047 233.534 158.76 231.254C162.43 228.916 166.191 226.706 169.79 224.261C173.41 221.838 177.06 219.477 180.605 216.934C184.135 214.382 187.64 211.794 191.069 209.129C218.608 187.737 242.886 162.553 266.436 136.949C278.126 124.037 289.272 110.656 301.126 97.9379C307.055 91.5853 313.142 85.3577 319.59 79.5366C325.961 73.6382 332.882 68.3331 340.469 64.1625C348.043 59.9397 356.11 56.6745 364.412 54.1843C372.715 51.6942 381.258 50.0478 389.836 48.7412C398.418 47.4477 407.065 46.5557 415.726 45.7159C424.377 44.8369 433.046 44.0787 441.702 43.3241L493.681 38.743C511.016 37.2692 528.354 35.9068 545.677 34.2271C580.295 30.8746 614.942 26.8441 649.02 19.599C657.529 17.7241 665.993 15.6797 674.373 13.2668C682.741 10.8148 690.997 8.04398 699.201 5.13321C715.612 -0.675274 731.798 -7.06593 748.073 -13.1733L760.293 -17.705C764.364 -19.1729 768.499 -20.5045 772.645 -21.7969L785.104 -25.6942C789.259 -27.0032 793.366 -28.4947 797.489 -29.7671C814.091 -34.7605 831.497 -36.7001 848.829 -36.8875C853.166 -36.9458 857.505 -36.8373 861.846 -36.6731C866.177 -36.4924 870.511 -36.1449 874.853 -35.8695C883.518 -35.1874 892.175 -34.3775 900.796 -33.3347C918.061 -31.3246 935.259 -28.6817 952.462 -26.0684C969.662 -23.4681 986.888 -20.8748 1004.23 -19.1508C1021.57 -17.3842 1038.98 -16.6859 1056.39 -16.6125C1073.8 -16.5852 1091.22 -17.3533 1108.55 -19.0069C1125.88 -20.6475 1143.11 -23.2946 1160.19 -26.5873C1194.39 -33.1502 1228.04 -42.1394 1262.1 -49.0734L1274.91 -51.5264C1279.19 -52.2679 1283.49 -52.8495 1287.79 -53.5128L1294.24 -54.4864C1296.39 -54.7967 1298.56 -54.9993 1300.72 -55.2705L1313.66 -56.7832C1330.97 -58.4595 1348.31 -59.8089 1365.68 -60.6907C1400.41 -62.6343 1435.2 -63.6166 1469.92 -66.1C1474.26 -66.3548 1478.59 -66.7469 1482.92 -67.126L1495.92 -68.2763L1508.88 -69.7072L1515.36 -70.4393L1521.83 -71.3608L1534.74 -73.2002L1547.58 -75.5099L1553.99 -76.6694L1560.36 -78.0967L1573.08 -80.9869Z" fill="#65BFFF"/>
</svg>
