<svg width="852" height="472" viewBox="0 0 852 472" fill="none" xmlns="http://www.w3.org/2000/svg">
<path d="M1813.81 118.359L1798.93 123.78C1796.44 124.654 1793.99 125.647 1791.48 126.432L1783.94 128.834L1776.4 131.236C1773.89 132.036 1771.38 132.869 1768.82 133.524L1753.54 137.697C1752.26 138.039 1750.99 138.411 1749.72 138.72L1745.87 139.608L1738.15 141.39C1733 142.562 1727.89 143.837 1722.68 144.737L1707.12 147.679C1701.91 148.549 1696.69 149.262 1691.48 150.069L1683.65 151.244L1675.78 152.124L1660.04 153.84L1644.25 154.978C1641.62 155.141 1638.98 155.416 1636.35 155.5L1628.43 155.773C1607.34 156.77 1586.22 156.18 1565.15 155.034L1549.36 153.845L1545.41 153.547L1541.48 153.119L1533.62 152.229L1525.75 151.339L1521.83 150.892L1517.92 150.314L1502.26 147.973C1499.65 147.62 1497.06 147.136 1494.46 146.637L1486.68 145.182C1481.51 144.176 1476.29 143.344 1471.15 142.106L1455.7 138.626C1453.12 138.075 1450.56 137.403 1448.01 136.766C1445.45 136.128 1442.88 135.476 1440.33 134.804C1399.46 124.173 1359.36 110.735 1319 98.1932C1278.68 85.5319 1238.06 73.8764 1197.79 61.1059C1177.66 54.6849 1157.63 47.9862 1137.91 40.4531C1118.21 32.8674 1098.76 24.5605 1078.82 17.468C1068.86 13.9048 1058.74 10.7663 1048.51 8.07019C1038.28 5.34433 1027.85 3.42098 1017.35 2.02532C1006.85 0.614783 996.228 0.304235 985.645 0.43003C980.336 0.577238 975.055 1.06759 969.801 1.77411C964.563 2.60361 959.34 3.60468 954.233 5.10056C944.042 8.05457 934.2 12.493 925.569 18.7751C916.83 24.8947 909.687 33.1056 903.799 41.9046C897.893 50.7561 893.216 60.3307 888.956 70.0328C884.728 79.7419 880.73 89.533 876.766 99.3311C868.856 118.938 861.145 138.635 852.163 157.748C847.672 167.305 842.869 176.706 837.614 185.846C835.026 190.445 832.181 194.857 829.208 199.209C826.134 203.476 823.002 207.711 819.564 211.693C812.776 219.744 805.257 227.147 797.136 233.851C789.039 240.58 780.415 246.652 771.338 251.986C753.216 262.708 733.489 270.592 713.226 276.293C692.931 281.938 672.056 285.475 651.054 287.293C630.041 289.129 608.907 289.324 587.841 288.289C577.306 287.764 566.796 286.914 556.312 285.69C545.837 284.496 535.457 282.59 525.07 280.655C514.686 278.734 504.301 276.687 493.797 275.389C483.301 274.056 472.685 273.41 462.104 274.077C451.521 274.681 441.044 276.866 430.97 280.14C420.9 283.428 411.225 287.837 401.927 292.879C383.302 302.971 366.145 315.396 348.645 327.194C339.922 333.134 330.977 338.72 321.994 344.283C313.025 349.842 304.096 355.487 295.074 360.965C277.03 371.921 258.741 382.497 239.924 392.05C221.145 401.689 201.643 409.816 182.05 417.665C162.43 425.472 142.584 432.671 122.537 439.302C82.4285 452.504 41.5285 463.288 0.163271 471.741C41.5604 463.407 82.4922 452.742 122.663 439.651C142.744 433.09 162.617 425.932 182.268 418.18C201.891 410.387 221.439 402.312 240.274 392.706C259.13 383.174 277.448 372.59 295.515 361.66C304.552 356.178 313.47 350.552 322.453 344.989C331.44 339.44 340.416 333.847 349.153 327.903C366.672 316.115 383.841 303.735 402.4 293.693C411.657 288.678 421.295 284.31 431.295 281.057C441.299 277.818 451.676 275.675 462.181 275.077C472.688 274.429 483.24 275.077 493.688 276.406C504.147 277.717 514.503 279.772 524.89 281.707C535.267 283.661 545.68 285.574 556.193 286.79C566.696 288.025 577.24 288.882 587.794 289.418C608.912 290.47 630.098 290.293 651.164 288.475C672.233 286.671 693.176 283.148 713.578 277.49C733.935 271.78 753.77 263.883 772.037 253.106C781.187 247.753 789.877 241.63 798.03 234.87C806.203 228.121 813.803 220.665 820.643 212.567C824.121 208.559 827.293 204.297 830.389 199.992C833.388 195.618 836.28 191.145 838.883 186.542C844.178 177.375 849.018 167.933 853.52 158.357C862.534 139.188 870.294 119.493 878.208 99.9012C882.158 90.1071 886.156 80.3159 890.357 70.6297C894.581 60.9692 899.215 51.4701 905.036 42.7208C910.862 33.9863 917.818 25.969 926.424 19.9487C934.89 13.7589 944.572 9.37914 954.63 6.46093C959.662 4.98496 964.822 3.98495 970.011 3.15252C975.217 2.44305 980.453 1.96463 985.71 1.79962C996.226 1.65999 1006.76 1.96071 1017.21 3.35342C1027.64 4.73526 1038.02 6.64081 1048.22 9.34487C1058.41 12.0192 1068.49 15.1359 1078.43 18.6733C1098.32 25.7143 1117.76 34.0064 1137.51 41.5801C1157.27 49.1012 1177.34 55.8069 1197.47 62.1941C1237.77 74.9418 1278.41 86.5447 1318.74 99.1575C1359.09 111.65 1399.2 125.055 1440.13 135.656C1442.68 136.327 1445.25 136.979 1447.82 137.613C1450.38 138.25 1452.94 138.903 1455.53 139.469L1470.99 142.945C1476.13 144.198 1481.35 145.016 1486.54 146.017L1494.33 147.468C1496.93 147.967 1499.52 148.436 1502.15 148.8L1517.83 151.118L1521.74 151.696L1525.68 152.139L1533.55 153.011L1541.43 153.882L1545.36 154.31L1549.31 154.607L1565.11 155.777C1586.21 156.868 1607.36 157.401 1628.47 156.336L1636.38 156.034C1639.02 155.949 1641.65 155.674 1644.29 155.493L1660.1 154.302L1675.84 152.538L1683.72 151.639L1691.55 150.449C1696.76 149.627 1701.99 148.91 1707.2 148.01L1722.76 145.02C1727.96 144.105 1733.09 142.811 1738.23 141.624L1745.94 139.828L1749.79 138.924C1751.07 138.596 1752.34 138.225 1753.62 137.882L1768.89 133.664C1771.45 133.01 1773.94 132.166 1776.47 131.362L1784 128.945L1791.53 126.528C1794.06 125.739 1796.5 124.735 1798.99 123.862L1813.81 118.359Z" fill="#65BFFF"/>
</svg>
