<svg width="639" height="414" viewBox="0 0 639 414" fill="none" xmlns="http://www.w3.org/2000/svg">
<path d="M1804.32 22.3296C1765.72 33.2136 1726.49 41.9867 1686.75 47.392C1666.91 50.2846 1646.92 52.1003 1626.91 53.3824L1611.89 54.1079L1608.13 54.2856L1604.37 54.3511L1596.86 54.4675L1589.35 54.5838L1585.59 54.6345L1581.83 54.5731L1566.79 54.298C1546.76 53.5598 1526.74 52.3099 1506.87 49.5672C1496.9 48.4617 1487.04 46.6222 1477.16 44.9811C1474.69 44.6072 1472.24 44.0687 1469.79 43.5451L1462.44 41.9931C1457.54 40.931 1452.62 39.985 1447.76 38.7691C1408.75 29.4698 1370.34 17.5725 1330.88 9.92384C1311.16 6.0881 1291.22 3.46253 1271.2 1.95475C1251.18 0.480691 1231.09 0.0123467 1211.02 0.2422C1190.95 0.438341 1170.9 1.26921 1150.87 2.10699C1130.84 2.97848 1110.79 3.28272 1090.73 4.11357C1070.68 4.95931 1050.63 6.36142 1030.75 9.25109C1020.8 10.6399 1010.92 12.4759 1001.1 14.6283C991.285 16.732 981.539 19.3276 972.059 22.6808C953.102 29.3384 934.941 38.9073 919.797 52.3068C904.571 65.521 891.515 80.8955 877.721 95.4156C864.008 110.058 850.055 124.461 835.259 137.974C827.871 144.736 820.254 151.241 812.382 157.447C804.529 163.664 796.367 169.438 787.771 174.547C770.607 184.805 752.059 192.692 732.825 198.197C723.208 200.917 713.416 203.047 703.541 204.688C693.669 206.281 683.703 207.405 673.724 208.182C663.745 208.959 653.726 209.348 643.718 209.543C633.702 209.708 623.684 209.746 613.653 209.437L553.499 208.068L493.328 206.99C473.279 206.719 453.07 207.336 433.325 211.351C423.46 213.325 413.801 216.247 404.427 219.875C395.052 223.503 385.966 227.851 377.133 232.608C359.442 242.147 342.707 253.295 325.939 264.26C309.152 275.214 292.194 285.943 275.312 296.78C258.399 307.56 241.374 318.164 223.993 328.145C206.623 338.172 188.753 347.28 170.701 356.007C152.64 364.704 134.302 372.838 115.652 380.226C78.3789 394.98 39.814 406.637 0.364597 413.923C39.8459 406.756 78.4576 395.214 115.793 380.571C134.458 373.242 152.842 365.16 170.948 356.515C189.031 347.843 206.943 338.772 224.358 328.797C241.782 318.852 258.821 308.244 275.756 297.489C292.642 286.668 309.609 275.968 326.429 265.021C343.216 254.067 359.944 242.953 377.584 233.46C395.191 223.96 413.883 216.257 433.533 212.363C453.158 208.38 473.297 207.798 493.317 208.077L553.474 209.222L613.629 210.655C623.65 210.983 633.701 210.952 643.736 210.798C653.777 210.61 663.801 210.235 673.828 209.462C683.841 208.692 693.826 207.578 703.761 205.984C713.669 204.35 723.514 202.238 733.191 199.502C752.537 193.999 771.199 186.065 788.482 175.775C797.133 170.635 805.385 164.838 813.264 158.598C821.169 152.398 828.808 145.856 836.241 139.082C851.096 125.553 865.104 111.119 878.832 96.4729C892.644 81.9002 905.663 66.5674 920.763 53.4188C935.724 40.1642 953.707 30.6431 972.515 24.0252C981.931 20.6732 991.599 18.0826 1001.38 15.9868C1011.15 13.8315 1021.01 11.9885 1030.92 10.6077C1050.73 7.68935 1070.75 6.2803 1090.76 5.41279C1110.78 4.56013 1130.85 4.23704 1150.9 3.34272C1170.94 2.48608 1190.97 1.62947 1211.02 1.42243C1231.06 1.18565 1251.12 1.61335 1271.1 3.06562C1291.09 4.54764 1310.99 7.15541 1330.66 10.9545C1370.05 18.5407 1408.47 30.4043 1447.53 39.6579C1452.39 40.8738 1457.33 41.8159 1462.24 42.874L1469.61 44.422C1472.06 44.9456 1474.53 45.4801 1477 45.854C1486.91 47.4871 1496.78 49.3227 1506.76 50.4093C1526.66 53.1292 1546.71 54.386 1566.76 55.0716L1581.82 55.2942L1585.57 55.3555L1589.33 55.2899L1596.85 55.1548L1604.38 55.0196L1608.15 54.95L1611.9 54.7575L1626.93 53.9834C1646.94 52.6378 1666.92 50.7587 1686.78 47.7986C1726.54 42.2286 1765.77 33.3435 1804.32 22.3296Z" fill="#65BFFF"/>
</svg>
