<svg width="825" height="278" viewBox="0 0 825 278" fill="none" xmlns="http://www.w3.org/2000/svg">
<path d="M1578.45 -72.444L1565.74 -69.0366L1559.38 -67.3347L1552.95 -65.9326L1540.09 -63.1284L1527.12 -60.856L1520.65 -59.7216L1514.13 -58.8122L1501.09 -57.01L1488.01 -55.5867C1483.65 -55.1024 1479.28 -54.6312 1474.92 -54.3138C1439.95 -51.2861 1404.83 -50.3018 1369.75 -49.3966C1352.21 -48.944 1334.66 -48.3897 1317.12 -47.685L1303.97 -47.0266L1297.39 -46.6891L1290.83 -46.2439L1277.69 -45.3499L1264.58 -44.1552C1229.64 -40.732 1194.79 -36.3251 1159.74 -34.5203C1142.22 -33.6392 1124.67 -33.3665 1107.14 -34.1316C1089.62 -34.8577 1072.14 -36.4321 1054.74 -38.7836C1037.37 -41.1551 1020.06 -44.189 1002.98 -48.1758C985.898 -52.1625 968.997 -56.9247 952.013 -61.427C935.023 -65.8997 917.971 -70.188 900.652 -73.2871C892.01 -74.9253 883.294 -76.1107 874.562 -77.1517C865.819 -78.0223 857.034 -78.8399 848.211 -78.6553C843.805 -78.6482 839.407 -78.3499 835.01 -77.9959C830.628 -77.5342 826.253 -76.9908 821.92 -76.1372C817.6 -75.287 813.293 -74.2865 809.096 -72.9245C804.889 -71.6016 800.741 -70.057 796.747 -68.1485C792.729 -66.2755 788.932 -64.0429 785.108 -61.9146C781.275 -59.7697 777.445 -57.6118 773.669 -55.3566C769.893 -53.1014 766.174 -50.7359 762.576 -48.1792C759.012 -45.6034 755.464 -43.0181 751.966 -40.3485C737.962 -29.7224 724.498 -18.4309 710.277 -8.19394C706.726 -5.62166 703.124 -3.13365 699.478 -0.703863C697.655 0.511043 695.775 1.61559 693.925 2.78183L691.137 4.50691L688.268 6.08596C680.674 10.4399 672.681 14.0346 664.623 17.4372C648.395 24.0348 631.63 29.2534 614.592 33.3996C597.557 37.5589 580.324 40.8214 562.972 43.4311C528.27 48.6081 493.248 51.342 458.197 52.9243C449.426 53.3045 440.662 53.655 431.903 53.7666C423.138 53.9077 414.349 53.9576 405.573 54.3673C396.793 54.764 388.014 55.5796 379.361 57.2834C370.73 58.9672 362.219 61.5132 354.226 65.2617C346.222 68.9711 338.827 73.9142 331.992 79.434C325.107 84.9252 318.586 90.8358 312.271 96.9428C299.644 109.17 287.811 122.176 275.323 134.505C250.141 158.912 224.28 182.872 195.379 202.826C191.78 205.327 188.115 207.735 184.426 210.106C180.736 212.478 176.919 214.632 173.16 216.897C169.393 219.136 165.529 221.219 161.716 223.386L150.106 229.571C134.494 237.582 118.486 244.791 102.127 251.158C69.4329 263.83 35.3393 273.203 0.482332 277.542C35.3542 273.311 69.4889 264.039 102.25 251.461C118.639 245.155 134.688 237.991 150.336 230.012L161.982 223.86C165.799 221.705 169.68 219.632 173.459 217.389C177.222 215.138 181.052 212.98 184.758 210.618C188.464 208.256 192.146 205.858 195.761 203.367C224.75 183.43 250.65 159.46 275.879 135.069C288.41 122.742 300.245 109.749 312.853 97.5551C319.159 91.4647 325.671 85.5705 332.527 80.1289C339.356 74.6387 346.67 69.759 354.603 66.0967C362.525 62.3952 370.962 59.8832 379.54 58.2133C388.131 56.5399 396.872 55.7348 405.612 55.3486C414.363 54.9458 423.139 54.8995 431.92 54.7679C440.699 54.6789 449.477 54.3248 458.251 53.9577C493.325 52.4111 528.387 49.7223 563.152 44.5705C580.52 41.9703 597.803 38.7365 614.88 34.5797C631.952 30.4526 648.798 25.2261 665.094 18.6241C673.195 15.2241 681.237 11.6025 688.896 7.23105L691.791 5.64498L694.605 3.91296C696.468 2.74323 698.371 1.61866 700.207 0.400267C703.865 -2.03301 707.493 -4.52799 711.058 -7.10376C725.343 -17.3581 738.836 -28.6436 752.809 -39.2332C756.294 -41.8993 759.829 -44.4811 763.38 -47.0534C766.929 -49.5831 770.622 -51.9416 774.376 -54.1768C778.126 -56.425 781.943 -58.5795 785.776 -60.7243C789.613 -62.8561 793.396 -65.0853 797.327 -66.9208C801.256 -68.8119 805.352 -70.3425 809.507 -71.6515C813.652 -72.9995 817.92 -73.9896 822.198 -74.8423C826.475 -75.6951 830.82 -76.2445 835.163 -76.6957C839.518 -77.0523 843.886 -77.3566 848.25 -77.3663C857.001 -77.5596 865.739 -76.7576 874.452 -75.893C883.152 -74.8711 891.838 -73.6918 900.46 -72.0762C917.73 -69.0057 934.762 -64.7399 951.745 -60.2933C968.722 -55.8172 985.632 -51.0715 1002.76 -47.0822C1019.88 -43.0928 1037.21 -40.0789 1054.62 -37.7179C1072.04 -35.3864 1089.56 -33.8355 1107.11 -33.1164C1124.66 -32.3713 1142.25 -32.6544 1159.79 -33.5685C1194.88 -35.4134 1229.74 -39.8629 1264.65 -43.3217L1277.75 -44.5259L1290.88 -45.446L1297.44 -45.9043L1304.01 -46.2418L1317.16 -46.9132C1334.69 -47.644 1352.23 -48.2078 1369.77 -48.69C1404.87 -49.7099 1439.98 -50.8055 1474.95 -53.9444C1479.32 -54.2783 1483.68 -54.7626 1488.04 -55.2599L1501.12 -56.7258L1514.16 -58.5706L1520.68 -59.506L1527.16 -60.657L1540.12 -62.9685L1552.97 -65.8118L1559.4 -67.24L1565.74 -68.955L1578.45 -72.444Z" fill="#65BFFF"/>
</svg>
