<svg width="609" height="460" viewBox="0 0 609 460" fill="none" xmlns="http://www.w3.org/2000/svg">
<path d="M1809.83 92.0369L1795.08 97.0081C1792.63 97.8253 1790.19 98.6872 1787.7 99.4639L1780.21 101.567C1775.22 102.952 1770.24 104.398 1765.23 105.724L1750.07 109.197C1747.54 109.746 1745.03 110.404 1742.48 110.879L1734.84 112.29C1729.74 113.21 1724.66 114.205 1719.53 115.052L1704.14 117.262C1701.58 117.614 1699.02 118.045 1696.44 118.323L1688.7 119.152C1683.55 119.689 1678.39 120.304 1673.24 120.793L1657.74 121.982C1655.14 122.166 1652.56 122.396 1649.98 122.561L1642.22 122.936L1626.68 123.689C1605.95 124.269 1585.2 124.614 1564.47 124.209C1523 123.716 1481.56 121.508 1440.11 119.558C1398.69 117.633 1357.27 114.592 1316.26 108.283C1275.26 102.053 1234.86 92.0599 1195.61 78.6151C1176.01 71.8645 1156.62 64.4343 1137.72 55.9167C1118.78 47.4745 1100.11 38.3517 1081.03 30.106C1071.52 25.9265 1061.85 22.0934 1052.12 18.4517L1044.76 15.8802L1041.08 14.6038L1037.36 13.4475L1029.91 11.1389L1022.39 9.08914C1021.14 8.75497 1019.88 8.39103 1018.62 8.09056L1014.82 7.21203L1007.21 5.48867L999.532 4.0877C998.245 3.85867 996.984 3.60681 995.69 3.41151L991.828 2.89996C981.558 1.28394 971.096 0.675745 960.681 1.07512C950.277 1.63121 939.864 3.22568 929.979 6.67137L928.125 7.29575L926.299 8.02422C925.095 8.52211 923.865 8.97935 922.673 9.52184C920.32 10.6624 917.937 11.7473 915.689 13.099C913.375 14.3248 911.242 15.8688 909.043 17.2869C906.978 18.9081 904.833 20.4075 902.932 22.224C895.179 29.2274 888.203 36.9949 881.942 45.3519C878.828 49.5338 875.942 53.9099 873.262 58.3424C870.529 62.7571 867.917 67.2669 865.32 71.7727C855.06 89.8574 845.763 108.449 834.835 126.059C829.376 134.855 823.568 143.473 816.971 151.41C810.246 159.222 802.984 166.635 794.87 173.066C778.92 186.251 760.791 196.592 741.944 205.086C723.063 213.572 703.364 220.19 683.27 225.159C643.06 235.073 601.493 239.388 560.075 238.673C549.725 238.481 539.36 238.055 529.045 237.104C518.73 236.154 508.453 234.747 498.155 233.505C487.858 232.263 477.487 231.279 467.08 231.23C461.871 231.159 456.674 231.484 451.486 231.965C448.908 232.322 446.313 232.618 443.751 233.097L439.915 233.87L437.997 234.257L436.111 234.762C425.982 237.237 416.327 241.482 407.388 246.794C398.427 252.081 389.963 258.159 381.846 264.638C365.62 277.626 350.658 292.06 334.914 305.541C327.04 312.274 318.896 318.712 310.794 325.187C302.669 331.636 294.49 338.005 286.19 344.214C269.584 356.618 252.499 368.417 234.623 378.93C225.683 384.179 216.581 389.121 207.229 393.603C197.942 398.212 188.516 402.539 179.04 406.736C160.059 415.09 140.73 422.613 121.106 429.337C81.8747 442.782 41.5752 453.134 0.619151 459.788C41.5882 453.242 81.9384 443.021 121.232 429.686C140.871 423.021 160.246 415.55 179.272 407.248C188.771 403.076 198.22 398.775 207.53 394.192C216.905 389.735 226.055 384.797 235.018 379.574C252.951 369.094 270.062 357.271 286.701 344.874C295.02 338.676 303.214 332.303 311.358 325.865C319.46 319.39 327.607 312.966 335.511 306.226C351.299 292.733 366.27 278.328 382.463 265.397C390.555 258.941 398.996 252.901 407.907 247.66C416.794 242.393 426.353 238.206 436.382 235.773L438.253 235.272L440.156 234.89L443.948 234.129C446.484 233.672 449.049 233.384 451.609 233.017C456.752 232.547 461.916 232.216 467.079 232.299C477.427 232.363 487.739 233.363 498.036 234.605C508.334 235.847 518.615 237.268 528.949 238.23C539.297 239.187 549.681 239.625 560.05 239.828C601.573 240.578 643.227 236.287 683.586 226.398C703.762 221.438 723.536 214.8 742.51 206.305C761.446 197.788 779.693 187.415 795.765 174.149C803.935 167.688 811.278 160.221 818.076 152.325C824.76 144.301 830.595 135.66 836.075 126.827C847.066 109.152 856.392 90.5525 866.635 72.5204C869.217 68.0186 871.803 63.5316 874.525 59.1358C877.201 54.6884 880.029 50.3917 883.121 46.2474C889.294 37.9778 896.244 30.2332 903.88 23.3251C905.744 21.5503 907.849 20.0777 909.858 18.4872C912.012 17.0811 914.09 15.5679 916.363 14.3689C918.567 13.0292 920.91 11.971 923.222 10.8573C924.388 10.3377 925.604 9.88438 926.788 9.37561L928.57 8.65906L930.395 8.04265C940.116 4.64073 950.398 3.03348 960.695 2.49038C971.012 2.08513 981.358 2.67657 991.575 4.27479L995.422 4.7903C996.701 4.98958 997.963 5.24145 999.25 5.47048L1006.88 6.85363L1014.45 8.5552L1018.23 9.42285C1019.49 9.72331 1020.74 10.0912 1021.99 10.4254L1029.49 12.4494L1036.91 14.7471L1040.63 15.9034L1044.3 17.1689L1051.63 19.7146C1061.34 23.3306 1070.98 27.1568 1080.48 31.3065C1099.52 39.5155 1118.19 48.6194 1137.17 57.0537C1156.11 65.5742 1175.54 73.0114 1195.18 79.7352C1234.48 93.1641 1274.99 103.13 1316.05 109.329C1357.11 115.607 1398.57 118.606 1440.01 120.493C1481.46 122.38 1522.91 124.569 1564.41 124.991C1585.16 125.329 1605.9 124.935 1626.65 124.287L1642.19 123.485L1649.96 123.077C1652.54 122.911 1655.14 122.678 1657.71 122.483L1673.22 121.245C1678.38 120.738 1683.53 120.123 1688.69 119.571L1696.42 118.712C1699 118.419 1701.55 117.988 1704.11 117.621L1719.51 115.362C1724.62 114.501 1729.7 113.491 1734.81 112.552L1742.45 111.126C1745 110.636 1747.51 109.978 1750.03 109.414L1765.18 105.896C1770.19 104.57 1775.16 103.095 1780.17 101.691L1787.65 99.573C1790.12 98.7855 1792.57 97.9196 1795.03 97.0874L1809.83 92.0369Z" fill="#65BFFF"/>
</svg>
