<svg width="625" height="487" viewBox="0 0 625 487" fill="none" xmlns="http://www.w3.org/2000/svg">
<path d="M1815.66 140.968L1800.66 146.709C1798.16 147.636 1795.69 148.696 1793.13 149.507L1785.52 152.042L1777.91 154.576L1774.09 155.838C1772.81 156.244 1771.52 156.575 1770.23 156.951L1754.79 161.329C1752.23 162.11 1749.61 162.684 1747.01 163.317L1739.2 165.171L1731.39 167.025C1728.79 167.658 1726.15 168.078 1723.52 168.607L1707.75 171.668L1691.87 174.073C1689.22 174.45 1686.59 174.915 1683.92 175.231L1675.94 176.11C1670.62 176.661 1665.32 177.379 1659.98 177.788C1649.31 178.528 1638.64 179.458 1627.93 179.635L1619.91 179.886L1615.9 180.005L1611.88 179.981L1595.82 179.883C1593.14 179.916 1590.48 179.77 1587.8 179.642L1579.78 179.289C1574.43 179.048 1569.07 178.905 1563.75 178.388L1547.74 177.113C1542.42 176.61 1537.11 175.913 1531.79 175.314L1523.82 174.388C1521.17 174.062 1518.53 173.59 1515.88 173.215L1500.01 170.773L1484.23 167.795L1476.35 166.289L1468.52 164.513L1452.87 160.943C1447.68 159.639 1442.49 158.32 1437.31 156.934C1395.91 145.885 1355.33 131.984 1314.74 118.248C1274.19 104.388 1233.57 90.6447 1193.64 75.1198C1173.69 67.329 1153.89 59.0839 1134.53 49.924C1115.18 40.7641 1096.1 30.9236 1076.35 22.5059C1066.51 18.2236 1056.44 14.4344 1046.22 11.163C1036.01 7.80937 1025.53 5.29298 1014.96 3.45406C1004.38 1.4733 993.611 0.83659 982.876 0.636205C972.118 0.585619 961.331 1.85013 950.917 4.6883C945.732 6.18919 940.662 8.05795 935.778 10.3867C930.956 12.8265 926.277 15.5627 922.012 18.8897C913.43 25.4773 906.408 34.0223 901.003 43.3138C895.504 52.6143 891.367 62.602 887.669 72.6795C884.008 82.7789 880.572 92.9455 877.207 103.141C870.508 123.523 864.085 143.991 856.353 163.965C852.504 173.955 848.317 183.813 843.637 193.436C839.005 203.062 833.625 212.331 827.264 220.906C820.921 229.492 813.846 237.542 806.083 244.866C798.316 252.176 789.93 258.839 781.092 264.826C763.344 276.707 743.81 285.847 723.533 292.507C703.242 299.236 682.182 303.508 660.952 305.96C639.7 308.387 618.254 308.904 596.897 307.852C586.216 307.318 575.555 306.381 564.95 304.998C554.348 303.63 543.842 301.551 533.4 299.232C522.946 296.932 512.495 294.52 501.911 292.685C491.343 290.846 480.604 289.738 469.843 289.975C464.462 290.03 459.104 290.589 453.781 291.394C451.117 291.789 448.506 292.441 445.874 292.955C443.235 293.502 440.691 294.343 438.088 295.025C427.786 298.104 417.906 302.457 408.429 307.483C389.452 317.574 372.08 330.263 354.386 342.289C345.569 348.35 336.517 354.075 327.382 359.663C318.269 365.278 309.195 370.977 300.033 376.525C281.7 387.59 263.087 398.205 243.937 407.767C224.823 417.401 204.938 425.407 184.955 433.105C164.964 440.773 144.745 447.832 124.327 454.323C83.5061 467.302 41.9621 477.939 0.0386928 486.686C41.998 478.073 83.5698 467.54 124.442 454.691C144.872 448.245 165.121 441.241 185.147 433.643C205.146 426.005 225.077 418.05 244.263 408.446C263.468 398.916 282.092 388.282 300.444 377.227C309.606 371.68 318.684 365.995 327.812 360.377C336.947 354.789 346.032 349.071 354.865 343.006C372.588 330.972 389.939 318.32 408.842 308.313C418.279 303.314 428.108 299.006 438.339 295.962C440.912 295.288 443.456 294.447 446.069 293.922C448.687 293.412 451.283 292.765 453.917 292.378C459.181 291.589 464.494 291.042 469.827 290.984C480.499 290.771 491.17 291.865 501.694 293.716C512.229 295.548 522.67 297.979 533.123 300.279C543.57 302.613 554.113 304.714 564.767 306.099C575.406 307.489 586.091 308.452 596.805 308.993C618.218 310.078 639.746 309.57 661.066 307.157C682.378 304.715 703.52 300.452 723.904 293.715C744.29 287.041 763.946 277.885 781.82 265.938C790.732 259.931 799.169 253.223 807.017 245.859C814.851 238.5 821.988 230.386 828.393 221.735C834.821 213.111 840.27 203.744 844.934 194.061C849.636 184.4 853.845 174.505 857.72 164.491C865.485 144.461 871.933 123.97 878.655 103.614C882.005 93.4223 885.411 83.2637 889.065 73.1981C892.742 63.1582 896.835 53.246 902.254 44.0626C907.612 34.8316 914.44 26.5139 922.874 20.0296C927.059 16.7562 931.653 14.0587 936.393 11.6725C941.192 9.38251 946.173 7.53765 951.284 6.05665C961.545 3.2434 972.206 1.98098 982.867 2.0257C993.523 2.2311 1004.22 2.83912 1014.73 4.79116C1025.24 6.61229 1035.67 9.09599 1045.82 12.4319C1056.01 15.6814 1066.03 19.4528 1075.84 23.7093C1095.55 32.0904 1114.62 41.9011 1134.01 51.0531C1153.42 60.2159 1173.23 68.4422 1193.2 76.225C1233.19 91.734 1273.82 105.429 1314.39 119.251C1354.99 132.954 1395.6 146.813 1437.04 157.835C1442.22 159.221 1447.41 160.54 1452.61 161.825L1468.29 165.387L1476.14 167.159L1484.04 168.661L1499.84 171.631L1515.74 174.051C1518.39 174.44 1521.03 174.897 1523.69 175.219L1531.68 176.141C1537 176.722 1542.32 177.433 1547.66 177.917L1563.69 179.169C1569.02 179.668 1574.38 179.811 1579.74 180.033L1587.77 180.352C1590.44 180.465 1593.12 180.593 1595.8 180.56L1611.87 180.605L1615.88 180.614L1619.91 180.476L1627.93 180.191C1638.66 179.996 1649.33 179.017 1660.01 178.258C1665.36 177.83 1670.67 177.093 1675.99 176.527L1683.98 175.615C1686.63 175.303 1689.27 174.818 1691.92 174.427L1707.8 171.973L1723.57 168.864C1726.19 168.32 1728.84 167.9 1731.43 167.252L1739.24 165.368L1747.04 163.484C1749.64 162.851 1752.25 162.263 1754.81 161.481L1770.26 157.055C1771.54 156.679 1772.84 156.348 1774.11 155.927L1777.93 154.651L1785.54 152.101L1793.15 149.552C1795.7 148.741 1798.16 147.666 1800.67 146.739L1815.66 140.968Z" fill="#65BFFF"/>
</svg>
