<svg width="615" height="530" viewBox="0 0 615 530" fill="none" xmlns="http://www.w3.org/2000/svg">
<path d="M1821.21 203.511L1805.79 210.144L1801.94 211.798C1800.66 212.365 1799.37 212.916 1798.05 213.368L1790.17 216.227L1782.29 219.087L1778.35 220.527C1777.03 221.023 1775.67 221.355 1774.35 221.773L1758.3 226.616C1755.64 227.489 1752.93 228.12 1750.21 228.785L1742.06 230.775L1733.92 232.765C1731.22 233.475 1728.44 233.868 1725.71 234.439L1709.24 237.594L1692.64 239.985C1689.88 240.359 1687.12 240.812 1684.34 241.126L1675.99 241.929C1670.42 242.431 1664.87 243.09 1659.28 243.455C1648.11 244.009 1636.96 244.861 1625.79 244.795L1617.4 244.907L1613.21 244.961C1611.81 244.969 1610.41 244.899 1609.01 244.873L1592.25 244.455L1588.07 244.348L1583.88 244.1L1575.51 243.584C1569.93 243.198 1564.35 243.021 1558.79 242.407L1542.09 240.822C1539.31 240.595 1536.54 240.222 1533.77 239.865L1525.45 238.81C1514.33 237.548 1503.31 235.623 1492.27 233.912C1470.25 230.039 1448.31 225.572 1426.61 220.196C1383.19 209.45 1340.6 195.339 1299.36 178.013C1278.73 169.352 1258.47 159.845 1238.62 149.509C1218.78 139.188 1199.32 128.077 1180.41 116.134C1170.95 110.158 1161.62 103.985 1152.43 97.6004C1143.24 91.2309 1134.25 84.5706 1125.27 77.8726C1107.35 64.4538 1089.49 50.8921 1070.67 38.687C1068.33 37.1458 1065.91 35.7216 1063.53 34.222C1061.15 32.7413 1058.77 31.2566 1056.32 29.8889L1049.01 25.7107L1041.54 21.8301L1037.79 19.9012L1033.96 18.1529C1031.41 17.0035 1028.87 15.7868 1026.3 14.69C1021.07 12.6662 1015.91 10.428 1010.52 8.82877L1006.52 7.52392C1005.19 7.06781 1003.85 6.64543 1002.48 6.32822L994.312 4.24431C993.63 4.07627 992.959 3.88938 992.267 3.7402L990.194 3.37099L986.044 2.61771C983.276 2.1479 980.532 1.52833 977.737 1.25692C966.589 -0.187795 955.211 -0.119867 944.112 1.94528C938.589 3.07452 933.176 4.7323 927.973 6.93935C922.825 9.29116 917.959 12.2209 913.513 15.7077C909.19 19.3531 905.201 23.4188 901.878 28.0075C900.976 29.0942 900.311 30.3564 899.511 31.5273C898.767 32.731 897.943 33.8762 897.279 35.1382C895.866 37.5891 894.634 40.1192 893.439 42.671C888.741 52.9368 885.747 63.8618 883.383 74.8249C881.092 85.8167 879.182 96.8657 877.421 107.938C873.929 130.076 871.051 152.304 866.8 174.278C864.679 185.256 862.207 196.169 859.169 206.93C856.203 217.72 852.43 228.232 847.506 238.255C845.112 243.28 842.339 248.137 839.482 252.919C836.493 257.626 833.41 262.278 830.009 266.696C823.265 275.565 815.769 283.886 807.573 291.439C799.382 299.006 790.586 305.922 781.353 312.158C772.098 318.368 762.376 323.906 752.356 328.807C732.319 338.623 710.979 345.712 689.16 350.363C667.323 355.003 644.952 357.059 622.634 356.52C611.481 356.24 600.338 355.288 589.282 353.708C583.755 352.925 578.252 351.929 572.801 350.775C570.079 350.181 567.363 349.49 564.655 348.829C561.957 348.085 559.255 347.39 556.579 346.609C545.836 343.525 535.212 339.996 524.45 336.901C513.7 333.788 502.716 331.231 491.544 330.112C480.387 328.989 468.996 329.426 458.037 332.012C447.065 334.49 436.572 338.752 426.673 343.987C406.77 354.421 389.129 368.426 371.162 381.689C362.191 388.365 353.05 394.768 343.598 400.776C334.213 406.861 324.802 412.906 315.302 418.799C296.303 430.585 276.924 441.787 256.866 451.642C246.839 456.576 236.63 461.129 226.246 465.266C221.044 467.298 215.808 469.259 210.575 471.235C205.318 473.122 200.081 475.083 194.794 476.914C173.698 484.32 152.374 491.054 130.895 497.272C87.9308 509.677 44.3506 519.903 0.585696 529.143C44.3677 520.026 87.9797 509.919 130.991 497.628C152.504 491.481 173.855 484.788 194.982 477.437C200.273 475.621 205.514 473.675 210.79 471.799C216.026 469.838 221.267 467.892 226.488 465.871C236.894 461.759 247.137 457.213 257.187 452.305C277.302 442.483 296.706 431.258 315.728 419.498C325.247 413.616 334.662 407.586 344.061 401.496C353.503 395.507 362.703 389.089 371.689 382.409C389.675 369.156 407.313 355.2 427.124 344.839C436.986 339.646 447.395 335.422 458.267 332.987C469.111 330.448 480.375 330.012 491.454 331.141C502.547 332.265 513.449 334.812 524.185 337.929C534.917 341.031 545.54 344.561 556.306 347.67C558.987 348.467 561.703 349.158 564.401 349.901C567.128 350.573 569.84 351.249 572.585 351.869C578.073 353.045 583.592 354.037 589.137 354.831C600.231 356.433 611.407 357.392 622.614 357.689C645.018 358.253 667.489 356.218 689.42 351.569C711.335 346.924 732.769 339.826 752.924 329.978C763.004 325.061 772.77 319.511 782.096 313.266C791.399 306.995 800.25 300.048 808.497 292.45C816.778 284.859 824.325 276.492 831.132 267.559C834.558 263.118 837.678 258.424 840.688 253.68C843.582 248.855 846.381 243.977 848.797 238.914C853.768 228.83 857.598 218.175 860.576 207.366C863.635 196.567 866.129 185.617 868.271 174.601C872.555 152.57 875.463 130.334 878.963 108.227C880.698 97.1768 882.608 86.1278 884.882 75.1886C887.212 64.2821 890.186 53.4583 894.808 43.3244C895.981 40.8103 897.202 38.2991 898.582 35.9048C899.221 34.6655 900.034 33.5392 900.771 32.3693C901.546 31.2211 902.184 29.9819 903.076 28.914C906.311 24.4126 910.215 20.4492 914.432 16.8803C918.786 13.4659 923.541 10.5977 928.574 8.29264C933.677 6.12833 938.982 4.48352 944.417 3.37814C955.329 1.331 966.562 1.25428 977.604 2.66337C980.38 2.92389 983.106 3.53257 985.841 3.99545L989.956 4.74183L992.014 5.115C992.692 5.26817 993.363 5.45507 994.045 5.6231L1002.14 7.67831C1003.5 7.98463 1004.83 8.40701 1006.15 8.85223L1010.12 10.1462C1015.48 11.7236 1020.6 13.9549 1025.8 15.9569C1028.37 17.0388 1030.89 18.2596 1033.42 19.398L1037.23 21.1355L1040.96 23.0534L1048.39 26.9122L1055.67 31.0687C1058.11 32.4215 1060.49 33.9062 1062.85 35.376C1065.23 36.8607 1067.63 38.274 1069.97 39.8153C1088.75 51.95 1106.59 65.4859 1124.54 78.8967C1133.53 85.5759 1142.54 92.247 1151.76 98.6235C1160.97 105.004 1170.33 111.184 1179.81 117.156C1198.77 129.102 1218.24 140.209 1238.13 150.533C1258.01 160.861 1278.32 170.356 1298.97 179.009C1340.29 196.315 1382.93 210.41 1426.41 221.126C1448.14 226.478 1470.1 230.923 1492.15 234.788C1503.21 236.495 1514.25 238.416 1525.37 239.659L1533.71 240.71C1536.49 241.063 1539.25 241.44 1542.05 241.663L1558.76 243.21C1564.32 243.809 1569.92 243.982 1575.51 244.35L1583.88 244.832L1588.07 245.08L1592.27 245.183L1609.05 245.549C1610.44 245.574 1611.84 245.63 1613.24 245.622L1617.44 245.549L1625.82 245.407C1637.02 245.42 1648.18 244.549 1659.36 243.962C1664.93 243.567 1670.49 242.908 1676.06 242.387L1684.4 241.555C1687.18 241.225 1689.94 240.773 1692.71 240.38L1709.32 237.94L1725.79 234.737C1728.53 234.161 1731.31 233.753 1734.01 233.044L1742.16 231.02L1750.3 229C1753.01 228.335 1755.74 227.685 1758.39 226.816L1774.44 221.924C1775.78 221.503 1777.13 221.155 1778.43 220.663L1782.38 219.224L1790.25 216.334L1798.12 213.445C1799.44 212.993 1800.72 212.427 1802 211.861L1805.85 210.191L1821.21 203.511Z" fill="#65BFFF"/>
</svg>
