<svg width="859" height="431" viewBox="0 0 859 431" fill="none" xmlns="http://www.w3.org/2000/svg">
<path d="M1808.14 54.5398C1769.33 67.0257 1729.56 76.5658 1689.19 82.172C1648.86 88.0837 1607.99 89.997 1567.26 88.4905C1562.17 88.3092 1557.09 87.8999 1552 87.6065C1546.92 87.2944 1541.83 87.0308 1536.76 86.4459L1521.55 84.9411C1516.5 84.3671 1511.45 83.5986 1506.4 82.9274L1498.83 81.8943C1496.31 81.5661 1493.81 81.0396 1491.3 80.6291L1476.24 77.9677C1471.24 76.9969 1466.28 75.8387 1461.3 74.7816C1456.32 73.7096 1451.34 72.6377 1446.4 71.3783C1406.8 61.6629 1367.88 49.2959 1328.18 39.7839C1308.33 35.0616 1288.33 30.999 1268.17 27.7755C1248.04 24.4807 1227.79 21.8563 1207.55 19.4859C1187.29 17.1194 1167.01 14.9811 1146.79 12.5243C1126.56 10.0378 1106.44 6.70921 1086.18 4.23066C1065.94 1.69955 1045.51 0.142512 1025.08 0.706897C1014.87 1.05057 1004.67 1.69675 994.542 3.16701C984.407 4.43199 974.355 6.5994 964.59 9.66217C959.713 11.2401 954.924 13.0333 950.231 15.1199C945.583 17.2581 940.974 19.545 936.623 22.2571C932.268 24.9544 928.014 27.848 924.076 31.1509C922.044 32.7156 920.206 34.5311 918.288 36.2246C916.507 38.0728 914.601 39.811 912.941 41.7543C909.542 45.5824 906.04 49.3263 902.943 53.3922C899.786 57.4105 896.753 61.5388 893.815 65.7216C887.939 74.0871 882.228 82.5359 876.456 90.9371C864.94 107.78 853.36 124.561 840.702 140.53C834.391 148.518 827.799 156.294 820.881 163.743C814.024 171.24 806.511 178.131 798.528 184.398C782.548 196.938 764.619 206.955 745.682 214.34C736.219 218.055 726.495 221.091 716.639 223.573C706.786 226.07 696.79 228.031 686.738 229.545C666.611 232.61 646.261 233.95 625.904 234.431C615.714 234.658 605.532 234.677 595.354 234.535C585.166 234.411 574.986 234.142 564.799 233.667L534.262 232.396C524.107 231.802 513.953 230.856 503.797 230.022C483.514 228.347 462.917 227.219 442.679 230.521C432.577 232.144 422.676 234.877 413.114 238.459C403.541 242.06 394.319 246.492 385.365 251.394C367.444 261.202 350.65 272.843 333.652 284.077C325.17 289.73 316.538 295.119 307.926 300.583L282.071 316.9C264.778 327.687 247.319 338.216 229.426 347.952C211.568 357.759 193.093 366.391 174.508 374.735C155.893 383.023 137.029 390.739 117.907 397.792C79.6437 411.823 40.3332 423.073 0.302081 430.803C40.3542 423.211 79.7116 412.075 118.036 398.156C137.193 391.174 156.102 383.508 174.745 375.261C193.36 366.973 211.877 358.377 229.796 348.618C247.731 338.919 265.219 328.382 282.531 317.606L308.409 301.315C317.025 295.866 325.671 290.472 334.172 284.831C351.189 273.607 367.976 262 385.846 252.238C394.774 247.359 403.975 242.964 413.492 239.394C423.009 235.824 432.843 233.141 442.872 231.538C462.98 228.286 483.484 229.423 503.741 231.121C513.901 231.97 524.055 232.915 534.234 233.536L564.797 234.847C574.984 235.322 585.172 235.621 595.375 235.74C605.568 235.879 615.773 235.886 625.967 235.673C646.362 235.214 666.764 233.892 686.958 230.841C697.058 229.33 707.088 227.376 716.989 224.882C726.894 222.403 736.682 219.366 746.189 215.639C765.234 208.241 783.297 198.188 799.413 185.564C807.466 179.262 815.046 172.321 821.954 164.778C828.913 157.303 835.526 149.489 841.868 141.493C854.562 125.482 866.202 108.686 877.722 91.8574C883.489 83.4413 889.196 74.9777 895.032 66.639C897.959 62.475 900.966 58.3696 904.098 54.3741C907.184 50.327 910.645 46.61 914.018 42.8047C915.664 40.8654 917.529 39.154 919.284 37.3287C921.176 35.6579 922.988 33.8653 924.991 32.3085C928.858 29.0404 933.058 26.1776 937.357 23.5111C941.653 20.8297 946.206 18.5737 950.809 16.4475C955.447 14.3916 960.191 12.6104 965.02 11.0295C974.696 7.99059 984.651 5.8173 994.737 4.54939C1004.8 3.08016 1014.97 2.41222 1025.13 2.06561C1045.47 1.47649 1065.83 3.01969 1086.03 5.51415C1106.25 7.9709 1126.38 11.2807 1146.64 13.7443C1166.88 16.1782 1187.17 18.2829 1207.41 20.6384C1247.9 25.2672 1288.29 31.2311 1327.93 40.7927C1367.58 50.2532 1406.51 62.5865 1446.16 72.2562C1451.11 73.5116 1456.09 74.5687 1461.09 75.6367C1466.08 76.6898 1471.05 77.8441 1476.06 78.8148L1491.14 81.4534C1493.65 81.8639 1496.15 82.3904 1498.69 82.7146L1506.27 83.7438C1511.33 84.3961 1516.36 85.1834 1521.43 85.7386L1536.66 87.2205C1541.74 87.7906 1546.82 88.069 1551.92 88.3624C1557.01 88.6408 1562.1 89.0462 1567.19 89.2125C1607.96 90.595 1648.86 88.5469 1689.18 82.5083C1729.61 76.8077 1769.37 67.1446 1808.14 54.5398Z" fill="#65BFFF"/>
</svg>
