<svg width="850" height="487" viewBox="0 0 850 487" fill="none" xmlns="http://www.w3.org/2000/svg">
<path d="M1816.03 140.968L1801.03 146.709C1798.52 147.636 1796.05 148.696 1793.5 149.507L1785.88 152.042L1778.27 154.576L1774.45 155.838C1773.18 156.244 1771.88 156.575 1770.6 156.951L1755.15 161.329C1752.59 162.11 1749.98 162.684 1747.38 163.317L1739.56 165.171L1731.75 167.025C1729.15 167.658 1726.51 168.078 1723.88 168.607L1708.12 171.668L1692.24 174.073C1689.59 174.45 1686.96 174.915 1684.29 175.231L1676.31 176.11C1670.98 176.661 1665.68 177.379 1660.35 177.788C1649.68 178.528 1639 179.458 1628.29 179.635L1620.27 179.886L1616.26 180.005L1612.24 179.981L1596.19 179.883C1593.51 179.916 1590.84 179.77 1588.17 179.642L1580.14 179.289C1574.79 179.048 1569.44 178.905 1564.11 178.388L1548.11 177.113C1542.78 176.61 1537.47 175.913 1532.15 175.314L1524.19 174.388C1521.54 174.062 1518.89 173.59 1516.25 173.215L1500.37 170.773L1484.6 167.795L1476.71 166.289L1468.88 164.513L1453.23 160.943C1448.05 159.639 1442.85 158.32 1437.68 156.934C1396.27 145.885 1355.7 131.984 1315.11 118.248C1274.56 104.388 1233.93 90.6447 1194 75.1198C1174.06 67.329 1154.26 59.0839 1134.9 49.924C1115.54 40.7641 1096.46 30.9236 1076.71 22.5059C1066.87 18.2236 1056.8 14.4344 1046.58 11.163C1036.37 7.80937 1025.89 5.29298 1015.32 3.45406C1004.75 1.4733 993.976 0.83659 983.242 0.636205C972.484 0.585619 961.696 1.85013 951.282 4.6883C946.097 6.18919 941.027 8.05795 936.143 10.3867C931.322 12.8265 926.643 15.5627 922.377 18.8897C913.796 25.4773 906.773 34.0223 901.368 43.3138C895.869 52.6143 891.733 62.602 888.034 72.6795C884.373 82.7789 880.937 92.9455 877.572 103.141C870.873 123.523 864.451 143.991 856.718 163.965C852.869 173.955 848.682 183.813 844.002 193.436C839.37 203.062 833.991 212.331 827.629 220.906C821.286 229.492 814.211 237.542 806.448 244.866C798.681 252.176 790.295 258.839 781.457 264.826C763.709 276.707 744.176 285.847 723.898 292.507C703.607 299.236 682.547 303.508 661.317 305.96C640.065 308.387 618.619 308.904 597.262 307.852C586.582 307.318 575.92 306.381 565.315 304.998C554.713 303.63 544.208 301.551 533.765 299.232C523.312 296.932 512.86 294.52 502.277 292.685C491.708 290.846 480.969 289.738 470.209 289.975C464.827 290.03 459.469 290.589 454.146 291.394C451.482 291.789 448.871 292.441 446.239 292.955C443.6 293.502 441.056 294.343 438.453 295.025C428.152 298.104 418.271 302.457 408.794 307.483C389.818 317.574 372.445 330.263 354.752 342.289C345.934 348.35 336.883 354.075 327.747 359.663C318.634 365.278 309.56 370.977 300.398 376.525C282.065 387.59 263.452 398.205 244.303 407.767C225.188 417.401 205.303 425.407 185.32 433.105C165.329 440.773 145.111 447.832 124.692 454.323C83.8713 467.302 42.3273 477.939 0.403927 486.686C42.3632 478.073 83.9351 467.54 124.807 454.691C145.237 448.245 165.486 441.241 185.512 433.643C205.511 426.005 225.442 418.05 244.628 408.446C263.834 398.916 282.457 388.282 300.809 377.227C309.971 371.68 319.049 365.995 328.177 360.377C337.313 354.789 346.397 349.071 355.23 343.006C372.953 330.972 390.304 318.32 409.207 308.313C418.644 303.314 428.473 299.006 438.704 295.962C441.277 295.288 443.822 294.447 446.435 293.922C449.052 293.412 451.648 292.765 454.282 292.378C459.546 291.589 464.86 291.042 470.192 290.984C480.864 290.771 491.535 291.865 502.059 293.716C512.594 295.548 523.035 297.979 533.489 300.279C543.935 302.613 554.478 304.714 565.132 306.099C575.772 307.489 586.456 308.452 597.17 308.993C618.583 310.078 640.111 309.57 661.431 307.157C682.743 304.715 703.886 300.452 724.27 293.715C744.655 287.041 764.311 277.885 782.185 265.938C791.097 259.931 799.534 253.223 807.383 245.859C815.216 238.5 822.354 230.386 828.759 221.735C835.186 213.111 840.635 203.744 845.299 194.061C850.001 184.4 854.21 174.505 858.085 164.491C865.85 144.461 872.298 123.97 879.02 103.614C882.37 93.4223 885.776 83.2637 889.43 73.1981C893.107 63.1582 897.2 53.246 902.619 44.0626C907.977 34.8316 914.805 26.5139 923.239 20.0296C927.424 16.7562 932.018 14.0587 936.759 11.6725C941.557 9.38251 946.538 7.53765 951.649 6.05665C961.91 3.2434 972.571 1.98098 983.232 2.0257C993.888 2.2311 1004.59 2.83912 1015.09 4.79116C1025.61 6.61229 1036.03 9.09599 1046.19 12.4319C1056.37 15.6814 1066.39 19.4528 1076.21 23.7093C1095.91 32.0904 1114.99 41.9011 1134.37 51.0531C1153.78 60.2159 1173.59 68.4422 1193.57 76.225C1233.55 91.734 1274.19 105.429 1314.75 119.251C1355.35 132.954 1395.97 146.813 1437.41 157.835C1442.59 159.221 1447.78 160.54 1452.98 161.825L1468.66 165.387L1476.5 167.159L1484.4 168.661L1500.21 171.631L1516.1 174.051C1518.76 174.44 1521.39 174.897 1524.06 175.219L1532.04 176.141C1537.37 176.722 1542.69 177.433 1548.02 177.917L1564.05 179.169C1569.39 179.668 1574.74 179.811 1580.1 180.033L1588.13 180.352C1590.81 180.465 1593.48 180.593 1596.16 180.56L1612.24 180.605L1616.25 180.614L1620.27 180.476L1628.3 180.191C1639.02 179.996 1649.69 179.017 1660.38 178.258C1665.72 177.83 1671.03 177.093 1676.36 176.527L1684.34 175.615C1687 175.303 1689.64 174.818 1692.29 174.427L1708.17 171.973L1723.94 168.864C1726.56 168.32 1729.2 167.9 1731.8 167.252L1739.6 165.368L1747.41 163.484C1750.01 162.851 1752.62 162.263 1755.18 161.481L1770.63 157.055C1771.91 156.679 1773.21 156.348 1774.48 155.927L1778.29 154.651L1785.9 152.101L1793.51 149.552C1796.06 148.741 1798.53 147.666 1801.03 146.739L1816.03 140.968Z" fill="#65BFFF"/>
</svg>
