<svg width="604" height="407" viewBox="0 0 604 407" fill="none" xmlns="http://www.w3.org/2000/svg">
<path d="M1800.79 7.43294L1786.28 11.3208L1779.03 13.2628L1771.69 14.8626L1757.02 18.0624L1742.22 20.6553L1734.83 21.9497L1727.39 22.9873L1712.52 25.0437L1697.59 26.6677C1692.62 27.2203 1687.63 27.758 1682.65 28.1201C1642.75 31.5748 1602.68 32.698 1562.66 33.7308C1542.64 34.2473 1522.61 34.8798 1502.6 35.6838L1487.6 36.4351L1480.09 36.8202L1472.6 37.3282L1457.61 38.3483L1442.65 39.7115C1402.79 43.6174 1363.02 48.6459 1323.03 50.7053C1303.03 51.7106 1283.01 52.0218 1263.01 51.1487C1243.02 50.3203 1223.07 48.5238 1203.22 45.8407C1183.39 43.1347 1163.65 39.6728 1144.16 35.1239C1124.66 30.5748 1105.38 25.141 1086 20.0038C1066.61 14.9002 1047.16 10.0071 1027.4 6.4709C1017.54 4.60163 1007.59 3.24914 997.626 2.0613C987.65 1.06788 977.627 0.134943 967.559 0.345607C962.532 0.353736 957.513 0.694131 952.496 1.09796C947.496 1.62478 942.504 2.2448 937.56 3.21886C932.631 4.18893 927.716 5.33057 922.927 6.88469C918.127 8.3942 913.394 10.1565 908.836 12.3343C904.251 14.4714 899.92 17.0189 895.557 19.4474C891.182 21.8948 886.812 24.357 882.503 26.9303C878.195 29.5036 873.952 32.2027 869.847 35.12C865.779 38.059 861.731 41.0089 857.74 44.055C841.76 56.1799 826.398 69.0639 810.172 80.7446C806.119 83.6797 802.009 86.5186 797.849 89.291C795.769 90.6773 793.624 91.9376 791.513 93.2684L788.332 95.2367L785.058 97.0385C776.393 102.007 767.273 106.108 758.078 109.991C739.562 117.519 720.432 123.473 700.991 128.204C681.554 132.95 661.89 136.673 642.091 139.651C602.494 145.558 562.533 148.677 522.538 150.483C512.531 150.917 502.53 151.317 492.536 151.444C482.536 151.605 472.507 151.662 462.492 152.129C452.474 152.582 442.457 153.513 432.583 155.457C422.736 157.378 413.024 160.283 403.904 164.56C394.771 168.793 386.333 174.433 378.534 180.731C370.678 186.997 363.237 193.741 356.031 200.709C341.623 214.661 328.122 229.501 313.873 243.569C285.139 271.419 255.63 298.758 222.653 321.526C218.547 324.38 214.365 327.127 210.155 329.833C205.946 332.539 201.591 334.997 197.301 337.581C193.003 340.136 188.594 342.513 184.243 344.986L170.996 352.043C153.182 361.184 134.916 369.41 116.249 376.675C78.9447 391.134 40.0424 401.829 0.269397 406.779C40.0594 401.952 79.0084 391.372 116.39 377.02C135.091 369.825 153.402 361.651 171.258 352.546L184.547 345.526C188.902 343.068 193.33 340.702 197.642 338.144C201.936 335.574 206.306 333.112 210.535 330.417C214.763 327.722 218.964 324.986 223.089 322.143C256.167 299.395 285.72 272.044 314.507 244.213C328.805 230.147 342.31 215.322 356.696 201.408C363.891 194.459 371.321 187.733 379.145 181.524C386.937 175.26 395.282 169.692 404.334 165.513C413.374 161.289 423 158.423 432.788 156.518C442.591 154.608 452.564 153.69 462.538 153.249C472.522 152.789 482.536 152.736 492.556 152.586C502.573 152.485 512.588 152.081 522.6 151.662C562.621 149.897 602.628 146.829 642.296 140.951C662.114 137.984 681.834 134.294 701.32 129.551C720.799 124.842 740.021 118.878 758.616 111.345C767.859 107.465 777.035 103.333 785.774 98.3451L789.078 96.5353L792.289 94.559C794.414 93.2243 796.586 91.9411 798.68 90.5509C802.855 87.7744 806.995 84.9276 811.062 81.9885C827.362 70.2879 842.758 57.4108 858.702 45.3277C862.678 42.2855 866.711 39.3396 870.764 36.4045C874.814 33.5181 879.027 30.8269 883.31 28.2764C887.589 25.7111 891.944 23.2529 896.318 20.8055C900.697 18.373 905.013 15.8295 909.498 13.7351C913.981 11.5773 918.655 9.83085 923.396 8.33726C928.125 6.79907 932.996 5.66936 937.877 4.69634C942.757 3.72334 947.715 3.0964 952.67 2.58152C957.639 2.17474 962.624 1.82745 967.603 1.81639C977.588 1.59589 987.559 2.51099 997.501 3.49752C1007.43 4.66356 1017.34 6.00911 1027.18 7.8526C1046.88 11.3561 1066.32 16.2235 1085.7 21.2973C1105.07 26.4048 1124.36 31.8198 1143.9 36.3717C1163.44 40.9237 1183.21 44.3626 1203.08 47.0567C1222.96 49.717 1242.95 51.4867 1262.97 52.3072C1283 53.1574 1303.06 52.8343 1323.08 51.7912C1363.12 49.6862 1402.89 44.6091 1442.73 40.6626L1457.67 39.2885L1472.66 38.2386L1480.14 37.7157L1487.65 37.3306L1502.64 36.5645C1522.65 35.7307 1542.66 35.0873 1562.68 34.5371C1602.72 33.3733 1642.79 32.1233 1682.69 28.5416C1687.68 28.1606 1692.66 27.608 1697.63 27.0406L1712.56 25.368L1727.43 23.263L1734.87 22.1956L1742.27 20.8823L1757.05 18.2448L1771.71 15.0005L1779.05 13.3709L1786.29 11.414L1800.79 7.43294Z" fill="#65BFFF"/>
</svg>
