<svg width="826" height="273" viewBox="0 0 826 273" fill="none" xmlns="http://www.w3.org/2000/svg">
<path d="M1580.62 -68.1747L1567.87 -64.4658L1561.49 -62.616L1555.03 -61.0791L1542.11 -57.9959L1529.07 -55.4801L1522.55 -54.2204L1515.98 -53.2154L1502.85 -51.2054L1489.66 -49.6134L1483.06 -48.8239C1480.87 -48.5848 1478.65 -48.4109 1476.45 -48.2109C1441.19 -44.8414 1405.75 -43.8385 1370.34 -43.3894C1334.93 -42.8716 1299.48 -42.8309 1264.09 -41.171C1228.71 -39.4328 1193.33 -37.3409 1157.92 -37.9557C1140.22 -38.2696 1122.54 -39.2745 1104.95 -41.2104C1087.35 -43.1463 1069.86 -45.9054 1052.51 -49.4295C1035.17 -52.9831 1017.94 -57.154 1001.01 -62.3152C984.07 -67.4433 967.328 -73.2817 950.455 -78.7219C933.567 -84.116 916.541 -89.1936 899.163 -92.822C890.494 -94.7183 881.723 -96.1122 872.929 -97.2766C868.511 -97.7275 864.115 -98.3097 859.677 -98.5737C855.246 -98.8673 850.801 -99.0036 846.348 -98.9138C837.452 -98.7935 828.564 -97.8091 819.886 -95.8332C811.223 -93.8052 802.753 -90.7395 795.014 -86.2489C791.14 -83.9954 787.52 -81.4187 783.889 -78.8811C780.262 -76.3305 776.669 -73.7052 773.176 -70.967C766.11 -65.5252 759.829 -59.1897 753.585 -52.9203C741.142 -40.2676 729.432 -26.9592 716.635 -14.7426C713.435 -11.6917 710.191 -8.69898 706.854 -5.79311C705.216 -4.30631 703.447 -2.99412 701.745 -1.5881L699.176 0.483561C698.315 1.17528 697.387 1.7732 696.502 2.42931L691.096 6.253L685.498 9.77875C683.662 10.9971 681.716 12.0635 679.799 13.1359C677.866 14.1988 675.967 15.3364 674.003 16.3376C658.321 24.4515 641.777 30.9102 624.87 36.069C607.944 41.2051 590.681 45.1881 573.272 48.316C538.424 54.5101 503.036 57.4399 467.663 58.1863C458.811 58.3648 449.96 58.4451 441.12 58.2012C432.27 57.9739 423.421 57.5927 414.558 57.5227C405.695 57.4527 396.792 57.7008 387.989 58.8998C379.184 60.0857 370.482 62.1798 362.22 65.4974C353.957 68.815 346.266 73.4324 339.13 78.7117C331.973 83.9684 325.2 89.7229 318.654 95.6962C305.552 107.659 293.348 120.527 280.421 132.625C254.337 156.533 227.608 180.013 197.952 199.387C194.251 201.818 190.496 204.151 186.714 206.436C182.932 208.721 179.028 210.815 175.176 212.992C171.323 215.17 167.366 217.167 163.476 219.257C159.543 221.289 155.575 223.246 151.618 225.242C135.701 233 119.408 239.978 102.816 246.156C69.6429 258.496 35.233 267.73 0.129442 272.554C35.2479 267.838 69.6988 258.704 102.926 246.462C119.545 240.333 135.861 233.39 151.818 225.678C155.779 223.694 159.767 221.76 163.7 219.728C167.607 217.647 171.564 215.651 175.433 213.482C179.302 211.314 183.205 209.22 187.004 206.945C190.799 204.657 194.57 202.333 198.288 199.912C228.046 180.552 254.8 157.065 280.93 133.173C293.883 121.068 306.104 108.21 319.19 96.2929C325.727 90.3361 332.481 84.6147 339.619 79.391C346.723 74.1483 354.347 69.5909 362.534 66.3073C370.726 63.0367 379.362 60.9599 388.103 59.7915C396.853 58.6065 405.701 58.3593 414.541 58.4493C423.379 58.5263 432.235 58.9335 441.097 59.1574C449.954 59.4108 458.834 59.3365 467.69 59.171C503.116 58.4663 538.553 55.5651 573.477 49.3928C590.931 46.2805 608.241 42.3131 625.223 37.176C642.185 32.0163 658.801 25.5662 674.584 17.4115C676.557 16.3937 678.473 15.2657 680.419 14.1993C682.362 13.1199 684.308 12.0535 686.17 10.8281L691.816 7.27544L697.258 3.42824C698.156 2.76864 699.097 2.16724 699.958 1.47554L702.563 -0.619629C704.278 -2.02914 706.069 -3.36135 707.72 -4.85164C711.07 -7.76098 714.34 -10.7607 717.563 -13.8316C730.418 -26.0917 742.17 -39.3975 754.568 -52.0101C760.808 -58.2926 767.036 -64.5716 774.017 -69.9629C777.484 -72.6942 781.055 -75.2994 784.669 -77.8466C788.283 -80.3937 791.907 -82.9573 795.684 -85.1569C803.286 -89.583 811.639 -92.6173 820.195 -94.6305C828.778 -96.595 837.584 -97.5715 846.395 -97.697C850.802 -97.8023 855.221 -97.6591 859.623 -97.3716C864.03 -97.1136 868.414 -96.5279 872.815 -96.0865C881.576 -94.9413 890.314 -93.5665 898.954 -91.6762C916.282 -88.0765 933.272 -83.031 950.14 -77.6594C967.006 -72.2453 983.745 -66.42 1000.73 -61.3023C1017.7 -56.1551 1034.96 -51.9912 1052.34 -48.448C1069.73 -44.9474 1087.26 -42.1988 1104.88 -40.2699C1122.5 -38.3409 1140.23 -37.363 1157.94 -37.0657C1193.39 -36.4779 1228.79 -38.6159 1264.16 -40.3931C1299.52 -42.1017 1334.97 -42.1684 1370.38 -42.7453C1405.79 -43.3058 1441.25 -44.4103 1476.51 -47.8911C1478.71 -48.1041 1480.92 -48.2911 1483.11 -48.5302L1489.71 -49.3327L1502.88 -50.9638L1516.01 -53.0129L1522.57 -54.044L1529.09 -55.3297L1542.13 -57.8881L1555.03 -61.0105L1561.49 -62.5734L1567.86 -64.4492L1580.62 -68.1747Z" fill="#65BFFF"/>
</svg>
