<svg width="592" height="484" viewBox="0 0 592 484" fill="none" xmlns="http://www.w3.org/2000/svg">
<path d="M1778 0.478458C1736.9 4.69979 1695.53 4.59324 1654.26 5.14614C1613.01 5.70991 1571.56 6.77372 1530.76 13.6567C1520.56 15.3373 1510.47 17.5802 1500.44 20.0758C1490.45 22.7054 1480.57 25.7663 1470.86 29.31C1461.22 33.0094 1451.66 37.0211 1442.48 41.8071C1433.31 46.5931 1424.42 51.8599 1415.65 57.3338C1380.54 79.1443 1347.36 103.832 1312.37 125.738C1307.99 128.473 1303.61 131.178 1299.17 133.802C1294.76 136.467 1290.18 138.858 1285.7 141.397L1272.18 148.924L1258.31 155.782L1251.38 159.202C1249.05 160.304 1246.79 161.563 1244.41 162.536L1230.22 168.697L1223.12 171.779C1221.93 172.273 1220.76 172.841 1219.56 173.29L1215.95 174.657L1201.48 180.128C1162.78 194.356 1122.62 204.702 1081.82 210.771C1041.01 216.78 999.614 218.691 958.429 216.352L942.985 215.388C940.41 215.281 937.855 214.898 935.289 214.645L927.594 213.789L912.22 212.075L896.952 209.63L889.318 208.407C886.771 207.99 884.21 207.64 881.697 207.054L866.562 203.856C856.439 201.898 846.478 199.178 836.455 196.699C796.514 186.231 757.262 173.284 717.759 161.184C698.03 155.04 678.146 149.385 658.167 144.089C648.121 141.648 638.128 138.985 628 136.949L620.415 135.315C617.88 134.766 615.371 134.195 612.809 133.782L597.548 131.064C577.143 127.86 556.562 125.308 535.876 124.857C525.541 124.247 515.213 124.734 504.866 124.908C494.535 125.206 484.225 126.231 473.988 127.65C453.5 130.494 433.292 135.335 413.815 142.307C404.084 145.791 394.55 149.892 385.327 154.563C376.105 159.234 367.162 164.532 358.75 170.564C350.335 176.581 342.348 183.248 335.124 190.684C327.877 198.094 321.468 206.315 315.767 214.92C304.087 231.982 293.045 249.464 282.055 266.963C260.119 301.949 238.112 337.082 211.565 368.761C209.955 370.771 208.25 372.726 206.538 374.651L201.427 380.468C197.987 384.323 194.372 388.002 190.845 391.768C189.049 393.621 187.166 395.385 185.328 397.2C183.464 398.975 181.691 400.853 179.744 402.554L173.999 407.728L171.126 410.315L168.144 412.788C152.363 426.071 135.402 437.981 117.534 448.284C99.6694 458.603 80.791 467.216 61.1263 473.489C41.4914 479.755 21.0069 483.681 0.33635 483.944C21.008 483.745 41.5083 479.878 61.1929 473.679C80.8883 467.461 99.8124 458.899 117.733 448.613C135.662 438.357 152.68 426.481 168.532 413.226L171.514 410.753L174.406 408.177L180.184 403.01C182.136 401.324 183.924 399.442 185.788 397.667C187.625 395.851 189.523 394.083 191.323 392.246C194.865 388.475 198.499 384.808 201.953 380.949L207.098 375.139C208.825 373.209 210.519 371.273 212.144 369.259C238.784 337.572 260.832 302.412 282.805 267.447C293.814 249.959 304.861 232.493 316.549 215.46C322.264 206.851 328.622 198.739 335.833 191.371C343.024 183.992 350.964 177.385 359.339 171.395C367.714 165.404 376.606 160.152 385.802 155.504C394.999 150.856 404.477 146.786 414.187 143.339C433.598 136.417 453.754 131.621 474.153 128.802C484.364 127.405 494.63 126.392 504.931 126.102C515.234 125.94 525.546 125.457 535.852 126.075C556.479 126.542 576.985 129.113 597.346 132.33L612.578 135.055C615.125 135.473 617.634 136.044 620.168 136.592L627.738 138.23C637.852 140.271 647.834 142.952 657.846 145.387C677.795 150.69 697.639 156.373 717.357 162.535C756.838 174.672 796.091 187.684 836.074 198.188C846.112 200.663 856.088 203.379 866.241 205.329L881.42 208.515C883.933 209.101 886.509 209.447 889.056 209.864L896.72 211.079L912.032 213.512L927.451 215.215L935.156 216.051C937.723 216.304 940.292 216.684 942.868 216.791L958.337 217.731C999.607 220.032 1041.11 218.078 1082 212.015C1122.88 205.908 1163.1 195.497 1201.86 181.19L1216.35 175.681L1219.98 174.311C1221.19 173.842 1222.35 173.293 1223.54 172.799L1230.63 169.702L1244.84 163.503C1247.24 162.526 1249.5 161.268 1251.83 160.165L1258.77 156.727L1272.65 149.835L1286.18 142.289C1290.67 139.731 1295.25 137.34 1299.67 134.657C1304.1 132.018 1308.5 129.309 1312.88 126.559C1347.88 104.586 1381.03 79.857 1416.08 58.0475C1424.82 52.5667 1433.7 47.2999 1442.83 42.5259C1451.96 37.7518 1461.47 33.7372 1471.1 30.0417C1480.78 26.4911 1490.63 23.4233 1500.6 20.7977C1510.6 18.2951 1520.68 16.0711 1530.85 14.3499C1571.56 7.36383 1612.99 6.16219 1654.23 5.47543C1695.53 4.83226 1736.9 4.82674 1778 0.478458Z" fill="#65BFFF"/>
</svg>
