<svg width="595" height="463" viewBox="0 0 595 463" fill="none" xmlns="http://www.w3.org/2000/svg">
<path d="M1783.7 0.211762C1703.66 12.1258 1622.37 6.28318 1542.05 15.8152C1521.99 18.1625 1502.05 21.688 1482.47 26.6641C1472.7 29.2339 1463.01 32.1499 1453.49 35.5447C1444.01 39.0247 1434.63 42.8618 1425.51 47.2173C1388.86 64.2279 1353.74 84.3018 1317.35 101.738C1244.75 137.084 1164.76 156.366 1084.19 160.147C1064.05 161.271 1043.86 161.659 1023.68 161.678C1013.59 161.673 1003.5 161.57 993.411 161.389L963.123 161.103L902.565 160.544C892.485 160.407 882.43 159.833 872.372 159.069C862.31 158.29 852.254 157.414 842.222 156.387C802.077 152.287 762.15 146.088 722.135 140.629C702.132 137.859 682.098 135.209 662.023 133C641.941 130.825 621.803 129.095 601.618 128.079C581.448 127.059 561.215 126.758 541.023 127.497C530.93 127.97 520.824 128.271 510.769 129.243C500.706 130.122 490.671 131.345 480.668 132.861C460.698 135.917 440.903 140.28 421.573 146.257C402.295 152.251 383.467 160.277 366.603 171.539C364.528 173.004 362.392 174.357 360.408 175.925L357.374 178.205C356.373 178.983 355.413 179.798 354.42 180.606C350.461 183.771 346.761 187.249 343.209 190.863C339.671 194.473 336.343 198.33 333.2 202.281C329.999 206.199 326.898 210.187 323.818 214.2C311.535 230.26 300.008 246.883 288.367 263.377C265.001 296.292 240.978 328.952 212.791 357.898C205.746 365.11 198.455 372.117 190.852 378.729C183.179 385.265 175.355 391.649 167.184 397.569C150.914 409.501 133.739 420.192 115.815 429.459C97.8994 438.754 79.1582 446.454 59.8325 452.27C40.5137 458.052 20.5343 461.844 0.350974 462.677C20.5354 461.907 40.5268 458.16 59.8803 452.449C79.2367 446.688 98.0235 439.04 115.97 429.8C133.939 420.585 151.171 409.926 167.517 398.038C175.726 392.14 183.573 385.781 191.293 379.249C198.945 372.639 206.255 365.643 213.334 358.438C227.484 343.998 240.568 328.552 253.051 312.645C265.501 296.732 277.443 280.412 289.114 263.91C300.79 247.423 312.325 230.83 324.601 214.804C327.684 210.805 330.79 206.832 333.975 202.918C337.119 198.967 340.414 195.167 343.941 191.576C347.467 187.985 351.146 184.544 355.083 181.417C356.065 180.628 357.025 179.812 358.011 179.038L361.035 176.777C363.022 175.225 365.144 173.875 367.208 172.429C383.983 161.255 402.701 153.29 421.927 147.341C441.187 141.4 460.941 137.063 480.856 134.039C490.83 132.53 500.839 131.33 510.887 130.455C520.927 129.487 531.003 129.194 541.085 128.74C561.237 128.027 581.425 128.341 601.584 129.379C621.729 130.422 641.837 132.16 661.908 134.354C681.972 136.581 701.981 139.255 721.973 142.044C761.981 147.536 801.89 153.788 842.096 157.936C852.143 158.958 862.214 159.83 872.286 160.59C882.359 161.351 892.458 161.913 902.583 162.037L963.117 162.508L993.397 162.763C1003.5 162.926 1013.59 163.028 1023.69 163.015C1043.89 162.992 1064.1 162.581 1084.26 161.42C1164.96 157.554 1245.11 138.15 1317.79 102.657C1354.21 85.1643 1389.29 65.0686 1425.87 48.0292C1434.98 43.6777 1444.29 39.8417 1453.76 36.3656C1463.24 32.9639 1472.9 30.0559 1482.65 27.4752C1502.18 22.4813 1522.09 18.9638 1542.13 16.561C1622.31 6.79202 1703.7 12.3718 1783.7 0.211762Z" fill="#65BFFF"/>
</svg>
