<svg width="838" height="512" viewBox="0 0 838 512" fill="none" xmlns="http://www.w3.org/2000/svg">
<path d="M1818.24 175.641L1803.02 181.837C1800.47 182.839 1797.98 183.971 1795.4 184.868L1787.63 187.525L1779.85 190.181C1777.25 191.053 1774.7 192.025 1772.05 192.704L1756.25 197.192C1735.06 202.631 1713.58 207.127 1691.83 209.719L1683.69 210.816C1680.97 211.179 1678.24 211.351 1675.51 211.62L1659.16 213.133L1642.76 214.019L1634.57 214.445L1626.36 214.588L1609.94 214.859L1593.52 214.573L1585.31 214.413L1577.11 214.01L1560.72 213.19C1517.03 210.216 1473.56 204.232 1430.58 195.789C1387.59 187.415 1345.19 175.979 1303.89 161.347C1283.23 154.098 1262.92 145.832 1242.95 136.835C1222.98 127.823 1203.4 117.957 1184.25 107.323C1174.67 101.998 1165.22 96.4654 1155.89 90.7218C1146.56 84.9971 1137.43 78.9479 1128.31 72.8609C1110.12 60.6305 1092.08 48.1362 1073.19 36.9219C1070.85 35.4778 1068.47 34.1389 1066.07 32.7891C1063.67 31.4542 1061.31 30.0478 1058.88 28.7694C1054 26.2355 1049.18 23.6033 1044.18 21.3403C1039.26 18.8966 1034.17 16.833 1029.11 14.6979C1026.6 13.619 1023.97 12.7772 1021.4 11.8073C1018.81 10.8752 1016.25 9.88655 1013.6 9.1459L1005.71 6.76623C1003.06 6.04046 1000.36 5.47242 997.702 4.8141L993.691 3.86433C992.354 3.5689 990.986 3.39349 989.632 3.15062L981.496 1.77583C976.046 1.09998 970.556 0.514417 965.036 0.526919L962.973 0.489947L960.904 0.550173C959.532 0.598914 958.152 0.617911 956.774 0.700379C954.026 0.958537 951.279 1.10462 948.557 1.57897C945.814 1.91546 943.127 2.52366 940.418 3.1061C939.07 3.41962 937.749 3.83726 936.431 4.20631L934.434 4.7733L932.492 5.48501C927.252 7.2557 922.275 9.76902 917.634 12.7661C912.929 15.7007 908.774 19.4441 904.998 23.4689L902.269 26.5913C901.415 27.681 900.621 28.8182 899.805 29.9297C898.101 32.1239 896.717 34.5033 895.28 36.865C889.681 46.3837 885.625 56.7323 882.408 67.2389C879.247 77.7782 876.629 88.443 874.126 99.1245C869.16 120.509 864.915 142.036 859.184 163.179C856.318 173.751 853.088 184.213 849.258 194.453C847.388 199.593 845.195 204.596 842.851 209.513C840.384 214.382 837.822 219.198 834.883 223.795C832.043 228.462 828.833 232.877 825.566 237.259C822.178 241.546 818.726 245.771 814.982 249.739C807.559 257.738 799.461 265.121 790.803 271.777C773.535 285.155 754.268 295.882 734.09 304.221C713.914 312.625 692.728 318.508 671.213 322.329C649.681 326.09 627.754 327.661 605.914 326.945C594.99 326.572 584.079 325.654 573.255 324.17C562.421 322.705 551.742 320.338 541.14 317.6C530.541 314.876 519.986 311.902 509.259 309.531C503.905 308.32 498.495 307.378 493.058 306.571C490.323 306.284 487.593 305.899 484.856 305.724C482.116 305.597 479.366 305.314 476.615 305.382C465.629 305.313 454.581 306.854 444.118 310.279C438.884 311.953 433.772 314.024 428.826 316.417C426.305 317.523 423.919 318.896 421.478 320.124C419.085 321.466 416.687 322.794 414.327 324.208C395.496 335.55 378.603 349.673 361.252 362.979C356.908 366.311 352.537 369.602 348.067 372.761C343.62 375.945 339.073 378.996 334.557 382.103C325.514 388.273 316.425 394.391 307.247 400.357C288.888 412.274 270.12 423.616 250.638 433.603C240.895 438.588 230.987 443.252 220.883 447.426C210.757 451.574 200.587 455.622 190.317 459.41C169.792 467.046 149.02 473.999 128.069 480.346C86.1423 492.999 43.5141 503.273 0.554393 511.835C43.5312 503.396 86.1952 493.255 128.165 480.702C149.146 474.411 169.953 467.529 190.505 459.934C200.798 456.171 210.99 452.149 221.14 448.027C231.281 443.875 241.227 439.233 250.993 434.273C270.527 424.304 289.314 412.973 307.707 401.063C316.903 395.107 325.996 389.004 335.055 382.831C339.574 379.739 344.121 376.687 348.583 373.499C353.064 370.322 357.439 367.045 361.798 363.709C379.179 350.396 396.065 336.307 414.823 325.047C417.167 323.638 419.55 322.314 421.934 320.99C424.378 319.777 426.749 318.408 429.241 317.31C434.161 314.94 439.213 312.885 444.421 311.234C454.804 307.862 465.714 306.342 476.607 306.42C479.339 306.342 482.06 306.633 484.77 306.767C487.492 306.947 490.192 307.339 492.908 307.616C498.312 308.415 503.692 309.365 509.031 310.581C519.71 312.948 530.249 315.927 540.867 318.661C551.474 321.414 562.223 323.811 573.096 325.297C583.957 326.803 594.92 327.739 605.878 328.118C627.804 328.859 649.818 327.312 671.428 323.546C693.026 319.736 714.304 313.843 734.589 305.427C754.87 297.059 774.241 286.305 791.634 272.861C800.348 266.174 808.516 258.757 816.002 250.694C819.786 246.699 823.279 242.447 826.689 238.122C829.981 233.717 833.228 229.26 836.09 224.556C839.065 219.916 841.645 215.049 844.149 210.137C846.511 205.169 848.74 200.124 850.617 194.95C854.48 184.653 857.746 174.149 860.619 163.544C866.383 142.344 870.668 120.791 875.627 99.4397C878.115 88.7621 880.722 78.1162 883.85 67.6335C887.035 57.1834 891.045 46.9588 896.564 37.5572C897.979 35.2332 899.352 32.8727 901.005 30.7241C901.81 29.6315 902.578 28.5171 903.421 27.4462L906.088 24.3884C909.772 20.4361 913.839 16.7799 918.433 13.9069C922.982 10.9824 927.84 8.5009 932.995 6.76894L934.908 6.06518L936.86 5.51015C938.167 5.15996 939.454 4.73539 940.788 4.42584C943.438 3.85932 946.09 3.24422 948.789 2.91965C951.466 2.45727 954.183 2.31914 956.898 2.05407L960.979 1.90092L963.015 1.83378L965.063 1.87474C970.505 1.86726 975.942 2.435 981.354 3.08906L989.423 4.45003C990.762 4.69688 992.116 4.87625 993.448 5.15681L997.426 6.09968C1000.08 6.74313 1002.75 7.31912 1005.38 8.034L1013.22 10.3959C1015.85 11.1256 1018.41 12.0994 1020.98 13.0355C1023.53 13.9944 1026.14 14.8254 1028.66 15.9043C1033.7 18.0285 1038.77 20.0664 1043.67 22.4991C1048.65 24.7513 1053.46 27.3686 1058.32 29.8916C1060.73 31.1739 1063.09 32.5654 1065.49 33.8855C1067.87 35.2244 1070.26 36.5594 1072.59 37.9925C1091.43 49.1553 1109.47 61.6347 1127.69 73.8423C1136.81 79.9253 1145.97 85.9854 1155.33 91.7022C1164.68 97.4378 1174.15 102.966 1183.75 108.302C1202.93 118.944 1222.56 128.798 1242.56 137.801C1262.56 146.805 1282.9 155.049 1303.61 162.3C1344.96 176.902 1387.43 188.317 1430.46 196.65C1473.48 205.051 1516.98 211.008 1560.73 213.921L1577.14 214.704L1585.34 215.088L1593.56 215.229L1609.99 215.466L1626.42 215.162L1634.63 215.001L1642.84 214.541L1659.24 213.606L1675.6 212.059C1678.32 211.775 1681.06 211.599 1683.76 211.226L1691.9 210.113C1713.65 207.458 1735.13 202.899 1756.32 197.396L1772.1 192.863C1774.75 192.17 1777.32 191.194 1779.91 190.311L1787.67 187.625L1795.43 184.939C1798.03 184.037 1800.5 182.894 1803.05 181.893L1818.24 175.641Z" fill="#65BFFF"/>
</svg>
