<svg width="836" height="238" viewBox="0 0 836 238" fill="none" xmlns="http://www.w3.org/2000/svg">
<path d="M1598.89 -38.313C1580.84 -29.607 1562.1 -22.405 1542.9 -16.662L1528.42 -12.6561C1523.56 -11.4925 1518.65 -10.4428 1513.77 -9.33143C1508.91 -8.1253 1503.95 -7.425 1499.03 -6.52566L1491.63 -5.22877C1489.17 -4.79212 1486.66 -4.55453 1484.19 -4.21261C1464.37 -1.34612 1444.32 -0.220392 1424.3 -0.0542992L1416.78 -0.038565L1413.04 -0.025866C1411.79 -0.0413497 1410.53 -0.108983 1409.28 -0.150525L1394.26 -0.682221C1389.27 -0.950147 1384.27 -1.38495 1379.28 -1.72499C1376.79 -1.92286 1374.28 -2.04853 1371.8 -2.31852L1364.33 -3.12506L1356.86 -3.93157L1353.12 -4.32829L1349.41 -4.8563L1334.54 -6.97784C1329.59 -7.76037 1324.68 -8.69416 1319.74 -9.5358C1317.28 -9.97964 1314.8 -10.3774 1312.35 -10.8673L1305 -12.4023L1297.64 -13.9373C1295.19 -14.4403 1292.73 -14.9563 1290.31 -15.5644L1275.71 -19.0847C1270.84 -20.268 1266.04 -21.6913 1261.19 -22.9763L1253.94 -24.9581L1246.75 -27.1408C1227.53 -32.7746 1208.63 -39.5169 1189.95 -46.7505L1175.99 -52.3139L1162.18 -58.2529C1157.55 -60.1831 1153.03 -62.341 1148.48 -64.4329C1143.95 -66.5577 1139.35 -68.567 1134.89 -70.8501C1098.85 -88.3797 1064.13 -108.667 1031.38 -131.786L1019.16 -140.556L1007.2 -149.658C999.242 -155.756 991.507 -162.136 983.758 -168.512C968.286 -181.271 952.8 -194.082 936.333 -205.61C932.157 -208.389 928.057 -211.3 923.74 -213.874C921.593 -215.17 919.499 -216.579 917.292 -217.79L910.71 -221.475C909.621 -222.105 908.506 -222.673 907.369 -223.22L903.993 -224.886C901.741 -226.001 899.505 -227.163 897.165 -228.086L890.223 -231.032C887.864 -231.923 885.478 -232.709 883.116 -233.557L879.548 -234.794L875.906 -235.788C873.472 -236.435 871.061 -237.158 868.619 -237.733C863.674 -238.644 858.76 -239.8 853.744 -240.3C843.765 -241.356 833.52 -241.168 823.712 -238.624C818.833 -237.358 814.022 -235.636 809.616 -233.128C805.196 -230.673 801.01 -227.707 797.497 -224.055L796.137 -222.727C795.704 -222.261 795.32 -221.767 794.906 -221.279C794.093 -220.307 793.259 -219.357 792.466 -218.362C791.064 -216.254 789.463 -214.26 788.309 -212.009C787.697 -210.909 787.055 -209.815 786.463 -208.693C785.917 -207.554 785.342 -206.422 784.845 -205.255C783.803 -202.95 782.915 -200.589 782.073 -198.212C778.776 -188.652 776.986 -178.672 775.591 -168.729C774.242 -158.769 773.151 -148.781 772.189 -138.786C770.263 -118.794 768.819 -98.7782 766.251 -78.8942C764.967 -68.9522 763.421 -59.0517 761.406 -49.2352C759.404 -39.4221 757.001 -29.6973 753.455 -20.3367C749.994 -10.9709 745.563 -1.94585 740.322 6.55569C735.08 15.0573 729.089 23.1031 722.418 30.535C709.025 45.3701 693.164 57.9188 675.816 67.8341C641.145 87.756 600.985 97.7623 561.026 97.3765C551.028 97.2891 541.048 96.4847 531.151 95.057C526.193 94.3597 521.287 93.4389 516.383 92.4199C511.513 91.3219 506.673 90.076 501.891 88.5771C482.776 82.732 464.324 74.4178 444.482 70.6533C443.252 70.3822 442.013 70.1833 440.768 70.014L437.038 69.4765C434.54 69.2099 432.032 69.0156 429.523 68.8638C424.496 68.7437 419.441 68.827 414.465 69.5734C404.475 70.8672 394.775 73.8713 385.601 77.9502C367.177 86.142 350.928 98.1798 334.626 109.757C318.465 121.604 301.187 131.78 284.013 142.082C266.788 152.299 249.251 162.028 231.14 170.555C222.087 174.825 212.878 178.773 203.517 182.315C194.15 185.831 184.667 189.071 175.174 192.271C156.155 198.555 136.957 204.271 117.638 209.588C79.012 220.217 39.9288 229.139 0.818987 237.858C39.9437 229.246 79.0584 220.442 117.725 209.914C137.059 204.649 156.287 198.994 175.329 192.746C184.83 189.572 194.323 186.372 203.72 182.862C213.113 179.339 222.342 175.413 231.416 171.166C249.576 162.667 267.139 152.932 284.38 142.724C301.558 132.435 318.879 122.261 335.078 110.404C351.397 98.8365 367.627 86.8317 385.935 78.727C395.064 74.6881 404.689 71.7179 414.572 70.439C424.443 69.0653 434.537 69.6159 444.328 71.533C464.008 75.2707 482.434 83.5919 501.619 89.4882C506.405 91.0001 511.274 92.2521 516.177 93.3693C521.098 94.3978 526.033 95.3246 531.008 96.0315C540.937 97.4783 550.977 98.2948 561.021 98.3978C601.157 98.82 641.5 88.8204 676.372 68.8167C693.821 58.8604 709.792 46.2544 723.284 31.3226C730.014 23.8472 736.063 15.7579 741.343 7.19023C746.638 -1.36787 751.095 -10.4555 754.607 -19.8908C758.178 -29.3141 760.612 -39.131 762.636 -48.9641C764.657 -58.8102 766.236 -68.7473 767.529 -78.7058C770.113 -98.6359 771.593 -118.675 773.525 -138.641C774.475 -148.633 775.559 -158.591 776.898 -168.534C778.274 -178.445 780.046 -188.336 783.294 -197.77C784.116 -200.114 784.995 -202.459 786.022 -204.718C786.509 -205.869 787.065 -206.968 787.601 -208.089C788.187 -209.182 788.806 -210.256 789.409 -211.34C790.531 -213.555 792.103 -215.499 793.46 -217.567C794.231 -218.542 795.042 -219.472 795.833 -220.424C796.237 -220.895 796.624 -221.376 797.045 -221.838L798.372 -223.13C801.809 -226.705 805.888 -229.6 810.21 -232.002C814.519 -234.456 819.227 -236.15 824.01 -237.404C833.634 -239.913 843.747 -240.122 853.63 -239.11C858.588 -238.622 863.468 -237.485 868.37 -236.577C870.796 -236.012 873.191 -235.298 875.608 -234.66L879.221 -233.673L882.759 -232.441C885.117 -231.606 887.491 -230.817 889.817 -229.946L896.726 -227.019C899.049 -226.104 901.272 -224.94 903.508 -223.834L906.867 -222.178C907.988 -221.64 909.102 -221.072 910.192 -220.442L916.74 -216.776C918.932 -215.575 921.008 -214.176 923.152 -212.892C927.452 -210.328 931.536 -207.426 935.709 -204.661C952.132 -193.19 967.611 -180.405 983.092 -167.663C990.838 -161.3 998.6 -154.927 1006.57 -148.82L1018.55 -139.708L1030.8 -130.932C1063.62 -107.805 1098.4 -87.5179 1134.5 -70.0058C1138.98 -67.7262 1143.58 -65.7169 1148.12 -63.5955C1152.68 -61.5072 1157.21 -59.3527 1161.84 -57.4226L1175.67 -51.4871L1189.64 -45.9271C1208.35 -38.7005 1227.27 -31.9652 1246.52 -26.3383L1253.72 -24.1591L1260.97 -22.1903C1265.82 -20.9053 1270.63 -19.4986 1275.5 -18.3023L1290.13 -14.789C1292.55 -14.1678 1295.02 -13.6683 1297.47 -13.1653L1304.83 -11.6303L1312.18 -10.0953C1314.64 -9.60889 1317.12 -9.21112 1319.58 -8.76728C1324.53 -7.92565 1329.45 -6.99536 1334.41 -6.21633L1349.3 -4.11477L1353.03 -3.59027L1356.76 -3.19353L1364.24 -2.40356L1371.72 -1.61356C1374.22 -1.34706 1376.72 -1.23439 1379.21 -1.03652C1384.21 -0.712992 1389.21 -0.278191 1394.21 -0.0398406L1409.25 0.458789C1410.5 0.500331 1411.75 0.554965 1413 0.570448L1416.76 0.554266L1424.28 0.508924C1444.31 0.296765 1464.38 -0.888053 1484.21 -3.81366C1486.7 -4.17209 1489.19 -4.40623 1491.65 -4.8559L1499.05 -6.16929C1503.98 -7.08514 1508.94 -7.7985 1513.8 -9.01766C1518.69 -10.1456 1523.58 -11.2048 1528.45 -12.3849L1542.92 -16.4299C1562.14 -22.2911 1580.87 -29.5453 1598.89 -38.313Z" fill="#65BFFF"/>
</svg>
