<svg width="834" height="243" viewBox="0 0 834 243" fill="none" xmlns="http://www.w3.org/2000/svg">
<path d="M1595.7 -42.5784L1582.2 -36.7653L1578.82 -35.3153C1577.7 -34.8189 1576.57 -34.3356 1575.41 -33.9401L1568.5 -31.4337L1561.6 -28.9273L1558.14 -27.6659C1556.99 -27.2312 1555.8 -26.9398 1554.64 -26.5738L1540.57 -22.3292C1538.24 -21.5641 1535.86 -21.0111 1533.48 -20.4285L1526.34 -18.6842L1519.21 -16.9399C1516.84 -16.3182 1514.4 -15.9738 1512.01 -15.4729L1497.58 -12.7082L1483.03 -10.6127C1480.61 -10.2847 1478.19 -9.88811 1475.75 -9.61231L1468.43 -8.90914C1463.56 -8.46876 1458.69 -7.89108 1453.79 -7.57151C1444.01 -7.08621 1434.23 -6.33929 1424.44 -6.39724L1417.08 -6.299L1413.41 -6.25166C1412.19 -6.24454 1410.96 -6.30611 1409.74 -6.32857L1395.05 -6.69535L1391.38 -6.78879L1387.71 -7.00655L1380.38 -7.45856C1375.49 -7.79696 1370.59 -7.95192 1365.72 -8.49026L1351.09 -9.87927C1348.65 -10.078 1346.22 -10.4046 1343.79 -10.7181L1336.5 -11.6421C1326.76 -12.7483 1317.1 -14.4352 1307.42 -15.9353C1288.12 -19.3291 1268.9 -23.2446 1249.88 -27.9555C1211.82 -37.3738 1174.5 -49.7402 1138.36 -64.9246C1120.28 -72.515 1102.52 -80.8471 1085.13 -89.9053C1067.74 -98.9505 1050.69 -108.689 1034.11 -119.155C1025.82 -124.393 1017.65 -129.803 1009.59 -135.398C1001.54 -140.98 993.654 -146.817 985.79 -152.687C970.083 -164.447 954.427 -176.333 937.932 -187.029C935.882 -188.38 933.762 -189.628 931.68 -190.943C929.588 -192.24 927.51 -193.541 925.361 -194.74L918.953 -198.402L912.406 -201.803L909.121 -203.493L905.767 -205.025C903.531 -206.033 901.306 -207.099 899.053 -208.06C894.463 -209.834 889.947 -211.795 885.219 -213.197L881.718 -214.341C880.551 -214.74 879.378 -215.111 878.173 -215.389L871.016 -217.215C870.418 -217.362 869.83 -217.526 869.223 -217.657L867.407 -217.98L863.77 -218.64C861.344 -219.052 858.939 -219.595 856.49 -219.833C846.72 -221.099 836.748 -221.04 827.021 -219.23C822.18 -218.24 817.436 -216.787 812.877 -214.853C808.365 -212.792 804.101 -210.224 800.204 -207.168C796.415 -203.974 792.92 -200.41 790.007 -196.389C789.216 -195.436 788.634 -194.33 787.932 -193.304C787.28 -192.249 786.559 -191.246 785.976 -190.14C784.738 -187.992 783.658 -185.774 782.611 -183.538C778.493 -174.541 775.87 -164.966 773.799 -155.358C771.79 -145.725 770.116 -136.042 768.573 -126.338C765.513 -106.937 762.99 -87.456 759.264 -68.1977C757.406 -58.5768 755.24 -49.0131 752.577 -39.5819C749.978 -30.1255 746.671 -20.9128 742.356 -12.1287C740.258 -7.72451 737.827 -3.46869 735.323 0.722886C732.704 4.84763 730.002 8.92464 727.022 12.7968C721.111 20.5696 714.541 27.8624 707.359 34.4811C700.18 41.1129 692.471 47.1741 684.38 52.6393C676.268 58.0819 667.748 62.9356 658.966 67.2306C641.406 75.8336 622.704 82.0464 603.582 86.1223C584.444 90.1885 564.839 91.991 545.279 91.5178C535.504 91.273 525.739 90.4388 516.049 89.0535C511.206 88.3674 506.382 87.4944 501.605 86.4831C499.22 85.9627 496.84 85.3571 494.466 84.7776C492.101 84.1259 489.734 83.5168 487.388 82.8321C477.973 80.1298 468.663 77.0362 459.231 74.3244C449.809 71.5959 440.183 69.3553 430.392 68.3743C420.614 67.3898 410.631 67.7735 401.027 70.0396C391.411 72.211 382.214 75.9466 373.539 80.5344C356.096 89.6789 340.636 101.952 324.89 113.576C317.027 119.427 309.017 125.038 300.732 130.304C292.508 135.637 284.26 140.935 275.934 146.099C259.283 156.429 242.3 166.246 224.721 174.882C215.934 179.207 206.986 183.197 197.886 186.823C193.327 188.603 188.738 190.322 184.152 192.054C179.545 193.707 174.955 195.426 170.321 197.031C151.833 203.522 133.145 209.423 114.321 214.872C76.667 225.744 38.4734 234.707 0.117988 242.804C38.4884 234.814 76.7099 225.956 114.405 215.185C133.259 209.798 151.971 203.932 170.486 197.49C175.123 195.898 179.716 194.192 184.34 192.548C188.929 190.829 193.522 189.124 198.098 187.353C207.218 183.75 216.195 179.766 225.003 175.464C242.631 166.856 259.637 157.018 276.308 146.712C284.65 141.557 292.901 136.272 301.139 130.935C309.414 125.686 317.476 120.061 325.352 114.207C341.114 102.593 356.572 90.3617 373.934 81.2807C382.577 76.7295 391.7 73.0278 401.228 70.8939C410.731 68.6687 420.603 68.2868 430.313 69.2757C440.035 70.2611 449.589 72.4931 458.998 75.225C468.404 77.9439 477.714 81.0374 487.149 83.7624C489.499 84.4601 491.879 85.0657 494.244 85.7174C496.634 86.3064 499.01 86.899 501.416 87.442C506.226 88.4724 511.062 89.3419 515.922 90.0376C525.645 91.4419 535.44 92.2821 545.261 92.5426C564.896 93.0374 584.59 91.2532 603.809 87.179C623.016 83.1083 641.8 76.8876 659.464 68.2567C668.298 63.9477 676.858 59.0836 685.031 53.6105C693.184 48.1148 700.941 42.0266 708.168 35.3679C715.426 28.7152 722.04 21.3824 728.005 13.553C731.008 9.66089 733.742 5.54733 736.381 1.38953C738.917 -2.83857 741.37 -7.1144 743.487 -11.5516C747.843 -20.3888 751.2 -29.7267 753.81 -39.1996C756.491 -48.6638 758.677 -58.2606 760.554 -67.9145C764.309 -87.2224 766.857 -106.71 769.924 -126.085C771.445 -135.769 773.119 -145.452 775.112 -155.04C777.154 -164.598 779.76 -174.084 783.811 -182.965C784.839 -185.169 785.909 -187.369 787.119 -189.468C787.679 -190.554 788.391 -191.541 789.037 -192.566C789.716 -193.572 790.276 -194.659 791.057 -195.594C793.892 -199.539 797.314 -203.013 801.01 -206.141C804.825 -209.133 808.993 -211.647 813.404 -213.667C817.876 -215.564 822.525 -217.005 827.288 -217.974C836.851 -219.768 846.696 -219.835 856.373 -218.6C858.806 -218.372 861.195 -217.839 863.592 -217.433L867.199 -216.779L869.002 -216.452C869.596 -216.318 870.184 -216.154 870.781 -216.006L877.876 -214.205C879.064 -213.937 880.238 -213.567 881.389 -213.176L884.873 -212.042C889.568 -210.66 894.054 -208.705 898.611 -206.95C900.86 -206.002 903.072 -204.932 905.293 -203.934L908.63 -202.412L911.898 -200.731L918.413 -197.349L924.787 -193.706C926.933 -192.521 929.011 -191.219 931.086 -189.931C933.164 -188.63 935.268 -187.391 937.318 -186.041C953.783 -175.406 969.419 -163.543 985.151 -151.79C993.025 -145.936 1000.93 -140.09 1009.01 -134.501C1017.08 -128.91 1025.28 -123.493 1033.59 -118.259C1050.2 -107.79 1067.26 -98.0557 1084.7 -89.008C1102.12 -79.9567 1119.92 -71.6351 1138.02 -64.0516C1174.23 -48.8847 1211.6 -36.5322 1249.71 -27.1409C1268.75 -22.45 1288 -18.5546 1307.32 -15.1677C1317.01 -13.6712 1326.68 -11.9877 1336.43 -10.898L1343.74 -9.97751C1346.18 -9.66748 1348.6 -9.33745 1351.05 -9.14218L1365.7 -7.78622C1370.57 -7.26092 1375.48 -7.10942 1380.38 -6.78753L1387.72 -6.36509L1391.39 -6.14733L1395.07 -6.05741L1409.77 -5.73667C1410.99 -5.71421 1412.22 -5.66566 1413.44 -5.67277L1417.12 -5.73667L1424.47 -5.86099C1434.28 -5.84911 1444.06 -6.61255 1453.86 -7.12739C1458.75 -7.47302 1463.61 -8.0507 1468.5 -8.50759L1475.81 -9.23683C1478.24 -9.52568 1480.66 -9.92231 1483.09 -10.2668L1497.64 -12.4049L1512.08 -15.2121C1514.49 -15.7165 1516.91 -16.074 1519.29 -16.6957L1526.43 -18.4696L1533.56 -20.24C1535.94 -20.8226 1538.33 -21.3921 1540.65 -22.1537L1554.72 -26.4409C1555.89 -26.8104 1557.08 -27.1148 1558.22 -27.5459L1561.67 -28.8074L1568.57 -31.3399L1575.47 -33.8723C1576.63 -34.2679 1577.75 -34.7642 1578.87 -35.2606L1582.25 -36.7236L1595.7 -42.5784Z" fill="#65BFFF"/>
</svg>
