<svg width="48" height="48" viewBox="0 0 48 48" fill="none" xmlns="http://www.w3.org/2000/svg">
<rect width="48" height="48" transform="matrix(-1 0 0 1 48 0)" fill="white" fill-opacity="0.2"/>
<path d="M19.2102 16.4387C19.7782 15.8808 19.7782 14.9763 19.2102 14.4184C18.6422 13.8605 17.7212 13.8605 17.1532 14.4184L8.42602 22.9898C7.85799 23.5477 7.85799 24.4523 8.42602 25.0102L17.1532 33.5816C17.7212 34.1395 18.6422 34.1395 19.2102 33.5816C19.7782 33.0237 19.7782 32.1192 19.2102 31.5613L12.966 25.4285H38.5294C39.3416 25.4285 40 24.789 40 24C40 23.211 39.3416 22.5714 38.5294 22.5714H12.9661L19.2102 16.4387Z" fill="white"/>
</svg>
